<svg width="21" height="24" viewBox="0 0 21 24" fill="none" xmlns="http://www.w3.org/2000/svg">
<g clip-path="url(#clip0_88_41886)">
<path d="M21 4.88665C21.0003 5.49894 20.7626 6.08637 20.3391 6.52026L17.1393 9.78157C17.0534 9.86243 16.9402 9.90625 16.8233 9.90386C16.7064 9.90148 16.595 9.85306 16.5124 9.76876C16.4297 9.68446 16.3823 9.57081 16.3799 9.45161C16.3776 9.33242 16.4205 9.21692 16.4998 9.12931L19.6996 5.86554C19.954 5.60563 20.0968 5.25329 20.0965 4.88602C20.0962 4.51875 19.9529 4.16664 19.698 3.90716C19.4432 3.64767 19.0978 3.50206 18.7377 3.50236C18.3777 3.50266 18.0324 3.64884 17.778 3.90875L14.5961 7.15412L14.5809 7.17252C14.4936 7.25238 14.3794 7.29457 14.2622 7.29021C14.145 7.28584 14.0341 7.23526 13.9528 7.14912C13.8714 7.06298 13.826 6.94801 13.8262 6.82841C13.8263 6.70882 13.8719 6.59394 13.9535 6.50799L17.1393 3.256C17.4555 2.93332 17.8585 2.71355 18.2972 2.62447C18.7359 2.53539 19.1906 2.58101 19.6039 2.75556C20.0172 2.93011 20.3704 3.22574 20.619 3.60508C20.8675 3.98441 20.9999 4.4304 21 4.88665Z" fill="#B0DAE4"/>
<path d="M12.3398 8.15039L15.5396 11.4142L3.86064 23.3247C3.65054 23.5389 3.40114 23.7087 3.12668 23.8246C2.85223 23.9404 2.55809 24 2.26106 23.9999C1.96403 23.9998 1.66994 23.94 1.39556 23.824C1.12118 23.7079 0.871892 23.5379 0.661933 23.3236C0.237901 22.8908 -0.000202904 22.3039 1.2974e-07 21.692C0.000100662 21.3891 0.0587041 21.0891 0.172464 20.8092C0.286225 20.5294 0.452914 20.2751 0.663015 20.0609L12.3398 8.15039Z" fill="#B0DAE4"/>
<path d="M11.7245 3.9229C11.368 3.9229 11.0149 3.85126 10.6855 3.71208C10.3561 3.57289 10.0568 3.36888 9.8047 3.11169C9.55261 2.85451 9.35265 2.5492 9.21625 2.21318C9.07985 1.87717 9.00967 1.51704 9.00974 1.15336V0H8.5584V1.15336C8.55846 1.51712 8.48826 1.87733 8.35179 2.21341C8.21533 2.54949 8.01529 2.85485 7.76309 3.11204C7.51089 3.36924 7.21148 3.57323 6.88197 3.71236C6.55246 3.85149 6.1993 3.92303 5.84267 3.9229H4.71191V4.38449H5.84267C6.19924 4.38437 6.55234 4.45589 6.8818 4.59497C7.21127 4.73406 7.51065 4.93798 7.76283 5.1951C8.01502 5.45221 8.21508 5.75749 8.35159 6.09348C8.48809 6.42947 8.55837 6.7896 8.5584 7.1533V8.30666H9.01094V7.1533C9.01094 6.41911 9.29679 5.71498 9.80565 5.19572C10.3145 4.67646 11.0047 4.38457 11.7245 4.38425H12.8553V3.9229H11.7245Z" fill="#B0DAE4"/>
<path d="M20.0689 15.7211C19.6689 15.7211 19.2853 15.5591 19.0024 15.2706C18.7196 14.982 18.5607 14.5908 18.5607 14.1827V13.5371H18.3095V14.1832C18.3094 14.5912 18.1504 14.9823 17.8676 15.2707C17.5848 15.5591 17.2012 15.7211 16.8013 15.7211H16.1738V15.9795H16.8013C17.2013 15.9795 17.5849 16.1416 17.8678 16.4301C18.1506 16.7186 18.3095 17.1099 18.3095 17.5179V18.1518H18.56V17.5184C18.56 17.3163 18.599 17.1162 18.6748 16.9295C18.7507 16.7428 18.8618 16.5732 19.002 16.4304C19.1421 16.2875 19.3084 16.1742 19.4915 16.0969C19.6746 16.0197 19.8708 15.9799 20.0689 15.98H20.6992V15.7211H20.0689Z" fill="#B0DAE4"/>
<path d="M5.11192 9.22934C4.79192 9.22934 4.48504 9.09968 4.25877 8.86888C4.0325 8.63809 3.90538 8.32507 3.90538 7.99868V7.49414H3.70642V7.99868C3.70642 8.16037 3.67518 8.32048 3.61448 8.46986C3.55379 8.61923 3.46483 8.75494 3.35269 8.86923C3.24055 8.98352 3.10743 9.07415 2.96094 9.13594C2.81444 9.19773 2.65744 9.22947 2.49892 9.22934H1.99609V9.43547H2.49892C2.65736 9.43547 2.81426 9.4673 2.96064 9.52915C3.10702 9.591 3.24003 9.68165 3.35207 9.79592C3.46411 9.9102 3.55298 10.0459 3.61361 10.1952C3.67425 10.3445 3.70545 10.5045 3.70545 10.6661V11.1768H3.90442V10.6755C3.90442 10.3491 4.03154 10.036 4.25781 9.80525C4.48408 9.57445 4.79096 9.44479 5.11096 9.44479H5.61474V9.22934H5.11192Z" fill="#B0DAE4"/>
</g>
<defs>
<clipPath id="clip0_88_41886">
<rect width="21" height="24" fill="white"/>
</clipPath>
</defs>
</svg>
