<svg width="34" height="34" viewBox="0 0 34 34" fill="none" xmlns="http://www.w3.org/2000/svg">
<g id="Icons">
<g id="Icons/QR/Filled">
<g id="Actions">
<mask id="mask0_2345_2075" style="mask-type:alpha" maskUnits="userSpaceOnUse" x="0" y="0" width="34" height="34">
<g id="mask 2">
<path id="Vector" d="M19.4024 27.1934C20.0789 27.1934 20.6249 27.7411 20.6249 28.4159V30.5236C20.6249 30.8643 20.9037 31.143 21.2444 31.143H23.3732C24.0481 31.143 24.5958 31.6907 24.5958 32.3656C24.5958 33.0404 24.0481 33.5881 23.3732 33.5881H21.2444C19.5556 33.5881 18.1799 32.2123 18.1799 30.5236V28.4159C18.1799 27.7411 18.7276 27.1934 19.4024 27.1934ZM32.4435 27.1936C33.1183 27.1936 33.666 27.7413 33.666 28.4161V30.5238C33.666 32.2125 32.2903 33.5883 30.6015 33.5883H28.4727C27.7978 33.5883 27.2501 33.0406 27.2501 32.3657C27.2501 31.6909 27.7978 31.1432 28.4727 31.1432H30.6015C30.9422 31.1432 31.2209 30.8645 31.2209 30.5238V28.4161C31.2209 27.7413 31.7686 27.1936 32.4435 27.1936ZM12.6794 18.3484C14.1171 18.3484 15.2859 19.5172 15.2859 20.9549V30.7352C15.2859 32.1729 14.1171 33.3433 12.6794 33.3433H2.8991C1.46139 33.3433 0.291016 32.1729 0.291016 30.7352V20.9549C0.291016 19.5172 1.46139 18.3484 2.8991 18.3484H12.6794ZM27.3352 23.726C27.7264 23.726 28.0427 24.0438 28.0427 24.4334V27.2583C28.0427 27.6495 27.7264 27.9657 27.3352 27.9657H24.512C24.1191 27.9657 23.8045 27.6495 23.8045 27.2583V24.4334C23.8045 24.0438 24.1191 23.726 24.512 23.726H27.3352ZM9.0933 23.8906H6.48522C6.12497 23.8906 5.8332 24.1824 5.8332 24.541V27.1507C5.8332 27.5109 6.12497 27.8011 6.48522 27.8011H9.0933C9.45191 27.8011 9.74532 27.5109 9.74532 27.1507V24.541C9.74532 24.1824 9.45191 23.8906 9.0933 23.8906ZM30.6017 18.1026C32.2904 18.1026 33.6662 19.4784 33.6662 21.1687V23.2764C33.6662 23.9512 33.1185 24.4989 32.4436 24.4989C31.7688 24.4989 31.2211 23.9512 31.2211 23.2764V21.1687C31.2211 20.8264 30.9424 20.5477 30.6017 20.5477H28.4728C27.798 20.5477 27.2503 20 27.2503 19.3251C27.2503 18.6503 27.798 18.1026 28.4728 18.1026H30.6017ZM23.3739 18.1023C24.0487 18.1023 24.5964 18.65 24.5964 19.3248C24.5964 19.9997 24.0487 20.5474 23.3739 20.5474H21.245C20.9043 20.5474 20.6256 20.8261 20.6256 21.1684V23.2761C20.6256 23.9509 20.0779 24.4986 19.4031 24.4986C18.7282 24.4986 18.1805 23.9509 18.1805 23.2761V21.1684C18.1805 19.478 19.5563 18.1023 21.245 18.1023H23.3739ZM12.6794 0.292157C14.1171 0.292157 15.2859 1.4609 15.2859 2.89861V12.6789C15.2859 14.1166 14.1171 15.287 12.6794 15.287H2.8991C1.46139 15.287 0.291016 14.1166 0.291016 12.6789V2.89861C0.291016 1.4609 1.46139 0.292157 2.8991 0.292157H12.6794ZM30.8131 0.291016C32.2508 0.291016 33.4212 1.46139 33.4212 2.8991V12.6794C33.4212 14.1171 32.2508 15.2859 30.8131 15.2859H21.0328C19.5951 15.2859 18.4263 14.1171 18.4263 12.6794V2.8991C18.4263 1.46139 19.5951 0.291016 21.0328 0.291016H30.8131ZM27.227 5.8332H24.6189C24.2603 5.8332 23.9669 6.12335 23.9669 6.48522V9.0933C23.9669 9.45191 24.2603 9.74532 24.6189 9.74532H27.227C27.5872 9.74532 27.879 9.45191 27.879 9.0933V6.48522C27.879 6.12335 27.5872 5.8332 27.227 5.8332ZM9.0933 5.83271H6.48522C6.12497 5.83271 5.8332 6.12449 5.8332 6.48473V9.09281C5.8332 9.45305 6.12497 9.74483 6.48522 9.74483H9.0933C9.45191 9.74483 9.74532 9.45305 9.74532 9.09281V6.48473C9.74532 6.12449 9.45191 5.83271 9.0933 5.83271Z" fill="white"/>
</g>
</mask>
<g mask="url(#mask0_2345_2075)">
<g id="Mask" filter="url(#filter0_b_2345_2075)">
<path d="M19.4024 27.1934C20.0789 27.1934 20.6249 27.7411 20.6249 28.4159V30.5236C20.6249 30.8643 20.9037 31.143 21.2444 31.143H23.3732C24.0481 31.143 24.5958 31.6907 24.5958 32.3656C24.5958 33.0404 24.0481 33.5881 23.3732 33.5881H21.2444C19.5556 33.5881 18.1799 32.2123 18.1799 30.5236V28.4159C18.1799 27.7411 18.7276 27.1934 19.4024 27.1934ZM32.4435 27.1936C33.1183 27.1936 33.666 27.7413 33.666 28.4161V30.5238C33.666 32.2125 32.2903 33.5883 30.6015 33.5883H28.4727C27.7978 33.5883 27.2501 33.0406 27.2501 32.3657C27.2501 31.6909 27.7978 31.1432 28.4727 31.1432H30.6015C30.9422 31.1432 31.2209 30.8645 31.2209 30.5238V28.4161C31.2209 27.7413 31.7686 27.1936 32.4435 27.1936ZM12.6794 18.3484C14.1171 18.3484 15.2859 19.5172 15.2859 20.9549V30.7352C15.2859 32.1729 14.1171 33.3433 12.6794 33.3433H2.8991C1.46139 33.3433 0.291016 32.1729 0.291016 30.7352V20.9549C0.291016 19.5172 1.46139 18.3484 2.8991 18.3484H12.6794ZM27.3352 23.726C27.7264 23.726 28.0427 24.0438 28.0427 24.4334V27.2583C28.0427 27.6495 27.7264 27.9657 27.3352 27.9657H24.512C24.1191 27.9657 23.8045 27.6495 23.8045 27.2583V24.4334C23.8045 24.0438 24.1191 23.726 24.512 23.726H27.3352ZM9.0933 23.8906H6.48522C6.12497 23.8906 5.8332 24.1824 5.8332 24.541V27.1507C5.8332 27.5109 6.12497 27.8011 6.48522 27.8011H9.0933C9.45191 27.8011 9.74532 27.5109 9.74532 27.1507V24.541C9.74532 24.1824 9.45191 23.8906 9.0933 23.8906ZM30.6017 18.1026C32.2904 18.1026 33.6662 19.4784 33.6662 21.1687V23.2764C33.6662 23.9512 33.1185 24.4989 32.4436 24.4989C31.7688 24.4989 31.2211 23.9512 31.2211 23.2764V21.1687C31.2211 20.8264 30.9424 20.5477 30.6017 20.5477H28.4728C27.798 20.5477 27.2503 20 27.2503 19.3251C27.2503 18.6503 27.798 18.1026 28.4728 18.1026H30.6017ZM23.3739 18.1023C24.0487 18.1023 24.5964 18.65 24.5964 19.3248C24.5964 19.9997 24.0487 20.5474 23.3739 20.5474H21.245C20.9043 20.5474 20.6256 20.8261 20.6256 21.1684V23.2761C20.6256 23.9509 20.0779 24.4986 19.4031 24.4986C18.7282 24.4986 18.1805 23.9509 18.1805 23.2761V21.1684C18.1805 19.478 19.5563 18.1023 21.245 18.1023H23.3739ZM12.6794 0.292157C14.1171 0.292157 15.2859 1.4609 15.2859 2.89861V12.6789C15.2859 14.1166 14.1171 15.287 12.6794 15.287H2.8991C1.46139 15.287 0.291016 14.1166 0.291016 12.6789V2.89861C0.291016 1.4609 1.46139 0.292157 2.8991 0.292157H12.6794ZM30.8131 0.291016C32.2508 0.291016 33.4212 1.46139 33.4212 2.8991V12.6794C33.4212 14.1171 32.2508 15.2859 30.8131 15.2859H21.0328C19.5951 15.2859 18.4263 14.1171 18.4263 12.6794V2.8991C18.4263 1.46139 19.5951 0.291016 21.0328 0.291016H30.8131ZM27.227 5.8332H24.6189C24.2603 5.8332 23.9669 6.12335 23.9669 6.48522V9.0933C23.9669 9.45191 24.2603 9.74532 24.6189 9.74532H27.227C27.5872 9.74532 27.879 9.45191 27.879 9.0933V6.48522C27.879 6.12335 27.5872 5.8332 27.227 5.8332ZM9.0933 5.83271H6.48522C6.12497 5.83271 5.8332 6.12449 5.8332 6.48473V9.09281C5.8332 9.45305 6.12497 9.74483 6.48522 9.74483H9.0933C9.45191 9.74483 9.74532 9.45305 9.74532 9.09281V6.48473C9.74532 6.12449 9.45191 5.83271 9.0933 5.83271Z" fill="#B0DAE4"/>
</g>
</g>
</g>
</g>
</g>
<defs>
<filter id="filter0_b_2345_2075" x="-48.709" y="-48.709" width="131.375" height="131.297" filterUnits="userSpaceOnUse" color-interpolation-filters="sRGB">
<feFlood flood-opacity="0" result="BackgroundImageFix"/>
<feGaussianBlur in="BackgroundImageFix" stdDeviation="24.5"/>
<feComposite in2="SourceAlpha" operator="in" result="effect1_backgroundBlur_2345_2075"/>
<feBlend mode="normal" in="SourceGraphic" in2="effect1_backgroundBlur_2345_2075" result="shape"/>
</filter>
</defs>
</svg>
