<svg width="32" height="26" viewBox="0 0 32 26" fill="none" xmlns="http://www.w3.org/2000/svg">
<path d="M29.5264 3.71349H2.02245C0.905387 3.71349 0 2.88254 0 1.85674C0 0.830953 0.905387 0 2.02245 0H29.5267C30.6437 0 31.5491 0.831436 31.5491 1.85674C31.5491 2.88205 30.644 3.71349 29.5264 3.71349Z" fill="#B0DAE4"/>
<path d="M18.2014 14.858H2.02245C0.905387 14.858 0 14.0266 0 13.0013C0 11.976 0.905387 11.1445 2.02245 11.1445H18.2014C19.3184 11.1445 20.2238 11.976 20.2238 13.0013C20.2238 14.0266 19.3184 14.858 18.2014 14.858Z" fill="#B0DAE4"/>
<path opacity="0.5" d="M29.5267 14.858H26.291C25.1739 14.858 24.2686 14.0266 24.2686 13.0013C24.2686 11.976 25.1739 11.1445 26.291 11.1445H29.5267C30.6438 11.1445 31.5492 11.976 31.5492 13.0013C31.5492 14.0266 30.6438 14.858 29.5267 14.858Z" fill="#B0DAE4"/>
<path d="M29.5264 26.0006H2.02245C0.905387 26.0006 0 25.1692 0 24.1439C0 23.1185 0.905387 22.2871 2.02245 22.2871H29.5267C30.6437 22.2871 31.5491 23.1181 31.5491 24.1439C31.5491 25.1696 30.644 26.0006 29.5264 26.0006Z" fill="#B0DAE4"/>
</svg>
