<svg width="40" height="40" viewBox="0 0 40 40" fill="none" xmlns="http://www.w3.org/2000/svg">
<path d="M34.833 30.9592V16.445C34.833 14.6662 33.3864 13.2197 31.6076 13.2197H26.7696V8.38162C26.7696 6.60283 25.323 5.15625 23.5442 5.15625H9.03006C7.25126 5.15625 5.80469 6.60283 5.80469 8.38162V22.8958C5.80469 24.6746 7.25126 26.1211 9.03006 26.1211H13.8681V30.9592C13.8681 32.738 15.3147 34.1846 17.0935 34.1846H31.6076C33.3864 34.1846 34.833 32.738 34.833 30.9592ZM9.03006 22.8958V8.38162H23.5442V13.2197H17.0935C15.3147 13.2197 13.8681 14.6662 13.8681 16.445V22.8958H9.03006ZM23.5458 22.8958H17.0935V16.445H23.5458V22.8958ZM17.0935 26.1211H23.5442C25.323 26.1211 26.7696 24.6746 26.7696 22.8958V16.445H31.6076L31.6092 30.9592H17.0935V26.1211Z" fill="#B0DAE4"/>
</svg>
