<svg height="53.642mm" viewBox="0 0 232.2139 152.0561" width="81.9199mm" xmlns="http://www.w3.org/2000/svg"><path d="m39.7276 0 181.62 52.8231a15.9575 15.9575 0 0 0 10.8664 19.78l-2.2161 7.6187a3.97 3.97 0 1 0 -2.2165 7.6208l-2.2164 7.6216a3.97 3.97 0 1 0 -2.2164 7.6206l-2.217 7.6212a3.97 3.97 0 1 0 -2.2159 7.6208l-2.217 7.6216a3.97 3.97 0 1 0 -2.2165 7.6206l-2.2164 7.6212a15.9581 15.9581 0 0 0 -19.78 10.8664l-181.6196-52.8236a15.9575 15.9575 0 0 0 -10.8662-19.7796l2.2164-7.6212a4.033 4.033 0 0 0 5.0312-2.67 4.0321 4.0321 0 0 0 -2.8147-4.951l2.2171-7.6212a3.97 3.97 0 1 0 2.2164-7.6206l2.2165-7.6213a3.97 3.97 0 1 0 2.2164-7.6206l2.2164-7.6217a3.97 3.97 0 1 0 2.2167-7.6206l2.2159-7.6187a15.9575 15.9575 0 0 0 19.7793-10.8665z" fill="#e6322f" fill-rule="evenodd"/><path d="m46.1818 16.991 160.6057 46.7115a8.4965 8.4965 0 0 1 5.7686 10.5l-16.0238 55.0933a8.4956 8.4956 0 0 1 -10.5 5.7688l-160.6058-46.711a8.4969 8.4969 0 0 1 -5.7689-10.5l16.0239-55.0936a8.4969 8.4969 0 0 1 10.5003-5.769z" fill="none" stroke="#e01e20" stroke-miterlimit="2.6131" stroke-width="8"/><g fill="#fff"><path d="m45.7626 77.6144c-.0293-1.1113-.0665-1.7959.87-5.0166l1.8074-6.2149c1.0683-3.6718.27-5.375-2.4424-6.164l-2.0602-.5989-4.6836 16.1018-5.9668-1.7353 11.503-39.5479 9.0039 2.6191c6.1836 1.7979 7.97 5.5655 6.1953 11.667l-.9038 3.1075c-1.1836 4.0673-3.1865 6.3037-6.2217 6.83l-.0332.1133c2.6045 2.167 2.7266 5.3887 1.5274 9.5127l-1.7745 6.1018a12.5926 12.5926 0 0 0 -.7466 4.9912zm3.3515-35.791-3.5332 12.1474 2.332.6778c2.2237.6464 3.876.0234 4.7959-3.14l1.1338-3.8974c.8218-2.8262.2608-4.337-1.8545-4.9522z"/><path d="m72.29 42.4376-8.874 30.5078c-.8218 2.8243.0756 4.1895 1.9741 4.7413s3.3887-.1182 4.21-2.9424l8.8749-30.5078 5.64 1.6406-8.7592 30.1123c-1.8408 6.3271-5.93 9.06-11.7871 7.3564s-7.8437-6.2041-6.0029-12.5312l8.7588-30.1123z"/><path d="m103.0238 61.9777-1.4956 5.1416c-1.8408 6.3271-5.7725 8.9218-11.7383 7.1855l-2.82-.82-4.3226 14.8591-5.9658-1.7354 11.5034-39.5478 8.7862 2.5556c5.9658 1.7354 7.893 6.0342 6.0527 12.3614zm-10.5161-7.5323-3.895 13.39 2.82.82c1.8984.5518 3.1919-.0518 4.0131-2.876l1.7256-5.9326c.8218-2.8252.0547-4.0283-1.8437-4.581z"/><path d="m106.8988 52.504 18.4424 5.3653-1.6431 5.6484-6.2381-1.8144-9.86 33.8984-5.9659-1.7354 9.86-33.8984-6.2383-1.8135z"/><path d="m133.639 60.2824-8.874 30.5076c-.8218 2.8252.0767 4.1894 1.9741 4.7412 1.8994.5527 3.3887-.1172 4.2105-2.9424l8.874-30.5078 5.6406 1.6406-8.7588 30.1123c-1.8408 6.3272-5.9306 9.0606-11.7881 7.3565s-7.8427-6.2041-6.0019-12.5313l8.7588-30.1123z"/><path d="m150.5047 108.0822c-.0293-1.1123-.0664-1.7969.87-5.0176l1.8076-6.2139c1.0683-3.6728.27-5.375-2.4414-6.164l-2.0606-.6-4.6836 16.1016-5.9668-1.7353 11.5035-39.5469 9.0039 2.6181c6.1826 1.7989 7.97 5.5655 6.1953 11.667l-.9038 3.1075c-1.1836 4.0683-3.1875 6.3046-6.2227 6.83l-.0332.1133c2.6057 2.168 2.7271 5.389 1.5271 9.514l-1.7749 6.1015a12.5905 12.5905 0 0 0 -.7456 4.9913zm3.3526-35.7911-3.5332 12.1465 2.332.6787c2.2227.6465 3.876.0235 4.7959-3.14l1.1338-3.8984c.8218-2.8252.2607-4.336-1.8545-4.9512z"/><path d="m172.4569 89.6505 8.19 2.3819-1.643 5.6494-8.1901-2.3818-3.3686 11.5811 10.3056 2.998-1.6435 5.65-16.2725-4.7334 11.5034-39.5478 16.2725 4.7334-1.6431 5.6494-10.3056-2.9978z"/><path d="m195.8045 114.7628-1.7421 5.9893-5.75-1.6729 1.7421-5.9892zm-4.2934-4.251 3.3979-14.5146 4.7984-16.4972 5.9668 1.7364-4.7984 16.496-4.9174 14.0723z"/></g></svg>