<svg height="55.8268mm" viewBox="0 0 278.6339 158.2492" width="98.2958mm" xmlns="http://www.w3.org/2000/svg"><path d="m74.739 158.0826c-5.2938 1.2821-10.98-5.0741-17.33-10.9343l-18.931-17.5466 27.7363-6.7172 27.7889-6.73-8.8051 24.2638c-2.966 8.1163-4.9552 16.3313-10.4595 17.6643z" fill="#e52528" fill-rule="evenodd"/><path d="m54.445 144.395-15.967-14.793 27.737-6.717 27.789-6.73-7.43 20.459z" fill="#b81919" fill-rule="evenodd"/><path d="m14.1181 56.32 230.4119-55.8016a18.5143 18.5143 0 0 1 22.2894 13.5981l11.2933 46.6318a18.4809 18.4809 0 0 1 -13.5976 22.2927l-230.4116 55.8015a18.5162 18.5162 0 0 1 -22.29-13.6015l-11.2935-46.6318a18.55 18.55 0 0 1 13.5981-22.2892z" fill="#e52528" fill-rule="evenodd"/><path d="m14.1181 56.32 230.4119-55.8016a18.5186 18.5186 0 0 1 22.2125 13.2808 11.9073 11.9073 0 0 0 -14.2573-8.4274l-243.2205 58.9034a11.9087 11.9087 0 0 0 -8.8216 14.0167 18.5553 18.5553 0 0 1 13.675-21.9719z" fill="#e8414d"/><g fill="#fff"><path d="m27.84 87.3591a2.0923 2.0923 0 0 1 .2588 1.3281q-.1567 1.5615-.3018 3.5625t-.2427 4.208q-.0959 2.2091-.1513 4.5108t-.0987 4.496q-.0432 2.1966-.05 4.1465t.0147 3.47a1.19 1.19 0 0 1 -.313.82 2.1872 2.1872 0 0 1 -1.2349.2593q-.9792-.0045-1.8681-.0313a9.5448 9.5448 0 0 1 -1.7207-.2017 2.2515 2.2515 0 0 1 -1.2793-.561 2.1333 2.1333 0 0 1 -.4688-1.2617q-.1949-1.1389-.3857-2.9751t-.356-4.0332q-.1633-2.1987-.2925-4.6416t-.2176-4.7947q-.0871-2.3511-.1005-4.4659t.02-3.7168a1.746 1.746 0 0 1 .602-1.3461 2.9755 2.9755 0 0 1 1.6738-.3116 17.0464 17.0464 0 0 1 2.5664.2041 16.2156 16.2156 0 0 1 2.5015.5591 3.0989 3.0989 0 0 1 1.4444.7763z"/><path d="m45.5846 89.1154q.082-4.3242.3008-8.0024a1.6727 1.6727 0 0 1 .5976-1.3613 3.2231 3.2231 0 0 1 1.7339-.378c.3765.0015.7139-.0005 1.0142-.0034a5.8855 5.8855 0 0 1 .8974.0581c.2974.043.6192.103.9629.1782q.5157.1158 1.2041.3247a2.1347 2.1347 0 0 1 1.4346.8965 2.82 2.82 0 0 1 .1787 1.4659q-.2556 2.5692-.43 5.7958t-.3076 6.5459q-.1347 3.3193-.231 6.4766t-.1328 5.5391q.0755 1.2693-1.938 1.34a26.1621 26.1621 0 0 1 -3.5429-.04 3.7215 3.7215 0 0 1 -2.6631-1.4014q-.734-.8775-1.5625-2.07t-1.7232-2.5908q-.8949-1.3953-1.8208-2.9224t-1.7841-3.085q.0806 2.0831.1435 4.168.0615 2.0881.1182 3.9878.0572 1.9022.123 3.5308.0675 1.6266.1626 2.8247a.9862.9862 0 0 1 -.2993.7993 2.3239 2.3239 0 0 1 -1.2641.2139q-.9.011-1.8208.0092a6.8906 6.8906 0 0 1 -1.8467-.2573 2.253 2.253 0 0 1 -1.2442-.5684 2.3083 2.3083 0 0 1 -.5039-1.2524q-.1332-.884-.3545-2.5254-.22-1.6436-.4365-3.7436t-.4301-4.5069q-.213-2.4068-.37-4.81-.156-2.4017-.2573-4.649t-.1045-4.0083a1.6228 1.6228 0 0 1 .6035-1.415 3.1963 3.1963 0 0 1 1.7481-.397q1.4.0411 2.73.0982a22.4017 22.4017 0 0 1 2.8179.3135 3.4758 3.4758 0 0 1 1.8135.6723 4.5325 4.5325 0 0 1 1.1142 1.6841q.3985.8907 1.0254 2.2651.627 1.377 1.3829 2.9761.7544 1.6 1.5688 3.2886t1.5937 3.23q-.2856-4.3704-.2016-8.6944z"/><path d="m56.734 78.1154a24.7467 24.7467 0 0 1 3.6836-1.8217 23.634 23.634 0 0 1 4.1636-1.2256 15.6164 15.6164 0 0 1 4.3384-.2495 12.7494 12.7494 0 0 1 4.1875 1.09 11.0807 11.0807 0 0 1 3.7119 2.8144 10.2034 10.2034 0 0 1 2.1435 3.4908 12.24 12.24 0 0 1 .7339 4.2822 15.8323 15.8323 0 0 1 -.7739 4.7417 18.7327 18.7327 0 0 1 -2.3687 4.832 23.9972 23.9972 0 0 1 -4.05 4.5528 28.55 28.55 0 0 1 -5.8 3.9179 5.4257 5.4257 0 0 1 -3.8759.6143 19.602 19.602 0 0 1 -1.9532-.4688c-.5669-.1709-1.2207-.3925-1.9629-.6694-.2832-.1362-.5532-.269-.8095-.4009a2.9653 2.9653 0 0 1 -.7-.4951 2.1512 2.1512 0 0 1 -.5078-.7944 5.2125 5.2125 0 0 1 -.2764-1.3238l-2.7689-20.8634a23.8962 23.8962 0 0 1 2.8848-2.0235zm11.0171 18.1626a17.7281 17.7281 0 0 0 2.5317-3.9057 13.4049 13.4049 0 0 0 1.1455-3.7281 10.9157 10.9157 0 0 0 .0245-3.2255 5.42 5.42 0 0 0 -1.2207-2.93 4.04 4.04 0 0 0 -2.63-1.1045 6.6836 6.6836 0 0 0 -3.8848 1.0561q-.25 4.5-.2393 8.8184t.1094 8.7a20.0872 20.0872 0 0 0 4.1637-3.6807z"/><path d="m90.0094 72.6125a2.0843 2.0843 0 0 1 .2588 1.3281q-.156 1.5609-.3013 3.562t-.2422 4.2085q-.0958 2.2091-.1518 4.51t-.0987 4.4961q-.0439 2.1972-.05 4.1465-.0087 1.951.0142 3.4707a1.1918 1.1918 0 0 1 -.313.82 2.1881 2.1881 0 0 1 -1.2353.2588q-.9786-.0044-1.8682-.0313a9.55 9.55 0 0 1 -1.72-.2016 2.2538 2.2538 0 0 1 -1.28-.5606 2.1426 2.1426 0 0 1 -.4683-1.2617q-.1941-1.14-.3862-2.9756-.19-1.8354-.3555-4.0332-.1634-2.1987-.2925-4.6416t-.2163-4.7944q-.0879-2.3511-.1-4.4663-.0147-2.1153.02-3.7163a1.7447 1.7447 0 0 1 .6015-1.3467 2.9807 2.9807 0 0 1 1.6739-.3111 16.9712 16.9712 0 0 1 2.5664.2037 16.2057 16.2057 0 0 1 2.5014.559 3.0877 3.0877 0 0 1 1.4431.777z"/><path d="m93.2994 90.5222a6.6925 6.6925 0 0 1 1.4263-.4063 7.3452 7.3452 0 0 1 1.4409-.104 4.7449 4.7449 0 0 1 1.3106.2144 20.6732 20.6732 0 0 0 5.7158.8808 4.26 4.26 0 0 0 3.167-.9887.4.4 0 0 0 .0156-.6475 3.2683 3.2683 0 0 0 -1.0908-.64q-.77-.3075-1.8809-.6381-1.1125-.3282-2.3418-.6812t-2.4677-.7368a21.5047 21.5047 0 0 1 -2.2872-.8462 10.8075 10.8075 0 0 1 -2.103-1.1792 7.12 7.12 0 0 1 -1.6484-1.6421 6.5185 6.5185 0 0 1 -.9917-2.1206 6.89 6.89 0 0 1 -.1592-2.5723 10.2159 10.2159 0 0 1 .5293-2.5991 18.6248 18.6248 0 0 1 1.2192-2.8647 19.7214 19.7214 0 0 1 1.7525-2.7539 17.0606 17.0606 0 0 1 2.1157-2.3321 7.5849 7.5849 0 0 1 1.0063-.8315 6.99 6.99 0 0 1 1.417-.76 9.4374 9.4374 0 0 1 1.7959-.5107 9.9791 9.9791 0 0 1 2.126-.1484 29.0133 29.0133 0 0 1 3.5.4922 11.4652 11.4652 0 0 1 3.0654 1.0351 5.0737 5.0737 0 0 1 1.3624.9131 4.59 4.59 0 0 1 .8125 1.0454 4.8992 4.8992 0 0 1 .4394 1.0645c.0957.35.1816.686.2578 1.0053a17.6847 17.6847 0 0 1 .0938 1.979q-.0059 1.0848-.0791 2.2036t-.2364 2.1744a15.95 15.95 0 0 1 -.3867 1.854 1.7964 1.7964 0 0 1 -.664 1.0053 2.0774 2.0774 0 0 1 -1.3116.1748q-5.2053-.3918-5.4809-3.14a6.6893 6.6893 0 0 1 -.0689-1.3213q.0236-.77.0489-1.5376.0234-.7676.01-1.46a3.3875 3.3875 0 0 0 -.166-1.0952c-.1011-.27-.252-.4033-.4517-.4018s-.4931.1972-.8779.581a7.7118 7.7118 0 0 0 -1.0752 1.1709 11.9915 11.9915 0 0 0 -1.0576 1.64 10.5668 10.5668 0 0 0 -.794 1.8833 5.72 5.72 0 0 0 -.2832 1.8969 3.8347 3.8347 0 0 0 .4385 1.6915 2.8185 2.8185 0 0 0 1.383 1.2316 19.2494 19.2494 0 0 0 2.6836 1.0923q1.4444.47 2.88.8921t2.7236.8628a10.1454 10.1454 0 0 1 2.1968 1.02 3.5333 3.5333 0 0 1 1.2984 1.3525 2.3552 2.3552 0 0 1 .04 1.8379 8.7571 8.7571 0 0 1 -.6538 1.68 7.0763 7.0763 0 0 1 -1.37 1.833 10.9815 10.9815 0 0 1 -2.3349 1.7231 14.2561 14.2561 0 0 1 -3.5513 1.35 15.5981 15.5981 0 0 1 -5.7685.4029 19.4507 19.4507 0 0 1 -6.3907-2.06q-1.81-.8239-2.0195-1.3857a1.1 1.1 0 0 1 .4478-1.1226 7.9807 7.9807 0 0 1 1.2726-.6561z"/><path d="m122.8678 87.0505q.0292 1.79.1323 3.4922a1.141 1.141 0 0 1 -.3384.792 2.3688 2.3688 0 0 1 -1.2451.2954q-.9792-.0045-1.9-.0073a7.3265 7.3265 0 0 1 -1.6772-.1778 2.5939 2.5939 0 0 1 -1.2153-.6089 1.6839 1.6839 0 0 1 -.4444-1.3188 12.4043 12.4043 0 0 0 -.0293-2.7383q-.1669-1.8911-.5054-4.2681t-.7182-4.93q-.3793-2.5533-.669-4.7217t-.3608-3.66q-.0711-1.489.2466-1.7349 1.2-.9624 2.6728-2.0419 1.4736-1.0765 3.0836-2.0524a35.7136 35.7136 0 0 1 3.2852-1.7622 18.8705 18.8705 0 0 1 3.3037-1.2065 11.3854 11.3854 0 0 1 3.1225-.3848 6.1163 6.1163 0 0 1 2.7378.6885 23.0156 23.0156 0 0 1 2.8448 2.0874 10.9672 10.9672 0 0 1 2.3945 3.0425 4.9356 4.9356 0 0 1 .5654 1.8305 5.0943 5.0943 0 0 1 -.1455 1.7622 7.9486 7.9486 0 0 1 -.6816 1.7217 17.5519 17.5519 0 0 1 -1.043 1.7041 19.7426 19.7426 0 0 1 -2.3975 2.8057 34.881 34.881 0 0 1 -3.2275 2.7988 43.8247 43.8247 0 0 1 -3.7969 2.6118q-2.0186 1.2429-4.0312 2.2608.0066 1.9312.0371 3.72zm4.06-12.91a16.5715 16.5715 0 0 0 2.586-2.8838 7.5848 7.5848 0 0 0 1.2021-2.539 2.1859 2.1859 0 0 0 -.1972-1.7827c-.1319-.24-.4341-.3765-.9053-.4126a5.275 5.275 0 0 0 -1.7149.22 14.218 14.218 0 0 0 -2.2094.83 16.2163 16.2163 0 0 0 -2.397 1.3813q-.16 1.8684-.2334 3.8511t-.1289 4.1318a21.035 21.035 0 0 0 3.9985-2.7966z"/><path d="m158.7926 57.5339a8.7938 8.7938 0 0 1 1.5054 2.3032 21.5882 21.5882 0 0 1 1.3842 5.0435 25.7605 25.7605 0 0 1 .2437 5.7031 23.8674 23.8674 0 0 1 -1.0635 5.6577 15.3942 15.3942 0 0 1 -2.5747 4.915 8.4563 8.4563 0 0 1 -2.6728 2.0411 12.2054 12.2054 0 0 1 -3.5606.9965q-1.3835.192-2.8711.2569a11.3727 11.3727 0 0 1 -2.792-.2022 10.5489 10.5489 0 0 1 -2.1591-.707 5.811 5.811 0 0 1 -1.8409-1.2583 12.2962 12.2962 0 0 1 -2.0722-3.0322 16.6781 16.6781 0 0 1 -1.32-3.8218 20.4976 20.4976 0 0 1 -.459-4.3135 21.0911 21.0911 0 0 1 .4736-4.5014 21.4447 21.4447 0 0 1 1.457-4.3951 19 19 0 0 1 2.4839-4.03 9.5143 9.5143 0 0 1 2.6592-2.02 8.5229 8.5229 0 0 1 3.2388-1.0053 22.7322 22.7322 0 0 1 4.0742-.0181 11.7322 11.7322 0 0 1 3.3926.7544 7.0677 7.0677 0 0 1 2.4733 1.6335zm-8.981 3.8921a11.146 11.146 0 0 0 -1.3452 2.5727 23.6651 23.6651 0 0 0 -1.0136 3.41 25.6006 25.6006 0 0 0 -.542 3.5 17.576 17.576 0 0 0 .03 3.2978 17.07 17.07 0 0 0 .5733 3.0489 7.1289 7.1289 0 0 0 1.0644 2.2719 1.9908 1.9908 0 0 0 1.5352.9244 1.9157 1.9157 0 0 0 1.498-.66 6.7506 6.7506 0 0 0 1.2642-1.96 14.4078 14.4078 0 0 0 .9272-2.9824 24.1871 24.1871 0 0 0 .461-3.6846 24.9012 24.9012 0 0 0 -.041-3.4985 22.458 22.458 0 0 0 -.5186-3.4526 9.9764 9.9764 0 0 0 -.9883-2.6626q-.6078-1.0584-1.3657-1.083a1.8646 1.8646 0 0 0 -1.5389.958z"/><path d="m179.0362 57.4606q.0828-4.3242.3013-8.0029a1.67 1.67 0 0 1 .5977-1.3608 3.2216 3.2216 0 0 1 1.7334-.3784c.3764.0019.7143 0 1.0146-.003a5.8931 5.8931 0 0 1 .897.0581c.2978.043.6186.1031.9634.1783q.5148.1157 1.2041.3247a2.1333 2.1333 0 0 1 1.4341.8964 2.81 2.81 0 0 1 .1787 1.4659q-.2556 2.5686-.4292 5.7959t-.3086 6.5459q-.1334 3.3194-.23 6.4765t-.1333 5.5391q.0747 1.2693-1.9375 1.34a26.2437 26.2437 0 0 1 -3.543-.0405 3.7225 3.7225 0 0 1 -2.6631-1.4014q-.7353-.8781-1.5625-2.07t-1.7233-2.5903q-.895-1.3953-1.8213-2.9229t-1.7837-3.0849q.0805 2.0836.1426 4.1684.063 2.0881.1191 3.9878.0557 1.9022.1231 3.53t.1626 2.8252a.9852.9852 0 0 1 -.2993.7988 2.32 2.32 0 0 1 -1.2642.2144q-.9.0109-1.8208.0092a6.9072 6.9072 0 0 1 -1.8467-.2573 2.2585 2.2585 0 0 1 -1.2441-.5683 2.3037 2.3037 0 0 1 -.5039-1.2525q-.1333-.8839-.3545-2.5254-.2212-1.6435-.437-3.7441t-.43-4.5068q-.2132-2.406-.37-4.81-.156-2.4017-.2569-4.6489t-.1049-4.0083a1.6228 1.6228 0 0 1 .604-1.4151 3.1912 3.1912 0 0 1 1.748-.3974q1.4.041 2.73.0986a22.401 22.401 0 0 1 2.8184.3135 3.4757 3.4757 0 0 1 1.8134.6723 4.5248 4.5248 0 0 1 1.1133 1.6836q.3984.8907 1.0264 2.2652.627 1.3769 1.3818 2.976t1.57 3.2886q.8137 1.6882 1.5933 3.23-.2864-4.3692-.2025-8.6932z"/><path d="m197.3766 47.1452a2.0936 2.0936 0 0 1 .2588 1.3281q-.1567 1.5609-.3018 3.5621t-.2427 4.208q-.0959 2.21-.1513 4.5107t-.0987 4.4961q-.0432 2.1964-.05 4.146-.0072 1.952.0147 3.4707a1.1921 1.1921 0 0 1 -.313.82 2.1918 2.1918 0 0 1 -1.2349.2588q-.9792-.0043-1.8681-.0313a9.5448 9.5448 0 0 1 -1.7207-.2016 2.2525 2.2525 0 0 1 -1.2793-.5611 2.1328 2.1328 0 0 1 -.4688-1.2617q-.1948-1.1388-.3857-2.9751t-.356-4.0332q-.1639-2.1987-.2925-4.6416t-.2167-4.7949q-.0879-2.3511-.1006-4.4663t.02-3.7158a1.7449 1.7449 0 0 1 .602-1.3467 2.9836 2.9836 0 0 1 1.6739-.3115 17.0353 17.0353 0 0 1 2.5664.2041 16.1935 16.1935 0 0 1 2.5014.5591 3.094 3.094 0 0 1 1.4436.7771z"/><path d="m220.7145 56.3166a6.5484 6.5484 0 0 1 1.7207 2.1006 3.8733 3.8733 0 0 1 .1543 2.5552 7.0522 7.0522 0 0 1 -1.4895 2.4376 14.6759 14.6759 0 0 1 -1.8535 1.9311 25.3141 25.3141 0 0 1 -2.38 1.8521q-1.2773.88-2.5972 1.65-1.3212.7684-2.5327 1.3623-.64.3216-1.104.5a4.6482 4.6482 0 0 1 -.9175.2505 4.14 4.14 0 0 1 -.91.0469 6.4357 6.4357 0 0 1 -1.0952-.1807 13.9233 13.9233 0 0 1 -2.0781-.4394q-.9105-.2746-2.1539-.76c-.3212-.1938-.6044-.3588-.85-.4926a2.5211 2.5211 0 0 1 -.6172-.4629 2.2153 2.2153 0 0 1 -.413-.6314 3.57 3.57 0 0 1 -.2359-.9951q-.3654-2.0135-.6772-4.6-.3135-2.5869-.6182-5.3779t-.689-5.5977q-.3844-2.8066-.8989-5.2949a23.66 23.66 0 0 1 2.835-1.9927 38.53 38.53 0 0 1 3.4834-1.8774 35.5713 35.5713 0 0 1 3.7876-1.543 26.0312 26.0312 0 0 1 3.7671-.9946 15.04 15.04 0 0 1 3.4179-.2515 6.6062 6.6062 0 0 1 2.7559.6846 12.6214 12.6214 0 0 1 2.6528 1.9126 9.4755 9.4755 0 0 1 1.9356 2.6934 4.4755 4.4755 0 0 1 .4077 1.8012 6.1231 6.1231 0 0 1 -.2617 1.8228 7.6707 7.6707 0 0 1 -.7852 1.7632 14.8543 14.8543 0 0 1 -1.1514 1.6455q-.7163.7793-1.4658 1.5849a14.9919 14.9919 0 0 1 -1.8291 1.6367 6.0229 6.0229 0 0 1 2.6862 1.2606zm-12.6846 7.06q-.01 1.3067.0454 2.6494a24.41 24.41 0 0 0 3.1411-1.813 16.4181 16.4181 0 0 0 2.3008-1.8672 6.1469 6.1469 0 0 0 1.272-1.6909 1.4308 1.4308 0 0 0 .0884-1.2915 1.5893 1.5893 0 0 0 -.8487-.41 4.5635 4.5635 0 0 0 -1.5068-.0151 9.3547 9.3547 0 0 0 -2.0532.5381 16.97 16.97 0 0 0 -2.4644 1.1777q.0337 1.415.0255 2.7221zm3.7578-10.9395a20.6974 20.6974 0 0 0 2.5791-2.5952 8.2449 8.2449 0 0 0 1.3711-2.2236 1.8325 1.8325 0 0 0 .104-1.4644 1.1342 1.1342 0 0 0 -.9311-.4394 4.8753 4.8753 0 0 0 -1.6934.2314 12.9887 12.9887 0 0 0 -2.2432.9224 19.8054 19.8054 0 0 0 -2.6186 1.6372 26.8314 26.8314 0 0 0 -.1694 3.09q.0028 1.5945-.0928 3.4111a23.81 23.81 0 0 0 3.6943-2.5699z"/><path d="m237.4547 62.8688q-2.2713.9646-4.3154 1.8541a7.8549 7.8549 0 0 1 -1.2627.5371 3.6643 3.6643 0 0 1 -.9365.1713 2.88 2.88 0 0 1 -.7085-.0527 4.842 4.842 0 0 1 -.5845-.1665 12.0818 12.0818 0 0 1 -1.2744-.459q-.5859-.2513-1.541-.6338a3.4176 3.4176 0 0 1 -1.1656-.7924 2.0413 2.0413 0 0 1 -.5009-1.3213q-.1912-1.2759-.3487-3.0528-.1575-1.7747-.2739-3.8486t-.1953-4.3091q-.0785-2.2338-.083-4.47-.0037-2.2345.0478-4.3159.0513-2.0793.1621-3.8345a1.7125 1.7125 0 0 1 .6446-1.3213 3.2743 3.2743 0 0 1 1.6816-.28 21.7552 21.7552 0 0 1 2.5557.1563 13.2151 13.2151 0 0 1 2.49.5117 3.5062 3.5062 0 0 1 1.4072.7842 1.6463 1.6463 0 0 1 .2154 1.3037q-.2549 2.0947-.4365 4.5781-.1817 2.4815-.3331 5.0943t-.2343 5.19q-.0843 2.5788-.128 4.9268 1.5754-.6446 2.97-1.1109 1.3916-.4657 3.042-.96a4.2324 4.2324 0 0 1 1.54-.2452 2.0291 2.0291 0 0 1 1.1294.5625 6.5551 6.5551 0 0 1 .9712 1.0049 7.5862 7.5862 0 0 1 .68 1.043q.4078.6146.3379.87-.0726.2527-1.1294.7085-2.1519.9152-4.4232 1.8775z"/><path d="m246.1012 33.5544q1.7754-.83 3.7471-1.6348 1.9688-.8056 4.0659-1.5576 2.0955-.7523 4.2153-1.3227a2.4962 2.4962 0 0 1 2.9336.7959 6.1815 6.1815 0 0 1 .9717 1.2446q.3252.5831.6787 1.2788.34.8.124 1.1567a2.4837 2.4837 0 0 1 -1.2178.7285q-2.0814.7325-4.3061 1.4961-2.2244.7655-4.6748 1.6856-.1912 1.57-.2847 3.2363t-.26 3.5015q1.0371-.3809 2.09-.6988t2.2549-.6372a4.7445 4.7445 0 0 1 1.6035-.21 1.88 1.88 0 0 1 1.1592.6064 6.323 6.323 0 0 1 .958 1.11q.3809.5706.71 1.17.46.6709.2891.9824a2.57 2.57 0 0 1 -1.12.7407q-2.0516.8592-4.2 1.7081t-4.1211 1.7231q-.041 1.0927-.0723 2.0679-.0336.9711-.1045 1.938 1.6122-.6526 3.086-1.1724t3.2314-1.0376a4.1976 4.1976 0 0 1 1.5782-.2383 1.9511 1.9511 0 0 1 1.125.5469 7.1814 7.1814 0 0 1 .9443 1.0469q.3648.5061.7861 1.0161.33.6.21.8818-.1216.2842-1.0449.6719-2.1857.925-4.4356 1.9t-4.3013 1.833a5.24 5.24 0 0 1 -2.1186.6553 4.6268 4.6268 0 0 1 -1.3818-.1983q-.6885-.2079-1.3272-.4467-.64-.2374-1.5234-.6377a3.4269 3.4269 0 0 1 -1.1944-.836 2.6348 2.6348 0 0 1 -.6172-1.4121l-1.6806-22.1391q1.4469-.7138 3.2243-1.5432z"/></g></svg>