<svg width="29" height="30" viewBox="0 0 29 30" fill="none" xmlns="http://www.w3.org/2000/svg">
<path d="M14.3996 2.4375C11.0912 2.4375 8.39961 5.17116 8.39961 8.53125C8.39961 11.8913 11.0912 14.625 14.3996 14.625C17.708 14.625 20.3996 11.8913 20.3996 8.53125C20.3996 5.17116 17.708 2.4375 14.3996 2.4375ZM14.3996 12.1875C12.4148 12.1875 10.7996 10.5471 10.7996 8.53125C10.7996 6.51544 12.4148 4.875 14.3996 4.875C16.3844 4.875 17.9996 6.51544 17.9996 8.53125C17.9996 10.5471 16.3844 12.1875 14.3996 12.1875ZM25.1996 25.5938V24.375C25.1996 19.6718 21.4304 15.8438 16.7996 15.8438H11.9996C7.36761 15.8438 3.59961 19.6718 3.59961 24.375V25.5938H5.99961V24.375C5.99961 21.0149 8.69121 18.2812 11.9996 18.2812H16.7996C20.108 18.2812 22.7996 21.0149 22.7996 24.375V25.5938H25.1996Z" fill="#31C7E0"/>
</svg>
