<svg width="32" height="32" viewBox="0 0 32 32" fill="none" xmlns="http://www.w3.org/2000/svg">
<path d="M26.6193 3.96094H5.32401C3.85597 3.96094 2.66211 5.14526 2.66211 6.60156V14.5234V25.0859C2.66211 26.5422 3.85597 27.7266 5.32401 27.7266H26.6193C28.0873 27.7266 29.2812 26.5422 29.2812 25.0859V14.5234V6.60156C29.2812 5.14526 28.0873 3.96094 26.6193 3.96094ZM26.6206 11.8828C26.6192 11.8828 26.6192 11.8828 26.6206 11.8828H26.0017L22.452 6.60156H26.6193L26.6206 11.8828ZM12.6922 11.8828L9.14252 6.60156H12.5977L16.1473 11.8828H12.6922ZM19.3469 11.8828L15.7973 6.60156H19.2524L22.8021 11.8828H19.3469ZM5.32401 6.60156H5.94291L9.49256 11.8828H5.32401V6.60156ZM5.32401 25.0859V14.5234H26.6193L26.6219 25.0859H5.32401Z" fill="#31C7E0"/>
<path d="M13.3086 23.7656L20.6288 19.8047L13.3086 15.8438V23.7656Z" fill="#B0DAE4"/>
</svg>
