<svg width="245" height="32" viewBox="0 0 245 32" fill="none" xmlns="http://www.w3.org/2000/svg">
<g id="Slogan">
<g id="DARK">
<g id="Group">
<g id="Group_2">
<path id="Vector" d="M244.652 0H0V3.12783H244.652V0Z" fill="url(#paint0_linear_2910_2369)"/>
</g>
<g id="Group_3">
<path id="Vector_2" d="M27.1155 12.8996C27.3635 12.9433 27.5863 13.0775 27.7406 13.2761C27.8949 13.4747 27.9696 13.7235 27.9502 13.9741V14.0074C27.9555 14.177 27.9204 14.3455 27.8479 14.4989C27.7753 14.6524 27.6674 14.7865 27.5329 14.8904C27.4004 14.996 27.2445 15.0685 27.0783 15.1018C26.912 15.1351 26.7402 15.1283 26.5771 15.082C26.0098 14.9373 25.4265 14.8645 24.8409 14.8654C23.0023 14.8654 21.2391 15.5942 19.939 16.8916C18.6389 18.1889 17.9086 19.9485 17.9086 21.7833C17.9086 23.618 18.6389 25.3776 19.939 26.675C21.2391 27.9723 23.0023 28.7011 24.8409 28.7011C25.4259 28.7007 26.0087 28.6308 26.5771 28.4929C26.7405 28.4471 26.9126 28.441 27.0788 28.475C27.2451 28.5091 27.4008 28.5823 27.5329 28.6887C27.6686 28.7904 27.7775 28.9236 27.8502 29.0767C27.9229 29.2298 27.9572 29.3982 27.9502 29.5675V29.5924C27.971 29.8447 27.897 30.0956 27.7428 30.2964C27.5885 30.4973 27.365 30.6338 27.1155 30.6795C26.3675 30.8657 25.5994 30.9594 24.8284 30.9585C22.3932 30.9585 20.0577 29.9932 18.3358 28.2748C16.6139 26.5565 15.6465 24.2259 15.6465 21.7958C15.6465 19.3657 16.6139 17.0351 18.3358 15.3167C20.0577 13.5984 22.3932 12.633 24.8284 12.633C25.5988 12.6281 26.367 12.7176 27.1155 12.8996Z" fill="url(#paint1_linear_2910_2369)"/>
<path id="Vector_3" d="M40.7927 27.59C40.8006 27.1303 40.7131 26.6739 40.5357 26.2495C40.3583 25.8252 40.0948 25.4421 39.7618 25.1244C39.1791 24.5124 38.3823 24.1484 37.5373 24.1081H33.5682V29.8515C33.5682 29.9973 33.5393 30.1418 33.4833 30.2764C33.4272 30.4111 33.3451 30.5334 33.2416 30.6364C33.138 30.7393 33.0151 30.8208 32.88 30.8762C32.7448 30.9317 32.6 30.9599 32.4538 30.9594H32.4288C32.135 30.9561 31.854 30.8385 31.6459 30.6316C31.4377 30.4246 31.3188 30.1447 31.3145 29.8515V17.0153C31.3156 15.8492 31.7803 14.7312 32.6065 13.9066C33.4328 13.082 34.5532 12.6183 35.7218 12.6172H37.3119C38.4497 12.6193 39.5614 12.9577 40.5067 13.5897C41.4519 14.2217 42.1885 15.1188 42.6233 16.1681C43.0582 17.2173 43.1719 18.3716 42.9501 19.4852C42.7283 20.5988 42.1809 21.622 41.377 22.4255C41.1807 22.6224 40.9716 22.806 40.751 22.9753C40.9751 23.148 41.187 23.3359 41.3853 23.5375C41.9265 24.0632 42.3539 24.694 42.6411 25.391C42.9282 26.0881 43.069 26.8365 43.0548 27.59V29.8515C43.0577 29.9972 43.0299 30.1418 42.9731 30.276C42.9163 30.4102 42.8318 30.5309 42.7251 30.6303C42.624 30.7361 42.5022 30.8199 42.3671 30.8765C42.2321 30.9332 42.0869 30.9613 41.9404 30.9594H41.9154C41.7697 30.9608 41.6252 30.9323 41.4909 30.8757C41.3567 30.8191 41.2355 30.7356 41.1349 30.6303C41.0282 30.5309 40.9437 30.4102 40.8869 30.276C40.8301 30.1418 40.8023 29.9972 40.8052 29.8515L40.7927 27.59ZM37.291 21.8508C38.2175 21.8508 39.1061 21.4835 39.7612 20.8297C40.4163 20.176 40.7843 19.2893 40.7843 18.3647C40.7843 17.4402 40.4163 16.5535 39.7612 15.8998C39.1061 15.246 38.2175 14.8787 37.291 14.8787H35.8845C35.5798 14.865 35.2754 14.9116 34.9888 15.016C34.7023 15.1204 34.4393 15.2804 34.2151 15.4868C33.8966 15.7919 33.6832 16.19 33.6058 16.6238C33.5765 16.7887 33.5639 16.9562 33.5682 17.1236V21.8508H37.291Z" fill="url(#paint2_linear_2910_2369)"/>
<path id="Vector_4" d="M48.6391 20.6481H54.8535C54.9991 20.647 55.1434 20.6748 55.2781 20.7298C55.4128 20.7849 55.5352 20.8661 55.6382 20.9688C55.7446 21.0711 55.8288 21.1942 55.8855 21.3303C55.9422 21.4664 55.9703 21.6128 55.9679 21.7602V21.7852C55.9706 21.9332 55.9427 22.0803 55.886 22.2171C55.8293 22.354 55.7449 22.4778 55.6382 22.5807C55.535 22.6828 55.4125 22.7634 55.2778 22.8177C55.1431 22.8721 54.9988 22.8991 54.8535 22.8972H48.6391V26.8538C48.6391 27.3398 48.8325 27.806 49.1769 28.1496C49.5213 28.4933 49.9884 28.6864 50.4754 28.6864H54.8535C55.1502 28.6897 55.4336 28.8096 55.6423 29.0201C55.8509 29.2307 55.9679 29.5148 55.9679 29.8109V29.8359C55.9708 29.9815 55.943 30.1262 55.8862 30.2604C55.8294 30.3946 55.7449 30.5153 55.6382 30.6147C55.5368 30.7201 55.4149 30.8036 55.28 30.8602C55.145 30.9168 54.9999 30.9452 54.8535 30.9438H50.4754C49.9369 30.9449 49.4035 30.8398 48.9057 30.6347C48.408 30.4295 47.9557 30.1283 47.5749 29.7483C47.1941 29.3683 46.8923 28.917 46.6867 28.4203C46.4811 27.9236 46.3759 27.3912 46.377 26.8538V16.6915C46.3759 16.1541 46.4811 15.6218 46.6867 15.125C46.8923 14.6283 47.1941 14.177 47.5749 13.797C47.9557 13.417 48.408 13.1158 48.9057 12.9107C49.4035 12.7055 49.9369 12.6005 50.4754 12.6016H54.8535C54.9998 12.6011 55.1446 12.6299 55.2794 12.6864C55.4142 12.743 55.5362 12.826 55.6382 12.9306C55.745 13.0308 55.8295 13.1523 55.8863 13.2872C55.9431 13.4221 55.9709 13.5673 55.9679 13.7136V13.7386C55.9668 14.0344 55.8495 14.3179 55.6411 14.5282C55.4327 14.7385 55.1499 14.8587 54.8535 14.8631H50.4754C49.9891 14.8631 49.5227 15.0556 49.1784 15.3984C48.8341 15.7412 48.6402 16.2062 48.6391 16.6915V20.6481Z" fill="url(#paint3_linear_2910_2369)"/>
<path id="Vector_5" d="M71.163 29.8505C71.1659 29.9962 71.1381 30.1408 71.0813 30.275C71.0245 30.4092 70.94 30.5299 70.8333 30.6294C70.7322 30.7351 70.6104 30.8189 70.4754 30.8756C70.3403 30.9322 70.1951 30.9604 70.0486 30.9584H70.0111C69.8653 30.9598 69.7209 30.9313 69.5866 30.8747C69.4524 30.8181 69.3312 30.7346 69.2306 30.6294C69.1239 30.5299 69.0394 30.4092 68.9826 30.275C68.9258 30.1408 68.898 29.9962 68.9009 29.8505V24.0197H61.4969V29.8505C61.4991 29.9964 61.4705 30.1412 61.413 30.2754C61.3554 30.4095 61.2703 30.5301 61.1631 30.6294C61.0628 30.735 60.9417 30.8188 60.8073 30.8754C60.673 30.932 60.5284 30.9603 60.3826 30.9584H60.345C60.1987 30.9599 60.0535 30.9314 59.9186 30.8749C59.7837 30.8183 59.6618 30.7347 59.5604 30.6294C59.4537 30.5299 59.3692 30.4092 59.3124 30.275C59.2556 30.1408 59.2277 29.9962 59.2307 29.8505V18.5678C59.2718 17.0161 59.9184 15.5417 61.0328 14.4586C62.1472 13.3756 63.6413 12.7695 65.1968 12.7695C66.7524 12.7695 68.2465 13.3756 69.3608 14.4586C70.4752 15.5417 71.1219 17.0161 71.163 18.5678V29.8505ZM68.9009 21.7873V18.5678C68.9009 17.5881 68.5109 16.6484 67.8166 15.9556C67.1224 15.2628 66.1807 14.8736 65.1989 14.8736C64.2171 14.8736 63.2755 15.2628 62.5812 15.9556C61.887 16.6484 61.4969 17.5881 61.4969 18.5678V21.7915L68.9009 21.7873Z" fill="url(#paint4_linear_2910_2369)"/>
<path id="Vector_6" d="M85.4376 13.7542C85.4381 13.9004 85.4097 14.0453 85.3539 14.1804C85.2981 14.3156 85.216 14.4384 85.1124 14.5418C85.0088 14.6452 84.8858 14.727 84.7503 14.7827C84.6149 14.8384 84.4697 14.8668 84.3232 14.8663H80.9843V29.8599C80.9879 30.0045 80.9615 30.1482 80.907 30.2822C80.8524 30.4162 80.7708 30.5376 80.6672 30.6387C80.5637 30.7448 80.4397 30.8287 80.3026 30.8853C80.1655 30.9419 80.0183 30.9699 79.87 30.9677H79.845C79.6988 30.9683 79.554 30.94 79.4188 30.8846C79.2837 30.8292 79.1608 30.7476 79.0572 30.6447C78.9537 30.5418 78.8716 30.4195 78.8155 30.2848C78.7595 30.1501 78.7306 30.0057 78.7306 29.8599V14.8663H75.3917C75.2452 14.8668 75.1001 14.8384 74.9646 14.7827C74.8292 14.727 74.7061 14.6452 74.6025 14.5418C74.4989 14.4384 74.4169 14.3156 74.3611 14.1804C74.3053 14.0453 74.2768 13.9004 74.2774 13.7542V13.7293C74.2763 13.5829 74.3043 13.4378 74.3599 13.3024C74.4155 13.167 74.4976 13.0439 74.6013 12.9405C74.705 12.837 74.8283 12.7551 74.964 12.6996C75.0997 12.6441 75.2451 12.6161 75.3917 12.6172H84.3483C84.4949 12.6161 84.6403 12.6441 84.776 12.6996C84.9117 12.7551 85.035 12.837 85.1387 12.9405C85.2424 13.0439 85.3244 13.167 85.3801 13.3024C85.4357 13.4378 85.4637 13.5829 85.4626 13.7293L85.4376 13.7542Z" fill="url(#paint5_linear_2910_2369)"/>
<path id="Vector_7" d="M90.7917 20.6481H97.0061C97.1523 20.6481 97.297 20.6769 97.432 20.7329C97.5669 20.7888 97.6895 20.8708 97.7926 20.9741C97.8958 21.0774 97.9775 21.2 98.033 21.3349C98.0886 21.4698 98.1169 21.6143 98.1163 21.7602V21.7852C98.1174 21.9311 98.0895 22.0759 98.0341 22.211C97.9788 22.3462 97.8971 22.469 97.7939 22.5725C97.6906 22.6759 97.5678 22.7578 97.4326 22.8136C97.2974 22.8693 97.1524 22.8977 97.0061 22.8972H90.7917V26.8538C90.7917 27.3398 90.9851 27.806 91.3295 28.1496C91.6739 28.4933 92.141 28.6864 92.628 28.6864H97.0061C97.1519 28.685 97.2963 28.7134 97.4306 28.77C97.5648 28.8266 97.686 28.9102 97.7866 29.0154C97.8933 29.1183 97.9777 29.242 98.0344 29.3789C98.0911 29.5158 98.119 29.6628 98.1163 29.8109V29.8359C98.1193 29.9815 98.0914 30.1262 98.0346 30.2604C97.9778 30.3945 97.8933 30.5153 97.7866 30.6147C97.686 30.72 97.5648 30.8035 97.4306 30.8601C97.2963 30.9167 97.1519 30.9452 97.0061 30.9437H92.628C92.0895 30.9443 91.5561 30.8389 91.0583 30.6336C90.5606 30.4283 90.1083 30.1271 89.7273 29.7473C89.3463 29.3675 89.044 28.9164 88.8378 28.4199C88.6315 27.9234 88.5254 27.3913 88.5254 26.8538V16.6915C88.5254 16.154 88.6315 15.6219 88.8378 15.1254C89.044 14.6289 89.3463 14.1778 89.7273 13.798C90.1083 13.4182 90.5606 13.117 91.0583 12.9117C91.5561 12.7064 92.0895 12.601 92.628 12.6016H97.0061C97.1517 12.6011 97.2959 12.6301 97.43 12.6866C97.5641 12.7431 97.6854 12.8261 97.7866 12.9306C97.8934 13.0308 97.9779 13.1523 98.0347 13.2872C98.0915 13.422 98.1193 13.5673 98.1163 13.7136V13.7386C98.1142 14.0333 97.9971 14.3156 97.7898 14.5256C97.5825 14.7355 97.3014 14.8566 97.0061 14.8631H92.628C92.1417 14.8631 91.6753 15.0556 91.331 15.3984C90.9867 15.7411 90.7928 16.2062 90.7917 16.6915V20.6481Z" fill="url(#paint6_linear_2910_2369)"/>
<path id="Vector_8" d="M122.587 30.616L121.01 28.7126C120.216 29.5037 119.276 30.1344 118.242 30.5702C117.305 30.8993 116.315 31.056 115.321 31.0325C113.03 31.0325 111.427 30.4119 110.375 29.2374C109.566 28.3818 109.118 27.2485 109.123 26.0721C109.123 23.9605 110.375 22.1779 113.91 20.4287C112.12 18.3462 111.682 17.0593 111.682 16.0222C111.68 15.5504 111.786 15.0843 111.991 14.6593C112.196 14.2343 112.496 13.8615 112.867 13.5691C113.651 12.8985 114.816 12.5195 116.444 12.5195C118.071 12.5195 119.111 12.911 119.845 13.6066C120.213 13.9402 120.504 14.3484 120.701 14.8038C120.898 15.2593 120.994 15.7513 120.984 16.2471C120.982 16.9104 120.777 17.5571 120.396 18.1005C120.016 18.6627 119.173 19.4083 117.178 20.6411L120.872 25.4807C121.218 24.8887 121.529 24.2768 121.802 23.6481C121.9 23.3842 122.096 23.1687 122.35 23.0473C122.605 22.9259 122.896 22.9084 123.163 22.9984C123.298 23.0317 123.424 23.0927 123.534 23.1777C123.643 23.2627 123.734 23.3696 123.8 23.4917C123.865 23.6137 123.905 23.7481 123.915 23.8863C123.925 24.0244 123.907 24.1632 123.86 24.2937C123.759 24.6095 123.64 24.9195 123.505 25.2224C123.202 25.8545 122.814 26.4429 122.353 26.9717L123.639 28.521C124.532 29.5956 124.348 30.9742 123.309 30.9742C123.17 30.9726 123.032 30.9396 122.907 30.8775C122.782 30.8155 122.673 30.7261 122.587 30.616ZM111.644 25.9513C111.629 26.3969 111.709 26.8407 111.878 27.2534C112.047 27.6662 112.301 28.0385 112.625 28.3461C112.966 28.6618 113.367 28.9065 113.804 29.066C114.241 29.2254 114.706 29.2964 115.171 29.2749C116.527 29.2749 117.675 28.7626 119.49 27.2716L115 21.7739C112.708 22.9234 111.644 24.3978 111.644 25.9513ZM114.019 16.0347C114.063 16.7616 114.372 17.4474 114.887 17.963L116.185 19.4541L117.654 18.3295C118.376 17.7923 118.906 17.1217 118.906 16.2763C118.906 14.9227 117.904 14.0772 116.423 14.0772C115.02 14.0772 114.019 14.7894 114.019 16.0347Z" fill="url(#paint7_linear_2910_2369)"/>
<path id="Vector_9" d="M140.575 12.6172C143.01 12.6172 145.345 13.5826 147.067 15.3009C148.789 17.0193 149.757 19.3499 149.757 21.78C149.757 24.2101 148.789 26.5407 147.067 28.259C145.345 29.9774 143.01 30.9427 140.575 30.9427H138.743C137.925 30.9405 137.142 30.6156 136.564 30.0388C135.986 29.4621 135.66 28.6805 135.658 27.8649V15.6951C135.657 15.2904 135.735 14.8894 135.89 14.5153C136.044 14.1411 136.271 13.8011 136.558 13.515C136.845 13.2289 137.185 13.0022 137.56 12.8481C137.935 12.694 138.337 12.6156 138.743 12.6172H140.575ZM137.908 27.8815C137.902 27.9923 137.92 28.103 137.96 28.2065C138 28.31 138.062 28.404 138.14 28.4824C138.219 28.5609 138.313 28.6221 138.417 28.662C138.521 28.702 138.631 28.7199 138.743 28.7145H140.591C142.43 28.7145 144.193 27.9857 145.493 26.6883C146.793 25.391 147.524 23.6314 147.524 21.7966C147.524 19.9619 146.793 18.2023 145.493 16.9049C144.193 15.6076 142.43 14.8788 140.591 14.8788H138.743C138.633 14.8768 138.524 14.8972 138.423 14.9388C138.322 14.9803 138.23 15.0421 138.154 15.1203C138.002 15.2778 137.918 15.4888 137.92 15.7076L137.908 27.8815Z" fill="url(#paint8_linear_2910_2369)"/>
<path id="Vector_10" d="M154.603 12.6172C154.896 12.6148 155.178 12.7286 155.387 12.9338C155.494 13.037 155.578 13.1608 155.635 13.2976C155.691 13.4343 155.719 13.5812 155.717 13.7293V29.8515C155.72 29.9972 155.692 30.1418 155.635 30.276C155.579 30.4102 155.494 30.5309 155.387 30.6304C155.286 30.7361 155.165 30.82 155.03 30.8766C154.895 30.9332 154.749 30.9614 154.603 30.9594C154.456 30.9614 154.311 30.9332 154.176 30.8766C154.041 30.82 153.919 30.7361 153.818 30.6304C153.712 30.5309 153.627 30.4102 153.57 30.276C153.513 30.1418 153.486 29.9972 153.488 29.8515V13.7293C153.486 13.5812 153.514 13.4343 153.571 13.2976C153.628 13.1608 153.712 13.037 153.818 12.9338C154.027 12.7286 154.31 12.6148 154.603 12.6172Z" fill="url(#paint9_linear_2910_2369)"/>
<path id="Vector_11" d="M164.816 14.8379C164.436 14.8368 164.06 14.9106 163.709 15.0551C163.358 15.1995 163.039 15.4118 162.771 15.6796C162.503 15.9475 162.29 16.2656 162.145 16.6158C162 16.966 161.926 17.3413 161.928 17.72C161.917 18.1756 162.036 18.6248 162.27 19.0161C162.504 19.4073 162.844 19.7247 163.251 19.9316C164.233 20.353 165.248 20.6956 166.285 20.9562C167.349 21.2146 168.345 21.6974 169.206 22.3722C170.087 23.1719 170.529 24.3047 170.529 25.7791C170.526 27.1518 169.978 28.4673 169.005 29.4376C168.032 30.4079 166.713 30.9539 165.337 30.9561H160.667C160.373 30.9528 160.092 30.8352 159.884 30.6283C159.676 30.4213 159.557 30.1414 159.553 29.8482V29.7732C159.556 29.4793 159.674 29.1983 159.883 28.9905C160.091 28.7827 160.373 28.6645 160.667 28.6612H165.454C165.834 28.6618 166.209 28.5876 166.56 28.4429C166.911 28.2983 167.229 28.086 167.498 27.8183C167.766 27.5506 167.979 27.2326 168.124 26.8827C168.269 26.5328 168.343 26.1577 168.342 25.7791C168.346 25.3232 168.225 24.875 167.992 24.483C167.758 24.091 167.422 23.7701 167.019 23.5551C166.04 23.1036 165.025 22.733 163.985 22.4472C162.923 22.1582 161.929 21.6597 161.064 20.9811C160.618 20.5668 160.269 20.0602 160.04 19.4968C159.812 18.9335 159.709 18.327 159.741 17.72C159.739 17.0399 159.873 16.3662 160.133 15.7376C160.394 15.109 160.776 14.5379 161.258 14.0569C161.74 13.576 162.312 13.1947 162.942 12.9349C163.572 12.6751 164.247 12.542 164.928 12.5431H168.221C168.37 12.5409 168.517 12.5689 168.654 12.6255C168.791 12.6821 168.915 12.766 169.018 12.8721C169.122 12.9733 169.204 13.0946 169.258 13.2286C169.313 13.3626 169.339 13.5064 169.336 13.651V13.7259C169.337 13.8723 169.309 14.0174 169.253 14.1528C169.197 14.2882 169.115 14.4112 169.012 14.5147C168.908 14.6182 168.785 14.7001 168.649 14.7555C168.513 14.811 168.368 14.839 168.221 14.8379H164.816Z" fill="url(#paint10_linear_2910_2369)"/>
<path id="Vector_12" d="M176.239 24.8531V29.851C176.242 29.9966 176.214 30.1413 176.157 30.2755C176.1 30.4096 176.016 30.5304 175.909 30.6298C175.808 30.7356 175.686 30.8194 175.551 30.876C175.416 30.9326 175.271 30.9608 175.125 30.9588H175.087C174.941 30.9602 174.797 30.9318 174.662 30.8752C174.528 30.8186 174.407 30.7351 174.306 30.6298C174.2 30.5304 174.115 30.4096 174.058 30.2755C174.002 30.1413 173.974 29.9966 173.977 29.851V18.7349C173.978 17.526 174.338 16.3445 175.011 15.3397C175.685 14.3349 176.642 13.5519 177.761 13.0896C178.88 12.6274 180.112 12.5066 181.3 12.7427C182.488 12.9787 183.579 13.5609 184.436 14.4158C185.293 15.2706 185.876 16.3596 186.113 17.5452C186.349 18.7309 186.228 19.9598 185.765 21.0769C185.302 22.1939 184.517 23.1488 183.51 23.821C182.503 24.4931 181.319 24.8523 180.108 24.8531H176.239ZM176.239 22.5957H180.108C180.875 22.5974 181.626 22.3717 182.265 21.9471C182.904 21.5226 183.402 20.9184 183.697 20.2111C183.991 19.5037 184.069 18.7251 183.919 17.9738C183.77 17.2225 183.401 16.5323 182.858 15.9906C182.315 15.449 181.623 15.0804 180.87 14.9313C180.118 14.7823 179.337 14.8596 178.628 15.1535C177.92 15.4474 177.314 15.9446 176.889 16.5822C176.463 17.2197 176.237 17.9689 176.239 18.7349V22.5957Z" fill="url(#paint11_linear_2910_2369)"/>
<path id="Vector_13" d="M192.081 26.8695C192.081 27.3555 192.274 27.8216 192.619 28.1653C192.963 28.509 193.43 28.702 193.917 28.702H197.477C197.625 28.6994 197.772 28.7273 197.908 28.7839C198.045 28.8405 198.168 28.9247 198.27 29.0311C198.377 29.1338 198.462 29.2574 198.52 29.3942C198.577 29.531 198.606 29.6782 198.604 29.8265V29.8515C198.606 29.9975 198.578 30.1422 198.52 30.2764C198.463 30.4105 198.377 30.5311 198.27 30.6304C198.168 30.7368 198.045 30.8209 197.908 30.8775C197.772 30.9342 197.625 30.962 197.477 30.9594H193.917C193.379 30.9599 192.845 30.8546 192.347 30.6493C191.85 30.444 191.397 30.1428 191.016 29.763C190.635 29.3831 190.333 28.9321 190.127 28.4356C189.921 27.9391 189.814 27.4069 189.814 26.8695V13.7293C189.813 13.5829 189.841 13.4378 189.897 13.3024C189.953 13.167 190.035 13.0439 190.138 12.9405C190.242 12.837 190.365 12.7551 190.501 12.6996C190.637 12.6441 190.782 12.6161 190.929 12.6172H190.966C191.113 12.6167 191.258 12.6451 191.393 12.7008C191.529 12.7564 191.652 12.8383 191.756 12.9417C191.859 13.0451 191.941 13.1679 191.997 13.303C192.053 13.4382 192.081 13.5831 192.081 13.7293V26.8695Z" fill="url(#paint12_linear_2910_2369)"/>
<path id="Vector_14" d="M213.259 29.8505C213.261 29.9964 213.232 30.1412 213.175 30.2754C213.117 30.4095 213.032 30.5301 212.925 30.6294C212.825 30.735 212.703 30.8188 212.569 30.8754C212.435 30.932 212.29 30.9603 212.144 30.9584H212.107C211.96 30.9599 211.815 30.9314 211.68 30.8749C211.545 30.8183 211.424 30.7347 211.322 30.6294C211.216 30.5295 211.132 30.4086 211.075 30.2745C211.018 30.1405 210.99 29.9961 210.992 29.8505V24.0197H203.588V29.8505C203.591 29.9962 203.564 30.1408 203.507 30.275C203.45 30.4092 203.365 30.5299 203.259 30.6294C203.158 30.7351 203.036 30.8189 202.901 30.8756C202.766 30.9322 202.621 30.9604 202.474 30.9584H202.441C202.294 30.9604 202.149 30.9322 202.014 30.8756C201.879 30.8189 201.757 30.7351 201.656 30.6294C201.549 30.5299 201.465 30.4092 201.408 30.275C201.351 30.1408 201.323 29.9962 201.326 29.8505V18.5678C201.368 17.0161 202.014 15.5417 203.129 14.4586C204.243 13.3756 205.737 12.7695 207.293 12.7695C208.848 12.7695 210.342 13.3756 211.457 14.4586C212.571 15.5417 213.218 17.0161 213.259 18.5678V29.8505ZM210.992 21.7873V18.5678C210.992 17.5881 210.602 16.6484 209.908 15.9556C209.214 15.2628 208.272 14.8736 207.29 14.8736C206.309 14.8736 205.367 15.2628 204.673 15.9556C203.978 16.6484 203.588 17.5881 203.588 18.5678V21.7915L210.992 21.7873Z" fill="url(#paint13_linear_2910_2369)"/>
<path id="Vector_15" d="M229.013 19.1504C229.012 20.532 228.529 21.8702 227.646 22.9345C226.763 23.9988 225.536 24.7225 224.176 24.9812V29.8333C224.179 29.979 224.151 30.1236 224.094 30.2578C224.037 30.392 223.953 30.5127 223.846 30.6122C223.746 30.7178 223.625 30.8016 223.491 30.8582C223.356 30.9149 223.212 30.9431 223.066 30.9412H223.049C222.903 30.9427 222.758 30.9143 222.623 30.8577C222.488 30.8011 222.366 30.7175 222.264 30.6122C222.158 30.5127 222.073 30.392 222.016 30.2578C221.96 30.1236 221.932 29.979 221.935 29.8333V24.9979C220.575 24.7398 219.348 24.0161 218.465 22.9516C217.583 21.8871 217.101 20.5485 217.102 19.1671V13.7527C217.099 13.6047 217.128 13.4578 217.184 13.321C217.241 13.1842 217.325 13.0604 217.431 12.9572C217.641 12.7521 217.923 12.6382 218.216 12.6407H218.249C218.543 12.6382 218.825 12.7521 219.034 12.9572C219.14 13.0604 219.224 13.1842 219.281 13.321C219.338 13.4578 219.366 13.6047 219.364 13.7527V19.1671C219.364 20.1468 219.754 21.0865 220.448 21.7793C221.142 22.4721 222.084 22.8613 223.066 22.8613C224.048 22.8613 224.989 22.4721 225.683 21.7793C226.378 21.0865 226.768 20.1468 226.768 19.1671V13.7527C226.767 13.6065 226.796 13.4617 226.851 13.3265C226.907 13.1913 226.989 13.0685 227.093 12.9651C227.196 12.8618 227.32 12.7799 227.455 12.7242C227.59 12.6685 227.736 12.6401 227.882 12.6407H227.92C228.066 12.6396 228.212 12.6676 228.347 12.7231C228.483 12.7786 228.606 12.8604 228.71 12.9639C228.814 13.0674 228.896 13.1904 228.951 13.3258C229.007 13.4613 229.035 13.6064 229.034 13.7527L229.013 19.1504Z" fill="url(#paint14_linear_2910_2369)"/>
</g>
<g id="Group_4">
<path id="Vector_16" d="M244.652 0H0V3.12783H244.652V0Z" fill="url(#paint15_linear_2910_2369)"/>
</g>
</g>
</g>
</g>
<defs>
<linearGradient id="paint0_linear_2910_2369" x1="-47.4663" y1="-29.3958" x2="256.326" y2="26.2342" gradientUnits="userSpaceOnUse">
<stop stop-color="#426EB6"/>
<stop offset="0.47" stop-color="#4A8AAF"/>
<stop offset="1" stop-color="#54AFA7"/>
</linearGradient>
<linearGradient id="paint1_linear_2910_2369" x1="-53.7855" y1="5.97751" x2="242.679" y2="65.8795" gradientUnits="userSpaceOnUse">
<stop stop-color="#6795CE"/>
<stop offset="0.69" stop-color="#5BB1B4"/>
<stop offset="1" stop-color="#55C0A7"/>
</linearGradient>
<linearGradient id="paint2_linear_2910_2369" x1="-53.3804" y1="3.98336" x2="243.084" y2="63.8895" gradientUnits="userSpaceOnUse">
<stop stop-color="#6795CE"/>
<stop offset="0.69" stop-color="#5BB1B4"/>
<stop offset="1" stop-color="#55C0A7"/>
</linearGradient>
<linearGradient id="paint3_linear_2910_2369" x1="-52.7042" y1="0.619179" x2="243.76" y2="60.5253" gradientUnits="userSpaceOnUse">
<stop stop-color="#6795CE"/>
<stop offset="0.69" stop-color="#5BB1B4"/>
<stop offset="1" stop-color="#55C0A7"/>
</linearGradient>
<linearGradient id="paint4_linear_2910_2369" x1="-52.292" y1="-1.41947" x2="244.173" y2="58.4867" gradientUnits="userSpaceOnUse">
<stop stop-color="#6795CE"/>
<stop offset="0.69" stop-color="#5BB1B4"/>
<stop offset="1" stop-color="#55C0A7"/>
</linearGradient>
<linearGradient id="paint5_linear_2910_2369" x1="-51.5482" y1="-5.10022" x2="244.917" y2="54.8059" gradientUnits="userSpaceOnUse">
<stop stop-color="#6795CE"/>
<stop offset="0.69" stop-color="#5BB1B4"/>
<stop offset="1" stop-color="#55C0A7"/>
</linearGradient>
<linearGradient id="paint6_linear_2910_2369" x1="-51.0565" y1="-7.53152" x2="245.408" y2="52.3747" gradientUnits="userSpaceOnUse">
<stop stop-color="#6795CE"/>
<stop offset="0.69" stop-color="#5BB1B4"/>
<stop offset="1" stop-color="#55C0A7"/>
</linearGradient>
<linearGradient id="paint7_linear_2910_2369" x1="-50.2248" y1="-11.6327" x2="246.24" y2="48.2735" gradientUnits="userSpaceOnUse">
<stop stop-color="#6795CE"/>
<stop offset="0.69" stop-color="#5BB1B4"/>
<stop offset="1" stop-color="#55C0A7"/>
</linearGradient>
<linearGradient id="paint8_linear_2910_2369" x1="-49.2824" y1="-16.2955" x2="247.178" y2="43.6108" gradientUnits="userSpaceOnUse">
<stop stop-color="#6795CE"/>
<stop offset="0.69" stop-color="#5BB1B4"/>
<stop offset="1" stop-color="#55C0A7"/>
</linearGradient>
<linearGradient id="paint9_linear_2910_2369" x1="-48.7149" y1="-19.1234" x2="247.751" y2="40.7833" gradientUnits="userSpaceOnUse">
<stop stop-color="#6795CE"/>
<stop offset="0.69" stop-color="#5BB1B4"/>
<stop offset="1" stop-color="#55C0A7"/>
</linearGradient>
<linearGradient id="paint10_linear_2910_2369" x1="-48.3217" y1="-21.0676" x2="248.143" y2="38.8387" gradientUnits="userSpaceOnUse">
<stop stop-color="#6795CE"/>
<stop offset="0.69" stop-color="#5BB1B4"/>
<stop offset="1" stop-color="#55C0A7"/>
</linearGradient>
<linearGradient id="paint11_linear_2910_2369" x1="-47.8039" y1="-23.622" x2="248.661" y2="36.2841" gradientUnits="userSpaceOnUse">
<stop stop-color="#6795CE"/>
<stop offset="0.69" stop-color="#5BB1B4"/>
<stop offset="1" stop-color="#55C0A7"/>
</linearGradient>
<linearGradient id="paint12_linear_2910_2369" x1="-47.2416" y1="-26.4078" x2="249.223" y2="33.4983" gradientUnits="userSpaceOnUse">
<stop stop-color="#6795CE"/>
<stop offset="0.69" stop-color="#5BB1B4"/>
<stop offset="1" stop-color="#55C0A7"/>
</linearGradient>
<linearGradient id="paint13_linear_2910_2369" x1="-46.7394" y1="-28.8952" x2="249.725" y2="31.0108" gradientUnits="userSpaceOnUse">
<stop stop-color="#6795CE"/>
<stop offset="0.69" stop-color="#5BB1B4"/>
<stop offset="1" stop-color="#55C0A7"/>
</linearGradient>
<linearGradient id="paint14_linear_2910_2369" x1="-45.9437" y1="-32.8274" x2="250.521" y2="27.0788" gradientUnits="userSpaceOnUse">
<stop stop-color="#6795CE"/>
<stop offset="0.69" stop-color="#5BB1B4"/>
<stop offset="1" stop-color="#55C0A7"/>
</linearGradient>
<linearGradient id="paint15_linear_2910_2369" x1="-46.0473" y1="-32.3154" x2="250.417" y2="27.5908" gradientUnits="userSpaceOnUse">
<stop stop-color="#6795CE"/>
<stop offset="0.69" stop-color="#5BB1B4"/>
<stop offset="1" stop-color="#55C0A7"/>
</linearGradient>
</defs>
</svg>
