<svg height="74.846mm" viewBox="0 0 221.838 212.1619" width="78.2595mm" xmlns="http://www.w3.org/2000/svg" xmlns:xlink="http://www.w3.org/1999/xlink"><linearGradient id="a" gradientUnits="userSpaceOnUse" x1="110.919" x2="110.919" y2="212.1619"><stop offset="0" stop-color="#feeb17"/><stop offset="1" stop-color="#ffcc07"/></linearGradient><path d="m221.838 106.081c0 11.1975-15.6607 19.7829-18.9412 29.8869-3.4 10.472 4.105 26.6006-2.2388 35.3171-6.407 8.8038-24.108 6.6179-32.9116 13.025-8.7165 6.3436-12.072 23.8881-22.5441 27.2883-10.1039 3.2808-23.0856-8.8338-34.2833-8.8338s-24.179 12.1146-34.2831 8.8338c-10.4721-3.4-13.8276-20.9447-22.5441-27.2883-8.8038-6.4071-26.5048-4.2212-32.9118-13.025-6.3436-8.7165 1.1617-24.8451-2.2386-35.3169-3.2807-10.104-18.9414-18.6894-18.9414-29.8871s15.6607-19.783 18.9414-29.8869c3.4-10.4721-4.105-26.6005 2.2386-35.3172 6.407-8.8037 24.108-6.6179 32.9118-13.0249 8.7165-6.3436 12.072-23.8882 22.5439-27.2883 10.1043-3.2809 23.0856 8.8338 34.2833 8.8338s24.1792-12.1147 34.2832-8.834c10.472 3.4 13.8277 20.9449 22.5442 27.2885 8.8036 6.4072 26.5046 4.2213 32.9118 13.0249 6.3436 8.7166-1.1617 24.8451 2.2384 35.317 3.2807 10.104 18.9414 18.6894 18.9414 29.8871z" fill="url(#a)"/><g fill="#1d1d1b"><path d="m50.7473 91.33q.8275.1552 1.917.3105t2.2285.2334q1.14.0777 2.2548.0782 1.1133 0 2.0469-.0518a9.5742 9.5742 0 0 0 3.499-.8037 3.0185 3.0185 0 0 0 1.6583-1.6066 2.3878 2.3878 0 0 0 -.4668-2.1513 8.5148 8.5148 0 0 0 -2.9278-2.3838 17.2481 17.2481 0 0 1 -4.5872-3.5243 8.3151 8.3151 0 0 1 -1.8916-4.9239 8.04 8.04 0 0 1 .2588-2.98 10.4682 10.4682 0 0 1 1.1406-2.7207 11.5632 11.5632 0 0 1 3.0576-3.499 19.1259 19.1259 0 0 1 4.25-2.4619 27.127 27.127 0 0 1 4.8721-1.5283 40.58 40.58 0 0 1 4.8193-.752 36.8128 36.8128 0 0 1 5.1055-.1552q2.41.1039 5.1045.3623l-2.694 10.5737a17.3817 17.3817 0 0 0 -2.2032-.3369 20.5054 20.5054 0 0 0 -2.7207-.0781 23.2557 23.2557 0 0 0 -2.7207.26 8.2015 8.2015 0 0 0 -2.2031.6221 8.61 8.61 0 0 0 -2.5137 1.9951 4.1 4.1 0 0 0 -1.0625 2.9278 2.2442 2.2442 0 0 0 .752 1.6591 9.7787 9.7787 0 0 0 1.7881 1.3477 22.2377 22.2377 0 0 0 2.0986 1.1142 9.5916 9.5916 0 0 1 1.6846.9581q.8276.6225 1.71 1.2441a10.1994 10.1994 0 0 1 1.5811 1.374 5.2652 5.2652 0 0 1 1.0625 1.6836 4.2818 4.2818 0 0 1 .207 2.125 6.6568 6.6568 0 0 1 -.4668 1.711 9.9575 9.9575 0 0 1 -.8291 1.6064 14.44 14.44 0 0 1 -5.416 4.4316 25.9869 25.9869 0 0 1 -7.0478 2.2022 38.5572 38.5572 0 0 1 -7.6192.4922 46.5171 46.5171 0 0 1 -7.126-.751z"/><path d="m104.3889 61.8915a14.9534 14.9534 0 0 1 6.9453 1.3994 11.6236 11.6236 0 0 1 4.5869 3.9912 13.6833 13.6833 0 0 1 2.0986 6.0371 23.12 23.12 0 0 1 -.4668 7.5928 30 30 0 0 1 -3.0576 8.293 24.703 24.703 0 0 1 -5.0273 6.4 21.7461 21.7461 0 0 1 -6.7373 4.1465 22.334 22.334 0 0 1 -8.1885 1.4775 12.8129 12.8129 0 0 1 -6.4268-1.529 11.6464 11.6464 0 0 1 -4.2763-4.12 15.4229 15.4229 0 0 1 -2.0469-6.0381 22.6665 22.6665 0 0 1 .2588-7.2819 28.4616 28.4616 0 0 1 3.059-8.7591 23.3582 23.3582 0 0 1 5.1045-6.3487 21.1531 21.1531 0 0 1 6.6084-3.8867 22.8168 22.8168 0 0 1 7.566-1.374zm-2.7989 11.8691a6.7413 6.7413 0 0 0 -3.1875.7774 9.48 9.48 0 0 0 -2.6425 2.0732 13.1934 13.1934 0 0 0 -1.9952 2.9541 15.5988 15.5988 0 0 0 -1.2441 3.42 9.1152 9.1152 0 0 0 -.3369 3.2392 8.2162 8.2162 0 0 0 .7256 2.8506 5.2344 5.2344 0 0 0 1.6582 2.0478 3.899 3.899 0 0 0 2.5136.7256 6.59 6.59 0 0 0 2.9288-.8554 11.9608 11.9608 0 0 0 2.746-2.0733 13.85 13.85 0 0 0 2.23-2.9541 14.0108 14.0108 0 0 0 1.4248-3.55 11.334 11.334 0 0 0 .3106-3.3437 7.2227 7.2227 0 0 0 -.6992-2.7725 4.4736 4.4736 0 0 0 -1.71-1.8652 5.1729 5.1729 0 0 0 -2.7222-.6737z"/><path d="m129.2141 91.1747q1.245 0 2.9023-.0781t3.4473-.207q1.7871-.129 3.55-.3116 1.7622-.18 3.2138-.3369-.933 2.3849-1.9443 4.7422a53.399 53.399 0 0 1 -2.3574 4.7949q-2.644.1552-5.52.2588t-5.6485.1553q-2.7744.0526-5.2871.0517h-4.3789q1.14-4.6639 2.3057-9.1992t2.41-9.0957q1.2436-4.56 2.5918-9.1992t2.9541-9.5625a58.7673 58.7673 0 0 1 6.1934-.752q2.877-.18 6.1934-.0771-1.8663 4.5088-3.3165 8.24t-2.67 7.127q-1.2173 3.3941-2.332 6.6338t-2.3071 6.8156z"/><path d="m143.1564 99.1562q1.2437-4.6656 2.4092-8.9922t2.3844-8.604q1.2172-4.2758 2.539-8.6552t2.9288-9.1992a30.4822 30.4822 0 0 1 4.5351-1.2706 27.2563 27.2563 0 0 1 4.8975-.5957 35.4167 35.4167 0 0 1 5.5976.337 14.2707 14.2707 0 0 1 4.9492 1.6064 11.0613 11.0613 0 0 1 3.7579 3.4727 13.225 13.225 0 0 1 2.02 5.8828 21.4972 21.4972 0 0 1 -.1289 6.0381 26.0792 26.0792 0 0 1 -1.711 5.9853 27.0687 27.0687 0 0 1 -3.083 5.4678 22.404 22.404 0 0 1 -12.3613 8.5781 34.9864 34.9864 0 0 1 -9.5625 1.2959 30.3229 30.3229 0 0 1 -4.9756-.3887 33.0961 33.0961 0 0 1 -4.1964-.9585zm12.2305-7.93a10.1017 10.1017 0 0 0 5.0274-1.1924 13.3287 13.3287 0 0 0 4.0429-3.3164 16.1885 16.1885 0 0 0 2.6953-4.7432 15.7 15.7 0 0 0 .9844-5.4678 6.4978 6.4978 0 0 0 -.3623-2.332 4.3039 4.3039 0 0 0 -.9336-1.5029 3.4657 3.4657 0 0 0 -1.2949-.8291 5.4455 5.4455 0 0 0 -1.4512-.3106 6.32 6.32 0 0 0 -1.4775.0772 7.67 7.67 0 0 0 -1.3731.3369q-1.5556 4.6641-2.9543 9.6141-1.4 4.95-2.9031 9.6665z"/><path d="m79.0969 114.3671a14.9534 14.9534 0 0 1 6.9453 1.3994 11.6229 11.6229 0 0 1 4.5869 3.9912 13.6833 13.6833 0 0 1 2.0986 6.0371 23.12 23.12 0 0 1 -.4668 7.5928 30 30 0 0 1 -3.0576 8.293 24.703 24.703 0 0 1 -5.0273 6.4 21.7439 21.7439 0 0 1 -6.7373 4.1464 22.332 22.332 0 0 1 -8.1887 1.478 12.8129 12.8129 0 0 1 -6.4268-1.5293 11.6472 11.6472 0 0 1 -4.2763-4.12 15.4245 15.4245 0 0 1 -2.0469-6.0382 22.6665 22.6665 0 0 1 .2588-7.2822 28.4607 28.4607 0 0 1 3.0586-8.7588 23.3582 23.3582 0 0 1 5.1045-6.3487 21.1531 21.1531 0 0 1 6.6084-3.8867 22.8142 22.8142 0 0 1 7.5666-1.374zm-2.7989 11.8691a6.7413 6.7413 0 0 0 -3.1875.7774 9.48 9.48 0 0 0 -2.6425 2.0732 13.1911 13.1911 0 0 0 -1.9952 2.9541 15.6 15.6 0 0 0 -1.2441 3.42 9.116 9.116 0 0 0 -.3369 3.2393 8.2162 8.2162 0 0 0 .7256 2.8506 5.2351 5.2351 0 0 0 1.6582 2.0478 3.8991 3.8991 0 0 0 2.5137.7256 6.5914 6.5914 0 0 0 2.9287-.8554 11.9634 11.9634 0 0 0 2.7461-2.0733 13.8532 13.8532 0 0 0 2.2294-2.9541 14.0162 14.0162 0 0 0 1.4249-3.55 11.3375 11.3375 0 0 0 .3105-3.3437 7.2227 7.2227 0 0 0 -.6992-2.7725 4.473 4.473 0 0 0 -1.71-1.8652 5.1719 5.1719 0 0 0 -2.7217-.6738z"/><path d="m112.3185 116.078q-.8817 2.6953-1.9433 5.9854-1.0635 3.293-2.0733 6.7119-1.0107 3.42-1.9179 6.7373t-1.5283 6.0127a2.9194 2.9194 0 0 0 -.0264 1.6846 1.7253 1.7253 0 0 0 .7.8808 2.4322 2.4322 0 0 0 1.0879.3369c.415.0342.8115.0518 1.1924.0518a13.4374 13.4374 0 0 0 1.8916-.207 3.8867 3.8867 0 0 0 1.4257-.57 3.68 3.68 0 0 0 1.0625-1.1143 8.3779 8.3779 0 0 0 .8028-1.7881q.88-2.5386 1.84-5.831.9581-3.29 1.84-6.7374.88-3.4467 1.6582-6.7636t1.3476-6.0117q3.3692-.2593 5.961-.2334 2.59.0263 5.3379.2851-.7779 2.8506-1.6065 6.1152-.8305 3.2652-1.7363 6.66-.9083 3.3956-1.8662 6.7373-.96 3.3427-1.9434 6.2969a25.5052 25.5052 0 0 1 -2.9277 6.4531 11.7468 11.7468 0 0 1 -3.836 3.68 13.721 13.721 0 0 1 -5.0527 1.6582 48.6931 48.6931 0 0 1 -6.53.3887 20.03 20.03 0 0 1 -4.5351-.4658 11.0644 11.0644 0 0 1 -3.3946-1.3477 5.9446 5.9446 0 0 1 -2.28-2.5137 8.8262 8.8262 0 0 1 -.7774-3.1621 14.8267 14.8267 0 0 1 .2071-3.4717q.31-1.7884.6738-3.499.6723-2.9531 1.5283-6.1152t1.7363-6.1934q.88-3.0322 1.7364-5.7275t1.4775-4.8194q2.9019-.2592 5.5967-.2851a47.0439 47.0439 0 0 1 4.8714.1812z"/><path d="m135.2775 115.456q3.11-.2593 6.5313-.4151t6.9443-.2334q3.5244-.0776 7.0742-.0254t6.9717.2588q-.8306 2.7993-1.581 5.4678-.7515 2.67-1.3213 5.3125-1.815-.1026-3.8614-.13-2.0478-.0249-4.1728.0781-.9317 3.2139-1.9434 6.5821t-2.0215 6.789q-1.0107 3.4219-1.9951 6.8155-.9843 3.3954-1.8134 6.5566a45.9864 45.9864 0 0 0 -4.95-.1553q-2.6178.0513-4.9493.2588.7779-3.0571 1.5811-6.375.8028-3.3163 1.6064-6.7637.8028-3.4452 1.6329-6.8925.8276-3.4468 1.71-6.7637-1.97-.1026-4.0947-.0264-2.1255.0792-4.0938.1817.4131-2.5914 1.0625-5.2344a41.5007 41.5007 0 0 1 1.6833-5.286z"/><path d="m164.924 143.08a5.387 5.387 0 0 1 2.15.414 4.46 4.46 0 0 1 1.5811 1.1143 4.0768 4.0768 0 0 1 .8808 1.6328 3.9984 3.9984 0 0 1 0 2.0215 6.2185 6.2185 0 0 1 -.9072 2.0469 6.8771 6.8771 0 0 1 -1.5811 1.6592 7.58 7.58 0 0 1 -4.457 1.4765 5.19 5.19 0 0 1 -3.835-1.6064 3.9973 3.9973 0 0 1 -.9326-3.628 5.6671 5.6671 0 0 1 .959-2.0468 7.5278 7.5278 0 0 1 1.6582-1.6592 7.8219 7.8219 0 0 1 2.0987-1.0879 6.48 6.48 0 0 1 2.3851-.3369zm-3.6279-2.0733q.2578-2.0214.6474-4.4052t.8809-4.8457q.4922-2.461 1.0107-4.8721t1.0625-4.5606q.5449-2.15 1.0362-3.8359.4922-1.6832.9072-2.7207a28.9767 28.9767 0 0 1 6.375-.6475q3.2652.0264 6.168.2852-1.7109 3.2139-3.292 6.6855-1.5806 3.4733-2.98 6.8672-1.3989 3.3955-2.5654 6.4522-1.1661 3.0585-1.9952 5.3906a36.878 36.878 0 0 0 -3.7841-.1035 31.44 31.44 0 0 0 -3.4712.3105z"/></g></svg>