<svg width="41" height="27" viewBox="0 0 41 27" fill="none" xmlns="http://www.w3.org/2000/svg">
<g clip-path="url(#clip0_82_41443)">
<path d="M27.4228 6.24775e-06C25.94 -0.00141335 24.467 0.239094 23.0625 0.71194C23.8344 1.27783 24.5534 1.91177 25.2108 2.60608C26.8325 2.2824 28.5062 2.32068 30.1112 2.71818C31.7161 3.11567 33.2123 3.86245 34.4918 4.90465C35.7713 5.94684 36.8022 7.25844 37.51 8.74482C38.2178 10.2312 38.585 11.8553 38.585 13.4998C38.585 15.1444 38.2178 16.7685 37.51 18.2549C36.8022 19.7413 35.7713 21.0529 34.4918 22.0951C33.2123 23.1372 31.7161 23.884 30.1112 24.2815C28.5062 24.679 26.8325 24.7173 25.2108 24.3936C24.5534 25.0879 23.8344 25.7219 23.0625 26.2878C24.9283 26.9167 26.9093 27.1344 28.8681 26.9258C30.827 26.7172 32.7167 26.0873 34.4062 25.0797C36.0957 24.0722 37.5445 22.7112 38.652 21.0912C39.7595 19.4712 40.4992 17.631 40.8197 15.6983C41.1403 13.7656 41.0341 11.7866 40.5084 9.89882C39.9828 8.01101 39.0503 6.25953 37.7757 4.76594C36.501 3.27236 34.9148 2.07243 33.1271 1.24944C31.3393 0.426453 29.3929 0.000111273 27.4228 6.24775e-06Z" fill="#B0DAE4"/>
<path d="M27.1003 14.6942H17.8865C17.568 14.6942 17.2625 14.5684 17.0372 14.3444C16.812 14.1204 16.6854 13.8167 16.6854 13.4999C16.6854 13.1832 16.812 12.8794 17.0372 12.6554C17.2625 12.4315 17.568 12.3056 17.8865 12.3056H27.1003C26.791 8.84131 25.1493 5.62925 22.5172 3.33861C19.8851 1.04797 16.4657 -0.144606 12.9712 0.00934115C9.47679 0.163289 6.17682 1.65188 3.75881 4.165C1.3408 6.67813 -0.00878906 10.022 -0.00878906 13.4999C-0.00878906 16.9779 1.3408 20.3217 3.75881 22.8348C6.17682 25.348 9.47679 26.8366 12.9712 26.9905C16.4657 27.1445 19.8851 25.9519 22.5172 23.6612C25.1493 21.3706 26.791 18.1585 27.1003 14.6942Z" fill="#B0DAE4"/>
<path d="M27.0996 14.6941H30.4916L30.0625 15.1202C29.8371 15.3443 29.7105 15.6482 29.7105 15.9651C29.7105 16.2819 29.8371 16.5858 30.0625 16.8099C30.2878 17.034 30.5935 17.1598 30.9121 17.1598C31.2308 17.1598 31.5365 17.034 31.7618 16.8099L34.2412 14.3447C34.2753 14.3104 34.3073 14.2742 34.3371 14.2363C34.5046 14.0272 34.5943 13.7671 34.591 13.4998C34.592 13.343 34.5617 13.1876 34.5017 13.0426C34.4418 12.8975 34.3534 12.7658 34.2418 12.655L31.7625 10.1898C31.5371 9.96572 31.2315 9.83984 30.9128 9.83984C30.5941 9.83984 30.2885 9.96572 30.0631 10.1898C29.8378 10.4139 29.7112 10.7178 29.7112 11.0346C29.7112 11.3515 29.8378 11.6554 30.0631 11.8795L30.4923 12.3056H27.0996C27.1357 12.7005 27.1533 13.1005 27.1533 13.4998C27.1533 13.8992 27.1357 14.2992 27.0996 14.6941Z" fill="#B0DAE4"/>
</g>
<defs>
<clipPath id="clip0_82_41443">
<rect width="41" height="27" fill="white"/>
</clipPath>
</defs>
</svg>
