<svg width="17" height="17" viewBox="0 0 17 17" fill="none" xmlns="http://www.w3.org/2000/svg">
<path d="M3.54362 14.166C3.54362 14.9473 4.17899 15.5827 4.96029 15.5827H12.0436C12.8249 15.5827 13.4603 14.9473 13.4603 14.166V5.66602H14.877V4.24935H12.752H12.0436V2.83268C12.0436 2.05139 11.4082 1.41602 10.627 1.41602H6.37695C5.59566 1.41602 4.96029 2.05139 4.96029 2.83268V4.24935H4.25195H2.12695V5.66602H3.54362V14.166ZM6.37695 2.83268H10.627V4.24935H6.37695V2.83268ZM5.66862 5.66602H11.3353H12.0436L12.0443 14.166H4.96029V5.66602H5.66862Z" fill="#FFA6A6"/>
<path d="M6.37695 7.08398H7.79362V12.7507H6.37695V7.08398ZM9.21029 7.08398H10.627V12.7507H9.21029V7.08398Z" fill="#FFA6A6"/>
</svg>
