<svg width="19" height="15" viewBox="0 0 19 15" fill="none" xmlns="http://www.w3.org/2000/svg">
<g clip-path="url(#clip0_39_8520)">
<path d="M0.994138 7.82396H0V9.06984H1.22741C1.3613 9.94191 1.71188 10.765 2.24606 11.4614C2.77121 12.1353 3.44413 12.6755 4.21124 13.0389C4.97835 13.4022 5.81845 13.5788 6.66464 13.5544C7.6474 13.5575 8.61617 13.3181 9.48753 12.8568L9.00895 10.8759C8.36222 11.1798 7.65953 11.3414 6.94693 11.3503C6.51306 11.3733 6.07937 11.3018 5.67501 11.1405C5.27065 10.9792 4.905 10.7319 4.60262 10.4152C4.3091 10.0533 4.10315 9.62659 4.00128 9.16934H8.59164V7.9237H3.75553V6.90194H8.59164V5.65607H4.03804C4.14194 5.20193 4.34306 4.77657 4.62713 4.4102C4.89756 4.08317 5.23891 3.82414 5.62444 3.65339C6.00997 3.48264 6.42922 3.4048 6.84933 3.42598C7.54174 3.43895 8.22523 3.58698 8.86255 3.862L9.37811 1.76897C8.5146 1.40633 7.58672 1.22826 6.65239 1.24587C5.86053 1.23411 5.07552 1.39611 4.35106 1.72078C3.62659 2.04545 2.97976 2.52513 2.45482 3.12701C1.85917 3.84896 1.43876 4.70273 1.22741 5.61964H0V6.86351H1.01865V7.42415L0.994138 7.82396ZM14.4959 11.138C13.443 11.1241 12.4098 10.8461 11.4885 10.3286L10.9117 12.4589C11.866 12.9575 12.9193 13.2301 13.9923 13.2564V15.0004H15.7721V13.1313C16.6304 13.0672 17.435 12.683 18.0309 12.0527C18.6269 11.4224 18.9721 10.5907 19 9.71754C19 8.06052 18.1286 7.05209 15.9684 6.27889C14.4219 5.69339 13.7958 5.30712 13.7958 4.69673C13.7958 4.08635 14.1764 3.7374 15.3545 3.7374C16.2588 3.74063 17.1499 3.95824 17.9566 4.37288L18.4844 2.29228C17.6621 1.90076 16.7667 1.69263 15.8585 1.68189V0H14.0781V1.74409C13.2717 1.81897 12.5195 2.18884 11.9618 2.78479C11.4041 3.38075 11.0788 4.16216 11.0465 4.98349C11.0465 6.77755 12.3594 7.68691 14.2991 8.35972C15.6493 8.80818 16.2261 9.25664 16.2261 9.95432C16.2261 10.652 15.4898 11.1378 14.4587 11.1378L14.4959 11.138Z" fill="#B0DAE4"/>
</g>
<defs>
<clipPath id="clip0_39_8520">
<rect width="19" height="15" fill="white"/>
</clipPath>
</defs>
</svg>
