<svg width="19" height="19" viewBox="0 0 19 19" fill="none" xmlns="http://www.w3.org/2000/svg">
<path d="M15.834 1.58398H7.91732C7.04411 1.58398 6.33398 2.29411 6.33398 3.16732V6.33398H3.16732C2.29411 6.33398 1.58398 7.04411 1.58398 7.91732V15.834C1.58398 16.7072 2.29411 17.4173 3.16732 17.4173H11.084C11.9572 17.4173 12.6673 16.7072 12.6673 15.834V12.6673H15.834C16.7072 12.6673 17.4173 11.9572 17.4173 11.084V3.16732C17.4173 2.29411 16.7072 1.58398 15.834 1.58398ZM3.16732 15.834V7.91732H11.084L11.0856 15.834H3.16732ZM15.834 11.084H12.6673V7.91732C12.6673 7.04411 11.9572 6.33398 11.084 6.33398H7.91732V3.16732H15.834V11.084Z" fill="#B0DAE4"/>
</svg>
