<svg width="40" height="42" viewBox="0 0 40 42" fill="none" xmlns="http://www.w3.org/2000/svg">
<path d="M19.7015 3.60156C9.88723 3.60156 1.59766 11.894 1.59766 21.7117C1.59766 31.5294 9.88723 39.8219 19.7015 39.8219C29.5159 39.8219 37.8054 31.5294 37.8054 21.7117C37.8054 11.894 29.5159 3.60156 19.7015 3.60156ZM19.7015 35.7974C12.0698 35.7974 5.62074 29.3462 5.62074 21.7117C5.62074 14.0773 12.0698 7.62604 19.7015 7.62604C27.3333 7.62604 33.7824 14.0773 33.7824 21.7117C33.7824 29.3462 27.3333 35.7974 19.7015 35.7974Z" fill="#B0DAE4"/>
<path d="M21.7138 11.6523H17.6907V19.7013H9.64453V23.7258H17.6907V31.7748H21.7138V23.7258H29.76V19.7013H21.7138V11.6523Z" fill="#B0DAE4"/>
</svg>
