<svg width="38" height="38" viewBox="0 0 38 38" fill="none" xmlns="http://www.w3.org/2000/svg">
<path d="M11.1801 34.834C13.5915 34.834 15.6767 33.9743 17.3709 32.2801C19.149 30.502 20.0737 27.7613 19.8267 25.1646L33.3863 11.6049C35.3132 9.67801 35.3132 6.54618 33.3832 4.61609C31.518 2.74776 28.2627 2.74776 26.3975 4.61609L12.3312 18.6824C9.30224 18.95 6.30341 21.0907 6.30341 24.8875C6.30341 25.3673 6.33666 25.8185 6.36991 26.2492C6.49658 27.8816 6.54249 28.4943 4.04083 29.7452C3.54049 29.9953 3.20958 30.4925 3.16999 31.0498C3.13041 31.6072 3.38849 32.1439 3.84766 32.4638C3.99016 32.5588 7.31991 34.834 11.1801 34.834C11.1785 34.834 11.1785 34.834 11.1801 34.834ZM28.6363 6.85334C29.3077 6.18201 30.4698 6.17884 31.1475 6.85651C31.8394 7.54843 31.8394 8.67259 31.1475 9.36451L19.0002 21.5118L16.489 19.0007L28.6363 6.85334ZM9.52866 26.0038C9.50016 25.6491 9.47008 25.2786 9.47008 24.8859C9.47008 22.4397 11.758 21.7937 12.9692 21.7937C13.5329 21.7937 14.076 21.9093 14.4956 22.1198C15.9918 22.8719 16.4906 24.1671 16.6442 25.1218C16.9244 26.8477 16.3006 28.8712 15.1305 30.0413C14.0364 31.1353 12.7444 31.6673 11.1801 31.6673H11.1785C9.99099 31.6673 8.83674 31.357 7.89466 30.9913C9.60783 29.4507 9.66958 27.842 9.52866 26.0038Z" fill="#B0DAE4"/>
</svg>
