<svg width="31" height="31" viewBox="0 0 31 31" fill="none" xmlns="http://www.w3.org/2000/svg">
<path d="M2.33848 30.2493C2.46673 30.2493 2.59498 30.2335 2.72165 30.2018L9.05498 28.6185C9.33365 28.5488 9.58857 28.4047 9.79123 28.2021L29.2551 8.73815C29.8536 8.13965 30.183 7.34481 30.183 6.49931C30.183 5.65381 29.8536 4.85898 29.2551 4.26048L26.744 1.74931C25.547 0.552312 23.4633 0.552312 22.2663 1.74931L2.8024 21.2132C2.59973 21.4159 2.45565 21.6708 2.38598 21.9479L0.802649 28.2812C0.666483 28.8211 0.826399 29.3911 1.21907 29.7854C1.51832 30.0862 1.92365 30.2493 2.33848 30.2493ZM24.5051 3.98815L27.0163 6.49931L24.5051 9.01048L21.994 6.49931L24.5051 3.98815ZM5.35157 23.1417L19.7551 8.73815L22.2663 11.2493L7.86115 25.6529L4.51398 26.4889L5.35157 23.1417Z" fill="#31C7E0"/>
</svg>
