<svg width="28" height="28" viewBox="0 0 28 28" fill="none" xmlns="http://www.w3.org/2000/svg">
<g id="Group 2909">
<path id="Trac&#195;&#169; 8855" d="M27.5164 26.0703C27.3884 26.0704 27.2657 26.1212 27.1752 26.2117C27.0847 26.3022 27.0338 26.425 27.0337 26.5529V27.0356H26.5511C26.4231 27.0356 26.3003 27.0864 26.2098 27.1769C26.1192 27.2675 26.0684 27.3903 26.0684 27.5183C26.0684 27.6463 26.1192 27.7691 26.2098 27.8596C26.3003 27.9502 26.4231 28.001 26.5511 28.001H27.5166C27.6446 28.001 27.7674 27.9502 27.8579 27.8597C27.9484 27.7692 27.9992 27.6464 27.9992 27.5184V26.5529C27.9992 26.4249 27.9483 26.3022 27.8577 26.2117C27.7672 26.1212 27.6444 26.0703 27.5164 26.0703Z" fill="#B0DAE4"/>
<path id="Trac&#195;&#169; 8856" d="M19.7051 27.0352H17.4222C17.2942 27.0352 17.1714 27.086 17.0808 27.1765C16.9903 27.2671 16.9395 27.3899 16.9395 27.5179C16.9395 27.6459 16.9903 27.7687 17.0808 27.8592C17.1714 27.9498 17.2942 28.0006 17.4222 28.0006H19.7042C19.8322 28.0006 19.955 27.9498 20.0455 27.8592C20.1361 27.7687 20.1869 27.6459 20.1869 27.5179C20.1869 27.3899 20.1361 27.2671 20.0455 27.1765C19.955 27.086 19.8322 27.0352 19.7042 27.0352H19.7051Z" fill="#B0DAE4"/>
<path id="Trac&#195;&#169; 8857" d="M24.2686 27.0352H21.9867C21.8586 27.0352 21.7358 27.086 21.6453 27.1765C21.5548 27.2671 21.5039 27.3899 21.5039 27.5179C21.5039 27.6459 21.5548 27.7687 21.6453 27.8592C21.7358 27.9498 21.8586 28.0006 21.9867 28.0006H24.2686C24.3967 28.0006 24.5195 27.9498 24.61 27.8592C24.7005 27.7687 24.7514 27.6459 24.7514 27.5179C24.7514 27.3899 24.7005 27.2671 24.61 27.1765C24.5195 27.086 24.3967 27.0352 24.2686 27.0352Z" fill="#B0DAE4"/>
<path id="Trac&#195;&#169; 8858" d="M6.01278 27.0352H3.73079C3.60276 27.0352 3.47997 27.086 3.38944 27.1765C3.29891 27.2671 3.24805 27.3899 3.24805 27.5179C3.24805 27.6459 3.29891 27.7687 3.38944 27.8592C3.47997 27.9498 3.60276 28.0006 3.73079 28.0006H6.01278C6.14081 28.0006 6.2636 27.9498 6.35413 27.8592C6.44467 27.7687 6.49553 27.6459 6.49553 27.5179C6.49553 27.3899 6.44467 27.2671 6.35413 27.1765C6.2636 27.086 6.14081 27.0352 6.01278 27.0352Z" fill="#B0DAE4"/>
<path id="Trac&#195;&#169; 8859" d="M15.1397 27.0352H12.8577C12.7297 27.0352 12.6069 27.086 12.5164 27.1765C12.4259 27.2671 12.375 27.3899 12.375 27.5179C12.375 27.6459 12.4259 27.7687 12.5164 27.8592C12.6069 27.9498 12.7297 28.0006 12.8577 28.0006H15.1397C15.2678 28.0006 15.3906 27.9498 15.4811 27.8592C15.5716 27.7687 15.6225 27.6459 15.6225 27.5179C15.6225 27.3899 15.5716 27.2671 15.4811 27.1765C15.3906 27.086 15.2678 27.0352 15.1397 27.0352Z" fill="#B0DAE4"/>
<path id="Trac&#195;&#169; 8860" d="M10.5772 27.0352H8.29525C8.16721 27.0352 8.04443 27.086 7.95389 27.1765C7.86336 27.2671 7.8125 27.3899 7.8125 27.5179C7.8125 27.6459 7.86336 27.7687 7.95389 27.8592C8.04443 27.9498 8.16721 28.0006 8.29525 28.0006H10.5772C10.7053 28.0006 10.8281 27.9498 10.9186 27.8592C11.0091 27.7687 11.06 27.6459 11.06 27.5179C11.06 27.3899 11.0091 27.2671 10.9186 27.1765C10.8281 27.086 10.7053 27.0352 10.5772 27.0352Z" fill="#B0DAE4"/>
<path id="Trac&#195;&#169; 8861" d="M1.44836 27.0348H0.965493V26.5522C0.962688 26.426 0.910596 26.306 0.820369 26.2177C0.730142 26.1295 0.608952 26.0801 0.482746 26.0801C0.356541 26.0801 0.235351 26.1295 0.145124 26.2177C0.0548966 26.306 0.0028044 26.426 0 26.5522L0 27.5177C0 27.6457 0.0508481 27.7684 0.141358 27.8589C0.231868 27.9495 0.354626 28.0003 0.482627 28.0003H1.44836C1.57639 28.0003 1.69918 27.9494 1.78971 27.8589C1.88024 27.7684 1.9311 27.6456 1.9311 27.5176C1.9311 27.3895 1.88024 27.2667 1.78971 27.1762C1.69918 27.0857 1.57639 27.0348 1.44836 27.0348Z" fill="#B0DAE4"/>
<path id="Trac&#195;&#169; 8862" d="M0.482627 21.5059C0.354646 21.5059 0.231924 21.5568 0.141428 21.6473C0.0509315 21.7378 6.3185e-05 21.8605 0 21.9885L0 24.2707C0 24.3987 0.0508606 24.5215 0.141393 24.612C0.231926 24.7025 0.354714 24.7534 0.482746 24.7534C0.610779 24.7534 0.733567 24.7025 0.824099 24.612C0.914632 24.5215 0.965492 24.3987 0.965492 24.2707V21.9885C0.965524 21.9251 0.953054 21.8623 0.928796 21.8037C0.904538 21.7451 0.868968 21.6919 0.82412 21.6471C0.779272 21.6022 0.726027 21.5667 0.667431 21.5425C0.608834 21.5182 0.546035 21.5058 0.482627 21.5059Z" fill="#B0DAE4"/>
<path id="Trac&#195;&#169; 8863" d="M0.482627 16.9414C0.354668 16.9414 0.231946 16.9922 0.141442 17.0827C0.0509392 17.1731 6.3221e-05 17.2958 0 17.4238L0 19.706C0 19.834 0.0508606 19.9568 0.141393 20.0473C0.231926 20.1379 0.354714 20.1887 0.482746 20.1887C0.610779 20.1887 0.733567 20.1379 0.824099 20.0473C0.914632 19.9568 0.965492 19.834 0.965492 19.706V17.4238C0.965461 17.3604 0.952947 17.2977 0.928663 17.2391C0.90438 17.1806 0.868804 17.1274 0.823966 17.0826C0.779128 17.0378 0.725906 17.0023 0.667339 16.9781C0.608772 16.9538 0.546007 16.9414 0.482627 16.9414Z" fill="#B0DAE4"/>
<path id="Trac&#195;&#169; 8864" d="M0.482628 12.375C0.419157 12.375 0.356315 12.3876 0.297696 12.4119C0.239077 12.4363 0.185833 12.4719 0.141007 12.5168C0.0961816 12.5618 0.0606552 12.6151 0.03646 12.6738C0.0122648 12.7325 -0.00012444 12.7953 9.42234e-07 12.8588V15.141C9.42234e-07 15.269 0.0508616 15.3918 0.141394 15.4823C0.231927 15.5729 0.354715 15.6237 0.482747 15.6237C0.610779 15.6237 0.733568 15.5729 0.8241 15.4823C0.914633 15.3918 0.965493 15.269 0.965493 15.141V12.8588C0.96565 12.7953 0.953275 12.7324 0.929076 12.6737C0.904877 12.615 0.86933 12.5616 0.824473 12.5167C0.779616 12.4717 0.726331 12.4361 0.66767 12.4118C0.60901 12.3875 0.546128 12.375 0.482628 12.375Z" fill="#B0DAE4"/>
<path id="Trac&#195;&#169; 8865" d="M0.482627 3.24805C0.354626 3.24805 0.231868 3.29889 0.141358 3.3894C0.0508481 3.47991 0 3.60267 0 3.73067L0 6.01285C0 6.14088 0.0508606 6.26367 0.141393 6.3542C0.231926 6.44473 0.354714 6.49559 0.482746 6.49559C0.610779 6.49559 0.733567 6.44473 0.824099 6.3542C0.914632 6.26367 0.965492 6.14088 0.965492 6.01285V3.73067C0.965492 3.66727 0.953001 3.60449 0.928732 3.54592C0.904463 3.48735 0.868891 3.43414 0.82405 3.38932C0.779209 3.3445 0.725976 3.30896 0.667394 3.28472C0.608811 3.26048 0.546027 3.24802 0.482627 3.24805Z" fill="#B0DAE4"/>
<path id="Trac&#195;&#169; 8866" d="M0.482627 7.8125C0.354604 7.81256 0.231847 7.86346 0.141344 7.95401C0.0508404 8.04456 -1.56101e-08 8.16734 0 8.29536V10.5775C0 10.7056 0.0508606 10.8284 0.141393 10.9189C0.231926 11.0094 0.354714 11.0603 0.482746 11.0603C0.610779 11.0603 0.733567 11.0094 0.824099 10.9189C0.914632 10.8284 0.965492 10.7056 0.965492 10.5775V8.29536C0.965524 8.23194 0.953056 8.16914 0.9288 8.11054C0.904545 8.05194 0.868979 7.9987 0.824134 7.95386C0.77929 7.90901 0.726047 7.87345 0.667449 7.84919C0.608851 7.82494 0.546047 7.81247 0.482627 7.8125Z" fill="#B0DAE4"/>
<path id="Trac&#195;&#169; 8867" d="M1.44836 0H0.482627C0.419228 -7.73798e-09 0.356449 0.0124912 0.297879 0.03676C0.239308 0.0610287 0.186093 0.0965995 0.141274 0.14144C0.0964547 0.186281 0.0609097 0.239512 0.0366694 0.298094C0.0124291 0.356675 -3.1265e-05 0.419459 5.89116e-08 0.482857V1.44857C5.89116e-08 1.5766 0.0508607 1.69939 0.141393 1.78992C0.231926 1.88045 0.354714 1.93131 0.482746 1.93131C0.610779 1.93131 0.733567 1.88045 0.8241 1.78992C0.914632 1.69939 0.965493 1.5766 0.965493 1.44857V0.965715H1.44812C1.57618 0.965746 1.69902 0.914904 1.78959 0.824373C1.88017 0.733842 1.93107 0.611038 1.9311 0.482977C1.93114 0.354915 1.88029 0.232086 1.78976 0.14151C1.69923 0.0509343 1.57642 3.16202e-05 1.44836 0Z" fill="#B0DAE4"/>
<path id="Trac&#195;&#169; 8868" d="M6.01278 0H3.73079C3.60276 0 3.47997 0.0508598 3.38944 0.141391C3.29891 0.231922 3.24805 0.354708 3.24805 0.482738C3.24805 0.610768 3.29891 0.733554 3.38944 0.824085C3.47997 0.914616 3.60276 0.965476 3.73079 0.965476H6.01278C6.14081 0.965476 6.2636 0.914616 6.35413 0.824085C6.44467 0.733554 6.49553 0.610768 6.49553 0.482738C6.49553 0.354708 6.44467 0.231922 6.35413 0.141391C6.2636 0.0508598 6.14081 0 6.01278 0Z" fill="#B0DAE4"/>
<path id="Trac&#195;&#169; 8869" d="M10.5753 0H8.29329C8.16526 0 8.04247 0.0508598 7.95194 0.141391C7.86141 0.231922 7.81055 0.354708 7.81055 0.482738C7.81055 0.610768 7.86141 0.733554 7.95194 0.824085C8.04247 0.914616 8.16526 0.965476 8.29329 0.965476H10.5753C10.7033 0.965476 10.8261 0.914616 10.9166 0.824085C11.0072 0.733554 11.058 0.610768 11.058 0.482738C11.058 0.354708 11.0072 0.231922 10.9166 0.141391C10.8261 0.0508598 10.7033 0 10.5753 0Z" fill="#B0DAE4"/>
<path id="Trac&#195;&#169; 8870" d="M15.1397 0H12.8577C12.7297 0 12.6069 0.0508598 12.5164 0.141391C12.4259 0.231922 12.375 0.354708 12.375 0.482738C12.375 0.610768 12.4259 0.733554 12.5164 0.824085C12.6069 0.914616 12.7297 0.965476 12.8577 0.965476H15.1397C15.2678 0.965476 15.3906 0.914616 15.4811 0.824085C15.5716 0.733554 15.6225 0.610768 15.6225 0.482738C15.6225 0.354708 15.5716 0.231922 15.4811 0.141391C15.3906 0.0508598 15.2678 0 15.1397 0Z" fill="#B0DAE4"/>
<path id="Trac&#195;&#169; 8871" d="M19.7047 0H17.4222C17.2942 0 17.1714 0.0508598 17.0808 0.141391C16.9903 0.231922 16.9395 0.354708 16.9395 0.482738C16.9395 0.610768 16.9903 0.733554 17.0808 0.824085C17.1714 0.914616 17.2942 0.965476 17.4222 0.965476H19.7042C19.8322 0.965476 19.955 0.914616 20.0455 0.824085C20.1361 0.733554 20.1869 0.610768 20.1869 0.482738C20.1869 0.354708 20.1361 0.231922 20.0455 0.141391C19.955 0.0508598 19.8322 0 19.7042 0L19.7047 0Z" fill="#B0DAE4"/>
<path id="Trac&#195;&#169; 8872" d="M24.2686 0H21.9867C21.8586 0 21.7358 0.0508598 21.6453 0.141391C21.5548 0.231922 21.5039 0.354708 21.5039 0.482738C21.5039 0.610768 21.5548 0.733554 21.6453 0.824085C21.7358 0.914616 21.8586 0.965476 21.9867 0.965476H24.2686C24.3967 0.965476 24.5195 0.914616 24.61 0.824085C24.7005 0.733554 24.7514 0.610768 24.7514 0.482738C24.7514 0.354708 24.7005 0.231922 24.61 0.141391C24.5195 0.0508598 24.3967 0 24.2686 0Z" fill="#B0DAE4"/>
<path id="Trac&#195;&#169; 8873" d="M27.5166 5.90563e-08H26.5511C26.4231 5.90563e-08 26.3003 0.0508598 26.2098 0.141391C26.1192 0.231922 26.0684 0.354708 26.0684 0.482738C26.0684 0.610768 26.1192 0.733555 26.2098 0.824085C26.3003 0.914616 26.4231 0.965476 26.5511 0.965476H27.0337V1.44833C27.0337 1.57636 27.0846 1.69915 27.1751 1.78968C27.2657 1.88021 27.3884 1.93107 27.5165 1.93107C27.6445 1.93107 27.7673 1.88021 27.8578 1.78968C27.9484 1.69915 27.9992 1.57636 27.9992 1.44833V0.482857C27.9993 0.41945 27.9868 0.356652 27.9626 0.298057C27.9384 0.239461 27.9028 0.186217 27.858 0.14137C27.8132 0.0965234 27.76 0.0609538 27.7014 0.0366962C27.6428 0.0124385 27.58 -3.13151e-05 27.5166 5.90563e-08Z" fill="#B0DAE4"/>
<path id="Trac&#195;&#169; 8874" d="M27.5178 7.8125C27.3898 7.8125 27.267 7.86335 27.1765 7.95386C27.086 8.04436 27.0352 8.16712 27.0352 8.29512V10.5773C27.0352 10.7053 27.086 10.8281 27.1765 10.9187C27.2671 11.0092 27.3899 11.06 27.5179 11.06C27.6459 11.06 27.7687 11.0092 27.8593 10.9187C27.9498 10.8281 28.0006 10.7053 28.0006 10.5773V8.29536C28.0006 8.23195 27.9882 8.16916 27.9639 8.11058C27.9396 8.05199 27.9041 7.99876 27.8592 7.95392C27.8144 7.90909 27.7612 7.87352 27.7026 7.84925C27.644 7.82499 27.5812 7.8125 27.5178 7.8125Z" fill="#B0DAE4"/>
<path id="Trac&#195;&#169; 8875" d="M27.5178 3.24805C27.3898 3.24805 27.267 3.29889 27.1765 3.3894C27.086 3.47991 27.0352 3.60267 27.0352 3.73067V6.01309C27.0352 6.14112 27.086 6.26391 27.1765 6.35444C27.2671 6.44497 27.3899 6.49583 27.5179 6.49583C27.6459 6.49583 27.7687 6.44497 27.8593 6.35444C27.9498 6.26391 28.0006 6.14112 28.0006 6.01309V3.7309C28.0006 3.60284 27.9498 3.48003 27.8592 3.38947C27.7687 3.29892 27.6458 3.24805 27.5178 3.24805Z" fill="#B0DAE4"/>
<path id="Trac&#195;&#169; 8876" d="M27.5178 21.5059C27.3898 21.5059 27.267 21.5567 27.1765 21.6472C27.086 21.7377 27.0352 21.8605 27.0352 21.9885V24.2707C27.0352 24.3987 27.086 24.5215 27.1765 24.612C27.2671 24.7025 27.3899 24.7534 27.5179 24.7534C27.6459 24.7534 27.7687 24.7025 27.8593 24.612C27.9498 24.5215 28.0006 24.3987 28.0006 24.2707V21.9885C28.0006 21.8605 27.9497 21.7377 27.8591 21.6472C27.7686 21.5567 27.6458 21.5059 27.5178 21.5059Z" fill="#B0DAE4"/>
<path id="Trac&#195;&#169; 8877" d="M27.5178 16.9414C27.3898 16.9414 27.267 16.9923 27.1765 17.0828C27.086 17.1733 27.0352 17.296 27.0352 17.424V19.7062C27.0352 19.8342 27.086 19.957 27.1765 20.0476C27.2671 20.1381 27.3899 20.1889 27.5179 20.1889C27.6459 20.1889 27.7687 20.1381 27.8593 20.0476C27.9498 19.957 28.0006 19.8342 28.0006 19.7062V17.4238C28.0005 17.2958 27.9496 17.1731 27.8591 17.0827C27.7685 16.9922 27.6458 16.9414 27.5178 16.9414Z" fill="#B0DAE4"/>
<path id="Trac&#195;&#169; 8878" d="M27.5178 12.377C27.3898 12.377 27.267 12.4278 27.1765 12.5183C27.086 12.6088 27.0352 12.7316 27.0352 12.8596V15.1408C27.0352 15.2688 27.086 15.3916 27.1765 15.4822C27.2671 15.5727 27.3899 15.6235 27.5179 15.6235C27.6459 15.6235 27.7687 15.5727 27.8593 15.4822C27.9498 15.3916 28.0006 15.2688 28.0006 15.1408V12.8596C28.0006 12.7962 27.9882 12.7334 27.9639 12.6748C27.9396 12.6163 27.904 12.563 27.8592 12.5182C27.8144 12.4734 27.7611 12.4379 27.7026 12.4136C27.644 12.3894 27.5812 12.3769 27.5178 12.377Z" fill="#B0DAE4"/>
<path id="Trac&#195;&#169; 8879" d="M14.0002 12.8979C14.1282 12.8979 14.251 12.847 14.3415 12.7565C14.432 12.666 14.4829 12.5433 14.4829 12.4153V0.482857C14.4829 0.419459 14.4704 0.356675 14.4462 0.298094C14.422 0.239512 14.3864 0.186281 14.3416 0.14144C14.2968 0.0965995 14.2436 0.0610287 14.185 0.03676C14.1264 0.0124912 14.0636 -7.73798e-09 14.0002 0L0.482627 0C0.419228 -7.73798e-09 0.356449 0.0124912 0.297879 0.03676C0.239308 0.0610287 0.186093 0.0965995 0.141274 0.14144C0.0964547 0.186281 0.0609097 0.239512 0.0366694 0.298094C0.0124291 0.356675 -3.1265e-05 0.419459 5.89116e-08 0.482857V27.5169C5.89116e-08 27.6449 0.0508481 27.7677 0.141358 27.8582C0.231868 27.9487 0.354626 27.9995 0.482627 27.9995H14C14.128 27.9995 14.2508 27.9487 14.3413 27.8582C14.4318 27.7677 14.4826 27.6449 14.4826 27.5169V15.523C14.4826 15.3949 14.4318 15.2722 14.3412 15.1816C14.2507 15.0911 14.1279 15.0402 13.9999 15.0402C13.8718 15.0402 13.7491 15.0911 13.6585 15.1816C13.568 15.2722 13.5171 15.3949 13.5171 15.523V27.035H0.965493V0.965715H13.5174V12.4153C13.5173 12.4787 13.5298 12.5415 13.5541 12.6001C13.5783 12.6586 13.6139 12.7119 13.6587 12.7567C13.7036 12.8015 13.7568 12.8371 13.8154 12.8613C13.874 12.8855 13.9368 12.898 14.0002 12.8979Z" fill="#B0DAE4"/>
<path id="Trac&#195;&#169; 8880" d="M25.1939 13.6181L19.079 9.8792C19.0059 9.83456 18.9221 9.81022 18.8364 9.80867C18.7507 9.80712 18.6662 9.82842 18.5915 9.87038C18.5167 9.91233 18.4545 9.97343 18.4112 10.0474C18.3679 10.1214 18.3451 10.2055 18.3451 10.2912V12.0684H6.2756C6.1476 12.0684 6.02484 12.1192 5.93433 12.2097C5.84382 12.3003 5.79297 12.423 5.79297 12.551V15.4467C5.79297 15.5101 5.80545 15.5729 5.82971 15.6314C5.85396 15.69 5.88951 15.7432 5.93433 15.788C5.97914 15.8328 6.03235 15.8683 6.0909 15.8926C6.14946 15.9169 6.21222 15.9293 6.2756 15.9293H18.3451V17.768C18.3451 17.8538 18.3679 17.938 18.4112 18.012C18.4545 18.086 18.5167 18.1471 18.5915 18.189C18.6663 18.231 18.7509 18.2523 18.8366 18.2507C18.9223 18.2491 19.0061 18.2247 19.0793 18.18L25.1941 14.4412C25.2647 14.398 25.323 14.3375 25.3634 14.2653C25.4038 14.1932 25.425 14.1118 25.425 14.0291C25.425 13.9464 25.4038 13.8651 25.3634 13.793C25.323 13.7208 25.2647 13.6603 25.1941 13.6171L25.1939 13.6181ZM19.3103 16.9084V15.4467C19.3103 15.3187 19.2595 15.196 19.169 15.1055C19.0785 15.0149 18.9557 14.9641 18.8277 14.9641H6.75846V13.0327H18.8277C18.9557 13.0327 19.0785 12.9818 19.169 12.8913C19.2595 12.8008 19.3103 12.6781 19.3103 12.5501V11.1518L24.0169 14.0299L19.3103 16.9084Z" fill="#B0DAE4"/>
</g>
</svg>
