<svg width="32" height="26" viewBox="0 0 32 26" fill="none" xmlns="http://www.w3.org/2000/svg">
<path d="M29.6601 3.71349H2.45188C1.34682 3.71349 0.451172 2.88254 0.451172 1.85674C0.451172 0.830953 1.34682 0 2.45188 0H29.6604C30.7654 0 31.6611 0.831436 31.6611 1.85674C31.6611 2.88205 30.7656 3.71349 29.6601 3.71349Z" fill="#094262"/>
<path d="M18.4568 14.858H2.45188C1.34682 14.858 0.451172 14.0266 0.451172 13.0013C0.451172 11.976 1.34682 11.1445 2.45188 11.1445H18.4568C19.5619 11.1445 20.4575 11.976 20.4575 13.0013C20.4575 14.0266 19.5619 14.858 18.4568 14.858Z" fill="#094262"/>
<path opacity="0.5" d="M29.6606 14.858H26.4597C25.3546 14.858 24.459 14.0266 24.459 13.0013C24.459 11.976 25.3546 11.1445 26.4597 11.1445H29.6606C30.7657 11.1445 31.6613 11.976 31.6613 13.0013C31.6613 14.0266 30.7657 14.858 29.6606 14.858Z" fill="#094262"/>
<path d="M29.6601 26.0006H2.45188C1.34682 26.0006 0.451172 25.1692 0.451172 24.1439C0.451172 23.1185 1.34682 22.2871 2.45188 22.2871H29.6604C30.7654 22.2871 31.6611 23.1181 31.6611 24.1439C31.6611 25.1696 30.7656 26.0006 29.6601 26.0006Z" fill="#094262"/>
</svg>
