<svg width="18" height="20" viewBox="0 0 18 20" fill="none" xmlns="http://www.w3.org/2000/svg">
<path d="M9 0.03125C6.243 0.03125 4 2.30868 4 5.108C4 7.90733 6.243 10.1848 9 10.1848C11.757 10.1848 14 7.90733 14 5.108C14 2.30868 11.757 0.03125 9 0.03125ZM9 8.15406C7.346 8.15406 6 6.78739 6 5.108C6 3.42861 7.346 2.06195 9 2.06195C10.654 2.06195 12 3.42861 12 5.108C12 6.78739 10.654 8.15406 9 8.15406ZM18 19.3229V18.3076C18 14.3893 14.859 11.2001 11 11.2001H7C3.14 11.2001 0 14.3893 0 18.3076V19.3229H2V18.3076C2 15.5082 4.243 13.2308 7 13.2308H11C13.757 13.2308 16 15.5082 16 18.3076V19.3229H18Z" fill="#B0DAE4"/>
</svg>
