<?xml version="1.0" standalone="no"?>
<!DOCTYPE svg PUBLIC "-//W3C//DTD SVG 20010904//EN"
 "http://www.w3.org/TR/2001/REC-SVG-20010904/DTD/svg10.dtd">
<svg version="1.0" xmlns="http://www.w3.org/2000/svg"
 width="215.000000pt" height="111.000000pt" viewBox="0 0 215.000000 111.000000"
 preserveAspectRatio="xMidYMid meet">

<g transform="translate(0.000000,111.000000) scale(0.100000,-0.100000)"
fill="#000000" stroke="none">
<path d="M1655 1105 c-5 -2 -289 -41 -629 -85 -563 -73 -626 -84 -690 -110
-180 -76 -310 -248 -332 -444 -8 -72 18 -187 58 -254 39 -63 107 -124 175
-154 93 -42 168 -38 808 46 319 42 605 81 635 87 79 16 201 82 263 143 103
103 161 234 160 366 -1 228 -149 386 -377 405 -33 2 -65 3 -71 0z"/>
</g>
</svg>
