<svg width="35" height="23" viewBox="0 0 35 23" fill="none" xmlns="http://www.w3.org/2000/svg">
<g id="Icon - transitions" clip-path="url(#clip0_16_11106)">
<g id="Group 2906">
<path id="Trac&#195;&#169; 8852" d="M23.4097 5.32216e-06C22.1439 -0.00120396 20.8865 0.203673 19.6875 0.606468C20.3465 1.08852 20.9603 1.62855 21.5215 2.21999C22.9058 1.94427 24.3346 1.97688 25.7046 2.31548C27.0747 2.65409 28.352 3.29024 29.4442 4.17803C30.5365 5.06582 31.4165 6.18312 32.0207 7.44929C32.625 8.71546 32.9384 10.0989 32.9384 11.4999C32.9384 12.9008 32.625 14.2843 32.0207 15.5505C31.4165 16.8166 30.5365 17.9339 29.4442 18.8217C28.352 19.7095 27.0747 20.3457 25.7046 20.6843C24.3346 21.0229 22.9058 21.0555 21.5215 20.7798C20.9603 21.3712 20.3465 21.9112 19.6875 22.3933C21.2802 22.929 22.9714 23.1145 24.6435 22.9368C26.3157 22.7591 27.9289 22.2225 29.3712 21.3642C30.8134 20.506 32.0501 19.3466 32.9956 17.9666C33.941 16.5866 34.5725 15.019 34.8461 13.3726C35.1198 11.7262 35.0291 10.0405 34.5804 8.43233C34.1316 6.82419 33.3356 5.33219 32.2475 4.05988C31.1594 2.78756 29.8053 1.7654 28.2792 1.06434C26.7531 0.363275 25.0915 9.47884e-05 23.4097 5.32216e-06Z" fill="#B0DAE4" fill-opacity="0.5"/>
<path id="Trac&#195;&#169; 8853" d="M23.1351 12.5167H15.2697C14.9977 12.5167 14.7369 12.4095 14.5446 12.2187C14.3523 12.0279 14.2443 11.7692 14.2443 11.4994C14.2443 11.2295 14.3523 10.9708 14.5446 10.78C14.7369 10.5892 14.9977 10.482 15.2697 10.482H23.1351C22.871 7.53091 21.4696 4.7947 19.2227 2.84342C16.9758 0.892132 14.0567 -0.123762 11.0737 0.00737857C8.09061 0.138519 5.27356 1.40658 3.2094 3.54739C1.14525 5.68819 -0.00683594 8.53666 -0.00683594 11.4994C-0.00683594 14.4621 1.14525 17.3105 3.2094 19.4513C5.27356 21.5921 8.09061 22.8602 11.0737 22.9913C14.0567 23.1225 16.9758 22.1066 19.2227 20.1553C21.4696 18.204 22.871 15.4678 23.1351 12.5167Z" fill="#B0DAE4" fill-opacity="0.5"/>
<path id="Trac&#195;&#169; 8854" d="M23.1348 12.516H26.0304L25.664 12.879C25.4717 13.0698 25.3636 13.3287 25.3636 13.5986C25.3636 13.8686 25.4717 14.1274 25.664 14.3183C25.8564 14.5092 26.1173 14.6164 26.3894 14.6164C26.6614 14.6164 26.9223 14.5092 27.1147 14.3183L29.2312 12.2183C29.2603 12.1891 29.2877 12.1583 29.3131 12.126C29.4561 11.9479 29.5327 11.7263 29.5299 11.4986C29.5307 11.3651 29.5048 11.2326 29.4537 11.1091C29.4025 10.9855 29.3271 10.8733 29.2318 10.779L27.1153 8.67896C26.9229 8.48809 26.662 8.38086 26.3899 8.38086C26.1179 8.38086 25.857 8.48809 25.6646 8.67896C25.4722 8.86983 25.3641 9.12871 25.3641 9.39864C25.3641 9.66858 25.4722 9.92745 25.6646 10.1183L26.0309 10.4813H23.1348C23.1656 10.8177 23.1806 11.1584 23.1806 11.4986C23.1806 11.8388 23.1656 12.1796 23.1348 12.516Z" fill="#B0DAE4" fill-opacity="0.5"/>
</g>
</g>
<defs>
<clipPath id="clip0_16_11106">
<rect width="35" height="23" fill="white"/>
</clipPath>
</defs>
</svg>
