<svg width="185" height="57" viewBox="0 0 185 57" fill="none" xmlns="http://www.w3.org/2000/svg">
<path d="M58.1223 43.1536C58.1201 43.7093 58.2291 44.2601 58.4431 44.7739C58.657 45.2878 58.9717 45.7547 59.369 46.1477C59.7663 46.5407 60.2384 46.852 60.7579 47.0637C61.2774 47.2753 61.8342 47.3831 62.396 47.3809H72.7498C73.8979 47.3897 74.9964 47.8448 75.8082 48.6478C76.6201 49.4508 77.0801 50.5374 77.089 51.673V51.7435C77.1021 52.3033 76.9945 52.8595 76.7735 53.3751C76.5524 53.8906 76.2229 54.3537 75.8069 54.7336C75.4122 55.1407 74.9373 55.4633 74.4114 55.6814C73.8855 55.8996 73.32 56.0086 72.7498 56.0018H62.396C58.953 55.9988 55.652 54.6444 53.2176 52.236C50.7833 49.8276 49.4148 46.562 49.4125 43.1564V5.29106C49.406 4.72696 49.5162 4.16749 49.7361 3.647C49.9561 3.12651 50.2813 2.65599 50.6918 2.26431C51.0877 1.86938 51.5598 1.55711 52.0801 1.34604C52.6003 1.13497 53.1582 1.0294 53.7204 1.03558H53.8258C54.3873 1.02952 54.9442 1.13517 55.4635 1.34625C55.9828 1.55733 56.4539 1.86954 56.8488 2.26431C57.2586 2.65617 57.583 3.12685 57.8021 3.64739C58.0211 4.16792 58.1301 4.72729 58.1223 5.29106V43.1536Z" fill="url(#paint0_linear_462_2820)"/>
<path d="M124.547 9.09281C129.978 14.4643 132.694 20.9386 132.696 28.5159C132.697 36.0931 129.981 42.5674 124.547 47.9389C119.094 53.3123 112.541 55.9989 104.888 55.9989C97.2353 55.9989 90.6889 53.3123 85.2489 47.9389C79.8109 42.573 77.0919 36.0987 77.0919 28.5159C77.0919 20.933 79.8071 14.4587 85.2376 9.09281C90.668 3.72132 97.2144 1.03558 104.877 1.03558C112.539 1.03558 119.096 3.72132 124.547 9.09281ZM91.3917 15.1435C87.6669 18.8278 85.8055 23.2853 85.8074 28.5159C85.8093 33.7464 87.6707 38.2039 91.3917 41.8882C95.1164 45.5462 99.6114 47.3762 104.877 47.3781C110.142 47.3799 114.647 45.55 118.393 41.8882C122.116 38.2058 123.978 33.7483 123.98 28.5159C123.982 23.2834 122.12 18.8259 118.393 15.1435C114.67 11.4629 110.165 9.6217 104.877 9.61982C99.5886 9.61794 95.0937 11.4592 91.3917 15.1435Z" fill="url(#paint1_linear_462_2820)"/>
<path d="M176.854 9.0759C182.285 14.4474 185 20.9217 185 28.4989C185 36.0761 182.285 42.5505 176.854 47.922C171.397 53.2935 164.84 55.9792 157.181 55.9792C149.523 55.9792 142.977 53.2935 137.545 47.922C132.114 42.5505 129.399 36.0761 129.399 28.4989C129.399 20.9217 132.114 14.4474 137.545 9.0759C142.975 3.70441 149.521 1.01773 157.181 1.01585C164.841 1.01397 171.399 3.70066 176.854 9.0759ZM143.699 15.1266C139.974 18.809 138.113 23.2665 138.115 28.4989C138.117 33.7314 139.978 38.186 143.699 41.8629C147.422 45.5228 151.916 47.3527 157.181 47.3527C162.446 47.3527 166.953 45.5228 170.7 41.8629C174.425 38.1823 176.286 33.7258 176.284 28.4933C176.283 23.2608 174.421 18.8034 170.7 15.1209C166.975 11.4385 162.469 9.59727 157.181 9.59727C151.893 9.59727 147.399 11.4404 143.699 15.1266Z" fill="url(#paint2_linear_462_2820)"/>
<path d="M20.9525 43.5537L33.1896 3.88472C33.8563 1.96083 35.2087 0.998884 37.2467 0.998884H37.4946C38.1856 0.973519 38.8719 1.12145 39.4896 1.42892C40.1073 1.73639 40.6364 2.1934 41.0275 2.75744C41.5705 3.4545 41.8704 4.30686 41.8823 5.18673C41.8761 5.69174 41.7796 6.19168 41.5974 6.66347L27.0012 51.8449C25.9053 54.5841 23.8776 55.9538 20.9183 55.9538C17.959 55.9538 15.9314 54.5841 14.8354 51.8449L0.284913 6.66347C0.10041 6.17959 0.00395143 5.66723 0 5.15009C0.00734113 4.28665 0.293887 3.44819 0.817701 2.75744C1.21188 2.19912 1.73991 1.74623 2.35449 1.43933C2.96907 1.13242 3.65101 0.98109 4.33923 0.998884H4.58996C6.65843 0.998884 8.02221 1.96083 8.68131 3.88472L20.9525 43.5537Z" fill="url(#paint3_linear_462_2820)"/>
<defs>
<linearGradient id="paint0_linear_462_2820" x1="-438.976" y1="13.7465" x2="54.3323" y2="685.464" gradientUnits="userSpaceOnUse">
<stop stop-color="#6795CE"/>
<stop offset="0.69" stop-color="#5BB1B4"/>
<stop offset="1" stop-color="#55C0A7"/>
</linearGradient>
<linearGradient id="paint1_linear_462_2820" x1="-304.469" y1="4.68516" x2="175.783" y2="330.172" gradientUnits="userSpaceOnUse">
<stop stop-color="#6795CE"/>
<stop offset="0.69" stop-color="#5BB1B4"/>
<stop offset="1" stop-color="#55C0A7"/>
</linearGradient>
<linearGradient id="paint2_linear_462_2820" x1="-471.71" y1="-5.34413" x2="8.55165" y2="320.166" gradientUnits="userSpaceOnUse">
<stop stop-color="#6795CE"/>
<stop offset="0.69" stop-color="#5BB1B4"/>
<stop offset="1" stop-color="#55C0A7"/>
</linearGradient>
<linearGradient id="paint3_linear_462_2820" x1="-17.374" y1="19.2214" x2="184.868" y2="60.4505" gradientUnits="userSpaceOnUse">
<stop stop-color="#6795CE"/>
<stop offset="0.69" stop-color="#5BB1B4"/>
<stop offset="1" stop-color="#55C0A7"/>
</linearGradient>
</defs>
</svg>
