<svg width="20" height="20" viewBox="0 0 20 20" fill="none" xmlns="http://www.w3.org/2000/svg">
<path d="M4.16862 16.667C4.16862 17.5862 4.91612 18.3337 5.83529 18.3337H14.1686C15.0878 18.3337 15.8353 17.5862 15.8353 16.667V6.66699H17.502V5.00033H15.002H14.1686V3.33366C14.1686 2.41449 13.4211 1.66699 12.502 1.66699H7.50195C6.58279 1.66699 5.83529 2.41449 5.83529 3.33366V5.00033H5.00195H2.50195V6.66699H4.16862V16.667ZM7.50195 3.33366H12.502V5.00033H7.50195V3.33366ZM6.66862 6.66699H13.3353H14.1686L14.1695 16.667H5.83529V6.66699H6.66862Z" fill="#FFA6A6"/>
<path d="M7.50195 8.33301H9.16862V14.9997H7.50195V8.33301ZM10.8353 8.33301H12.502V14.9997H10.8353V8.33301Z" fill="#FFA6A6"/>
</svg>
