<svg width="16" height="16" viewBox="0 0 16 16" fill="none" xmlns="http://www.w3.org/2000/svg">
<path fill-rule="evenodd" clip-rule="evenodd" d="M14.2222 8.74045C14.2222 8.24978 14.6204 7.85156 15.1111 7.85156C15.6018 7.85156 16 8.24978 16 8.74045V13.688C16 14.9627 14.9627 16 13.6889 16H2.31111C1.03733 16 0 14.9627 0 13.688V2.31111C0 1.03644 1.03733 0 2.31111 0H10.8151C11.3058 0 11.704 0.397333 11.704 0.888889C11.704 1.37956 11.3058 1.77778 10.8151 1.77778H2.31111C2.01689 1.77778 1.77778 2.01689 1.77778 2.31111V13.688C1.77778 13.9822 2.01689 14.2222 2.31111 14.2222H13.6889C13.9831 14.2222 14.2222 13.9822 14.2222 13.688V8.74045ZM5.60826 7.06292C5.96382 6.72337 6.5256 6.73759 6.86515 7.09226L8.20293 8.49492L13.5834 2.9367C13.9238 2.5847 14.4865 2.57404 14.8403 2.91626C15.1932 3.25759 15.202 3.82026 14.8607 4.17315L8.83671 10.3954C8.6696 10.5687 8.43937 10.6665 8.19849 10.6665H8.19493C7.95315 10.6656 7.72204 10.566 7.55493 10.3909L5.57893 8.31981C5.23938 7.96426 5.2536 7.40159 5.60826 7.06292Z" fill="#B0DAE4"/>
</svg>
