<svg width="28" height="28" viewBox="0 0 28 28" fill="none" xmlns="http://www.w3.org/2000/svg">
<path d="M22.1059 12.9637C21.5961 8.94801 18.1567 5.83301 14.0046 5.83301C10.7892 5.83301 7.99622 7.71251 6.72106 10.6747C4.21506 11.4237 2.33789 13.7897 2.33789 16.333C2.33789 19.5495 4.95472 22.1663 8.17122 22.1663H9.33789V19.833H8.17122C6.24156 19.833 4.67122 18.2627 4.67122 16.333C4.67122 14.695 6.07006 13.1165 7.78972 12.8143L8.46756 12.6953L8.69156 12.0443C9.51172 9.65151 11.5476 8.16634 14.0046 8.16634C17.2211 8.16634 19.8379 10.7832 19.8379 13.9997V15.1663H21.0046C22.2914 15.1663 23.3379 16.2128 23.3379 17.4997C23.3379 18.7865 22.2914 19.833 21.0046 19.833H18.6712V22.1663H21.0046C23.5782 22.1663 25.6712 20.0733 25.6712 17.4997C25.6712 15.3052 24.1487 13.4607 22.1059 12.9637Z" fill="#31C7E0"/>
<path d="M15.1712 16.3337V11.667H12.8379V16.3337H9.33789L14.0046 22.167L18.6712 16.3337H15.1712Z" fill="#31C7E0"/>
</svg>
