<svg width="30" height="30" viewBox="0 0 30 30" fill="none" xmlns="http://www.w3.org/2000/svg">
<path d="M29.109 6.12937L15.609 0.129375C15.219 -0.043125 14.7795 -0.043125 14.3895 0.129375L0.8895 6.12937C0.8595 6.14287 0.8385 6.16537 0.8085 6.18187C0.7665 6.20287 0.7215 6.21637 0.6825 6.24187C0.6495 6.26437 0.624 6.29287 0.5925 6.31687C0.5505 6.34837 0.51 6.38287 0.4725 6.41887C0.411 6.47737 0.357 6.54038 0.3075 6.60787C0.2775 6.64988 0.246 6.68738 0.219 6.72937C0.1725 6.80888 0.138 6.89138 0.105 6.97687C0.0914999 7.01737 0.0705001 7.05487 0.0585001 7.09538C0.0225001 7.22587 0 7.36087 0 7.50037V22.5004C0 23.0944 0.348 23.6299 0.891 23.8714L14.391 29.8714C14.586 29.9584 14.793 30.0004 15 30.0004C15.2085 30.0004 15.4095 29.9419 15.603 29.8564L15.609 29.8714L29.109 23.8714C29.652 23.6299 30 23.0944 30 22.5004V7.50037C30 6.90637 29.652 6.37087 29.109 6.12937ZM15 3.14287L24.807 7.50037L15 11.8579L13.038 10.9864L5.1945 7.50037L15 3.14287ZM3 21.5269V9.80887L13.5 14.4754V26.1919L3 21.5269ZM16.5 26.1919V14.4754L27 9.80887V21.5269L16.5 26.1919Z" fill="#31C7E0"/>
</svg>
