<svg width="37" height="37" viewBox="0 0 37 37" fill="none" xmlns="http://www.w3.org/2000/svg">
<path d="M18.4375 13.8281C15.9146 13.8281 13.8281 15.9162 13.8281 18.4375C13.8281 20.9604 15.9146 23.0469 18.4375 23.0469C20.9588 23.0469 23.0469 20.9604 23.0469 18.4375C23.0469 15.9162 20.9588 13.8281 18.4375 13.8281Z" fill="#808080"/>
<path d="M18.4378 7.68359C6.71 7.68359 3.18536 17.8503 3.1531 17.9533L2.99023 18.4388L3.15156 18.9243C3.18536 19.0273 6.71 29.194 18.4378 29.194C30.1656 29.194 33.6902 19.0273 33.7225 18.9243L33.8853 18.4388L33.724 17.9533C33.6902 17.8503 30.1656 7.68359 18.4378 7.68359ZM18.4378 26.1211C10.2162 26.1211 7.03112 20.2119 6.25982 18.4388C7.03419 16.6596 10.2208 10.7565 18.4378 10.7565C26.6594 10.7565 29.8445 16.6657 30.6158 18.4388C29.8414 20.218 26.6548 26.1211 18.4378 26.1211Z" fill="#808080"/>
</svg>
