<svg width="30" height="29" viewBox="0 0 30 29" fill="none" xmlns="http://www.w3.org/2000/svg">
<g id="Group 2907">
<g id="Icon - transition - apparaitre">
<path id="Trac&#195;&#169; 8960" d="M29.5585 0.000118748H28.6964C28.6401 -0.00120389 28.5841 0.00853373 28.5316 0.0287589C28.4792 0.0489841 28.4314 0.0792882 28.3911 0.117889C28.3507 0.156489 28.3187 0.202607 28.2968 0.253528C28.2749 0.304449 28.2637 0.359146 28.2637 0.414401C28.2637 0.469656 28.2749 0.524353 28.2968 0.575274C28.3187 0.626195 28.3507 0.672313 28.3911 0.710913C28.4314 0.749514 28.4792 0.779818 28.5316 0.800043C28.5841 0.820268 28.6401 0.830006 28.6964 0.828683H29.1191V1.24308C29.1177 1.29832 29.1277 1.35327 29.1483 1.40469C29.1689 1.45611 29.1998 1.50297 29.2392 1.5425C29.2786 1.58204 29.3256 1.61345 29.3775 1.6349C29.4295 1.65636 29.4853 1.6674 29.5416 1.6674C29.598 1.6674 29.6538 1.65636 29.7057 1.6349C29.7576 1.61345 29.8047 1.58204 29.844 1.5425C29.8834 1.50297 29.9143 1.45611 29.9349 1.40469C29.9556 1.35327 29.9655 1.29832 29.9642 1.24308V0.397896C29.9649 0.345447 29.955 0.293377 29.9349 0.244769C29.9148 0.196162 29.8849 0.152005 29.8471 0.114914C29.8092 0.0778223 29.7642 0.0485512 29.7146 0.028833C29.6651 0.00911474 29.6119 -0.000649394 29.5585 0.000118748Z" fill="#B0DAE4"/>
<path id="Trac&#195;&#169; 8961" d="M29.5613 6.81057C29.5057 6.81003 29.4505 6.82038 29.399 6.84101C29.3474 6.86165 29.3006 6.89215 29.2613 6.93074C29.2219 6.96933 29.1908 7.01523 29.1697 7.06575C29.1487 7.11627 29.1381 7.1704 29.1387 7.22497V9.21362C29.1413 9.32178 29.187 9.42463 29.266 9.50021C29.3449 9.57579 29.4509 9.6181 29.5612 9.6181C29.6716 9.6181 29.7775 9.57579 29.8565 9.50021C29.9354 9.42463 29.9811 9.32178 29.9838 9.21362V7.22497C29.9843 7.17042 29.9738 7.11631 29.9527 7.0658C29.9317 7.0153 29.9006 6.96941 29.8613 6.93082C29.8219 6.89224 29.7752 6.86173 29.7237 6.84108C29.6722 6.82043 29.617 6.81006 29.5613 6.81057Z" fill="#B0DAE4"/>
<path id="Trac&#195;&#169; 8962" d="M29.5613 2.834C29.5057 2.83346 29.4505 2.84381 29.399 2.86445C29.3474 2.88508 29.3006 2.91559 29.2613 2.95418C29.2219 2.99277 29.1908 3.03866 29.1697 3.08918C29.1487 3.13971 29.1381 3.19384 29.1387 3.24841V5.23706C29.1413 5.34521 29.187 5.44807 29.266 5.52365C29.3449 5.59923 29.4509 5.64154 29.5612 5.64154C29.6716 5.64154 29.7775 5.59923 29.8565 5.52365C29.9354 5.44807 29.9811 5.34521 29.9838 5.23706V3.24841C29.9843 3.19386 29.9738 3.13975 29.9527 3.08924C29.9317 3.03873 29.9006 2.99285 29.8613 2.95426C29.8219 2.91568 29.7752 2.88517 29.7237 2.86452C29.6722 2.84387 29.617 2.8335 29.5613 2.834Z" fill="#B0DAE4"/>
<path id="Trac&#195;&#169; 8963" d="M29.5614 14.7656C29.5058 14.7651 29.4506 14.7755 29.3991 14.7961C29.3475 14.8167 29.3007 14.8472 29.2614 14.8858C29.222 14.9244 29.1909 14.9703 29.1698 15.0208C29.1488 15.0713 29.1382 15.1255 29.1388 15.18V17.1687C29.1374 17.2239 29.1474 17.2789 29.168 17.3303C29.1886 17.3817 29.2195 17.4286 29.2589 17.4681C29.2983 17.5077 29.3453 17.5391 29.3972 17.5605C29.4492 17.582 29.505 17.593 29.5613 17.593C29.6177 17.593 29.6735 17.582 29.7254 17.5605C29.7773 17.5391 29.8244 17.5077 29.8637 17.4681C29.9031 17.4286 29.934 17.3817 29.9546 17.3303C29.9753 17.2789 29.9852 17.2239 29.9839 17.1687V15.18C29.9844 15.1255 29.9739 15.0714 29.9528 15.0209C29.9318 14.9704 29.9007 14.9245 29.8614 14.8859C29.822 14.8473 29.7753 14.8168 29.7238 14.7962C29.6723 14.7755 29.6171 14.7651 29.5614 14.7656Z" fill="#B0DAE4"/>
<path id="Trac&#195;&#169; 8964" d="M29.5613 18.7266C29.5057 18.726 29.4505 18.7364 29.399 18.757C29.3474 18.7777 29.3006 18.8082 29.2613 18.8468C29.2219 18.8853 29.1908 18.9312 29.1697 18.9818C29.1487 19.0323 29.1381 19.0864 29.1387 19.141V21.1296C29.1413 21.2378 29.187 21.3406 29.266 21.4162C29.3449 21.4918 29.4509 21.5341 29.5612 21.5341C29.6716 21.5341 29.7775 21.4918 29.8565 21.4162C29.9354 21.3406 29.9811 21.2378 29.9838 21.1296V19.141C29.9821 19.0316 29.937 18.9272 29.8582 18.8499C29.7793 18.7725 29.6729 18.7283 29.5613 18.7266Z" fill="#B0DAE4"/>
<path id="Trac&#195;&#169; 8965" d="M29.5613 10.7871C29.5057 10.7866 29.4505 10.7969 29.399 10.8176C29.3474 10.8382 29.3006 10.8687 29.2613 10.9073C29.2219 10.9459 29.1908 10.9918 29.1697 11.0423C29.1487 11.0928 29.1381 11.147 29.1387 11.2015V13.1902C29.1413 13.2983 29.187 13.4012 29.266 13.4768C29.3449 13.5524 29.4509 13.5947 29.5612 13.5947C29.6716 13.5947 29.7775 13.5524 29.8565 13.4768C29.9354 13.4012 29.9811 13.2983 29.9838 13.1902V11.2015C29.9843 11.147 29.9738 11.0929 29.9527 11.0424C29.9317 10.9919 29.9006 10.946 29.8613 10.9074C29.8219 10.8688 29.7752 10.8383 29.7237 10.8176C29.6722 10.797 29.617 10.7866 29.5613 10.7871Z" fill="#B0DAE4"/>
<path id="Trac&#195;&#169; 8966" d="M29.5613 22.7031C29.5056 22.7026 29.4504 22.713 29.3989 22.7336C29.3474 22.7542 29.3005 22.7847 29.2612 22.8233C29.2218 22.8619 29.1907 22.9078 29.1697 22.9583C29.1486 23.0088 29.1381 23.063 29.1386 23.1175V23.5319H28.716C28.6596 23.5306 28.6036 23.5404 28.5511 23.5606C28.4987 23.5808 28.4509 23.6111 28.4106 23.6497C28.3703 23.6883 28.3382 23.7344 28.3164 23.7854C28.2945 23.8363 28.2832 23.891 28.2832 23.9462C28.2832 24.0015 28.2945 24.0562 28.3164 24.1071C28.3382 24.158 28.3703 24.2041 28.4106 24.2427C28.4509 24.2813 28.4987 24.3116 28.5511 24.3319C28.6036 24.3521 28.6596 24.3618 28.716 24.3605H29.5773C29.6329 24.361 29.6881 24.3507 29.7396 24.3301C29.7912 24.3094 29.838 24.2789 29.8773 24.2403C29.9167 24.2017 29.9478 24.1558 29.9689 24.1053C29.9899 24.0548 30.0005 24.0007 29.9999 23.9461V23.1009C29.9879 22.9939 29.937 22.8948 29.8564 22.8217C29.7758 22.7486 29.671 22.7065 29.5613 22.7031Z" fill="#B0DAE4"/>
<path id="Trac&#195;&#169; 8967" d="M22.6134 23.5489H20.5851C20.5288 23.5476 20.4727 23.5574 20.4203 23.5776C20.3678 23.5978 20.3201 23.6281 20.2797 23.6667C20.2394 23.7053 20.2074 23.7514 20.1855 23.8024C20.1636 23.8533 20.1523 23.908 20.1523 23.9632C20.1523 24.0185 20.1636 24.0732 20.1855 24.1241C20.2074 24.175 20.2394 24.2211 20.2797 24.2597C20.3201 24.2983 20.3678 24.3286 20.4203 24.3489C20.4727 24.3691 20.5288 24.3788 20.5851 24.3775H22.6134C22.6697 24.3788 22.7257 24.3691 22.7782 24.3489C22.8306 24.3286 22.8784 24.2983 22.9187 24.2597C22.9591 24.2211 22.9911 24.175 23.013 24.1241C23.0348 24.0732 23.0461 24.0185 23.0461 23.9632C23.0461 23.908 23.0348 23.8533 23.013 23.8024C22.9911 23.7514 22.9591 23.7053 22.9187 23.6667C22.8784 23.6281 22.8306 23.5978 22.7782 23.5776C22.7257 23.5574 22.6697 23.5476 22.6134 23.5489Z" fill="#B0DAE4"/>
<path id="Trac&#195;&#169; 8968" d="M26.67 23.5489H24.6418C24.5854 23.5476 24.5294 23.5574 24.4769 23.5776C24.4245 23.5978 24.3767 23.6281 24.3364 23.6667C24.2961 23.7053 24.264 23.7514 24.2421 23.8024C24.2203 23.8533 24.209 23.908 24.209 23.9632C24.209 24.0185 24.2203 24.0732 24.2421 24.1241C24.264 24.175 24.2961 24.2211 24.3364 24.2597C24.3767 24.2983 24.4245 24.3286 24.4769 24.3489C24.5294 24.3691 24.5854 24.3788 24.6418 24.3775H26.67C26.7263 24.3788 26.7824 24.3691 26.8348 24.3489C26.8873 24.3286 26.935 24.2983 26.9754 24.2597C27.0157 24.2211 27.0477 24.175 27.0696 24.1241C27.0915 24.0732 27.1028 24.0185 27.1028 23.9632C27.1028 23.908 27.0915 23.8533 27.0696 23.8024C27.0477 23.7514 27.0157 23.7053 26.9754 23.6667C26.935 23.6281 26.8873 23.5978 26.8348 23.5776C26.7824 23.5574 26.7263 23.5476 26.67 23.5489Z" fill="#B0DAE4"/>
<path id="Trac&#195;&#169; 8969" d="M14.5174 23.5489H12.4894C12.4331 23.5476 12.377 23.5574 12.3246 23.5776C12.2721 23.5978 12.2244 23.6281 12.184 23.6667C12.1437 23.7053 12.1117 23.7514 12.0898 23.8024C12.0679 23.8533 12.0566 23.908 12.0566 23.9632C12.0566 24.0185 12.0679 24.0732 12.0898 24.1241C12.1117 24.175 12.1437 24.2211 12.184 24.2597C12.2244 24.2983 12.2721 24.3286 12.3246 24.3489C12.377 24.3691 12.4331 24.3788 12.4894 24.3775H14.5177C14.574 24.3788 14.63 24.3691 14.6825 24.3489C14.7349 24.3286 14.7827 24.2983 14.823 24.2597C14.8634 24.2211 14.8954 24.175 14.9173 24.1241C14.9391 24.0732 14.9504 24.0185 14.9504 23.9632C14.9504 23.908 14.9391 23.8533 14.9173 23.8024C14.8954 23.7514 14.8634 23.7053 14.823 23.6667C14.7827 23.6281 14.7349 23.5978 14.6825 23.5776C14.63 23.5574 14.574 23.5476 14.5177 23.5489H14.5174Z" fill="#B0DAE4"/>
<path id="Trac&#195;&#169; 8970" d="M10.4627 23.5489H8.43472C8.37838 23.5476 8.32234 23.5574 8.2699 23.5776C8.21746 23.5978 8.16967 23.6281 8.12934 23.6667C8.08902 23.7053 8.05698 23.7514 8.0351 23.8024C8.01322 23.8533 8.00195 23.908 8.00195 23.9632C8.00195 24.0185 8.01322 24.0732 8.0351 24.1241C8.05698 24.175 8.08902 24.2211 8.12934 24.2597C8.16967 24.2983 8.21746 24.3286 8.2699 24.3489C8.32234 24.3691 8.37838 24.3788 8.43472 24.3775H10.463C10.5193 24.3788 10.5753 24.3691 10.6278 24.3489C10.6802 24.3286 10.728 24.2983 10.7683 24.2597C10.8087 24.2211 10.8407 24.175 10.8626 24.1241C10.8845 24.0732 10.8957 24.0185 10.8957 23.9632C10.8957 23.908 10.8845 23.8533 10.8626 23.8024C10.8407 23.7514 10.8087 23.7053 10.7683 23.6667C10.728 23.6281 10.6802 23.5978 10.6278 23.5776C10.5753 23.5574 10.5193 23.5476 10.463 23.5489H10.4627Z" fill="#B0DAE4"/>
<path id="Trac&#195;&#169; 8971" d="M18.5743 23.5489H16.5461C16.4897 23.5476 16.4337 23.5574 16.3812 23.5776C16.3288 23.5978 16.281 23.6281 16.2407 23.6667C16.2003 23.7053 16.1683 23.7514 16.1464 23.8024C16.1246 23.8533 16.1133 23.908 16.1133 23.9632C16.1133 24.0185 16.1246 24.0732 16.1464 24.1241C16.1683 24.175 16.2003 24.2211 16.2407 24.2597C16.281 24.2983 16.3288 24.3286 16.3812 24.3489C16.4337 24.3691 16.4897 24.3788 16.5461 24.3775H18.5743C18.6306 24.3788 18.6867 24.3691 18.7391 24.3489C18.7916 24.3286 18.8393 24.2983 18.8797 24.2597C18.92 24.2211 18.952 24.175 18.9739 24.1241C18.9958 24.0732 19.0071 24.0185 19.0071 23.9632C19.0071 23.908 18.9958 23.8533 18.9739 23.8024C18.952 23.7514 18.92 23.7053 18.8797 23.6667C18.8393 23.6281 18.7916 23.5978 18.7391 23.5776C18.6867 23.5574 18.6306 23.5476 18.5743 23.5489Z" fill="#B0DAE4"/>
<path id="Trac&#195;&#169; 8972" d="M6.4065 23.5477H5.98385V23.1333C5.9852 23.0781 5.97527 23.0231 5.95464 22.9717C5.93402 22.9203 5.90311 22.8734 5.86374 22.8339C5.82437 22.7944 5.77733 22.7629 5.7254 22.7415C5.67346 22.72 5.61768 22.709 5.56132 22.709C5.50497 22.709 5.44918 22.72 5.39725 22.7415C5.34531 22.7629 5.29828 22.7944 5.25891 22.8339C5.21954 22.8734 5.18863 22.9203 5.168 22.9717C5.14738 23.0231 5.13744 23.0781 5.13879 23.1333V23.9778C5.13824 24.0324 5.1488 24.0865 5.16984 24.137C5.19089 24.1875 5.222 24.2334 5.26136 24.272C5.30072 24.3106 5.34753 24.3411 5.39905 24.3617C5.45058 24.3824 5.50579 24.3927 5.56144 24.3922H6.4065C6.46214 24.3927 6.51732 24.3823 6.56882 24.3617C6.62032 24.341 6.6671 24.3105 6.70643 24.2719C6.74576 24.2333 6.77685 24.1875 6.79788 24.1369C6.81891 24.0864 6.82946 24.0323 6.82891 23.9778C6.83041 23.866 6.7869 23.7582 6.70783 23.6777C6.62875 23.5971 6.52047 23.5504 6.4065 23.5477Z" fill="#B0DAE4"/>
<path id="Trac&#195;&#169; 8973" d="M5.54377 18.7266C5.48811 18.726 5.4329 18.7364 5.38137 18.757C5.32985 18.7777 5.28304 18.8082 5.24368 18.8468C5.20432 18.8853 5.17321 18.9312 5.15217 18.9818C5.13112 19.0323 5.12056 19.0864 5.12111 19.141V21.1296C5.12376 21.2378 5.16943 21.3406 5.24838 21.4162C5.32734 21.4918 5.4333 21.5341 5.54364 21.5341C5.65399 21.5341 5.75995 21.4918 5.83891 21.4162C5.91786 21.3406 5.96353 21.2378 5.96617 21.1296V19.141C5.96676 19.0864 5.95623 19.0323 5.93521 18.9818C5.91419 18.9313 5.8831 18.8854 5.84377 18.8468C5.80443 18.8082 5.75763 18.7777 5.70612 18.757C5.65461 18.7364 5.59941 18.726 5.54377 18.7266Z" fill="#B0DAE4"/>
<path id="Trac&#195;&#169; 8974" d="M5.54387 14.7659C5.48821 14.7653 5.433 14.7757 5.38147 14.7963C5.32995 14.817 5.28314 14.8475 5.24378 14.886C5.20442 14.9246 5.17331 14.9705 5.15227 15.0211C5.13122 15.0716 5.12066 15.1257 5.12121 15.1803V17.1689C5.11987 17.2242 5.1298 17.2791 5.15042 17.3305C5.17105 17.3819 5.20196 17.4288 5.24133 17.4683C5.2807 17.5079 5.32773 17.5393 5.37967 17.5607C5.4316 17.5822 5.48739 17.5932 5.54374 17.5932C5.6001 17.5932 5.65588 17.5822 5.70782 17.5607C5.75976 17.5393 5.80679 17.5079 5.84616 17.4683C5.88553 17.4288 5.91644 17.3819 5.93706 17.3305C5.95769 17.2791 5.96762 17.2242 5.96627 17.1689V15.1803C5.96827 15.1253 5.95871 15.0706 5.93819 15.0195C5.91767 14.9683 5.88664 14.9219 5.84701 14.883C5.80738 14.8441 5.76002 14.8136 5.70787 14.7935C5.65571 14.7734 5.59989 14.7639 5.54387 14.7659Z" fill="#B0DAE4"/>
<path id="Trac&#195;&#169; 8975" d="M5.54377 10.7874C5.48811 10.7868 5.4329 10.7972 5.38137 10.8178C5.32985 10.8384 5.28304 10.8689 5.24368 10.9075C5.20432 10.9461 5.17321 10.992 5.15217 11.0425C5.13112 11.0931 5.12056 11.1472 5.12111 11.2018V13.1904C5.12376 13.2986 5.16943 13.4014 5.24838 13.477C5.32734 13.5526 5.4333 13.5949 5.54364 13.5949C5.65399 13.5949 5.75995 13.5526 5.83891 13.477C5.91786 13.4014 5.96353 13.2986 5.96617 13.1904V11.2018C5.96817 11.1468 5.95861 11.0921 5.93809 11.0409C5.91757 10.9898 5.88654 10.9433 5.84691 10.9045C5.80728 10.8656 5.75992 10.8351 5.70777 10.815C5.65561 10.7948 5.59979 10.7854 5.54377 10.7874Z" fill="#B0DAE4"/>
<path id="Trac&#195;&#169; 8976" d="M5.54387 6.81079C5.48821 6.81025 5.433 6.8206 5.38147 6.84124C5.32995 6.86187 5.28314 6.89238 5.24378 6.93097C5.20442 6.96955 5.17331 7.01545 5.15227 7.06597C5.13122 7.11649 5.12066 7.17062 5.12121 7.22519V9.21384C5.11987 9.26908 5.1298 9.32403 5.15042 9.37545C5.17105 9.42687 5.20196 9.47372 5.24133 9.51326C5.2807 9.5528 5.32773 9.58421 5.37967 9.60566C5.4316 9.62712 5.48739 9.63817 5.54374 9.63817C5.6001 9.63817 5.65588 9.62712 5.70782 9.60566C5.75976 9.58421 5.80679 9.5528 5.84616 9.51326C5.88553 9.47372 5.91644 9.42687 5.93706 9.37545C5.95769 9.32403 5.96762 9.26908 5.96627 9.21384V7.22519C5.96827 7.17027 5.95871 7.11553 5.93819 7.06438C5.91767 7.01323 5.88664 6.96677 5.84701 6.9279C5.80738 6.88902 5.76002 6.85856 5.70787 6.83842C5.65571 6.81827 5.59989 6.80887 5.54387 6.81079Z" fill="#B0DAE4"/>
<path id="Trac&#195;&#169; 8977" d="M5.54387 2.83423C5.48821 2.83369 5.433 2.84404 5.38147 2.86468C5.32995 2.88531 5.28314 2.91581 5.24378 2.9544C5.20442 2.99299 5.17331 3.03889 5.15227 3.08941C5.13122 3.13993 5.12066 3.19406 5.12121 3.24863V5.23728C5.11987 5.29252 5.1298 5.34747 5.15042 5.39889C5.17105 5.45031 5.20196 5.49716 5.24133 5.5367C5.2807 5.57623 5.32773 5.60765 5.37967 5.6291C5.4316 5.65055 5.48739 5.6616 5.54374 5.6616C5.6001 5.6616 5.65588 5.65055 5.70782 5.6291C5.75976 5.60765 5.80679 5.57623 5.84616 5.5367C5.88553 5.49716 5.91644 5.45031 5.93706 5.39889C5.95769 5.34747 5.96762 5.29252 5.96627 5.23728V3.24863C5.96827 3.1937 5.95871 3.13896 5.93819 3.08782C5.91767 3.03667 5.88664 2.99021 5.84701 2.95134C5.80738 2.91246 5.76002 2.882 5.70787 2.86186C5.65571 2.84171 5.59989 2.8323 5.54387 2.83423Z" fill="#B0DAE4"/>
<path id="Trac&#195;&#169; 8978" d="M6.40491 2.00589e-05H5.54387C5.48821 -0.000519492 5.433 0.0098307 5.38147 0.0304652C5.32995 0.0510998 5.28314 0.0816041 5.24378 0.120193C5.20442 0.158781 5.17331 0.204679 5.15227 0.2552C5.13122 0.305722 5.12066 0.359851 5.12121 0.414421V1.25866C5.11987 1.3139 5.1298 1.36884 5.15042 1.42026C5.17105 1.47168 5.20196 1.51854 5.24133 1.55808C5.2807 1.59761 5.32773 1.62903 5.37967 1.65048C5.4316 1.67193 5.48739 1.68298 5.54374 1.68298C5.6001 1.68298 5.65588 1.67193 5.70782 1.65048C5.75976 1.62903 5.80679 1.59761 5.84616 1.55808C5.88553 1.51854 5.91644 1.47168 5.93706 1.42026C5.95769 1.36884 5.96762 1.3139 5.96627 1.25866V0.845208H6.40491C6.46057 0.845748 6.51577 0.835397 6.5673 0.814763C6.61883 0.794128 6.66564 0.763624 6.705 0.725036C6.74435 0.686447 6.77547 0.640549 6.79651 0.590028C6.81756 0.539506 6.82811 0.485377 6.82756 0.430807C6.82926 0.318875 6.7858 0.210817 6.70665 0.130141C6.62749 0.049465 6.51905 0.00269992 6.40491 2.00589e-05Z" fill="#B0DAE4"/>
<path id="Trac&#195;&#169; 8979" d="M10.4627 0.000118748H8.43472C8.37838 -0.00120389 8.32234 0.00853373 8.2699 0.0287589C8.21746 0.0489841 8.16967 0.0792882 8.12934 0.117889C8.08902 0.156489 8.05698 0.202607 8.0351 0.253528C8.01322 0.304449 8.00195 0.359146 8.00195 0.414401C8.00195 0.469656 8.01322 0.524353 8.0351 0.575274C8.05698 0.626195 8.08902 0.672313 8.12934 0.710913C8.16967 0.749514 8.21746 0.779818 8.2699 0.800043C8.32234 0.820268 8.37838 0.830006 8.43472 0.828683H10.463C10.5186 0.829223 10.5738 0.818873 10.6254 0.798238C10.6769 0.777604 10.7237 0.747099 10.763 0.708511C10.8024 0.669922 10.8335 0.624024 10.8546 0.573503C10.8756 0.522982 10.8862 0.468852 10.8856 0.414282C10.8839 0.304893 10.8387 0.200472 10.7598 0.123157C10.6808 0.0458416 10.5743 0.00171051 10.4627 0.000118748Z" fill="#B0DAE4"/>
<path id="Trac&#195;&#169; 8980" d="M14.5174 0.000118748H12.4894C12.4331 -0.00120389 12.377 0.00853373 12.3246 0.0287589C12.2721 0.0489841 12.2244 0.0792882 12.184 0.117889C12.1437 0.156489 12.1117 0.202607 12.0898 0.253528C12.0679 0.304449 12.0566 0.359146 12.0566 0.414401C12.0566 0.469656 12.0679 0.524353 12.0898 0.575274C12.1117 0.626195 12.1437 0.672313 12.184 0.710913C12.2244 0.749514 12.2721 0.779818 12.3246 0.800043C12.377 0.820268 12.4331 0.830006 12.4894 0.828683H14.5177C14.5733 0.829223 14.6285 0.818873 14.68 0.798238C14.7316 0.777604 14.7784 0.747099 14.8177 0.708511C14.8571 0.669922 14.8882 0.624024 14.9092 0.573503C14.9303 0.522982 14.9409 0.468852 14.9403 0.414282C14.9385 0.304893 14.8934 0.200472 14.8145 0.123157C14.7355 0.0458416 14.629 0.00171051 14.5174 0.000118748Z" fill="#B0DAE4"/>
<path id="Trac&#195;&#169; 8981" d="M18.5743 0.000118748H16.5461C16.4897 -0.00120389 16.4337 0.00853373 16.3812 0.0287589C16.3288 0.0489841 16.281 0.0792882 16.2407 0.117889C16.2003 0.156489 16.1683 0.202607 16.1464 0.253528C16.1246 0.304449 16.1133 0.359146 16.1133 0.414401C16.1133 0.469656 16.1246 0.524353 16.1464 0.575274C16.1683 0.626195 16.2003 0.672313 16.2407 0.710913C16.281 0.749514 16.3288 0.779818 16.3812 0.800043C16.4337 0.820268 16.4897 0.830006 16.5461 0.828683H18.5743C18.6299 0.829223 18.6852 0.818873 18.7367 0.798238C18.7882 0.777604 18.835 0.747099 18.8744 0.708511C18.9137 0.669922 18.9448 0.624024 18.9659 0.573503C18.9869 0.522982 18.9975 0.468852 18.9969 0.414282C18.9952 0.304933 18.9501 0.200547 18.8712 0.123239C18.7923 0.0459299 18.6858 0.00177165 18.5743 0.000118748Z" fill="#B0DAE4"/>
<path id="Trac&#195;&#169; 8982" d="M22.6134 0.000118748H20.5851C20.5288 -0.00120389 20.4727 0.00853373 20.4203 0.0287589C20.3678 0.0489841 20.3201 0.0792882 20.2797 0.117889C20.2394 0.156489 20.2074 0.202607 20.1855 0.253528C20.1636 0.304449 20.1523 0.359146 20.1523 0.414401C20.1523 0.469656 20.1636 0.524353 20.1855 0.575274C20.2074 0.626195 20.2394 0.672313 20.2797 0.710913C20.3201 0.749514 20.3678 0.779818 20.4203 0.800043C20.4727 0.820268 20.5288 0.830006 20.5851 0.828683H22.6134C22.6697 0.830006 22.7257 0.820268 22.7782 0.800043C22.8306 0.779818 22.8784 0.749514 22.9187 0.710913C22.9591 0.672313 22.9911 0.626195 23.013 0.575274C23.0348 0.524353 23.0461 0.469656 23.0461 0.414401C23.0461 0.359146 23.0348 0.304449 23.013 0.253528C22.9911 0.202607 22.9591 0.156489 22.9187 0.117889C22.8784 0.0792882 22.8306 0.0489841 22.7782 0.0287589C22.7257 0.00853373 22.6697 -0.00120389 22.6134 0.000118748Z" fill="#B0DAE4"/>
<path id="Trac&#195;&#169; 8983" d="M26.67 0.000118748H24.6418C24.5854 -0.00120389 24.5294 0.00853373 24.4769 0.0287589C24.4245 0.0489841 24.3767 0.0792882 24.3364 0.117889C24.2961 0.156489 24.264 0.202607 24.2421 0.253528C24.2203 0.304449 24.209 0.359146 24.209 0.414401C24.209 0.469656 24.2203 0.524353 24.2421 0.575274C24.264 0.626195 24.2961 0.672313 24.3364 0.710913C24.3767 0.749514 24.4245 0.779818 24.4769 0.800043C24.5294 0.820268 24.5854 0.830006 24.6418 0.828683H26.67C26.7263 0.830006 26.7824 0.820268 26.8348 0.800043C26.8873 0.779818 26.935 0.749514 26.9754 0.710913C27.0157 0.672313 27.0477 0.626195 27.0696 0.575274C27.0915 0.524353 27.1028 0.469656 27.1028 0.414401C27.1028 0.359146 27.0915 0.304449 27.0696 0.253528C27.0477 0.202607 27.0157 0.156489 26.9754 0.117889C26.935 0.0792882 26.8873 0.0489841 26.8348 0.0287589C26.7824 0.00853373 26.7263 -0.00120389 26.67 0.000118748Z" fill="#B0DAE4"/>
<path id="Rectangle 2119" d="M21.8703 7.55664H0.726562V28.2876H21.8703V7.55664Z" stroke="#B0DAE4" stroke-width="2" stroke-miterlimit="10"/>
</g>
</g>
</svg>
