<svg width="24" height="24" viewBox="0 0 24 24" fill="none" xmlns="http://www.w3.org/2000/svg">
<path d="M12.0004 6C10.173 6 8.63238 7.25283 8.19243 8.94456C8.05343 9.47907 8.51412 9.934 9.06641 9.934C9.61869 9.934 10.0457 9.45767 10.3195 8.97804C10.6529 8.39417 11.2816 8 12.0004 8C13.0664 8 13.9344 8.867 13.9344 9.934C13.9344 10.532 13.4534 10.966 12.7184 11.56C12.4634 11.767 12.2224 11.964 12.0274 12.159C11.0294 13.156 11.0004 14.215 11.0004 14.333C11.0004 14.7014 11.299 15 11.6674 15H12.3674C12.7168 15 13 14.7164 12.9994 14.367C13.0004 14.351 13.0324 13.981 13.4404 13.574C13.5904 13.424 13.7794 13.274 13.9754 13.116C14.7544 12.485 15.9334 11.532 15.9334 9.934C15.9344 7.765 14.1694 6 12.0004 6ZM11.0004 17C11.0004 16.4477 11.4481 16 12.0004 16C12.5527 16 13.0004 16.4477 13.0004 17C13.0004 17.5523 12.5527 18 12.0004 18C11.4481 18 11.0004 17.5523 11.0004 17Z" fill="#B0DAE4"/>
<path d="M12 2C6.486 2 2 6.486 2 12C2 17.514 6.486 22 12 22C17.514 22 22 17.514 22 12C22 6.486 17.514 2 12 2ZM12 20C7.589 20 4 16.411 4 12C4 7.589 7.589 4 12 4C16.411 4 20 7.589 20 12C20 16.411 16.411 20 12 20Z" fill="#B0DAE4"/>
</svg>
