<svg width="28" height="28" viewBox="0 0 28 28" fill="none" xmlns="http://www.w3.org/2000/svg">
<g clip-path="url(#clip0_8_21146)">
<path d="M1.44831 0H0.482611C0.419213 -7.73805e-09 0.356437 0.0124913 0.297869 0.0367603C0.2393 0.0610293 0.186087 0.0966003 0.141269 0.141441C0.0964514 0.186282 0.0609076 0.239514 0.0366681 0.298096C0.0124287 0.356678 -3.12639e-05 0.419462 5.89096e-08 0.482861V1.44858C5.89096e-08 1.57662 0.0508589 1.6994 0.141388 1.78993C0.231918 1.88047 0.354702 1.93133 0.48273 1.93133C0.610758 1.93133 0.733542 1.88047 0.824071 1.78993C0.914601 1.6994 0.96546 1.57662 0.96546 1.44858V0.965723H1.44807C1.57613 0.965754 1.69896 0.914912 1.78953 0.82438C1.88011 0.733849 1.93101 0.611043 1.93104 0.482981C1.93107 0.354918 1.88023 0.232088 1.7897 0.141511C1.69917 0.0509347 1.57637 3.16204e-05 1.44831 0Z" fill="#B0DAE4"/>
<path d="M6.01269 0H3.73078C3.60275 0 3.47996 0.0508602 3.38944 0.141392C3.29891 0.231924 3.24805 0.354711 3.24805 0.482742C3.24805 0.610773 3.29891 0.733561 3.38944 0.824092C3.47996 0.914624 3.60275 0.965484 3.73078 0.965484H6.01269C6.14071 0.965484 6.2635 0.914624 6.35403 0.824092C6.44456 0.733561 6.49542 0.610773 6.49542 0.482742C6.49542 0.354711 6.44456 0.231924 6.35403 0.141392C6.2635 0.0508602 6.14071 0 6.01269 0Z" fill="#B0DAE4"/>
<path d="M10.5771 0H8.29523C8.1672 0 8.04442 0.0508602 7.95389 0.141392C7.86336 0.231924 7.8125 0.354711 7.8125 0.482742C7.8125 0.610773 7.86336 0.733561 7.95389 0.824092C8.04442 0.914624 8.1672 0.965484 8.29523 0.965484H10.5771C10.7052 0.965484 10.828 0.914624 10.9185 0.824092C11.009 0.733561 11.0599 0.610773 11.0599 0.482742C11.0599 0.354711 11.009 0.231924 10.9185 0.141392C10.828 0.0508602 10.7052 0 10.5771 0Z" fill="#B0DAE4"/>
<path d="M19.7046 0H17.4222C17.2942 0 17.1714 0.0508602 17.0808 0.141392C16.9903 0.231924 16.9395 0.354711 16.9395 0.482742C16.9395 0.610773 16.9903 0.733561 17.0808 0.824092C17.1714 0.914624 17.2942 0.965484 17.4222 0.965484H19.7041C19.8321 0.965484 19.9549 0.914624 20.0454 0.824092C20.136 0.733561 20.1868 0.610773 20.1868 0.482742C20.1868 0.354711 20.136 0.231924 20.0454 0.141392C19.9549 0.0508602 19.8321 0 19.7041 0L19.7046 0Z" fill="#B0DAE4"/>
<path d="M15.1416 0H12.8597C12.7317 0 12.6089 0.0508602 12.5183 0.141392C12.4278 0.231924 12.377 0.354711 12.377 0.482742C12.377 0.610773 12.4278 0.733561 12.5183 0.824092C12.6089 0.914624 12.7317 0.965484 12.8597 0.965484H15.1416C15.2696 0.965484 15.3924 0.914624 15.4829 0.824092C15.5735 0.733561 15.6243 0.610773 15.6243 0.482742C15.6243 0.354711 15.5735 0.231924 15.4829 0.141392C15.3924 0.0508602 15.2696 0 15.1416 0Z" fill="#B0DAE4"/>
<path d="M24.2685 0H21.9866C21.8586 0 21.7358 0.0508602 21.6453 0.141392C21.5548 0.231924 21.5039 0.354711 21.5039 0.482742C21.5039 0.610773 21.5548 0.733561 21.6453 0.824092C21.7358 0.914624 21.8586 0.965484 21.9866 0.965484H24.2685C24.3966 0.965484 24.5194 0.914624 24.6099 0.824092C24.7004 0.733561 24.7513 0.610773 24.7513 0.482742C24.7513 0.354711 24.7004 0.231924 24.6099 0.141392C24.5194 0.0508602 24.3966 0 24.2685 0Z" fill="#B0DAE4"/>
<path d="M27.5165 5.90568e-08H26.5511C26.4231 5.90568e-08 26.3003 0.0508602 26.2097 0.141392C26.1192 0.231924 26.0684 0.354711 26.0684 0.482742C26.0684 0.610773 26.1192 0.733561 26.2097 0.824092C26.3003 0.914624 26.4231 0.965484 26.5511 0.965484H27.0337V1.44835C27.0337 1.57638 27.0846 1.69916 27.1751 1.7897C27.2656 1.88023 27.3884 1.93109 27.5164 1.93109C27.6445 1.93109 27.7672 1.88023 27.8578 1.7897C27.9483 1.69916 27.9992 1.57638 27.9992 1.44835V0.482861C27.9992 0.419454 27.9868 0.356655 27.9626 0.298059C27.9383 0.239463 27.9028 0.186219 27.858 0.141371C27.8131 0.0965242 27.7599 0.0609543 27.7013 0.0366965C27.6427 0.0124386 27.58 -3.13154e-05 27.5165 5.90568e-08Z" fill="#B0DAE4"/>
<path d="M27.5158 7.8125C27.3878 7.8125 27.2651 7.86335 27.1746 7.95386C27.0841 8.04437 27.0332 8.16712 27.0332 8.29512V10.5773C27.0332 10.7054 27.0841 10.8281 27.1746 10.9187C27.2651 11.0092 27.3879 11.0601 27.5159 11.0601C27.644 11.0601 27.7667 11.0092 27.8573 10.9187C27.9478 10.8281 27.9987 10.7054 27.9987 10.5773V8.29536C27.9987 8.23195 27.9862 8.16916 27.9619 8.11058C27.9376 8.05199 27.9021 7.99876 27.8572 7.95393C27.8124 7.90909 27.7592 7.87352 27.7006 7.84925C27.642 7.82499 27.5792 7.8125 27.5158 7.8125Z" fill="#B0DAE4"/>
<path d="M27.5158 3.24805C27.3878 3.24805 27.2651 3.29889 27.1746 3.3894C27.0841 3.47991 27.0332 3.60267 27.0332 3.73067V6.01311C27.0332 6.14115 27.0841 6.26393 27.1746 6.35446C27.2651 6.445 27.3879 6.49586 27.5159 6.49586C27.644 6.49586 27.7667 6.445 27.8573 6.35446C27.9478 6.26393 27.9987 6.14115 27.9987 6.01311V3.73091C27.9987 3.60285 27.9478 3.48003 27.8572 3.38947C27.7667 3.29892 27.6439 3.24805 27.5158 3.24805Z" fill="#B0DAE4"/>
<path d="M27.5158 21.5059C27.3878 21.5059 27.2651 21.5567 27.1746 21.6472C27.0841 21.7377 27.0332 21.8605 27.0332 21.9885V24.2707C27.0332 24.3987 27.0841 24.5215 27.1746 24.612C27.2651 24.7026 27.3879 24.7534 27.5159 24.7534C27.644 24.7534 27.7667 24.7026 27.8573 24.612C27.9478 24.5215 27.9987 24.3987 27.9987 24.2707V21.9885C27.9986 21.8605 27.9477 21.7377 27.8572 21.6472C27.7666 21.5567 27.6438 21.5059 27.5158 21.5059Z" fill="#B0DAE4"/>
<path d="M27.5158 12.377C27.3878 12.377 27.2651 12.4278 27.1746 12.5183C27.0841 12.6088 27.0332 12.7316 27.0332 12.8596V15.1408C27.0332 15.2689 27.0841 15.3916 27.1746 15.4822C27.2651 15.5727 27.3879 15.6236 27.5159 15.6236C27.644 15.6236 27.7667 15.5727 27.8573 15.4822C27.9478 15.3916 27.9987 15.2689 27.9987 15.1408V12.8596C27.9987 12.7962 27.9862 12.7334 27.9619 12.6748C27.9376 12.6163 27.9021 12.563 27.8572 12.5182C27.8124 12.4734 27.7592 12.4379 27.7006 12.4136C27.642 12.3894 27.5792 12.3769 27.5158 12.377Z" fill="#B0DAE4"/>
<path d="M27.5158 16.9414C27.3878 16.9414 27.2651 16.9923 27.1746 17.0828C27.0841 17.1733 27.0332 17.296 27.0332 17.424V19.7062C27.0332 19.8343 27.0841 19.9571 27.1746 20.0476C27.2651 20.1381 27.3879 20.189 27.5159 20.189C27.644 20.189 27.7667 20.1381 27.8573 20.0476C27.9478 19.9571 27.9987 19.8343 27.9987 19.7062V17.4238C27.9985 17.2958 27.9476 17.1731 27.8571 17.0827C27.7665 16.9922 27.6438 16.9414 27.5158 16.9414Z" fill="#B0DAE4"/>
<path d="M27.5163 26.0703C27.3883 26.0704 27.2656 26.1212 27.1751 26.2117C27.0846 26.3022 27.0338 26.425 27.0337 26.5529V27.0356H26.5511C26.4231 27.0356 26.3003 27.0864 26.2097 27.1769C26.1192 27.2675 26.0684 27.3903 26.0684 27.5183C26.0684 27.6463 26.1192 27.7691 26.2097 27.8597C26.3003 27.9502 26.4231 28.001 26.5511 28.001H27.5165C27.6445 28.001 27.7673 27.9502 27.8578 27.8597C27.9483 27.7692 27.9992 27.6464 27.9992 27.5184V26.5529C27.9991 26.4249 27.9482 26.3022 27.8577 26.2117C27.7671 26.1212 27.6443 26.0703 27.5163 26.0703Z" fill="#B0DAE4"/>
<path d="M19.705 27.0352H17.4222C17.2942 27.0352 17.1714 27.086 17.0808 27.1765C16.9903 27.2671 16.9395 27.3899 16.9395 27.5179C16.9395 27.6459 16.9903 27.7687 17.0808 27.8592C17.1714 27.9498 17.2942 28.0006 17.4222 28.0006H19.7041C19.8321 28.0006 19.9549 27.9498 20.0454 27.8592C20.136 27.7687 20.1868 27.6459 20.1868 27.5179C20.1868 27.3899 20.136 27.2671 20.0454 27.1765C19.9549 27.086 19.8321 27.0352 19.7041 27.0352H19.705Z" fill="#B0DAE4"/>
<path d="M24.2705 27.0352H21.9886C21.8606 27.0352 21.7378 27.086 21.6472 27.1765C21.5567 27.2671 21.5059 27.3899 21.5059 27.5179C21.5059 27.6459 21.5567 27.7687 21.6472 27.8592C21.7378 27.9498 21.8606 28.0006 21.9886 28.0006H24.2705C24.3985 28.0006 24.5213 27.9498 24.6118 27.8592C24.7024 27.7687 24.7532 27.6459 24.7532 27.5179C24.7532 27.3899 24.7024 27.2671 24.6118 27.1765C24.5213 27.086 24.3985 27.0352 24.2705 27.0352Z" fill="#B0DAE4"/>
<path d="M10.5771 27.0352H8.29523C8.1672 27.0352 8.04442 27.086 7.95389 27.1765C7.86336 27.2671 7.8125 27.3899 7.8125 27.5179C7.8125 27.6459 7.86336 27.7687 7.95389 27.8592C8.04442 27.9498 8.1672 28.0006 8.29523 28.0006H10.5771C10.7052 28.0006 10.8279 27.9498 10.9185 27.8592C11.009 27.7687 11.0599 27.6459 11.0599 27.5179C11.0599 27.3899 11.009 27.2671 10.9185 27.1765C10.8279 27.086 10.7052 27.0352 10.5771 27.0352Z" fill="#B0DAE4"/>
<path d="M6.01269 27.0352H3.73078C3.60275 27.0352 3.47997 27.086 3.38944 27.1765C3.29891 27.2671 3.24805 27.3899 3.24805 27.5179C3.24805 27.6459 3.29891 27.7687 3.38944 27.8592C3.47997 27.9498 3.60275 28.0006 3.73078 28.0006H6.01269C6.14071 28.0006 6.2635 27.9498 6.35403 27.8592C6.44456 27.7687 6.49542 27.6459 6.49542 27.5179C6.49542 27.3899 6.44456 27.2671 6.35403 27.1765C6.2635 27.086 6.14071 27.0352 6.01269 27.0352Z" fill="#B0DAE4"/>
<path d="M15.1396 27.0352H12.8577C12.7297 27.0352 12.6069 27.086 12.5164 27.1765C12.4259 27.2671 12.375 27.3899 12.375 27.5179C12.375 27.6459 12.4259 27.7687 12.5164 27.8592C12.6069 27.9498 12.7297 28.0006 12.8577 28.0006H15.1396C15.2677 28.0006 15.3905 27.9498 15.481 27.8592C15.5715 27.7687 15.6224 27.6459 15.6224 27.5179C15.6224 27.3899 15.5715 27.2671 15.481 27.1765C15.3905 27.086 15.2677 27.0352 15.1396 27.0352Z" fill="#B0DAE4"/>
<path d="M1.44831 27.0348H0.96546V26.5522C0.962655 26.426 0.910565 26.306 0.820341 26.2177C0.730117 26.1295 0.608931 26.0801 0.48273 26.0801C0.356528 26.0801 0.235343 26.1295 0.145119 26.2177C0.0548948 26.306 0.0028043 26.426 0 26.5522L0 27.5177C0 27.6457 0.0508463 27.7685 0.141353 27.859C0.23186 27.9495 0.354614 28.0003 0.482611 28.0003H1.44831C1.57634 28.0003 1.69912 27.9495 1.78965 27.8589C1.88018 27.7684 1.93104 27.6456 1.93104 27.5176C1.93104 27.3895 1.88018 27.2668 1.78965 27.1762C1.69912 27.0857 1.57634 27.0348 1.44831 27.0348Z" fill="#B0DAE4"/>
<path d="M0.482611 21.5059C0.354634 21.5059 0.231917 21.5568 0.141423 21.6473C0.0509298 21.7378 6.31829e-05 21.8605 0 21.9885L0 24.2707C0 24.3987 0.0508589 24.5215 0.141388 24.612C0.231918 24.7026 0.354702 24.7534 0.48273 24.7534C0.610758 24.7534 0.733542 24.7026 0.824071 24.612C0.914601 24.5215 0.96546 24.3987 0.96546 24.2707V21.9885C0.965491 21.9251 0.953021 21.8623 0.928764 21.8037C0.904507 21.7451 0.868938 21.6919 0.824092 21.6471C0.779246 21.6022 0.726003 21.5667 0.667408 21.5425C0.608813 21.5182 0.546017 21.5058 0.482611 21.5059Z" fill="#B0DAE4"/>
<path d="M0.482611 16.9414C0.354656 16.9414 0.231938 16.9922 0.141438 17.0827C0.0509375 17.1731 6.32189e-05 17.2958 0 17.4238L0 19.706C0 19.834 0.0508589 19.9568 0.141388 20.0473C0.231918 20.1379 0.354702 20.1887 0.48273 20.1887C0.610758 20.1887 0.733542 20.1379 0.824071 20.0473C0.914601 19.9568 0.96546 19.834 0.96546 19.706V17.4238C0.965428 17.3604 0.952914 17.2977 0.928632 17.2391C0.90435 17.1806 0.868774 17.1274 0.823938 17.0826C0.779101 17.0378 0.725881 17.0023 0.667316 16.9781C0.608751 16.9538 0.545988 16.9414 0.482611 16.9414Z" fill="#B0DAE4"/>
<path d="M0.482611 7.8125C0.354592 7.81256 0.231839 7.86346 0.141339 7.95401C0.0508387 8.04456 -1.56096e-08 8.16734 0 8.29536V10.5776C0 10.7056 0.0508589 10.8284 0.141388 10.9189C0.231918 11.0094 0.354702 11.0603 0.48273 11.0603C0.610758 11.0603 0.733542 11.0094 0.824071 10.9189C0.914601 10.8284 0.96546 10.7056 0.96546 10.5776V8.29536C0.965491 8.23194 0.953023 8.16914 0.928769 8.11054C0.904514 8.05194 0.868949 7.9987 0.824106 7.95386C0.779263 7.90901 0.726022 7.87345 0.667426 7.84919C0.60883 7.82494 0.546028 7.81247 0.482611 7.8125Z" fill="#B0DAE4"/>
<path d="M0.482612 12.375C0.419143 12.375 0.356303 12.3876 0.297686 12.4119C0.239069 12.4363 0.185826 12.4719 0.141002 12.5168C0.0961784 12.5618 0.0606532 12.6151 0.0364588 12.6738C0.0122644 12.7325 -0.000124436 12.7953 9.42202e-07 12.8588V15.141C9.42202e-07 15.2691 0.0508598 15.3918 0.141389 15.4824C0.231919 15.5729 0.354703 15.6238 0.482731 15.6238C0.610759 15.6238 0.733543 15.5729 0.824072 15.4824C0.914602 15.3918 0.965461 15.2691 0.965461 15.141V12.8588C0.965617 12.7953 0.953242 12.7324 0.929044 12.6737C0.904846 12.615 0.869301 12.5616 0.824445 12.5167C0.77959 12.4717 0.726306 12.4361 0.667648 12.4118C0.608989 12.3875 0.546109 12.375 0.482612 12.375Z" fill="#B0DAE4"/>
<path d="M0.482611 3.24805C0.354614 3.24805 0.23186 3.29889 0.141353 3.3894C0.0508463 3.47991 0 3.60267 0 3.73067L0 6.01288C0 6.14091 0.0508589 6.26369 0.141388 6.35423C0.231918 6.44476 0.354702 6.49562 0.48273 6.49562C0.610758 6.49562 0.733542 6.44476 0.824071 6.35423C0.914601 6.26369 0.96546 6.14091 0.96546 6.01288V3.73067C0.96546 3.66727 0.952969 3.60449 0.9287 3.54592C0.904432 3.48735 0.868862 3.43414 0.824022 3.38932C0.779182 3.3445 0.725951 3.30896 0.667371 3.28472C0.60879 3.26048 0.546008 3.24802 0.482611 3.24805Z" fill="#B0DAE4"/>
<path d="M27.5171 0H14.0007C13.8727 0 13.7499 0.0508476 13.6594 0.141357C13.5689 0.231866 13.5181 0.354623 13.5181 0.482623V12.4147C13.5181 12.5427 13.5689 12.6655 13.6594 12.756C13.75 12.8465 13.8728 12.8974 14.0008 12.8974C14.1288 12.8974 14.2516 12.8465 14.3421 12.756C14.4327 12.6655 14.4835 12.5427 14.4835 12.4147V0.965723H27.035V27.0348H14.483V15.5231C14.483 15.3951 14.4322 15.2723 14.3416 15.1817C14.2511 15.0912 14.1283 15.0404 14.0003 15.0404C13.8723 15.0404 13.7495 15.0912 13.659 15.1817C13.5684 15.2723 13.5176 15.3951 13.5176 15.5231V27.5171C13.5176 27.6451 13.5684 27.7679 13.6589 27.8584C13.7494 27.9489 13.8722 27.9998 14.0002 27.9998H27.5171C27.6451 27.9998 27.7678 27.9489 27.8584 27.8584C27.9489 27.7679 27.9997 27.6451 27.9997 27.5171V0.482861C27.9997 0.419462 27.9873 0.356678 27.963 0.298096C27.9388 0.239514 27.9033 0.186282 27.8584 0.141441C27.8136 0.0966003 27.7604 0.0610293 27.7018 0.0367603C27.6433 0.0124913 27.5805 -7.73805e-09 27.5171 0Z" fill="#B0DAE4"/>
<path d="M21.723 12.0695H9.65487V10.2308C9.6549 10.1451 9.63209 10.0609 9.58878 9.98689C9.54547 9.91289 9.48323 9.85176 9.40845 9.8098C9.33368 9.76783 9.24908 9.74655 9.16336 9.74813C9.07763 9.74971 8.99387 9.7741 8.9207 9.8188L2.80533 13.5584C2.73474 13.6015 2.67641 13.6621 2.63594 13.7342C2.59547 13.8064 2.57422 13.8877 2.57422 13.9705C2.57422 14.0532 2.59547 14.1345 2.63594 14.2067C2.67641 14.2788 2.73474 14.3394 2.80533 14.3825L8.91999 18.1214C8.99316 18.1661 9.07691 18.1905 9.16264 18.1921C9.24837 18.1936 9.33297 18.1724 9.40774 18.1304C9.48251 18.0884 9.54475 18.0273 9.58806 17.9533C9.63137 17.8793 9.65418 17.7951 9.65415 17.7093V15.9315H21.7228C21.8508 15.9315 21.9735 15.8806 22.064 15.7901C22.1545 15.6996 22.2054 15.5768 22.2054 15.4488V12.5524C22.2054 12.489 22.1929 12.4262 22.1687 12.3677C22.1445 12.3091 22.109 12.2559 22.0642 12.2111C22.0194 12.1662 21.9662 12.1306 21.9077 12.1064C21.8491 12.0821 21.7864 12.0696 21.723 12.0695ZM9.17178 14.9653C9.04379 14.9653 8.92103 15.0161 8.83052 15.1066C8.74002 15.1971 8.68917 15.3199 8.68917 15.4479V16.849L3.98252 13.97L8.68893 11.0919V12.5524C8.68925 12.6802 8.74027 12.8027 8.83079 12.893C8.92132 12.9832 9.04395 13.0339 9.17178 13.0338H21.2404V14.9653H9.17178Z" fill="#B0DAE4"/>
</g>
<defs>
<clipPath id="clip0_8_21146">
<rect width="28" height="28" fill="white"/>
</clipPath>
</defs>
</svg>
