<svg width="17" height="17" viewBox="0 0 17 17" fill="none" xmlns="http://www.w3.org/2000/svg">
<g id="icons / bx-plus-circle">
<path id="Vector" d="M8.94485 4.81641H7.5687V7.5687H4.81641V8.94485H7.5687V11.6971H8.94485V8.94485H11.6971V7.5687H8.94485V4.81641Z" fill="#B0DAE4"/>
<path id="Vector_2" d="M8.25671 1.37695C4.46267 1.37695 1.37598 4.46365 1.37598 8.25769C1.37598 12.0517 4.46267 15.1384 8.25671 15.1384C12.0507 15.1384 15.1374 12.0517 15.1374 8.25769C15.1374 4.46365 12.0507 1.37695 8.25671 1.37695ZM8.25671 13.7623C5.22162 13.7623 2.75212 11.2928 2.75212 8.25769C2.75212 5.2226 5.22162 2.7531 8.25671 2.7531C11.2918 2.7531 13.7613 5.2226 13.7613 8.25769C13.7613 11.2928 11.2918 13.7623 8.25671 13.7623Z" fill="#B0DAE4"/>
</g>
</svg>
