<svg width="38" height="38" viewBox="0 0 38 38" fill="none" xmlns="http://www.w3.org/2000/svg">
<path d="M6.33751 33.2493C6.46576 33.2493 6.59401 33.2335 6.72067 33.2018L13.054 31.6185C13.3327 31.5488 13.5876 31.4047 13.7903 31.2021L33.2542 11.7381C33.8527 11.1396 34.182 10.3448 34.182 9.49931C34.182 8.65381 33.8527 7.85898 33.2542 7.26048L30.743 4.74931C29.546 3.55231 27.4623 3.55231 26.2653 4.74931L6.80142 24.2132C6.59876 24.4159 6.45467 24.6708 6.38501 24.9479L4.80167 31.2812C4.66551 31.8211 4.82542 32.3911 5.21809 32.7854C5.51734 33.0862 5.92267 33.2493 6.33751 33.2493ZM28.5042 6.98815L31.0153 9.49931L28.5042 12.0105L25.993 9.49931L28.5042 6.98815ZM9.35059 26.1417L23.7542 11.7381L26.2653 14.2493L11.8602 28.6529L8.51301 29.4889L9.35059 26.1417Z" fill="#B0DAE4"/>
</svg>
