<svg width="24" height="24" viewBox="0 0 24 24" fill="none" xmlns="http://www.w3.org/2000/svg">
<path d="M7.39994 5.55343C7.30767 5.39844 7.17671 5.27008 7.01991 5.18093C6.8631 5.09179 6.68581 5.04492 6.50544 5.04492C6.32506 5.04492 6.14778 5.09179 5.99097 5.18093C5.83416 5.27008 5.7032 5.39844 5.61094 5.55343L0.110937 16.5534C0.0510231 16.671 0.014979 16.7993 0.00488329 16.9309C-0.00521246 17.0625 0.0108398 17.1948 0.0521146 17.3201C0.0933894 17.4455 0.15907 17.5614 0.24537 17.6613C0.33167 17.7611 0.436882 17.8429 0.55494 17.9019C0.672997 17.9609 0.801565 17.996 0.933231 18.005C1.0649 18.0141 1.19706 17.997 1.32209 17.9548C1.44712 17.9125 1.56255 17.8459 1.66173 17.7589C1.7609 17.6718 1.84186 17.5659 1.89994 17.4474L3.61894 14.0004H9.38294L11.1069 17.4474C11.165 17.5659 11.246 17.6718 11.3451 17.7589C11.4443 17.8459 11.5598 17.9125 11.6848 17.9548C11.8098 17.997 11.942 18.0141 12.0736 18.005C12.2053 17.996 12.3339 17.9609 12.4519 17.9019C12.57 17.8429 12.6752 17.7611 12.7615 17.6613C12.8478 17.5614 12.9135 17.4455 12.9548 17.3201C12.996 17.1948 13.0121 17.0625 13.002 16.9309C12.9919 16.7993 12.9559 16.671 12.8959 16.5534L7.39994 5.55343ZM4.61894 12.0004L6.49994 8.23643L8.38294 12.0004H4.61894Z" fill="#B0DAE4"/>
<path d="M23 8C22.7348 8 22.4804 8.10536 22.2929 8.29289C22.1054 8.48043 22 8.73478 22 9V9.026C21.1396 8.36419 20.0855 8.00368 19 8C17.6739 8 16.4021 8.52678 15.4645 9.46447C14.5268 10.4021 14 11.6739 14 13C14 14.3261 14.5268 15.5979 15.4645 16.5355C16.4021 17.4732 17.6739 18 19 18C20.0855 17.9963 21.1396 17.6358 22 16.974V17C22 17.2652 22.1054 17.5196 22.2929 17.7071C22.4804 17.8946 22.7348 18 23 18C23.2652 18 23.5196 17.8946 23.7071 17.7071C23.8946 17.5196 24 17.2652 24 17V9C24 8.73478 23.8946 8.48043 23.7071 8.29289C23.5196 8.10536 23.2652 8 23 8ZM19 16C18.4067 16 17.8266 15.8241 17.3333 15.4944C16.8399 15.1648 16.4554 14.6962 16.2284 14.1481C16.0013 13.5999 15.9419 12.9967 16.0576 12.4147C16.1734 11.8328 16.4591 11.2982 16.8787 10.8787C17.2982 10.4591 17.8328 10.1734 18.4147 10.0576C18.9967 9.94189 19.5999 10.0013 20.1481 10.2284C20.6962 10.4554 21.1648 10.8399 21.4944 11.3333C21.8241 11.8266 22 12.4067 22 13C22 13.7956 21.6839 14.5587 21.1213 15.1213C20.5587 15.6839 19.7956 16 19 16Z" fill="#B0DAE4"/>
</svg>
