<svg height="50.2367mm" viewBox="0 0 248.832 142.4032" width="87.7824mm" xmlns="http://www.w3.org/2000/svg"><path d="m18.3479 47.2194 212.1361-46.7794c10.0919-2.2253 18.348 4.21 18.348 14.3017v58.0483c0 10.0923-8.2561 20.1689-18.348 22.3942l-16.308 3.5958-12.7544 20.1127-12.7538-14.4877-170.3199 37.558c-10.0917 2.2256-18.3479-4.2095-18.3479-14.3018v-58.0478c0-10.0917 8.2562-20.1682 18.3479-22.394z" fill="#e6322f" fill-rule="evenodd"/><path d="m201.4216 105.122 8.6265-13.6033 20.4359-4.5066c5.5819-1.2307 10.1764-6.8387 10.1764-12.42v-58.048c0-5.5814-4.595-9.1633-10.1764-7.9325l-212.1361 46.7793c-5.5812 1.2307-10.1764 6.8391-10.1764 12.4208v58.0477c0 5.5819 4.5947 9.1632 10.1764 7.932l174.4477-38.4685z" fill="none" stroke="#fff" stroke-miterlimit="2.6131" stroke-width="8"/><g fill="#fff"><path d="m29.9272 90.32 8.5815-1.8921v5.6836l-8.5815 1.8921v11.6524l10.7983-2.3809v5.6836l-17.0493 3.7593v-39.7872l17.0493-3.7593v5.6836l-10.7983 2.3808z"/><path d="m50.2744 80.0357-.1133.025v28.8173l-5.6265 1.2408v-39.7872l7.8428-1.7294 6.3086 22.4243.1133-.0249v-23.8155l5.57-1.228v39.7871l-6.4219 1.416z"/><path d="m90.7417 99.93c-.3413-.9483-.5689-1.5235-.5689-4.7627v-6.2526c0-3.6944-1.25-4.7828-4.0918-4.1563l-2.16.4766v16.1992l-6.251 1.3779v-39.7871l9.4336-2.08c6.479-1.4287 9.2636.97 9.2636 7.1089v3.1261c0 4.0918-1.3071 6.9951-4.0918 8.916v.114c3.1255.6172 4.1485 3.3476 4.1485 7.497v6.1387a10.6616 10.6616 0 0 0 .6821 4.6807zm-6.82-32.6v12.2214l2.4439-.5391c2.33-.5137 3.751-1.8506 3.751-5.0332v-3.9219c0-2.8418-.9663-3.88-3.1826-3.3911z"/><path d="m106.4853 56.6715v30.6933c0 2.8418 1.25 3.5884 3.24 3.15s3.2392-1.7369 3.2392-4.5787v-30.6933l5.91-1.3032v30.2949c0 6.3662-3.1822 10.7055-9.32 12.0591s-9.32-1.5826-9.32-7.9488v-30.2948z"/><path d="m141.666 58.7472v5.1718c0 6.3663-3.0689 10.5108-9.32 11.8892l-2.956.6518v14.9478l-6.2515 1.3789v-39.7867l9.2071-2.03c6.2515-1.3791 9.3204 1.411 9.3204 7.7772zm-12.276-1.4429v13.4707l2.9556-.6514c1.9887-.4384 3.0688-1.5859 3.0688-4.4277v-5.9678c0-2.8427-1.08-3.5136-3.0688-3.0752z"/><path d="m142.7475 48.6754 19.3223-4.26v5.6836l-6.5352 1.441v34.1032l-6.2514 1.3784v-34.1035l-6.5357 1.4409z"/><path d="m170.7666 42.4977v30.6933c0 2.8418 1.25 3.5884 3.2392 3.15s3.24-1.7368 3.24-4.5786v-30.6934l5.91-1.3033v30.295c0 6.3662-3.1821 10.7055-9.32 12.059s-9.32-1.583-9.32-7.9492v-30.2949z"/><path d="m200.4917 75.73c-.3409-.9483-.5684-1.523-.5684-4.7622v-6.253c0-3.6943-1.25-4.7827-4.0918-4.1562l-2.16.4761v16.1993l-6.2515 1.3784v-39.7871l9.4341-2.08c6.4785-1.4287 9.2631.97 9.2631 7.1089v3.1258c0 4.0918-1.3066 6.9951-4.0913 8.9155v.1145c3.1255.6176 4.1485 3.3481 4.1485 7.4975v6.1387a10.6628 10.6628 0 0 0 .6821 4.6807zm-6.82-32.6v12.2212l2.4439-.5391c2.33-.5137 3.751-1.8506 3.751-5.0332v-3.9219c0-2.8418-.9663-3.8794-3.1827-3.3906z"/><path d="m216.52 49.1764 8.5815-1.8921v5.6836l-8.5815 1.8921v11.6523l10.7983-2.3808v5.6835l-17.05 3.7593v-39.7871l17.05-3.7593v5.6836l-10.7983 2.3809z"/></g></svg>