<svg width="51" height="51" viewBox="0 0 51 51" fill="none" xmlns="http://www.w3.org/2000/svg">
<rect width="51" height="51" rx="10" fill="#094262"/>
<path d="M27.4182 14.6651C27.1533 14.3987 26.7935 14.25 26.4167 14.25H13.6667C12.8832 14.25 12.25 14.8832 12.25 15.6667V28.4167C12.25 28.7935 12.3987 29.1533 12.6651 29.4182L23.9984 40.7516C24.2747 41.0278 24.6373 41.1667 25 41.1667C25.3627 41.1667 25.7253 41.0278 26.0016 40.7516L38.7516 28.0016C39.3055 27.4477 39.3055 26.5523 38.7516 25.9984L27.4182 14.6651ZM25 37.7468L15.0833 27.8302V17.0833H25.8302L35.7468 27L25 37.7468Z" fill="#B0DAE4"/>
<path d="M20.0364 24.1665C21.2139 24.1665 22.1685 23.2119 22.1685 22.0344C22.1685 20.8569 21.2139 19.9023 20.0364 19.9023C18.8589 19.9023 17.9043 20.8569 17.9043 22.0344C17.9043 23.2119 18.8589 24.1665 20.0364 24.1665Z" fill="#B0DAE4"/>
</svg>
