<svg width="26" height="26" viewBox="0 0 26 26" fill="none" xmlns="http://www.w3.org/2000/svg">
<path d="M7.64932 23.8334C9.29924 23.8334 10.726 23.2451 11.8852 22.086C13.1017 20.8694 13.7344 18.9941 13.5654 17.2175L22.8431 7.9398C24.1615 6.62138 24.1615 4.47855 22.8409 3.15797C21.5647 1.87964 19.3374 1.87964 18.0612 3.15797L8.4369 12.7823C6.36449 12.9654 4.31265 14.4301 4.31265 17.0279C4.31265 17.3561 4.3354 17.6649 4.35815 17.9595C4.44482 19.0765 4.47624 19.4957 2.76457 20.3515C2.42224 20.5227 2.19582 20.8629 2.16874 21.2442C2.14165 21.6256 2.31824 21.9928 2.6324 22.2116C2.7299 22.2766 5.00815 23.8334 7.64932 23.8334C7.64824 23.8334 7.64824 23.8334 7.64932 23.8334ZM19.5931 4.68872C20.0524 4.22939 20.8476 4.22722 21.3112 4.69089C21.7847 5.1643 21.7847 5.93347 21.3112 6.40689L12.9999 14.7182L11.2817 13.0001L19.5931 4.68872ZM6.5194 17.7916C6.4999 17.549 6.47932 17.2955 6.47932 17.0268C6.47932 15.3531 8.04474 14.9111 8.87349 14.9111C9.25915 14.9111 9.63074 14.9901 9.91782 15.1342C10.9416 15.6488 11.2828 16.535 11.3879 17.1882C11.5797 18.3691 11.1528 19.7535 10.3522 20.5541C9.60365 21.3027 8.71965 21.6667 7.64932 21.6667H7.64824C6.83574 21.6667 6.04599 21.4544 5.4014 21.2041C6.57357 20.15 6.61582 19.0494 6.5194 17.7916Z" fill="#B0DAE4"/>
</svg>
