<svg width="28" height="23" viewBox="0 0 28 23" fill="none" xmlns="http://www.w3.org/2000/svg">
<g clip-path="url(#clip0_23_18895)">
<path d="M23.3336 6.37891V7.54789C25.2354 8.64076 26.3961 10.0616 26.3961 11.639C26.3961 14.2398 23.1994 16.4664 18.6668 17.39V20.2302C24.1036 19.1081 28.0002 16.0748 28.0002 12.5155C28.0002 10.0784 26.1977 7.90441 23.3336 6.37891ZM9.33341 17.3722C4.80078 16.4498 1.6041 14.2278 1.6041 11.6387C1.6041 10.0724 2.77086 8.65229 4.66659 7.54766V6.37891C1.80251 7.88089 0 10.0551 0 12.4805C0 16.0398 3.89665 19.073 9.33341 20.1952V23.0006L15.1668 18.9095L9.33341 14.8194V17.3722Z" fill="#33CEFF"/>
<path d="M7.32095 2.28526L19.3288 0.00587804C19.3734 -0.00246328 19.4192 -0.00192253 19.4635 0.0074721C19.5079 0.0168667 19.55 0.034929 19.5874 0.0606283C19.6248 0.0863277 19.6568 0.119161 19.6815 0.15725C19.7063 0.195339 19.7233 0.237938 19.7316 0.282613L21.6216 10.2746C21.6299 10.3193 21.6293 10.3652 21.62 10.4096C21.6106 10.4541 21.5926 10.4963 21.5669 10.5338C21.5413 10.5712 21.5085 10.6033 21.4705 10.6281C21.4325 10.6529 21.3899 10.6699 21.3454 10.6782L9.33752 12.9574C9.29294 12.9657 9.24715 12.9652 9.20277 12.9558C9.15839 12.9464 9.1163 12.9283 9.07889 12.9026C9.04149 12.8769 9.0095 12.8441 8.98476 12.806C8.96002 12.7679 8.94302 12.7253 8.93472 12.6806L7.04497 2.6886C7.03661 2.64392 7.03713 2.59802 7.04649 2.55353C7.05585 2.50904 7.07387 2.46684 7.09953 2.42933C7.12518 2.39183 7.15796 2.35976 7.19599 2.33496C7.23403 2.31016 7.27657 2.29312 7.32118 2.2848L7.32095 2.28526ZM17.2949 2.06941C17.1253 2.10133 16.9689 2.18294 16.8455 2.30391C16.7222 2.42488 16.6374 2.57978 16.6019 2.74903C16.5664 2.91828 16.5818 3.09428 16.6461 3.25476C16.7104 3.41525 16.8208 3.55302 16.9633 3.65066C17.1058 3.7483 17.2739 3.80142 17.4466 3.8033C17.6192 3.80518 17.7885 3.75574 17.933 3.66124C18.0776 3.56673 18.1909 3.4314 18.2587 3.27235C18.3265 3.1133 18.3457 2.93769 18.3139 2.7677C18.2928 2.65481 18.2497 2.54719 18.187 2.451C18.1244 2.3548 18.0434 2.27191 17.9488 2.20707C17.8542 2.14222 17.7477 2.09669 17.6355 2.07307C17.5234 2.04945 17.4076 2.0482 17.2949 2.06941ZM9.06569 9.63791L12.5494 4.30659L15.1932 6.95472L16.6919 4.81002L20.6435 8.82638L19.1168 0.750297L7.78775 2.90077L9.06569 9.63791Z" fill="#33CEFF"/>
</g>
<defs>
<clipPath id="clip0_23_18895">
<rect width="28" height="23" fill="white"/>
</clipPath>
</defs>
</svg>
