<svg height="53.642mm" viewBox="0 0 232.2139 152.0561" width="81.9199mm" xmlns="http://www.w3.org/2000/svg"><path d="m39.7276 0 181.62 52.8231a15.9575 15.9575 0 0 0 10.8664 19.78l-2.2161 7.6187a3.97 3.97 0 1 0 -2.2165 7.6208l-2.2164 7.6216a3.97 3.97 0 1 0 -2.2164 7.6206l-2.217 7.6212a3.97 3.97 0 1 0 -2.2159 7.6208l-2.217 7.6216a3.97 3.97 0 1 0 -2.2165 7.6206l-2.2164 7.6212a15.9581 15.9581 0 0 0 -19.78 10.8664l-181.6196-52.8236a15.9575 15.9575 0 0 0 -10.8662-19.7796l2.2164-7.6212a4.033 4.033 0 0 0 5.0312-2.67 4.0321 4.0321 0 0 0 -2.8147-4.951l2.2171-7.6212a3.97 3.97 0 1 0 2.2164-7.6206l2.2165-7.6213a3.97 3.97 0 1 0 2.2164-7.6206l2.2164-7.6217a3.97 3.97 0 1 0 2.2167-7.6206l2.2159-7.6187a15.9575 15.9575 0 0 0 19.7793-10.8665z" fill="#e6322f" fill-rule="evenodd"/><path d="m46.1818 16.991 160.6057 46.7115a8.4965 8.4965 0 0 1 5.7686 10.5l-16.0238 55.0933a8.4956 8.4956 0 0 1 -10.5 5.7688l-160.6058-46.711a8.4969 8.4969 0 0 1 -5.7689-10.5l16.0239-55.0936a8.4969 8.4969 0 0 1 10.5003-5.769z" fill="none" stroke="#e01e20" stroke-miterlimit="2.6131" stroke-width="8"/><g fill="#fff"><path d="m50.949 36.3212c5.8037 1.6885 7.7354 6.1709 5.895 12.499l-.3618 1.2422-5.6406-1.6406.477-1.6387c.8213-2.8242.0489-4.2129-1.85-4.7656s-3.2959.207-4.1172 3.0312c-.8383 2.8809-.27 5.375 2.6006 10.07 3.6592 6.0273 4.2783 9.7617 2.9634 14.2812-1.84 6.3281-5.9292 9.0605-11.7866 7.3564s-7.8447-6.2041-6.0044-12.5312l.707-2.4287 5.6416 1.6406-.8222 2.8252c-.8213 2.8242.0761 4.1885 1.9746 4.7412s3.3867-.1191 4.208-2.9433c.8384-2.8809.2705-5.375-2.6-10.07-3.6592-6.0273-4.2793-9.7617-2.9644-14.2812 1.841-6.3281 5.8763-9.0762 11.68-7.3877z"/><path d="m59.8284 49.6884c1.84-6.3272 6.0923-9.0127 11.95-7.3086s8.0068 6.251 6.1665 12.5781l-5.9822 20.5645c-1.84 6.3281-6.0923 9.0127-11.9507 7.3086s-8.0059-6.251-6.1655-12.5782zm-.13 22.6963c-.8213 2.8242.06 4.2451 1.9571 4.7969 1.8994.5527 3.4043-.1739 4.2255-2.9981l6.2125-21.3574c.8212-2.8242-.0586-4.2442-1.9581-4.7969-1.8974-.5517-3.4033.1748-4.2246 2.999z"/><path d="m84.5579 46.5878 5.9658 1.7354-9.86 33.8974 9.8173 2.8555-1.6435 5.6494-15.783-4.5908z"/><path d="m102.9456 51.9364 9.4385 2.7452c5.9648 1.7353 7.8921 6.0332 6.0517 12.36l-5.8178 20c-1.84 6.3281-5.7725 8.9219-11.7374 7.1865l-9.4384-2.7451zm4.3237 7.3848-8.2168 28.248 3.3623.9776c1.8985.5527 3.333-.1328 4.1543-2.958l5.982-20.5645c.8217-2.8252-.021-4.1728-1.9195-4.7256z"/><path d="m130.2347 70.1679c1.84-6.3281 6.0922-9.0127 11.95-7.3086s8.0068 6.251 6.1665 12.5781l-5.982 20.5645c-1.84 6.3281-6.0923 9.0127-11.9507 7.3086s-8.0058-6.25-6.1655-12.5782zm-.13 22.6963c-.8213 2.8242.06 4.2451 1.957 4.7968 1.8994.5528 3.4043-.1748 4.2256-2.999l6.2124-21.3554c.8213-2.8243-.0586-4.2452-1.958-4.7979-1.8975-.5518-3.4033.1748-4.2246 2.999z"/><path d="m160.66 68.7235-8.8741 30.5079c-.8217 2.8252.0757 4.1884 1.9742 4.7412s3.3877-.1172 4.2094-2.9424l8.8741-30.5078 5.6406 1.6406-8.7588 30.1123c-1.8408 6.3272-5.93 9.0605-11.7881 7.3555-5.8574-1.7032-7.8428-6.2032-6.002-12.53l8.7588-30.1123z"/><path d="m174.8177 72.8417 18.4414 5.3643-1.6431 5.6494-6.2373-1.8145-9.86 33.8985-5.9668-1.7354 9.86-33.8984-6.2373-1.8145z"/><path d="m191.96 114.2265-1.7422 5.9883-5.75-1.6719 1.7422-5.9893zm-4.2935-4.252 3.3987-14.5145 4.7984-16.4961 5.9658 1.7353-4.7984 16.496-4.9165 14.0733z"/></g></svg>