<svg height="55.8268mm" viewBox="0 0 278.6339 158.2492" width="98.2958mm" xmlns="http://www.w3.org/2000/svg"><path d="m74.739 158.0826c-5.2938 1.2821-10.98-5.0741-17.33-10.9343l-18.931-17.5466 27.7363-6.7172 27.7889-6.73-8.8051 24.2638c-2.966 8.1163-4.9552 16.3313-10.4595 17.6643z" fill="#e52528" fill-rule="evenodd"/><path d="m54.445 144.395-15.967-14.793 27.737-6.717 27.789-6.73-7.43 20.459z" fill="#b81919" fill-rule="evenodd"/><path d="m14.1181 56.32 230.4119-55.8016a18.5143 18.5143 0 0 1 22.2894 13.5981l11.2933 46.6318a18.4809 18.4809 0 0 1 -13.5976 22.2927l-230.4116 55.8015a18.5162 18.5162 0 0 1 -22.29-13.6015l-11.2935-46.6318a18.55 18.55 0 0 1 13.5981-22.2892z" fill="#e52528" fill-rule="evenodd"/><path d="m14.1181 56.32 230.4119-55.8016a18.5186 18.5186 0 0 1 22.2125 13.2808 11.9073 11.9073 0 0 0 -14.2573-8.4274l-243.2205 58.9034a11.9087 11.9087 0 0 0 -8.8216 14.0167 18.5553 18.5553 0 0 1 13.675-21.9719z" fill="#e8414d"/><g fill="#fff"><path d="m28.976 106.7814a7.9425 7.9425 0 0 1 1.6977-.4834 8.8541 8.8541 0 0 1 1.7153-.125 5.7027 5.7027 0 0 1 1.5591.2559 24.6021 24.6021 0 0 0 6.8042 1.0488q2.7833-.0556 3.77-1.1758a.4782.4782 0 0 0 .0186-.7724 3.906 3.906 0 0 0 -1.2993-.7608q-.9156-.3661-2.2388-.7588t-2.7876-.8115q-1.4649-.419-2.937-.877a25.1736 25.1736 0 0 1 -2.7227-1.0087 12.8334 12.8334 0 0 1 -2.5024-1.4027 8.48 8.48 0 0 1 -1.9631-1.9548 7.7684 7.7684 0 0 1 -1.18-2.5244 8.1766 8.1766 0 0 1 -.1885-3.0605 12.1828 12.1828 0 0 1 .63-3.0957 22.1171 22.1171 0 0 1 1.4516-3.4082 23.3585 23.3585 0 0 1 2.0864-3.28 20.2342 20.2342 0 0 1 2.5176-2.7744 9.0726 9.0726 0 0 1 1.1973-.99 8.3082 8.3082 0 0 1 1.687-.9043 10.93 10.93 0 0 1 2.1382-.6074 11.712 11.712 0 0 1 2.53-.1767 34.2775 34.2775 0 0 1 4.166.5849 13.619 13.619 0 0 1 3.6484 1.2315 6.081 6.081 0 0 1 1.6226 1.0879 5.4089 5.4089 0 0 1 .9658 1.2431 5.8334 5.8334 0 0 1 .5244 1.2676q.1707.6255.3062 1.1973a20.5153 20.5153 0 0 1 .1111 2.3541q-.0073 1.292-.0933 2.624t-.2808 2.5877a18.9053 18.9053 0 0 1 -.4615 2.207 2.13 2.13 0 0 1 -.79 1.1963 2.4567 2.4567 0 0 1 -1.5615.208q-6.1956-.4658-6.524-3.7363a8.01 8.01 0 0 1 -.083-1.5742q.0287-.9141.0586-1.8282t.0132-1.7382a4.0548 4.0548 0 0 0 -.1977-1.3047q-.1809-.48-.5386-.4776-.3567.0045-1.044.6914a9.1184 9.1184 0 0 0 -1.28 1.3926 14.49 14.49 0 0 0 -1.2593 1.9531 12.6233 12.6233 0 0 0 -.9453 2.2412 6.85 6.85 0 0 0 -.3369 2.2588 4.5606 4.5606 0 0 0 .5229 2.0137 3.3532 3.3532 0 0 0 1.645 1.4658 22.8289 22.8289 0 0 0 3.1944 1.2989q1.7211.5625 3.4287 1.0634t3.2412 1.0254a12.1914 12.1914 0 0 1 2.6152 1.2158 4.201 4.201 0 0 1 1.5454 1.61 2.8014 2.8014 0 0 1 .0489 2.1875 10.4425 10.4425 0 0 1 -.7788 2 8.4369 8.4369 0 0 1 -1.63 2.1807 13.0485 13.0485 0 0 1 -2.7793 2.0517 17.0418 17.0418 0 0 1 -4.2276 1.6084 18.5865 18.5865 0 0 1 -6.8671.4785 23.1637 23.1637 0 0 1 -7.606-2.4521q-2.1555-.98-2.4048-1.6485a1.3118 1.3118 0 0 1 .5332-1.3369 9.45 9.45 0 0 1 1.5147-.7818z"/><path d="m76.9447 74.6281a10.5022 10.5022 0 0 1 1.791 2.7412 25.6762 25.6762 0 0 1 1.6475 6.0039 30.6584 30.6584 0 0 1 .29 6.7881 28.415 28.415 0 0 1 -1.2661 6.7344 18.3006 18.3006 0 0 1 -3.0645 5.85 10.0176 10.0176 0 0 1 -3.1821 2.43 14.5008 14.5008 0 0 1 -4.2378 1.1866q-1.6464.23-3.4179.3066a13.62 13.62 0 0 1 -3.3233-.24 12.5473 12.5473 0 0 1 -2.5713-.8428 6.9421 6.9421 0 0 1 -2.1894-1.4971 14.6145 14.6145 0 0 1 -2.4668-3.61 19.7366 19.7366 0 0 1 -1.5713-4.55 24.335 24.335 0 0 1 -.5469-5.1338 25.129 25.129 0 0 1 .5642-5.3585 25.5056 25.5056 0 0 1 1.7344-5.2315 22.61 22.61 0 0 1 2.956-4.7959 11.251 11.251 0 0 1 3.166-2.4062 10.1625 10.1625 0 0 1 3.8555-1.1953 27.019 27.019 0 0 1 4.85-.0215 13.8891 13.8891 0 0 1 4.0381.8984 8.4042 8.4042 0 0 1 2.9447 1.9434zm-10.6914 4.6338a13.1655 13.1655 0 0 0 -1.6 3.0625 28.0913 28.0913 0 0 0 -1.2085 4.0586 30.7537 30.7537 0 0 0 -.6448 4.166 20.9055 20.9055 0 0 0 .0361 3.9248 20.3208 20.3208 0 0 0 .6826 3.63 8.5114 8.5114 0 0 0 1.2676 2.705 2.3679 2.3679 0 0 0 1.8272 1.1 2.2769 2.2769 0 0 0 1.7822-.7862 8.0137 8.0137 0 0 0 1.5049-2.333 17.1564 17.1564 0 0 0 1.1045-3.5508 28.7466 28.7466 0 0 0 .5478-4.3857 29.5946 29.5946 0 0 0 -.0478-4.1641 26.8065 26.8065 0 0 0 -.6172-4.1093 11.9065 11.9065 0 0 0 -1.1773-3.17q-.7236-1.26-1.6255-1.289a2.2142 2.2142 0 0 0 -1.8318 1.1412z"/><path d="m98.2264 98.1408q-2.7048 1.1456-5.1362 2.208a9.4662 9.4662 0 0 1 -1.5039.6377 4.525 4.525 0 0 1 -1.1162.2051 3.5333 3.5333 0 0 1 -.8418-.0635 5.6854 5.6854 0 0 1 -.6958-.1973 14.4447 14.4447 0 0 1 -1.5171-.5488q-.6972-.2974-1.834-.7539a4.027 4.027 0 0 1 -1.3877-.9434 2.43 2.43 0 0 1 -.5966-1.5722q-.2271-1.519-.4141-3.6329t-.3267-4.582q-.137-2.4667-.2319-5.1279t-.0986-5.3233q-.0059-2.66.0566-5.1357.0615-2.4741.1924-4.5635a2.0455 2.0455 0 0 1 .7676-1.5752 3.9106 3.9106 0 0 1 2.0019-.333 25.6741 25.6741 0 0 1 3.042.1865 15.7918 15.7918 0 0 1 2.9629.6084 4.1928 4.1928 0 0 1 1.6758.9336 1.9639 1.9639 0 0 1 .2563 1.5528q-.3039 2.4932-.52 5.4472-.216 2.9575-.3955 6.0655-.18 3.11-.28 6.1767-.0988 3.0733-.1523 5.8653 1.8757-.7662 3.5347-1.3213 1.6574-.5552 3.6225-1.1416a5.0556 5.0556 0 0 1 1.8316-.294 2.4163 2.4163 0 0 1 1.3452.6709 7.7561 7.7561 0 0 1 1.1562 1.1973 8.9193 8.9193 0 0 1 .8086 1.24q.4863.7325.4024 1.0352-.0866.3018-1.3438.8418-2.5601 1.093-5.2645 2.2375z"/><path d="m107.11 63.1564a29.3542 29.3542 0 0 1 4.3847-2.1709 28.2117 28.2117 0 0 1 4.9561-1.457 18.5836 18.5836 0 0 1 5.1645-.2979 15.1535 15.1535 0 0 1 4.9847 1.2994 13.1844 13.1844 0 0 1 4.4189 3.3505 12.13 12.13 0 0 1 2.5513 4.1534 14.59 14.59 0 0 1 .874 5.0986 18.8854 18.8854 0 0 1 -.9214 5.6435 22.253 22.253 0 0 1 -2.82 5.751 28.5023 28.5023 0 0 1 -4.8213 5.4209 34.0153 34.0153 0 0 1 -6.9033 4.6631 6.4688 6.4688 0 0 1 -4.6142.7315 23.7364 23.7364 0 0 1 -2.3252-.5577q-1.0109-.3047-2.3365-.7968c-.3359-.1631-.6577-.3213-.9633-.4776a3.5847 3.5847 0 0 1 -.8331-.5888 2.57 2.57 0 0 1 -.6049-.9463 6.2111 6.2111 0 0 1 -.3286-1.5752l-3.2959-24.836a28.3484 28.3484 0 0 1 3.4335-2.4077zm13.114 21.6182a21.1285 21.1285 0 0 0 3.0147-4.6485 16.0187 16.0187 0 0 0 1.3632-4.4384 13.0025 13.0025 0 0 0 .0293-3.8389 6.4672 6.4672 0 0 0 -1.4541-3.4883 4.8159 4.8159 0 0 0 -3.1308-1.3144 7.9649 7.9649 0 0 0 -4.624 1.2578q-.2952 5.3555-.2842 10.4961t.13 10.3564a23.8725 23.8725 0 0 0 4.9559-4.3818z"/><path d="m175.2211 51.3175a10.4944 10.4944 0 0 1 1.791 2.74 25.6885 25.6885 0 0 1 1.6475 6.0039 30.6042 30.6042 0 0 1 .29 6.7881 28.3811 28.3811 0 0 1 -1.2656 6.7353 18.33 18.33 0 0 1 -3.0645 5.8506 10.0391 10.0391 0 0 1 -3.1816 2.4287 14.4909 14.4909 0 0 1 -4.2379 1.1868q-1.6466.23-3.418.3067a13.6074 13.6074 0 0 1 -3.3222-.24 12.5352 12.5352 0 0 1 -2.5723-.8427 6.9352 6.9352 0 0 1 -2.19-1.4971 14.6146 14.6146 0 0 1 -2.4668-3.61 19.7951 19.7951 0 0 1 -1.5712-4.5488 24.3763 24.3763 0 0 1 -.5469-5.1347 25.0758 25.0758 0 0 1 .5635-5.3575 25.5535 25.5535 0 0 1 1.7343-5.2324 22.5951 22.5951 0 0 1 2.9571-4.7959 11.2421 11.2421 0 0 1 3.166-2.4053 10.1653 10.1653 0 0 1 3.8545-1.1963 27.0281 27.0281 0 0 1 4.85-.0214 13.8792 13.8792 0 0 1 4.0381.8984 8.4031 8.4031 0 0 1 2.945 1.9436zm-10.6911 4.6325a13.1993 13.1993 0 0 0 -1.6 3.0625 27.9276 27.9276 0 0 0 -1.208 4.0585 30.37 30.37 0 0 0 -.6446 4.1661 20.6874 20.6874 0 0 0 .0362 3.9248 20.2233 20.2233 0 0 0 .6816 3.63 8.5016 8.5016 0 0 0 1.2676 2.7051 2.3672 2.3672 0 0 0 1.8271 1.1 2.2775 2.2775 0 0 0 1.7823-.7851 8.0247 8.0247 0 0 0 1.5048-2.334 17.11 17.11 0 0 0 1.1045-3.55 28.89 28.89 0 0 0 .5489-4.3867 29.6638 29.6638 0 0 0 -.0489-4.1641 26.7975 26.7975 0 0 0 -.6172-4.1094 11.9161 11.9161 0 0 0 -1.1767-3.17q-.7251-1.26-1.626-1.2891a2.2166 2.2166 0 0 0 -1.8316 1.1414z"/><path d="m182.73 71.28a19.7352 19.7352 0 0 1 -1.3682-3.9737 35.847 35.847 0 0 1 -.7744-4.7763q-.2505-2.5635-.3067-5.253t.0313-5.4326q.0864-2.7436.27-5.3691a1.89 1.89 0 0 1 .6777-1.5723 3.57 3.57 0 0 1 2.0577-.2871 16.08 16.08 0 0 1 2.6445.3 17.8379 17.8379 0 0 1 2.5654.7227 3.22 3.22 0 0 1 2.4727 3.4475q-.2066 2.1461-.3994 4.6338-.1933 2.4858-.2676 5.0039t.0166 4.8789a31.0617 31.0617 0 0 0 .4092 4.1777 9.8144 9.8144 0 0 0 .9189 2.93 1.8043 1.8043 0 0 0 1.585 1.1172 2.349 2.349 0 0 0 2.0088-1.5264 14.3426 14.3426 0 0 0 1.267-3.9922 48.1548 48.1548 0 0 0 .68-5.6269q.2124-3.1568.2578-6.4561t-.0341-6.4648q-.0805-3.1684-.1338-5.6572a1.375 1.375 0 0 1 .6054-1.5967 4.339 4.339 0 0 1 2.0684-.43 14.5579 14.5579 0 0 1 2.8018.3037q1.5249.3046 2.8154.6436a5.6521 5.6521 0 0 1 1.06.414 1.742 1.742 0 0 1 .5849.4864 1.3625 1.3625 0 0 1 .2432.6484 6.8681 6.8681 0 0 1 .0351.9q.0236 5.7627-.1855 10.6328a78.4379 78.4379 0 0 1 -.8154 8.7256 29.9029 29.9029 0 0 1 -1.74 6.624 11.1167 11.1167 0 0 1 -2.955 4.332 12.96 12.96 0 0 1 -2.753 1.6016 15.62 15.62 0 0 1 -3.3559.9375 16.746 16.746 0 0 1 -6.6133.0352 12.4035 12.4035 0 0 1 -2.291-.7881 7.1539 7.1539 0 0 1 -2.0352-1.4131 9.4963 9.4963 0 0 1 -2.0483-2.8809z"/><path d="m231.8622 39.132q-1.9088.6328-3.9385 1.3164-.1288 3.419-.2656 7.083-.1392 3.6636-.2266 7.2549t-.11 6.9844q-.0221 3.3941.0459 6.3232a.9285.9285 0 0 1 -.2354.8018 1.7637 1.7637 0 0 1 -.832.3584 5.9868 5.9868 0 0 1 -1.32.0918q-.7662-.019-1.71-.0381a16.9362 16.9362 0 0 1 -1.7265-.1153 4.6115 4.6115 0 0 1 -1.3623-.3623 2.2658 2.2658 0 0 1 -.9112-.7324 2.0789 2.0789 0 0 1 -.3369-1.2314q-.3091-1.8633-.5615-4.627t-.4287-5.8682q-.1788-3.1039-.2627-6.2919-.0851-3.1847-.0655-5.9346-1.182.4834-2.2949.8877a15.6778 15.6778 0 0 0 -1.8291.7773 4.016 4.016 0 0 1 -1.7236.4688 3.8143 3.8143 0 0 1 -1.7549-.6123 9.18 9.18 0 0 1 -2.1123-1.6377q-1.03-1.0459-1.6963-1.7754-.7177-.7589-.53-1.1055a2.1684 2.1684 0 0 1 .9463-.7285q2.3892-1.0518 5.4551-2.1816 3.0645-1.128 6.2764-2.2149 3.2094-1.0825 6.3164-2.043 3.1055-.9564 5.5869-1.6269a6.1878 6.1878 0 0 1 1.9355-.2373 2.4464 2.4464 0 0 1 1.1631.4707 8.82 8.82 0 0 1 1.8506 1.5781 11.3216 11.3216 0 0 1 1.3272 1.8233q.4629.8189.3066 1.1982c-.1045.2529-.5879.51-1.4512.7666q-1.6165.545-3.5243 1.1797z"/><path d="m250.6307 29.3146a2.51 2.51 0 0 1 .3057 1.7627q-.4218 3.126-.8047 6.3223t-.6982 6.2988q-.3179 3.1-.5137 5.95t-.2871 5.293a1.4114 1.4114 0 0 1 -.4219 1.1484 2.5226 2.5226 0 0 1 -1.4277.2979 18.9288 18.9288 0 0 1 -2.2949.04 14.5138 14.5138 0 0 1 -2.0957-.25 2.8767 2.8767 0 0 1 -1.5313-.7051 2.5341 2.5341 0 0 1 -.5-1.6357q-.1875-2.2954-.2832-5.44-.0981-3.142-.0869-6.4931t.082-6.6358q.0688-3.2841.211-5.8994a2.0915 2.0915 0 0 1 .6513-1.6875 3.2906 3.2906 0 0 1 2.0489-.3242 23.5156 23.5156 0 0 1 2.9824.22 15.4719 15.4719 0 0 1 2.9043.6426 3.4689 3.4689 0 0 1 1.7597 1.0951zm-10.3107 31.6123a3.4534 3.4534 0 0 1 .8838-1.4609 4.5752 4.5752 0 0 1 1.6982-1.0479 6.7885 6.7885 0 0 1 2.4864-.3672 5.3526 5.3526 0 0 1 2.0488.3409 3.6124 3.6124 0 0 1 1.3262.8759 2.7774 2.7774 0 0 1 .65 1.1358 2.9023 2.9023 0 0 1 .1045 1.1035 3.51 3.51 0 0 1 -.292.9375 4.7067 4.7067 0 0 1 -.6806 1.09 5.3684 5.3684 0 0 1 -1.1084.9883 4.7611 4.7611 0 0 1 -1.6055.6836 5.674 5.674 0 0 1 -3.6152-.15 3.1555 3.1555 0 0 1 -1.9834-2.5146 3.4648 3.4648 0 0 1 .0872-1.6149z"/></g></svg>