<svg width="185" height="89" viewBox="0 0 185 89" fill="none" xmlns="http://www.w3.org/2000/svg">
<path d="M175.886 66.8672H8.87305V69.0012H175.886V66.8672Z" fill="url(#paint0_linear_484_2821)"/>
<path d="M27.3841 75.6664C27.5534 75.6962 27.7055 75.7878 27.8108 75.9233C27.9162 76.0588 27.9672 76.2285 27.9539 76.3995V76.4222C27.9575 76.5379 27.9336 76.6528 27.884 76.7575C27.8345 76.8623 27.7608 76.9538 27.669 77.0246C27.5786 77.0967 27.4722 77.1461 27.3587 77.1689C27.2452 77.1916 27.1279 77.187 27.0166 77.1553C26.6293 77.0566 26.2311 77.007 25.8313 77.0076C24.5762 77.0076 23.3725 77.5048 22.485 78.39C21.5975 79.2751 21.0989 80.4756 21.0989 81.7273C21.0989 82.9791 21.5975 84.1796 22.485 85.0647C23.3725 85.9499 24.5762 86.4471 25.8313 86.4471C26.2307 86.4468 26.6285 86.3991 27.0166 86.305C27.1281 86.2738 27.2455 86.2696 27.359 86.2929C27.4725 86.3161 27.5788 86.3661 27.669 86.4386C27.7617 86.508 27.836 86.5989 27.8856 86.7033C27.9353 86.8078 27.9587 86.9227 27.9539 87.0382V87.0552C27.9681 87.2273 27.9176 87.3985 27.8123 87.5355C27.707 87.6726 27.5544 87.7657 27.3841 87.7968C26.8735 87.9239 26.3491 87.9878 25.8228 87.9872C24.1604 87.9872 22.5661 87.3286 21.3906 86.1562C20.2151 84.9839 19.5547 83.3938 19.5547 81.7359C19.5547 80.0779 20.2151 78.4878 21.3906 77.3155C22.5661 76.1431 24.1604 75.4845 25.8228 75.4845C26.3487 75.4811 26.8731 75.5422 27.3841 75.6664Z" fill="url(#paint1_linear_484_2821)"/>
<path d="M36.7204 85.6879C36.7258 85.3743 36.6661 85.0629 36.545 84.7734C36.4239 84.4839 36.244 84.2226 36.0166 84.0058C35.6189 83.5882 35.0749 83.3399 34.4981 83.3124H31.7885V87.2309C31.7885 87.3304 31.7688 87.4289 31.7306 87.5208C31.6923 87.6127 31.6362 87.6961 31.5656 87.7664C31.4949 87.8366 31.411 87.8922 31.3187 87.93C31.2264 87.9678 31.1276 87.9871 31.0278 87.9867H31.0107C30.8101 87.9845 30.6184 87.9043 30.4763 87.7631C30.3341 87.6219 30.253 87.4309 30.25 87.2309V78.4733C30.2508 77.6777 30.568 76.9149 31.1321 76.3524C31.6961 75.7898 32.461 75.4734 33.2587 75.4727H34.3442C35.1209 75.4741 35.8798 75.705 36.5251 76.1362C37.1704 76.5673 37.6732 77.1794 37.9701 77.8953C38.2669 78.6111 38.3446 79.3986 38.1931 80.1584C38.0417 80.9182 37.668 81.6162 37.1193 82.1645C36.9853 82.2988 36.8425 82.4241 36.6919 82.5395C36.8449 82.6574 36.9896 82.7855 37.125 82.9231C37.4944 83.2818 37.7862 83.7122 37.9822 84.1877C38.1782 84.6633 38.2743 85.1739 38.2646 85.6879V87.2309C38.2666 87.3303 38.2476 87.4289 38.2088 87.5205C38.1701 87.612 38.1124 87.6944 38.0395 87.7623C37.9705 87.8344 37.8874 87.8916 37.7952 87.9302C37.703 87.9689 37.6039 87.9881 37.5039 87.9867H37.4868C37.3873 87.9877 37.2887 87.9683 37.197 87.9297C37.1054 87.891 37.0227 87.8341 36.954 87.7623C36.8812 87.6944 36.8235 87.612 36.7847 87.5205C36.7459 87.4289 36.7269 87.3303 36.7289 87.2309L36.7204 85.6879ZM34.33 81.7723C34.9624 81.7723 35.569 81.5217 36.0162 81.0757C36.4634 80.6297 36.7147 80.0247 36.7147 79.394C36.7147 78.7632 36.4634 78.1582 36.0162 77.7122C35.569 77.2662 34.9624 77.0156 34.33 77.0156H33.3698C33.1618 77.0062 32.9539 77.038 32.7583 77.1093C32.5627 77.1805 32.3832 77.2896 32.2301 77.4305C32.0127 77.6386 31.8671 77.9102 31.8142 78.2062C31.7942 78.3187 31.7856 78.433 31.7885 78.5472V81.7723H34.33Z" fill="url(#paint2_linear_484_2821)"/>
<path d="M42.0774 80.9508H46.3198C46.4192 80.95 46.5177 80.9689 46.6097 81.0065C46.7016 81.0441 46.7852 81.0995 46.8554 81.1696C46.9281 81.2393 46.9856 81.3233 47.0243 81.4162C47.063 81.5091 47.0821 81.6089 47.0805 81.7095V81.7265C47.0824 81.8275 47.0633 81.9279 47.0246 82.0212C46.9859 82.1146 46.9283 82.199 46.8554 82.2692C46.785 82.3389 46.7014 82.3939 46.6094 82.431C46.5174 82.4681 46.419 82.4865 46.3198 82.4852H42.0774V85.1846C42.0774 85.5162 42.2095 85.8342 42.4446 86.0687C42.6797 86.3032 42.9986 86.4349 43.3311 86.4349H46.3198C46.5223 86.4372 46.7158 86.519 46.8582 86.6626C47.0007 86.8063 47.0805 87.0001 47.0805 87.2021V87.2192C47.0825 87.3185 47.0635 87.4172 47.0247 87.5088C46.986 87.6003 46.9283 87.6827 46.8554 87.7505C46.7862 87.8224 46.703 87.8794 46.6109 87.918C46.5188 87.9566 46.4197 87.976 46.3198 87.975H43.3311C42.9634 87.9758 42.5993 87.9041 42.2595 87.7641C41.9197 87.6242 41.611 87.4187 41.351 87.1594C41.0911 86.9002 40.885 86.5922 40.7447 86.2534C40.6043 85.9145 40.5325 85.5513 40.5332 85.1846V78.2513C40.5325 77.8847 40.6043 77.5215 40.7447 77.1826C40.885 76.8437 41.0911 76.5358 41.351 76.2766C41.611 76.0173 41.9197 75.8118 42.2595 75.6718C42.5993 75.5319 42.9634 75.4602 43.3311 75.4609H46.3198C46.4196 75.4606 46.5185 75.4803 46.6105 75.5189C46.7025 75.5574 46.7858 75.6141 46.8554 75.6854C46.9283 75.7538 46.9861 75.8367 47.0248 75.9287C47.0636 76.0207 47.0826 76.1198 47.0805 76.2196V76.2367C47.0798 76.4385 46.9997 76.6319 46.8574 76.7754C46.7152 76.9189 46.5221 77.0009 46.3198 77.0039H43.3311C42.9991 77.0039 42.6806 77.1352 42.4456 77.3691C42.2106 77.6029 42.0782 77.9202 42.0774 78.2513V80.9508Z" fill="url(#paint3_linear_484_2821)"/>
<path d="M57.4525 87.2318C57.4545 87.3311 57.4355 87.4298 57.3967 87.5214C57.3579 87.6129 57.3002 87.6953 57.2274 87.7631C57.1584 87.8353 57.0752 87.8925 56.983 87.9311C56.8909 87.9697 56.7917 87.989 56.6917 87.9876H56.6661C56.5666 87.9886 56.468 87.9691 56.3763 87.9305C56.2847 87.8919 56.202 87.8349 56.1333 87.7631C56.0605 87.6953 56.0028 87.6129 55.964 87.5214C55.9252 87.4298 55.9062 87.3311 55.9082 87.2318V83.2536H50.8539V87.2318C50.8553 87.3313 50.8358 87.4301 50.7965 87.5216C50.7573 87.6131 50.6991 87.6954 50.6259 87.7631C50.5575 87.8352 50.4748 87.8924 50.3831 87.931C50.2914 87.9696 50.1927 87.9889 50.0931 87.9876H50.0675C49.9676 87.9886 49.8685 87.9692 49.7764 87.9306C49.6843 87.892 49.6011 87.835 49.5319 87.7631C49.459 87.6953 49.4013 87.6129 49.3626 87.5214C49.3238 87.4298 49.3048 87.3311 49.3068 87.2318V79.5341C49.3349 78.4754 49.7763 77.4694 50.537 76.7305C51.2978 75.9916 52.3177 75.5781 53.3796 75.5781C54.4415 75.5781 55.4615 75.9916 56.2222 76.7305C56.983 77.4694 57.4244 78.4754 57.4525 79.5341V87.2318ZM55.9082 81.7306V79.5341C55.9082 78.8656 55.642 78.2245 55.168 77.7518C54.6941 77.2792 54.0513 77.0136 53.381 77.0136C52.7108 77.0136 52.068 77.2792 51.5941 77.7518C51.1201 78.2245 50.8539 78.8656 50.8539 79.5341V81.7334L55.9082 81.7306Z" fill="url(#paint4_linear_484_2821)"/>
<path d="M67.1987 76.2484C67.1991 76.3482 67.1796 76.447 67.1415 76.5392C67.1035 76.6314 67.0474 76.7152 66.9767 76.7857C66.906 76.8563 66.822 76.9121 66.7295 76.9501C66.6371 76.9881 66.538 77.0075 66.438 77.0071H64.1587V87.2366C64.1611 87.3352 64.1431 87.4333 64.1058 87.5248C64.0686 87.6162 64.0129 87.699 63.9421 87.768C63.8715 87.8404 63.7868 87.8976 63.6933 87.9362C63.5997 87.9748 63.4992 87.9939 63.3979 87.9924H63.3808C63.2811 87.9928 63.1822 87.9735 63.0899 87.9357C62.9977 87.8979 62.9138 87.8423 62.8431 87.7721C62.7724 87.7018 62.7164 87.6184 62.6781 87.5265C62.6398 87.4346 62.6201 87.3361 62.6201 87.2366V77.0071H60.3408C60.2408 77.0075 60.1417 76.9881 60.0493 76.9501C59.9568 76.9121 59.8728 76.8563 59.8021 76.7857C59.7314 76.7152 59.6753 76.6314 59.6372 76.5392C59.5991 76.447 59.5797 76.3482 59.5801 76.2484V76.2314C59.5793 76.1315 59.5985 76.0325 59.6365 75.9401C59.6744 75.8478 59.7304 75.7638 59.8012 75.6932C59.872 75.6226 59.9562 75.5667 60.0488 75.5289C60.1414 75.491 60.2407 75.4719 60.3408 75.4727H66.4551C66.5552 75.4719 66.6544 75.491 66.7471 75.5289C66.8397 75.5667 66.9239 75.6226 66.9947 75.6932C67.0655 75.7638 67.1215 75.8478 67.1594 75.9401C67.1974 76.0325 67.2165 76.1315 67.2158 76.2314L67.1987 76.2484Z" fill="url(#paint5_linear_484_2821)"/>
<path d="M70.8537 80.9508H75.0961C75.1958 80.9508 75.2946 80.9704 75.3868 81.0086C75.4789 81.0467 75.5626 81.1027 75.633 81.1732C75.7034 81.2436 75.7592 81.3273 75.7971 81.4193C75.835 81.5114 75.8543 81.61 75.854 81.7095V81.7265C75.8547 81.8261 75.8356 81.9249 75.7979 82.0171C75.7601 82.1093 75.7043 82.1931 75.6338 82.2636C75.5633 82.3342 75.4795 82.3901 75.3872 82.4282C75.2949 82.4662 75.196 82.4856 75.0961 82.4852H70.8537V85.1846C70.8537 85.5162 70.9858 85.8342 71.2209 86.0687C71.456 86.3032 71.7749 86.4349 72.1073 86.4349H75.0961C75.1956 86.434 75.2942 86.4534 75.3858 86.492C75.4775 86.5306 75.5602 86.5876 75.6289 86.6594C75.7017 86.7296 75.7593 86.814 75.798 86.9074C75.8368 87.0008 75.8558 87.1011 75.854 87.2021V87.2192C75.856 87.3185 75.837 87.4172 75.7982 87.5088C75.7594 87.6003 75.7017 87.6827 75.6289 87.7505C75.5602 87.8223 75.4775 87.8793 75.3858 87.9179C75.2942 87.9566 75.1956 87.976 75.0961 87.975H72.1073C71.7397 87.9754 71.3756 87.9035 71.0358 87.7634C70.696 87.6234 70.3872 87.4179 70.1271 87.1587C69.867 86.8996 69.6607 86.5919 69.5199 86.2531C69.3791 85.9144 69.3066 85.5513 69.3066 85.1846V78.2513C69.3066 77.8846 69.3791 77.5216 69.5199 77.1828C69.6607 76.8441 69.867 76.5364 70.1271 76.2772C70.3872 76.0181 70.696 75.8126 71.0358 75.6725C71.3756 75.5325 71.7397 75.4606 72.1073 75.4609H75.0961C75.1955 75.4606 75.2939 75.4804 75.3854 75.519C75.477 75.5575 75.5598 75.6142 75.6289 75.6854C75.7018 75.7538 75.7595 75.8367 75.7983 75.9287C75.837 76.0207 75.856 76.1198 75.854 76.2196V76.2367C75.8525 76.4378 75.7726 76.6304 75.6311 76.7736C75.4896 76.9169 75.2977 76.9995 75.0961 77.0039H72.1073C71.7754 77.0039 71.4569 77.1352 71.2219 77.3691C70.9869 77.6029 70.8545 77.9202 70.8537 78.2513V80.9508Z" fill="url(#paint6_linear_484_2821)"/>
<path d="M92.5585 87.7527L91.4816 86.4541C90.9395 86.9938 90.2981 87.4241 89.5926 87.7214C88.9524 87.946 88.2766 88.0529 87.5982 88.0368C86.034 88.0368 84.9399 87.6134 84.222 86.8121C83.6696 86.2284 83.3636 85.4552 83.3672 84.6526C83.3672 83.2119 84.222 81.9957 86.6352 80.8023C85.4129 79.3815 85.1137 78.5035 85.1137 77.796C85.1125 77.4741 85.1848 77.1561 85.3249 76.8661C85.4651 76.5762 85.6696 76.3218 85.9229 76.1223C86.4585 75.6648 87.2534 75.4062 88.3646 75.4062C89.4758 75.4062 90.1852 75.6733 90.6866 76.1479C90.9376 76.3755 91.1368 76.654 91.271 76.9647C91.4051 77.2754 91.4711 77.6112 91.4645 77.9494C91.4631 78.4019 91.3229 78.8432 91.0627 79.2139C90.8035 79.5975 90.2279 80.1061 88.866 80.9472L91.3875 84.2491C91.6239 83.8452 91.8361 83.4277 92.0229 82.9988C92.0893 82.8188 92.2235 82.6717 92.397 82.5889C92.5705 82.5061 92.7695 82.4941 92.9517 82.5555C93.0437 82.5782 93.1299 82.6199 93.2047 82.6779C93.2796 82.7358 93.3414 82.8088 93.3863 82.8921C93.4311 82.9753 93.4579 83.0671 93.465 83.1613C93.4721 83.2555 93.4594 83.3502 93.4275 83.4392C93.3584 83.6547 93.2775 83.8662 93.1853 84.0729C92.9782 84.5041 92.7137 84.9056 92.399 85.2663L93.2765 86.3234C93.8862 87.0565 93.7609 87.9971 93.0514 87.9971C92.9561 87.996 92.8623 87.9735 92.7769 87.9311C92.6916 87.8888 92.6169 87.8278 92.5585 87.7527ZM85.0881 84.5702C85.0779 84.8742 85.1322 85.177 85.2476 85.4585C85.363 85.7401 85.5368 85.9942 85.7576 86.2041C85.9907 86.4194 86.2643 86.5864 86.5627 86.6952C86.8611 86.804 87.1783 86.8524 87.4956 86.8377C88.4216 86.8377 89.2051 86.4882 90.4445 85.4709L87.3788 81.7201C85.8146 82.5044 85.0881 83.5103 85.0881 84.5702ZM86.7093 77.8045C86.7393 78.3004 86.9501 78.7683 87.3019 79.1201L88.188 80.1374L89.1909 79.3702C89.6838 79.0036 90.0456 78.5461 90.0456 77.9693C90.0456 77.0458 89.3618 76.469 88.3504 76.469C87.393 76.469 86.7093 76.9549 86.7093 77.8045Z" fill="url(#paint7_linear_484_2821)"/>
<path d="M104.839 75.4727C106.501 75.4727 108.095 76.1313 109.271 77.3037C110.446 78.476 111.107 80.0661 111.107 81.724C111.107 83.382 110.446 84.9721 109.271 86.1444C108.095 87.3168 106.501 87.9754 104.839 87.9754H103.588C103.03 87.9739 102.495 87.7522 102.101 87.3587C101.706 86.9652 101.484 86.432 101.482 85.8755V77.5726C101.481 77.2965 101.535 77.0229 101.64 76.7676C101.746 76.5124 101.901 76.2804 102.097 76.0852C102.292 75.89 102.525 75.7354 102.781 75.6302C103.037 75.5251 103.311 75.4715 103.588 75.4727H104.839ZM103.018 85.8869C103.014 85.9625 103.027 86.038 103.054 86.1086C103.081 86.1792 103.123 86.2433 103.177 86.2968C103.231 86.3504 103.295 86.3921 103.366 86.4194C103.436 86.4466 103.512 86.4588 103.588 86.4552H104.85C106.105 86.4552 107.309 85.9579 108.196 85.0728C109.084 84.1877 109.583 82.9872 109.583 81.7354C109.583 80.4836 109.084 79.2831 108.196 78.398C107.309 77.5129 106.105 77.0156 104.85 77.0156H103.588C103.513 77.0143 103.439 77.0282 103.37 77.0566C103.301 77.0849 103.238 77.1271 103.186 77.1804C103.082 77.2879 103.025 77.4318 103.027 77.5811L103.018 85.8869Z" fill="url(#paint8_linear_484_2821)"/>
<path d="M114.415 75.4727C114.615 75.471 114.808 75.5487 114.951 75.6886C115.023 75.7591 115.081 75.8435 115.12 75.9368C115.158 76.0302 115.177 76.1304 115.176 76.2314V87.2309C115.178 87.3303 115.159 87.429 115.12 87.5205C115.081 87.6121 115.024 87.6944 114.951 87.7623C114.882 87.8344 114.799 87.8916 114.706 87.9303C114.614 87.9689 114.515 87.9881 114.415 87.9868C114.315 87.9881 114.216 87.9689 114.124 87.9303C114.032 87.8916 113.949 87.8344 113.88 87.7623C113.807 87.6944 113.749 87.6121 113.71 87.5205C113.671 87.429 113.652 87.3303 113.654 87.2309V76.2314C113.653 76.1304 113.672 76.0302 113.711 75.9368C113.75 75.8435 113.807 75.7591 113.88 75.6886C114.022 75.5487 114.215 75.471 114.415 75.4727Z" fill="url(#paint9_linear_484_2821)"/>
<path d="M121.386 76.9876C121.127 76.9869 120.87 77.0372 120.63 77.1358C120.391 77.2343 120.173 77.3791 119.99 77.5619C119.807 77.7446 119.661 77.9617 119.563 78.2006C119.464 78.4395 119.413 78.6955 119.414 78.954C119.407 79.2648 119.488 79.5713 119.648 79.8382C119.807 80.1051 120.04 80.3216 120.317 80.4628C120.988 80.7504 121.681 80.9841 122.389 81.1618C123.115 81.3381 123.795 81.6676 124.383 82.128C124.984 82.6735 125.286 83.4464 125.286 84.4523C125.284 85.3889 124.91 86.2864 124.245 86.9483C123.581 87.6103 122.681 87.9828 121.742 87.9843H118.554C118.353 87.9821 118.161 87.9019 118.019 87.7607C117.877 87.6195 117.796 87.4285 117.793 87.2285V87.1774C117.795 86.9768 117.876 86.7851 118.018 86.6433C118.16 86.5015 118.353 86.4209 118.554 86.4187H121.822C122.081 86.419 122.337 86.3684 122.577 86.2697C122.816 86.1711 123.033 86.0262 123.217 85.8436C123.4 85.6609 123.545 85.444 123.644 85.2053C123.743 84.9665 123.794 84.7107 123.793 84.4523C123.796 84.1413 123.713 83.8355 123.554 83.568C123.395 83.3006 123.165 83.0816 122.89 82.935C122.222 82.6269 121.529 82.3741 120.819 82.1791C120.094 81.982 119.415 81.6418 118.824 81.1789C118.52 80.8962 118.282 80.5506 118.126 80.1662C117.97 79.7818 117.9 79.3681 117.921 78.954C117.92 78.4899 118.012 78.0303 118.189 77.6014C118.367 77.1726 118.628 76.7829 118.957 76.4548C119.286 76.1267 119.676 75.8665 120.107 75.6893C120.537 75.5121 120.997 75.4212 121.463 75.422H123.711C123.812 75.4204 123.912 75.4396 124.006 75.4782C124.1 75.5168 124.184 75.574 124.255 75.6464C124.326 75.7154 124.381 75.7982 124.419 75.8896C124.456 75.9811 124.474 76.0792 124.471 76.1778V76.229C124.472 76.3288 124.453 76.4278 124.415 76.5202C124.377 76.6126 124.321 76.6965 124.25 76.7671C124.179 76.8377 124.095 76.8936 124.003 76.9314C123.91 76.9693 123.811 76.9884 123.711 76.9876H121.386Z" fill="url(#paint10_linear_484_2821)"/>
<path d="M129.185 83.8193V87.2291C129.187 87.3285 129.168 87.4272 129.129 87.5187C129.09 87.6103 129.033 87.6926 128.96 87.7605C128.891 87.8326 128.808 87.8898 128.716 87.9284C128.623 87.9671 128.524 87.9863 128.424 87.985H128.399C128.299 87.9859 128.201 87.9665 128.109 87.9279C128.017 87.8893 127.935 87.8323 127.866 87.7605C127.793 87.6926 127.735 87.6103 127.697 87.5187C127.658 87.4272 127.639 87.3285 127.641 87.2291V79.6451C127.641 78.8203 127.887 78.0142 128.347 77.3287C128.807 76.6431 129.46 76.1089 130.224 75.7935C130.988 75.4782 131.829 75.3958 132.64 75.5569C133.451 75.7179 134.196 76.1151 134.781 76.6983C135.366 77.2815 135.764 78.0245 135.925 78.8334C136.087 79.6423 136.004 80.4808 135.688 81.2429C135.372 82.005 134.836 82.6565 134.149 83.1151C133.461 83.5737 132.653 83.8187 131.826 83.8193H129.185ZM129.185 82.2792H131.826C132.35 82.2803 132.863 82.1263 133.299 81.8367C133.735 81.547 134.075 81.1348 134.276 80.6522C134.477 80.1696 134.53 79.6384 134.428 79.1258C134.326 78.6132 134.074 78.1423 133.703 77.7728C133.333 77.4033 132.861 77.1517 132.347 77.0501C131.833 76.9484 131.3 77.0011 130.816 77.2016C130.332 77.4022 129.919 77.7414 129.629 78.1764C129.338 78.6113 129.184 79.1225 129.185 79.6451V82.2792Z" fill="url(#paint11_linear_484_2821)"/>
<path d="M139.998 85.1964C139.998 85.528 140.13 85.846 140.365 86.0805C140.601 86.3149 140.919 86.4467 141.252 86.4467H143.682C143.783 86.4449 143.883 86.4639 143.976 86.5025C144.07 86.5411 144.154 86.5985 144.224 86.6711C144.297 86.7412 144.355 86.8255 144.394 86.9189C144.433 87.0123 144.453 87.1127 144.451 87.2139V87.2309C144.453 87.3305 144.433 87.4292 144.394 87.5208C144.355 87.6123 144.297 87.6946 144.224 87.7623C144.154 87.8349 144.07 87.8923 143.976 87.9309C143.883 87.9695 143.783 87.9886 143.682 87.9868H141.252C140.884 87.9871 140.52 87.9152 140.18 87.7752C139.841 87.6351 139.532 87.4296 139.272 87.1705C139.012 86.9113 138.805 86.6036 138.664 86.2649C138.524 85.9261 138.451 85.5631 138.451 85.1964V76.2314C138.45 76.1315 138.47 76.0325 138.508 75.9401C138.546 75.8478 138.602 75.7638 138.672 75.6932C138.743 75.6226 138.827 75.5667 138.92 75.5289C139.013 75.491 139.112 75.4719 139.212 75.4727H139.238C139.338 75.4723 139.437 75.4917 139.529 75.5297C139.622 75.5677 139.706 75.6235 139.776 75.6941C139.847 75.7646 139.903 75.8484 139.941 75.9406C139.979 76.0328 139.999 76.1316 139.998 76.2314V85.1964Z" fill="url(#paint12_linear_484_2821)"/>
<path d="M154.456 87.2318C154.458 87.3313 154.438 87.4301 154.399 87.5216C154.36 87.6131 154.302 87.6954 154.228 87.7631C154.16 87.8352 154.077 87.8924 153.986 87.931C153.894 87.9696 153.795 87.9889 153.696 87.9876H153.67C153.57 87.9886 153.471 87.9692 153.379 87.9306C153.287 87.892 153.204 87.835 153.134 87.7631C153.062 87.695 153.005 87.6125 152.966 87.521C152.927 87.4296 152.908 87.3311 152.909 87.2318V83.2536H147.855V87.2318C147.857 87.3311 147.838 87.4298 147.799 87.5214C147.76 87.6129 147.703 87.6953 147.63 87.7631C147.561 87.8353 147.478 87.8925 147.385 87.9311C147.293 87.9697 147.194 87.989 147.094 87.9876H147.071C146.971 87.989 146.872 87.9697 146.78 87.9311C146.688 87.8925 146.605 87.8353 146.536 87.7631C146.463 87.6953 146.405 87.6129 146.366 87.5214C146.328 87.4298 146.309 87.3311 146.311 87.2318V79.5341C146.339 78.4754 146.78 77.4694 147.541 76.7305C148.302 75.9916 149.322 75.5781 150.384 75.5781C151.445 75.5781 152.465 75.9916 153.226 76.7305C153.987 77.4694 154.428 78.4754 154.456 79.5341V87.2318ZM152.909 81.7306V79.5341C152.909 78.8656 152.643 78.2245 152.169 77.7518C151.695 77.2792 151.052 77.0136 150.382 77.0136C149.712 77.0136 149.069 77.2792 148.595 77.7518C148.121 78.2245 147.855 78.8656 147.855 79.5341V81.7334L152.909 81.7306Z" fill="url(#paint13_linear_484_2821)"/>
<path d="M165.212 79.9296C165.211 80.8723 164.881 81.7852 164.278 82.5113C163.676 83.2374 162.838 83.7313 161.909 83.9078V87.2181C161.911 87.3175 161.892 87.4162 161.854 87.5077C161.815 87.5993 161.757 87.6817 161.684 87.7495C161.616 87.8216 161.533 87.8787 161.442 87.9174C161.35 87.956 161.251 87.9753 161.152 87.974H161.14C161.04 87.975 160.941 87.9556 160.849 87.917C160.757 87.8784 160.674 87.8214 160.605 87.7495C160.532 87.6817 160.474 87.5993 160.435 87.5077C160.396 87.4162 160.377 87.3175 160.379 87.2181V83.9191C159.451 83.7431 158.613 83.2493 158.011 82.523C157.409 81.7967 157.079 80.8835 157.08 79.941V76.247C157.079 76.146 157.098 76.0458 157.137 75.9525C157.175 75.8591 157.233 75.7747 157.305 75.7043C157.448 75.5643 157.641 75.4866 157.841 75.4883H157.864C158.064 75.4866 158.257 75.5643 158.399 75.7043C158.472 75.7747 158.529 75.8591 158.568 75.9525C158.607 76.0458 158.626 76.146 158.624 76.247V79.941C158.624 80.6094 158.891 81.2505 159.365 81.7232C159.839 82.1959 160.481 82.4614 161.152 82.4614C161.822 82.4614 162.465 82.1959 162.939 81.7232C163.412 81.2505 163.679 80.6094 163.679 79.941V76.247C163.678 76.1473 163.698 76.0484 163.736 75.9562C163.774 75.864 163.83 75.7802 163.901 75.7097C163.971 75.6392 164.055 75.5833 164.148 75.5453C164.24 75.5073 164.339 75.4879 164.439 75.4883H164.465C164.565 75.4876 164.664 75.5067 164.757 75.5445C164.85 75.5824 164.934 75.6382 165.005 75.7088C165.076 75.7794 165.132 75.8634 165.169 75.9558C165.207 76.0482 165.227 76.1472 165.226 76.247L165.212 79.9296Z" fill="url(#paint14_linear_484_2821)"/>
<path d="M175.886 66.8672H8.87305V69.0012H175.886V66.8672Z" fill="url(#paint15_linear_484_2821)"/>
<g clip-path="url(#clip0_484_2821)">
<path d="M58.1222 42.1534C58.1199 42.7092 58.2289 43.2599 58.4429 43.7738C58.6569 44.2877 58.9716 44.7546 59.3689 45.1476C59.7662 45.5405 60.2382 45.8518 60.7577 46.0635C61.2773 46.2751 61.834 46.383 62.3959 46.3807H72.7496C73.8977 46.3896 74.9962 46.8446 75.8081 47.6476C76.6199 48.4506 77.0799 49.5372 77.0889 50.6728V50.7433C77.1019 51.3031 76.9944 51.8593 76.7733 52.3749C76.5522 52.8904 76.2228 53.3535 75.8068 53.7334C75.4121 54.1405 74.9371 54.4631 74.4112 54.6813C73.8854 54.8994 73.3198 55.0084 72.7496 55.0016H62.3959C58.9529 54.9986 55.6518 53.6442 53.2175 51.2358C50.7832 48.8274 49.4146 45.5619 49.4124 42.1562V4.29089C49.4059 3.72679 49.516 3.16732 49.736 2.64683C49.956 2.12635 50.2812 1.65582 50.6916 1.26415C51.0876 0.86921 51.5597 0.556947 52.0799 0.345878C52.6002 0.134809 53.158 0.0292331 53.7203 0.0354127H53.8257C54.3871 0.02935 54.944 0.135001 55.4633 0.346085C55.9826 0.557169 56.4537 0.869377 56.8486 1.26415C57.2585 1.656 57.5829 2.12668 57.8019 2.64722C58.0209 3.16776 58.1299 3.72713 58.1222 4.29089V42.1534Z" fill="url(#paint16_linear_484_2821)"/>
<path d="M124.547 8.09239C129.977 13.4639 132.694 19.9382 132.696 27.5154C132.697 35.0926 129.981 41.567 124.547 46.9385C119.094 52.3118 112.541 54.9985 104.888 54.9985C97.2352 54.9985 90.6888 52.3118 85.2489 46.9385C79.8108 41.5726 77.0918 35.0983 77.0918 27.5154C77.0918 19.9326 79.807 13.4582 85.2375 8.09239C90.6679 2.7209 97.2143 0.0351562 104.877 0.0351562C112.539 0.0351562 119.096 2.7209 124.547 8.09239ZM91.3916 14.1431C87.6668 17.8274 85.8054 22.2848 85.8073 27.5154C85.8092 32.746 87.6706 37.2035 91.3916 40.8878C95.1164 44.5458 99.6114 46.3758 104.877 46.3776C110.142 46.3795 114.647 44.5496 118.393 40.8878C122.116 37.2053 123.978 32.7479 123.98 27.5154C123.982 22.283 122.12 17.8255 118.393 14.1431C114.67 10.4625 110.165 8.62127 104.877 8.61939C99.5886 8.61752 95.0936 10.4587 91.3916 14.1431Z" fill="url(#paint17_linear_484_2821)"/>
<path d="M176.854 8.07568C182.284 13.4472 184.999 19.9215 184.999 27.4987C184.999 35.0759 182.284 41.5503 176.854 46.9218C171.397 52.2932 164.839 54.979 157.18 54.979C149.522 54.979 142.976 52.2932 137.544 46.9218C132.114 41.5503 129.398 35.0759 129.398 27.4987C129.398 19.9215 132.114 13.4472 137.544 8.07568C142.975 2.70419 149.52 0.0175048 157.18 0.015626C164.841 0.0137472 171.398 2.70043 176.854 8.07568ZM143.698 14.1264C139.973 17.8088 138.112 22.2663 138.114 27.4987C138.116 32.7312 139.977 37.1858 143.698 40.8626C147.421 44.5225 151.915 46.3525 157.18 46.3525C162.446 46.3525 166.952 44.5225 170.699 40.8626C174.424 37.1821 176.286 32.7255 176.284 27.4931C176.282 22.2606 174.42 17.8032 170.699 14.1207C166.975 10.4383 162.468 8.59705 157.18 8.59705C151.892 8.59705 147.398 10.4401 143.698 14.1264Z" fill="url(#paint18_linear_484_2821)"/>
<path d="M20.9525 42.5537L33.1896 2.88472C33.8563 0.960829 35.2086 -0.00111646 37.2467 -0.00111646H37.4946C38.1856 -0.0264811 38.8719 0.121452 39.4896 0.428919C40.1073 0.736387 40.6364 1.1934 41.0275 1.75744C41.5705 2.4545 41.8704 3.30686 41.8823 4.18673C41.8761 4.69174 41.7796 5.19168 41.5974 5.66347L27.0012 50.8449C25.9053 53.5841 23.8776 54.9538 20.9183 54.9538C17.959 54.9538 15.9314 53.5841 14.8354 50.8449L0.284913 5.66347C0.10041 5.17959 0.00395143 4.66723 0 4.15009C0.00734113 3.28665 0.293887 2.44819 0.817701 1.75744C1.21188 1.19912 1.73991 0.746231 2.35449 0.439327C2.96907 0.132423 3.65101 -0.0189098 4.33923 -0.00111646H4.58996C6.65843 -0.00111646 8.02221 0.960829 8.68131 2.88472L20.9525 42.5537Z" fill="url(#paint19_linear_484_2821)"/>
</g>
<defs>
<linearGradient id="paint0_linear_484_2821" x1="-23.5302" y1="46.8117" x2="183.848" y2="84.8087" gradientUnits="userSpaceOnUse">
<stop stop-color="#426EB6"/>
<stop offset="0.47" stop-color="#4A8AAF"/>
<stop offset="1" stop-color="#54AFA7"/>
</linearGradient>
<linearGradient id="paint1_linear_484_2821" x1="-27.8435" y1="70.9437" x2="174.531" y2="111.858" gradientUnits="userSpaceOnUse">
<stop stop-color="#6795CE"/>
<stop offset="0.69" stop-color="#5BB1B4"/>
<stop offset="1" stop-color="#55C0A7"/>
</linearGradient>
<linearGradient id="paint2_linear_484_2821" x1="-27.5675" y1="69.5822" x2="174.807" y2="110.5" gradientUnits="userSpaceOnUse">
<stop stop-color="#6795CE"/>
<stop offset="0.69" stop-color="#5BB1B4"/>
<stop offset="1" stop-color="#55C0A7"/>
</linearGradient>
<linearGradient id="paint3_linear_484_2821" x1="-27.1052" y1="67.2859" x2="175.269" y2="108.203" gradientUnits="userSpaceOnUse">
<stop stop-color="#6795CE"/>
<stop offset="0.69" stop-color="#5BB1B4"/>
<stop offset="1" stop-color="#55C0A7"/>
</linearGradient>
<linearGradient id="paint4_linear_484_2821" x1="-26.8249" y1="65.8976" x2="175.549" y2="106.815" gradientUnits="userSpaceOnUse">
<stop stop-color="#6795CE"/>
<stop offset="0.69" stop-color="#5BB1B4"/>
<stop offset="1" stop-color="#55C0A7"/>
</linearGradient>
<linearGradient id="paint5_linear_484_2821" x1="-26.3156" y1="63.3848" x2="176.059" y2="104.302" gradientUnits="userSpaceOnUse">
<stop stop-color="#6795CE"/>
<stop offset="0.69" stop-color="#5BB1B4"/>
<stop offset="1" stop-color="#55C0A7"/>
</linearGradient>
<linearGradient id="paint6_linear_484_2821" x1="-25.9799" y1="61.725" x2="176.395" y2="102.642" gradientUnits="userSpaceOnUse">
<stop stop-color="#6795CE"/>
<stop offset="0.69" stop-color="#5BB1B4"/>
<stop offset="1" stop-color="#55C0A7"/>
</linearGradient>
<linearGradient id="paint7_linear_484_2821" x1="-25.4127" y1="58.9282" x2="176.962" y2="99.8457" gradientUnits="userSpaceOnUse">
<stop stop-color="#6795CE"/>
<stop offset="0.69" stop-color="#5BB1B4"/>
<stop offset="1" stop-color="#55C0A7"/>
</linearGradient>
<linearGradient id="paint8_linear_484_2821" x1="-24.7685" y1="55.7468" x2="177.603" y2="96.6643" gradientUnits="userSpaceOnUse">
<stop stop-color="#6795CE"/>
<stop offset="0.69" stop-color="#5BB1B4"/>
<stop offset="1" stop-color="#55C0A7"/>
</linearGradient>
<linearGradient id="paint9_linear_484_2821" x1="-24.3811" y1="53.8174" x2="177.994" y2="94.7352" gradientUnits="userSpaceOnUse">
<stop stop-color="#6795CE"/>
<stop offset="0.69" stop-color="#5BB1B4"/>
<stop offset="1" stop-color="#55C0A7"/>
</linearGradient>
<linearGradient id="paint10_linear_484_2821" x1="-24.114" y1="52.4909" x2="178.261" y2="93.4083" gradientUnits="userSpaceOnUse">
<stop stop-color="#6795CE"/>
<stop offset="0.69" stop-color="#5BB1B4"/>
<stop offset="1" stop-color="#55C0A7"/>
</linearGradient>
<linearGradient id="paint11_linear_484_2821" x1="-23.7593" y1="50.7468" x2="178.615" y2="91.6642" gradientUnits="userSpaceOnUse">
<stop stop-color="#6795CE"/>
<stop offset="0.69" stop-color="#5BB1B4"/>
<stop offset="1" stop-color="#55C0A7"/>
</linearGradient>
<linearGradient id="paint12_linear_484_2821" x1="-23.3768" y1="48.8476" x2="178.998" y2="89.765" gradientUnits="userSpaceOnUse">
<stop stop-color="#6795CE"/>
<stop offset="0.69" stop-color="#5BB1B4"/>
<stop offset="1" stop-color="#55C0A7"/>
</linearGradient>
<linearGradient id="paint13_linear_484_2821" x1="-23.0331" y1="47.152" x2="179.341" y2="88.0693" gradientUnits="userSpaceOnUse">
<stop stop-color="#6795CE"/>
<stop offset="0.69" stop-color="#5BB1B4"/>
<stop offset="1" stop-color="#55C0A7"/>
</linearGradient>
<linearGradient id="paint14_linear_484_2821" x1="-22.4895" y1="44.4674" x2="179.885" y2="85.3848" gradientUnits="userSpaceOnUse">
<stop stop-color="#6795CE"/>
<stop offset="0.69" stop-color="#5BB1B4"/>
<stop offset="1" stop-color="#55C0A7"/>
</linearGradient>
<linearGradient id="paint15_linear_484_2821" x1="-22.5615" y1="44.8198" x2="179.813" y2="85.7372" gradientUnits="userSpaceOnUse">
<stop stop-color="#6795CE"/>
<stop offset="0.69" stop-color="#5BB1B4"/>
<stop offset="1" stop-color="#55C0A7"/>
</linearGradient>
<linearGradient id="paint16_linear_484_2821" x1="-16.263" y1="12.7765" x2="185.976" y2="54.0057" gradientUnits="userSpaceOnUse">
<stop stop-color="#6795CE"/>
<stop offset="0.69" stop-color="#5BB1B4"/>
<stop offset="1" stop-color="#55C0A7"/>
</linearGradient>
<linearGradient id="paint17_linear_484_2821" x1="-14.4196" y1="3.72137" x2="187.823" y2="44.9505" gradientUnits="userSpaceOnUse">
<stop stop-color="#6795CE"/>
<stop offset="0.69" stop-color="#5BB1B4"/>
<stop offset="1" stop-color="#55C0A7"/>
</linearGradient>
<linearGradient id="paint18_linear_484_2821" x1="-12.3716" y1="-6.31969" x2="189.871" y2="34.9095" gradientUnits="userSpaceOnUse">
<stop stop-color="#6795CE"/>
<stop offset="0.69" stop-color="#5BB1B4"/>
<stop offset="1" stop-color="#55C0A7"/>
</linearGradient>
<linearGradient id="paint19_linear_484_2821" x1="-17.374" y1="18.2214" x2="184.868" y2="59.4505" gradientUnits="userSpaceOnUse">
<stop stop-color="#6795CE"/>
<stop offset="0.69" stop-color="#5BB1B4"/>
<stop offset="1" stop-color="#55C0A7"/>
</linearGradient>
<clipPath id="clip0_484_2821">
<rect width="185" height="55" fill="white"/>
</clipPath>
</defs>
</svg>
