<svg width="25" height="25" viewBox="0 0 25 25" fill="none" xmlns="http://www.w3.org/2000/svg">
<path d="M10.3089 0.960938H2.32314C1.58845 0.960938 0.992188 1.55244 0.992188 2.28125V10.2031C0.992188 10.9319 1.58845 11.5234 2.32314 11.5234H10.3089C11.0435 11.5234 11.6398 10.9319 11.6398 10.2031V2.28125C11.6398 1.55244 11.0435 0.960938 10.3089 0.960938ZM8.9779 8.88281H3.65409V3.60156H8.9779V8.88281ZM15.6327 11.5234H23.6184C24.3544 11.5234 24.9493 10.9319 24.9493 10.2031V2.28125C24.9493 1.55244 24.3544 0.960938 23.6184 0.960938H15.6327C14.8966 0.960938 14.3017 1.55244 14.3017 2.28125V10.2031C14.3017 10.9319 14.8966 11.5234 15.6327 11.5234ZM16.9636 3.60156H22.2874V8.88281H16.9636V3.60156ZM0.992188 23.4062C0.992188 24.1351 1.58845 24.7266 2.32314 24.7266H10.3089C11.0435 24.7266 11.6398 24.1351 11.6398 23.4062V15.4844C11.6398 14.7556 11.0435 14.1641 10.3089 14.1641H2.32314C1.58845 14.1641 0.992188 14.7556 0.992188 15.4844V23.4062ZM3.65409 16.8047H8.9779V22.0859H3.65409V16.8047ZM14.3017 23.4062C14.3017 24.1351 14.8966 24.7266 15.6327 24.7266H23.6184C24.3544 24.7266 24.9493 24.1351 24.9493 23.4062V15.4844C24.9493 14.7556 24.3544 14.1641 23.6184 14.1641H15.6327C14.8966 14.1641 14.3017 14.7556 14.3017 15.4844V23.4062ZM16.9636 16.8047H22.2874V22.0859H16.9636V16.8047Z" fill="#B0DAE4"/>
</svg>
