<svg width="115" height="109" viewBox="0 0 115 109" fill="none" xmlns="http://www.w3.org/2000/svg">
<path fill-rule="evenodd" clip-rule="evenodd" d="M44.6569 46.5879L39 52.2447L51.5492 64.7939L39.0004 77.3428L44.6572 82.9996L57.2061 70.4508L69.7549 82.9996L75.4117 77.3428L62.8629 64.7939L75.4121 52.2447L69.7553 46.5879L57.2061 59.1371L44.6569 46.5879Z" fill="#FFA6A6"/>
<path fill-rule="evenodd" clip-rule="evenodd" d="M30.4121 8.3252L38.7383 0L57.207 18.4688L75.6738 0L84 8.3252L70.7363 21.5879H104C110.074 21.5879 115 26.5127 115 32.5879V97.5879C115 103.663 110.074 108.588 104 108.588H11C4.92578 108.588 0 103.663 0 97.5879V32.5879C0 26.5127 4.92578 21.5879 11 21.5879H43.6738L30.4121 8.3252ZM12 33.5879H103V96.5879H12V33.5879Z" fill="#B0DAE4"/>
</svg>
