<svg width="43" height="43" viewBox="0 0 43 43" fill="none" xmlns="http://www.w3.org/2000/svg">
<path d="M35.7406 3.66406H14.752C12.8228 3.66406 11.2539 5.23296 11.2539 7.16216V28.1508C11.2539 30.08 12.8228 31.6489 14.752 31.6489H35.7406C37.6698 31.6489 39.2387 30.08 39.2387 28.1508V7.16216C39.2387 5.23296 37.6698 3.66406 35.7406 3.66406ZM14.752 28.1508V7.16216H35.7406L35.7441 28.1508H14.752Z" fill="#B0DAE4"/>
<path d="M7.75591 14.1562H4.25781V35.1449C4.25781 37.0741 5.82671 38.643 7.75591 38.643H28.7445V35.1449H7.75591V14.1562Z" fill="#B0DAE4"/>
<path d="M21.7491 21.1525L20.0001 19.4034L16.502 24.6506H33.9925L26.9963 14.1562L21.7491 21.1525Z" fill="#B0DAE4"/>
</svg>
