<svg width="23" height="23" viewBox="0 0 23 23" fill="none" xmlns="http://www.w3.org/2000/svg">
<g id="Effect 2" clip-path="url(#clip0_88_41866)">
<g id="Group">
<path id="Vector" d="M11.5 3.41406C7.04141 3.41406 3.41406 7.04141 3.41406 11.5C3.41406 15.9586 7.04141 19.5859 11.5 19.5859C15.9586 19.5859 19.5859 15.9586 19.5859 11.5C19.5859 7.04141 15.9586 3.41406 11.5 3.41406ZM12.3984 5.2754C13.7502 5.4696 14.9643 6.09518 15.8966 7.00781H12.3984V5.2754ZM12.3984 15.9922H15.8966C14.9643 16.9048 13.7502 17.5304 12.3984 17.7246V15.9922ZM12.3984 14.1953V12.3984H17.7246C17.6335 13.0326 17.4476 13.6366 17.1814 14.1953H12.3984ZM12.3984 10.6016V8.80469H17.1814C17.4476 9.36343 17.6335 9.96736 17.7246 10.6016H12.3984ZM5.21094 11.5C5.21094 8.33723 7.55788 5.71267 10.6016 5.2754V17.7246C7.55788 17.2873 5.21094 14.6628 5.21094 11.5Z" fill="#31C7E0" fill-opacity="0.5"/>
<path id="Vector_2" d="M0.898438 12.3984C1.39463 12.3984 1.79688 11.9962 1.79688 11.5C1.79688 11.0038 1.39463 10.6016 0.898438 10.6016C0.402244 10.6016 0 11.0038 0 11.5C0 11.9962 0.402244 12.3984 0.898438 12.3984Z" fill="#31C7E0" fill-opacity="0.5"/>
<path id="Vector_3" d="M22.1016 12.3984C22.5978 12.3984 23 11.9962 23 11.5C23 11.0038 22.5978 10.6016 22.1016 10.6016C21.6054 10.6016 21.2031 11.0038 21.2031 11.5C21.2031 11.9962 21.6054 12.3984 22.1016 12.3984Z" fill="#31C7E0" fill-opacity="0.5"/>
<path id="Vector_4" d="M3.24168 18.4877C2.89079 18.8386 2.89079 19.4075 3.24168 19.7583C3.59252 20.1092 4.16141 20.1092 4.51225 19.7583C4.86313 19.4075 4.86313 18.8386 4.51225 18.4877C4.16136 18.1369 3.59256 18.1369 3.24168 18.4877Z" fill="#31C7E0" fill-opacity="0.5"/>
<path id="Vector_5" d="M18.4878 3.24165C18.1369 3.59249 18.1369 4.16138 18.4878 4.51222C18.8387 4.86306 19.4075 4.8631 19.7583 4.51222C20.1092 4.16133 20.1092 3.59249 19.7583 3.24165C19.4075 2.89081 18.8387 2.89081 18.4878 3.24165Z" fill="#31C7E0" fill-opacity="0.5"/>
<path id="Vector_6" d="M11.5 23C11.9962 23 12.3984 22.5978 12.3984 22.1016C12.3984 21.6054 11.9962 21.2031 11.5 21.2031C11.0038 21.2031 10.6016 21.6054 10.6016 22.1016C10.6016 22.5978 11.0038 23 11.5 23Z" fill="#31C7E0" fill-opacity="0.5"/>
<path id="Vector_7" d="M11.5 1.79688C11.9962 1.79688 12.3984 1.39463 12.3984 0.898438C12.3984 0.402244 11.9962 0 11.5 0C11.0038 0 10.6016 0.402244 10.6016 0.898438C10.6016 1.39463 11.0038 1.79688 11.5 1.79688Z" fill="#31C7E0" fill-opacity="0.5"/>
<path id="Vector_8" d="M18.4878 18.4877C18.1369 18.8386 18.1369 19.4075 18.4878 19.7583C18.8387 20.1092 19.4075 20.1092 19.7583 19.7583C20.1092 19.4075 20.1092 18.8386 19.7583 18.4877C19.4075 18.1369 18.8387 18.1369 18.4878 18.4877Z" fill="#31C7E0" fill-opacity="0.5"/>
<path id="Vector_9" d="M4.51225 4.51225C4.86313 4.16136 4.86313 3.59252 4.51225 3.24168C4.16136 2.89079 3.59252 2.89079 3.24168 3.24168C2.89079 3.59252 2.89079 4.16141 3.24168 4.51225C3.59252 4.86309 4.16136 4.86309 4.51225 4.51225Z" fill="#31C7E0" fill-opacity="0.5"/>
</g>
</g>
<defs>
<clipPath id="clip0_88_41866">
<rect width="23" height="23" fill="white"/>
</clipPath>
</defs>
</svg>
