<svg width="38" height="32" viewBox="0 0 38 32" fill="none" xmlns="http://www.w3.org/2000/svg">
<g id="Icon - animation">
<path id="Trac&#195;&#169; 4846" d="M12.9798 18.2619C13.3999 12.1562 12.1357 10.1921 6.35626 8.00158C6.23778 7.94808 6.14157 7.85564 6.08388 7.7399C6.0262 7.62415 6.01059 7.49219 6.03969 7.36634C6.06878 7.24049 6.14081 7.12847 6.24357 7.04922C6.34634 6.96997 6.47355 6.92835 6.60369 6.9314C12.7703 7.35346 14.7505 6.09447 16.959 0.372428C17.0037 0.24452 17.0941 0.137285 17.2131 0.0709805C17.3321 0.00467627 17.4715 -0.0161053 17.6049 0.0125618C17.7383 0.0412289 17.8564 0.117359 17.9371 0.226571C18.0178 0.335783 18.0553 0.470513 18.0426 0.605308C17.6236 6.7236 18.8868 8.68768 24.6554 10.8843C24.7971 10.9181 24.92 11.0055 24.9976 11.1279C25.0752 11.2503 25.1015 11.3979 25.0709 11.5393C25.0402 11.6807 24.955 11.8046 24.8335 11.8845C24.712 11.9644 24.5638 11.994 24.4206 11.967C18.2536 11.5457 16.2738 12.7982 14.0588 18.5245C14.0124 18.654 13.9192 18.7618 13.7972 18.8269C13.6752 18.892 13.5331 18.9098 13.3986 18.8768C13.2641 18.8439 13.1468 18.7625 13.0694 18.6485C12.992 18.5346 12.9601 18.3961 12.9798 18.2601V18.2619Z" fill="#B0DAE4" fill-opacity="0.5"/>
<path id="Trac&#195;&#169; 4847" d="M17.1438 31.4114C17.1438 28.6986 16.395 27.4962 13.9073 26.3758C13.7912 26.3232 13.6967 26.2326 13.6398 26.1193C13.5828 26.006 13.5667 25.8767 13.5941 25.753C13.6216 25.6293 13.6909 25.5187 13.7907 25.4396C13.8904 25.3605 14.0144 25.3176 14.1421 25.3182C16.8772 25.3182 18.0894 24.5755 19.219 22.1016C19.2745 21.9888 19.3666 21.8977 19.4806 21.843C19.5946 21.7883 19.7238 21.7732 19.8474 21.8001C19.9711 21.8269 20.0821 21.8942 20.1626 21.9911C20.2431 22.088 20.2885 22.2089 20.2914 22.3345C20.2914 25.0474 21.0402 26.2562 23.5344 27.3701C23.6481 27.4252 23.74 27.5166 23.7951 27.6296C23.8502 27.7426 23.8655 27.8708 23.8384 27.9934C23.8113 28.1161 23.7435 28.2262 23.6458 28.306C23.5481 28.3859 23.4262 28.4309 23.2996 28.4338C20.5645 28.4338 19.3457 29.1765 18.2227 31.6439C18.175 31.7677 18.0842 31.8704 17.9667 31.9334C17.8492 31.9964 17.7129 32.0156 17.5823 31.9874C17.4518 31.9593 17.3358 31.8856 17.2554 31.7799C17.1749 31.6741 17.1353 31.5436 17.1438 31.4114Z" fill="#B0DAE4" fill-opacity="0.5"/>
<path id="Trac&#195;&#169; 4848" d="M2.34997 24.0647C2.37885 23.3957 2.19862 22.7343 1.83393 22.1709C1.46925 21.6075 0.937942 21.1696 0.312719 20.9172C0.200249 20.8625 0.109569 20.772 0.055251 20.66C0.000932736 20.5481 -0.0138704 20.4213 0.01322 20.3C0.0403104 20.1787 0.107722 20.07 0.204622 19.9913C0.301522 19.9126 0.422286 19.8684 0.547509 19.866C1.22103 19.8901 1.88589 19.7095 2.45303 19.3483C3.02017 18.9872 3.4625 18.4628 3.72078 17.8453C3.77589 17.7338 3.86721 17.6438 3.98006 17.59C4.09292 17.5361 4.22076 17.5214 4.34304 17.5483C4.46532 17.5751 4.57495 17.642 4.6543 17.7381C4.73366 17.8342 4.77813 17.954 4.78058 18.0782C4.7517 18.7471 4.93194 19.4086 5.29662 19.972C5.6613 20.5354 6.19261 20.9733 6.81783 21.2257C6.9303 21.2803 7.02098 21.3709 7.0753 21.4829C7.12962 21.5948 7.14442 21.7216 7.11733 21.8429C7.09024 21.9642 7.02283 22.0729 6.92593 22.1516C6.82903 22.2303 6.70827 22.2744 6.58304 22.2769C5.90952 22.2528 5.24466 22.4334 4.67753 22.7945C4.11039 23.1557 3.66805 23.6801 3.40977 24.2975C3.35466 24.4091 3.26334 24.499 3.15049 24.5529C3.03763 24.6068 2.90979 24.6215 2.78751 24.5946C2.66523 24.5677 2.55561 24.5009 2.47625 24.4048C2.3969 24.3086 2.35242 24.1889 2.34997 24.0647Z" fill="#B0DAE4" fill-opacity="0.5"/>
<path id="Trac&#195;&#169; 4849" d="M28.8769 25.5897C29.0213 23.4042 29.1181 21.7625 29.302 20.5541C29.3293 20.4192 29.3039 20.2791 29.2308 20.1622C29.1578 20.0453 29.0426 19.9603 28.9086 19.9246C27.7473 19.5971 26.2053 18.9866 24.1489 18.1934C24.02 18.149 23.9118 18.0594 23.845 17.9413C23.7782 17.8233 23.7572 17.6851 23.7861 17.5528C23.815 17.4205 23.8918 17.3032 24.0019 17.2232C24.112 17.1432 24.2478 17.106 24.3837 17.1186C26.5922 17.2572 28.2487 17.3514 29.4606 17.5403C29.5964 17.5658 29.7369 17.5399 29.8544 17.4677C29.972 17.3954 30.0579 17.2821 30.0952 17.1501C30.4254 15.9982 31.0344 14.4687 31.8406 12.423C31.8926 12.3031 31.9852 12.2049 32.1024 12.1455C32.2195 12.086 32.3539 12.069 32.4824 12.0974C32.6109 12.1258 32.7253 12.1977 32.806 12.3009C32.8867 12.404 32.9285 12.5318 32.9243 12.6623C32.7798 14.8528 32.6895 16.4894 32.4991 17.6979C32.4748 17.8325 32.5015 17.9712 32.5741 18.0874C32.6468 18.2037 32.7601 18.2891 32.8925 18.3274C34.0538 18.6549 35.5958 19.2589 37.6583 20.0521C37.7792 20.1037 37.8782 20.1955 37.9381 20.3117C37.9981 20.428 38.0152 20.5613 37.9866 20.6887C37.958 20.8161 37.8855 20.9296 37.7815 21.0096C37.6775 21.0897 37.5486 21.1312 37.4171 21.127C35.2086 20.9883 33.5521 20.8941 32.3402 20.7114C32.2042 20.6842 32.0629 20.7095 31.9451 20.782C31.8272 20.8544 31.7415 20.9687 31.7055 21.1015C31.3754 22.2534 30.7664 23.7829 29.9601 25.8225C29.9083 25.9418 29.8163 26.0396 29.6998 26.099C29.5834 26.1585 29.4497 26.1759 29.3217 26.1484C29.1937 26.1209 29.0793 26.0501 28.9981 25.9482C28.9169 25.8463 28.8743 25.7195 28.8769 25.5897Z" fill="#B0DAE4" fill-opacity="0.5"/>
</g>
</svg>
