<svg width="36" height="36" viewBox="0 0 36 36" fill="none" xmlns="http://www.w3.org/2000/svg">
<g id="icons / bx-cube">
<path id="Vector" d="M32.109 9.12937L18.609 3.12937C18.219 2.95687 17.7795 2.95687 17.3895 3.12937L3.8895 9.12937C3.8595 9.14287 3.8385 9.16537 3.8085 9.18187C3.7665 9.20287 3.7215 9.21637 3.6825 9.24187C3.6495 9.26437 3.624 9.29287 3.5925 9.31687C3.5505 9.34837 3.51 9.38287 3.4725 9.41887C3.411 9.47737 3.357 9.54038 3.3075 9.60787C3.2775 9.64988 3.246 9.68738 3.219 9.72937C3.1725 9.80888 3.138 9.89138 3.105 9.97687C3.0915 10.0174 3.0705 10.0549 3.0585 10.0954C3.0225 10.2259 3 10.3609 3 10.5004V25.5004C3 26.0944 3.348 26.6299 3.891 26.8714L17.391 32.8714C17.586 32.9584 17.793 33.0004 18 33.0004C18.2085 33.0004 18.4095 32.9419 18.603 32.8564L18.609 32.8714L32.109 26.8714C32.652 26.6299 33 26.0944 33 25.5004V10.5004C33 9.90637 32.652 9.37087 32.109 9.12937ZM18 6.14287L27.807 10.5004L18 14.8579L16.038 13.9864L8.1945 10.5004L18 6.14287ZM6 24.5269V12.8089L16.5 17.4754V29.1919L6 24.5269ZM19.5 29.1919V17.4754L30 12.8089V24.5269L19.5 29.1919Z" fill="#B0DAE4"/>
</g>
</svg>
