<svg width="33" height="33" viewBox="0 0 33 33" fill="none" xmlns="http://www.w3.org/2000/svg">
<path d="M16.5 12.375C14.2423 12.375 12.375 14.2436 12.375 16.5C12.375 18.7578 14.2423 20.625 16.5 20.625C18.7564 20.625 20.625 18.7578 20.625 16.5C20.625 14.2436 18.7564 12.375 16.5 12.375Z" fill="#0B111F"/>
<path d="M16.5 6.875C6.00466 6.875 2.85041 15.9734 2.82153 16.0655L2.67578 16.5L2.82016 16.9345C2.85041 17.0266 6.00466 26.125 16.5 26.125C26.9954 26.125 30.1497 17.0266 30.1785 16.9345L30.3243 16.5L30.1799 16.0655C30.1497 15.9734 26.9954 6.875 16.5 6.875ZM16.5 23.375C9.14241 23.375 6.29203 18.0868 5.60178 16.5C6.29478 14.9078 9.14653 9.625 16.5 9.625C23.8577 9.625 26.708 14.9132 27.3983 16.5C26.7053 18.0922 23.8535 23.375 16.5 23.375Z" fill="#0B111F"/>
</svg>
