<svg width="20" height="20" viewBox="0 0 20 20" fill="none" xmlns="http://www.w3.org/2000/svg">
<g id="icons / bx-movie-play">
<path id="Vector" d="M16.667 2.5H3.33366C2.41449 2.5 1.66699 3.2475 1.66699 4.16667V9.16667V15.8333C1.66699 16.7525 2.41449 17.5 3.33366 17.5H16.667C17.5862 17.5 18.3337 16.7525 18.3337 15.8333V9.16667V4.16667C18.3337 3.2475 17.5862 2.5 16.667 2.5ZM16.6678 7.5C16.667 7.5 16.667 7.5 16.6678 7.5H16.2803L14.0578 4.16667H16.667L16.6678 7.5ZM7.94699 7.5L5.72449 4.16667H7.88783L10.1103 7.5H7.94699ZM12.1137 7.5L9.89116 4.16667H12.0545L14.277 7.5H12.1137ZM3.33366 4.16667H3.72116L5.94366 7.5H3.33366V4.16667ZM3.33366 15.8333V9.16667H16.667L16.6687 15.8333H3.33366Z" fill="#B0DAE4"/>
<path id="Vector_2" d="M8.33301 15L12.9163 12.5L8.33301 10V15Z" fill="#B0DAE4"/>
</g>
</svg>
