<svg width="29" height="28" viewBox="0 0 29 28" fill="none" xmlns="http://www.w3.org/2000/svg">
<g id="Icon - transition - haut" clip-path="url(#clip0_2839_932)">
<path id="Trac&#195;&#169; 8907" d="M28.4999 5.90568e-08H27.5C27.3674 5.90568e-08 27.2402 0.0508602 27.1464 0.141392C27.0527 0.231924 27 0.354711 27 0.482742C27 0.610773 27.0527 0.733561 27.1464 0.824092C27.2402 0.914624 27.3674 0.965484 27.5 0.965484H27.9998V1.44835C27.9998 1.57638 28.0525 1.69916 28.1463 1.7897C28.24 1.88023 28.3672 1.93109 28.4998 1.93109C28.6324 1.93109 28.7596 1.88023 28.8534 1.7897C28.9471 1.69916 28.9998 1.57638 28.9998 1.44835V0.482861C28.9999 0.419454 28.987 0.356655 28.9619 0.298059C28.9368 0.239463 28.9 0.186219 28.8535 0.141371C28.8071 0.0965242 28.752 0.0609543 28.6913 0.0366965C28.6306 0.0124386 28.5656 -3.13154e-05 28.4999 5.90568e-08Z" fill="#B0DAE4"/>
<path id="Trac&#195;&#169; 8908" d="M28.4999 7.81055C28.3673 7.81055 28.2401 7.86139 28.1464 7.9519C28.0527 8.04241 28 8.16517 28 8.29317V10.5754C28 10.7034 28.0527 10.8262 28.1464 10.9167C28.2402 11.0073 28.3674 11.0581 28.5 11.0581C28.6326 11.0581 28.7598 11.0073 28.8535 10.9167C28.9473 10.8262 29 10.7034 29 10.5754V8.29341C29 8.23 28.987 8.16721 28.9619 8.10862C28.9368 8.05004 28.8999 7.99681 28.8535 7.95197C28.807 7.90714 28.7519 7.87157 28.6912 7.8473C28.6306 7.82304 28.5655 7.81055 28.4999 7.81055Z" fill="#B0DAE4"/>
<path id="Trac&#195;&#169; 8909" d="M28.4999 3.24805C28.3673 3.24805 28.2401 3.29889 28.1464 3.3894C28.0527 3.47991 28 3.60267 28 3.73067V6.01311C28 6.14115 28.0527 6.26393 28.1464 6.35446C28.2402 6.445 28.3674 6.49586 28.5 6.49586C28.6326 6.49586 28.7598 6.445 28.8535 6.35446C28.9473 6.26393 29 6.14115 29 6.01311V3.73091C29 3.60285 28.9473 3.48003 28.8535 3.38947C28.7597 3.29892 28.6325 3.24805 28.4999 3.24805Z" fill="#B0DAE4"/>
<path id="Trac&#195;&#169; 8910" d="M28.4999 16.9395C28.3673 16.9395 28.2401 16.9903 28.1464 17.0808C28.0527 17.1713 28 17.2941 28 17.4221V19.7043C28 19.8323 28.0527 19.9551 28.1464 20.0456C28.2402 20.1362 28.3674 20.187 28.5 20.187C28.6326 20.187 28.7598 20.1362 28.8535 20.0456C28.9473 19.9551 29 19.8323 29 19.7043V17.4218C28.9998 17.2939 28.9471 17.1712 28.8533 17.0807C28.7595 16.9903 28.6324 16.9395 28.4999 16.9395Z" fill="#B0DAE4"/>
<path id="Trac&#195;&#169; 8911" d="M28.4999 21.5059C28.3673 21.5059 28.2401 21.5567 28.1464 21.6472C28.0527 21.7377 28 21.8605 28 21.9885V24.2707C28 24.3987 28.0527 24.5215 28.1464 24.612C28.2402 24.7026 28.3674 24.7534 28.5 24.7534C28.6326 24.7534 28.7598 24.7026 28.8535 24.612C28.9473 24.5215 29 24.3987 29 24.2707V21.9885C28.9999 21.8605 28.9472 21.7377 28.8534 21.6472C28.7596 21.5567 28.6324 21.5059 28.4999 21.5059Z" fill="#B0DAE4"/>
<path id="Trac&#195;&#169; 8912" d="M28.4999 12.377C28.3673 12.377 28.2401 12.4278 28.1464 12.5183C28.0527 12.6088 28 12.7316 28 12.8596V15.1408C28 15.2689 28.0527 15.3916 28.1464 15.4822C28.2402 15.5727 28.3674 15.6236 28.5 15.6236C28.6326 15.6236 28.7598 15.5727 28.8535 15.4822C28.9473 15.3916 29 15.2689 29 15.1408V12.8596C29 12.7962 28.987 12.7334 28.9619 12.6748C28.9367 12.6163 28.8999 12.563 28.8535 12.5182C28.807 12.4734 28.7519 12.4379 28.6912 12.4136C28.6305 12.3894 28.5655 12.3769 28.4999 12.377Z" fill="#B0DAE4"/>
<path id="Trac&#195;&#169; 8913" d="M28.4997 26.0684C28.3671 26.0684 28.24 26.1193 28.1463 26.2098C28.0526 26.3003 27.9999 26.423 27.9998 26.551V27.0336H27.5C27.3674 27.0336 27.2402 27.0845 27.1464 27.175C27.0527 27.2655 27 27.3883 27 27.5163C27 27.6444 27.0527 27.7672 27.1464 27.8577C27.2402 27.9482 27.3674 27.9991 27.5 27.9991H28.4999C28.6325 27.9991 28.7596 27.9482 28.8534 27.8577C28.9471 27.7672 28.9998 27.6445 28.9998 27.5165V26.551C28.9997 26.423 28.947 26.3002 28.8532 26.2097C28.7594 26.1192 28.6323 26.0684 28.4997 26.0684Z" fill="#B0DAE4"/>
<path id="Trac&#195;&#169; 8914" d="M20.4093 27.0352H18.0449C17.9123 27.0352 17.7851 27.086 17.6914 27.1765C17.5976 27.2671 17.5449 27.3899 17.5449 27.5179C17.5449 27.6459 17.5976 27.7687 17.6914 27.8592C17.7851 27.9498 17.9123 28.0006 18.0449 28.0006H20.4083C20.5409 28.0006 20.6681 27.9498 20.7619 27.8592C20.8557 27.7687 20.9083 27.6459 20.9083 27.5179C20.9083 27.3899 20.8557 27.2671 20.7619 27.1765C20.6681 27.086 20.5409 27.0352 20.4083 27.0352H20.4093Z" fill="#B0DAE4"/>
<path id="Trac&#195;&#169; 8915" d="M25.1369 27.0352H22.7734C22.6408 27.0352 22.5136 27.086 22.4199 27.1765C22.3261 27.2671 22.2734 27.3899 22.2734 27.5179C22.2734 27.6459 22.3261 27.7687 22.4199 27.8592C22.5136 27.9498 22.6408 28.0006 22.7734 28.0006H25.1369C25.2695 28.0006 25.3966 27.9498 25.4904 27.8592C25.5842 27.7687 25.6368 27.6459 25.6368 27.5179C25.6368 27.3899 25.5842 27.2671 25.4904 27.1765C25.3966 27.086 25.2695 27.0352 25.1369 27.0352Z" fill="#B0DAE4"/>
<path id="Trac&#195;&#169; 8916" d="M10.9552 27.0352H8.59178C8.45917 27.0352 8.332 27.086 8.23824 27.1765C8.14447 27.2671 8.0918 27.3899 8.0918 27.5179C8.0918 27.6459 8.14447 27.7687 8.23824 27.8592C8.332 27.9498 8.45917 28.0006 8.59178 28.0006H10.9552C11.0878 28.0006 11.215 27.9498 11.3088 27.8592C11.4025 27.7687 11.4552 27.6459 11.4552 27.5179C11.4552 27.3899 11.4025 27.2671 11.3088 27.1765C11.215 27.086 11.0878 27.0352 10.9552 27.0352Z" fill="#B0DAE4"/>
<path id="Trac&#195;&#169; 8917" d="M6.22671 27.0352H3.86326C3.73066 27.0352 3.60349 27.086 3.50972 27.1765C3.41596 27.2671 3.36328 27.3899 3.36328 27.5179C3.36328 27.6459 3.41596 27.7687 3.50972 27.8592C3.60349 27.9498 3.73066 28.0006 3.86326 28.0006H6.22671C6.35931 28.0006 6.48648 27.9498 6.58024 27.8592C6.67401 27.7687 6.72668 27.6459 6.72668 27.5179C6.72668 27.3899 6.67401 27.2671 6.58024 27.1765C6.48648 27.086 6.35931 27.0352 6.22671 27.0352Z" fill="#B0DAE4"/>
<path id="Trac&#195;&#169; 8918" d="M15.6818 27.0352H13.3183C13.1857 27.0352 13.0586 27.086 12.9648 27.1765C12.871 27.2671 12.8184 27.3899 12.8184 27.5179C12.8184 27.6459 12.871 27.7687 12.9648 27.8592C13.0586 27.9498 13.1857 28.0006 13.3183 28.0006H15.6818C15.8144 28.0006 15.9416 27.9498 16.0353 27.8592C16.1291 27.7687 16.1818 27.6459 16.1818 27.5179C16.1818 27.3899 16.1291 27.2671 16.0353 27.1765C15.9416 27.086 15.8144 27.0352 15.6818 27.0352Z" fill="#B0DAE4"/>
<path id="Trac&#195;&#169; 8919" d="M1.50006 27.0348H0.999957V26.5522C0.997053 26.426 0.943101 26.306 0.849653 26.2177C0.756206 26.1295 0.63069 26.0801 0.499979 26.0801C0.369268 26.0801 0.243752 26.1295 0.150304 26.2177C0.0568563 26.306 0.00290451 26.426 0 26.5522L0 27.5177C0 27.6457 0.0526632 27.7685 0.146404 27.859C0.240145 27.9495 0.367285 28.0003 0.499855 28.0003H1.50006C1.63266 28.0003 1.75983 27.9495 1.8536 27.8589C1.94736 27.7684 2.00004 27.6456 2.00004 27.5176C2.00004 27.3895 1.94736 27.2668 1.8536 27.1762C1.75983 27.0857 1.63266 27.0348 1.50006 27.0348Z" fill="#B0DAE4"/>
<path id="Trac&#195;&#169; 8920" d="M0.499855 21.5039C0.367305 21.504 0.240203 21.5548 0.146476 21.6453C0.0527496 21.7358 6.54405e-05 21.8585 0 21.9865L0 24.2687C0 24.3968 0.0526762 24.5196 0.14644 24.6101C0.240205 24.7006 0.367376 24.7515 0.499979 24.7515C0.632581 24.7515 0.759753 24.7006 0.853517 24.6101C0.947281 24.5196 0.999957 24.3968 0.999957 24.2687V21.9865C0.99999 21.9231 0.987075 21.8603 0.961951 21.8017C0.936827 21.7432 0.899987 21.6899 0.853538 21.6451C0.80709 21.6003 0.751944 21.5647 0.691256 21.5405C0.630567 21.5163 0.565527 21.5038 0.499855 21.5039Z" fill="#B0DAE4"/>
<path id="Trac&#195;&#169; 8921" d="M0.499855 16.9395C0.367328 16.9395 0.240225 16.9903 0.146491 17.0807C0.0527576 17.1712 6.54778e-05 17.2939 0 17.4218L0 19.704C0 19.8321 0.0526762 19.9549 0.14644 20.0454C0.240205 20.1359 0.367376 20.1868 0.499979 20.1868C0.632581 20.1868 0.759753 20.1359 0.853517 20.0454C0.947281 19.9549 0.999957 19.8321 0.999957 19.704V17.4218C0.999925 17.3585 0.986964 17.2957 0.961814 17.2372C0.936664 17.1786 0.899817 17.1254 0.853379 17.0806C0.80694 17.0358 0.751818 17.0003 0.69116 16.9761C0.630503 16.9519 0.565497 16.9394 0.499855 16.9395Z" fill="#B0DAE4"/>
<path id="Trac&#195;&#169; 8922" d="M0.499856 12.375C0.434119 12.375 0.369034 12.3876 0.308323 12.4119C0.247612 12.4363 0.192466 12.4719 0.146041 12.5168C0.099615 12.5618 0.0628204 12.6151 0.0377615 12.6738C0.0127026 12.7325 -0.000128883 12.7953 9.75869e-07 12.8588V15.141C9.75869e-07 15.2691 0.0526771 15.3918 0.146441 15.4824C0.240206 15.5729 0.367377 15.6238 0.49998 15.6238C0.632582 15.6238 0.759754 15.5729 0.853518 15.4824C0.947282 15.3918 0.999958 15.2691 0.999958 15.141V12.8588C1.00012 12.7953 0.987303 12.7324 0.962241 12.6737C0.937178 12.615 0.900362 12.5616 0.853904 12.5167C0.807446 12.4717 0.752258 12.4361 0.691504 12.4118C0.63075 12.3875 0.565623 12.375 0.499856 12.375Z" fill="#B0DAE4"/>
<path id="Trac&#195;&#169; 8923" d="M0.499855 7.81055C0.367263 7.81061 0.240123 7.86151 0.146389 7.95206C0.0526553 8.0426 -1.61674e-08 8.16539 0 8.29341V10.5756C0 10.7036 0.0526762 10.8264 0.14644 10.917C0.240205 11.0075 0.367376 11.0584 0.499979 11.0584C0.632581 11.0584 0.759753 11.0075 0.853517 10.917C0.947281 10.8264 0.999957 10.7036 0.999957 10.5756V8.29341C0.99999 8.22999 0.987076 8.16719 0.961955 8.10859C0.936835 8.04999 0.899998 7.99675 0.853553 7.9519C0.807108 7.90706 0.751964 7.87149 0.691274 7.84724C0.630585 7.82298 0.565539 7.81052 0.499855 7.81055Z" fill="#B0DAE4"/>
<path id="Trac&#195;&#169; 8924" d="M0.499855 3.24805C0.367285 3.24805 0.240145 3.29889 0.146404 3.3894C0.0526632 3.47991 0 3.60267 0 3.73067L0 6.01288C0 6.14091 0.0526762 6.26369 0.14644 6.35423C0.240205 6.44476 0.367376 6.49562 0.499979 6.49562C0.632581 6.49562 0.759753 6.44476 0.853517 6.35423C0.947281 6.26369 0.999957 6.14091 0.999957 6.01288V3.73067C0.999957 3.66727 0.98702 3.60449 0.961885 3.54592C0.936749 3.48735 0.899908 3.43414 0.853466 3.38932C0.807024 3.3445 0.751891 3.30896 0.691217 3.28472C0.630544 3.26048 0.565518 3.24802 0.499855 3.24805Z" fill="#B0DAE4"/>
<path id="Trac&#195;&#169; 8925" d="M1.50006 0H0.499855C0.434193 -7.73805e-09 0.369173 0.0124913 0.308512 0.0367603C0.247851 0.0610293 0.192736 0.0966003 0.146317 0.141441C0.0998978 0.186282 0.0630839 0.239514 0.0379784 0.298096C0.0128728 0.356678 -3.2381e-05 0.419462 6.10145e-08 0.482861V1.44858C6.10145e-08 1.57662 0.0526762 1.6994 0.14644 1.78993C0.240205 1.88047 0.367376 1.93133 0.499979 1.93133C0.632581 1.93133 0.759753 1.88047 0.853517 1.78993C0.947281 1.6994 0.999958 1.57662 0.999958 1.44858V0.965723H1.49981C1.63245 0.965754 1.75966 0.914912 1.85347 0.82438C1.94729 0.733849 2.00001 0.611043 2.00004 0.482981C2.00007 0.354918 1.94741 0.232088 1.85365 0.141511C1.75989 0.0509347 1.6327 3.16204e-05 1.50006 0Z" fill="#B0DAE4"/>
<path id="Trac&#195;&#169; 8926" d="M6.22671 0H3.86326C3.73066 0 3.60349 0.0508602 3.50972 0.141392C3.41596 0.231924 3.36328 0.354711 3.36328 0.482742C3.36328 0.610773 3.41596 0.733561 3.50972 0.824092C3.60349 0.914624 3.73066 0.965484 3.86326 0.965484H6.22671C6.35931 0.965484 6.48648 0.914624 6.58024 0.824092C6.67401 0.733561 6.72668 0.610773 6.72668 0.482742C6.72668 0.354711 6.67401 0.231924 6.58024 0.141392C6.48648 0.0508602 6.35931 0 6.22671 0Z" fill="#B0DAE4"/>
<path id="Trac&#195;&#169; 8927" d="M10.9533 0H8.58982C8.45722 0 8.33005 0.0508602 8.23628 0.141392C8.14252 0.231924 8.08984 0.354711 8.08984 0.482742C8.08984 0.610773 8.14252 0.733561 8.23628 0.824092C8.33005 0.914624 8.45722 0.965484 8.58982 0.965484H10.9533C11.0859 0.965484 11.213 0.914624 11.3068 0.824092C11.4006 0.733561 11.4532 0.610773 11.4532 0.482742C11.4532 0.354711 11.4006 0.231924 11.3068 0.141392C11.213 0.0508602 11.0859 0 10.9533 0Z" fill="#B0DAE4"/>
<path id="Trac&#195;&#169; 8928" d="M15.6818 0H13.3183C13.1857 0 13.0586 0.0508602 12.9648 0.141392C12.871 0.231924 12.8184 0.354711 12.8184 0.482742C12.8184 0.610773 12.871 0.733561 12.9648 0.824092C13.0586 0.914624 13.1857 0.965484 13.3183 0.965484H15.6818C15.8144 0.965484 15.9416 0.914624 16.0353 0.824092C16.1291 0.733561 16.1818 0.610773 16.1818 0.482742C16.1818 0.354711 16.1291 0.231924 16.0353 0.141392C15.9416 0.0508602 15.8144 0 15.6818 0Z" fill="#B0DAE4"/>
<path id="Trac&#195;&#169; 8929" d="M20.4088 0H18.0449C17.9123 0 17.7851 0.0508602 17.6914 0.141392C17.5976 0.231924 17.5449 0.354711 17.5449 0.482742C17.5449 0.610773 17.5976 0.733561 17.6914 0.824092C17.7851 0.914624 17.9123 0.965484 18.0449 0.965484H20.4083C20.5409 0.965484 20.6681 0.914624 20.7619 0.824092C20.8557 0.733561 20.9083 0.610773 20.9083 0.482742C20.9083 0.354711 20.8557 0.231924 20.7619 0.141392C20.6681 0.0508602 20.5409 0 20.4083 0L20.4088 0Z" fill="#B0DAE4"/>
<path id="Trac&#195;&#169; 8930" d="M25.1369 0H22.7734C22.6408 0 22.5136 0.0508602 22.4199 0.141392C22.3261 0.231924 22.2734 0.354711 22.2734 0.482742C22.2734 0.610773 22.3261 0.733561 22.4199 0.824092C22.5136 0.914624 22.6408 0.965484 22.7734 0.965484H25.1369C25.2695 0.965484 25.3966 0.914624 25.4904 0.824092C25.5842 0.733561 25.6368 0.610773 25.6368 0.482742C25.6368 0.354711 25.5842 0.231924 25.4904 0.141392C25.3966 0.0508602 25.2695 0 25.1369 0Z" fill="#B0DAE4"/>
<path id="Trac&#195;&#169; 8931" d="M28.4997 13.5176H16.0865C15.9539 13.5176 15.8267 13.5684 15.733 13.659C15.6392 13.7495 15.5865 13.8723 15.5865 14.0003C15.5865 14.1284 15.6392 14.2511 15.733 14.3417C15.8267 14.4322 15.9539 14.4831 16.0865 14.4831H28V27.0348H0.999958V14.4831H12.9392C13.0718 14.4831 13.199 14.4322 13.2927 14.3417C13.3865 14.2511 13.4392 14.1284 13.4392 14.0003C13.4392 13.8723 13.3865 13.7495 13.2927 13.659C13.199 13.5684 13.0718 13.5176 12.9392 13.5176H0.499855C0.434172 13.5176 0.369132 13.5301 0.308455 13.5544C0.247778 13.5786 0.192652 13.6142 0.14623 13.6591C0.0998074 13.704 0.0629986 13.7572 0.0379076 13.8158C0.0128166 13.8745 -6.46606e-05 13.9373 2.44058e-07 14.0007V27.5179C2.44058e-07 27.6459 0.0526634 27.7687 0.146404 27.8592C0.240145 27.9497 0.367286 28.0006 0.499855 28.0006H28.4997C28.6322 28.0006 28.7594 27.9497 28.8531 27.8592C28.9468 27.7687 28.9995 27.6459 28.9995 27.5179V14.0007C28.9995 13.9373 28.9866 13.8745 28.9615 13.8159C28.9364 13.7573 28.8996 13.704 28.8532 13.6592C28.8068 13.6143 28.7517 13.5787 28.691 13.5544C28.6304 13.5301 28.5653 13.5176 28.4997 13.5176Z" fill="#B0DAE4"/>
<path id="Trac&#195;&#169; 8932" d="M18.8294 8.92099L14.957 2.8057C14.9093 2.7391 14.8456 2.68467 14.7713 2.64708C14.697 2.60948 14.6144 2.58984 14.5305 2.58984C14.4467 2.58984 14.364 2.60948 14.2898 2.64708C14.2155 2.68467 14.1517 2.7391 14.104 2.8057L10.2316 8.92099C10.1853 8.99415 10.16 9.07791 10.1583 9.16365C10.1566 9.2494 10.1786 9.33403 10.2221 9.40883C10.2655 9.48363 10.3288 9.54591 10.4054 9.58925C10.4821 9.63259 10.5693 9.65543 10.6581 9.65541H12.4988V21.7238C12.4988 21.8518 12.5514 21.9746 12.6452 22.0651C12.7389 22.1556 12.866 22.2065 12.9986 22.2065H15.9977C16.0634 22.2065 16.1284 22.194 16.189 22.1697C16.2497 22.1455 16.3048 22.1099 16.3512 22.0651C16.3976 22.0203 16.4344 21.9671 16.4596 21.9085C16.4847 21.85 16.4976 21.7872 16.4976 21.7238V9.65494H18.4019C18.4907 9.65492 18.5779 9.63208 18.6545 9.58875C18.7311 9.54542 18.7944 9.48318 18.8378 9.40841C18.8813 9.33365 18.9033 9.24906 18.9016 9.16335C18.9 9.07764 18.8747 8.99391 18.8284 8.92075L18.8294 8.92099ZM15.9977 8.69064C15.8655 8.69096 15.7388 8.74181 15.6454 8.83207C15.5519 8.92233 15.4992 9.04466 15.4989 9.17231V21.2412H13.4985V9.17231C13.4982 9.04452 13.4455 8.92204 13.3518 8.83175C13.2581 8.74145 13.1312 8.69071 12.9989 8.69064H11.5499L14.5308 3.98364L17.5114 8.69064H15.9977Z" fill="#B0DAE4"/>
</g>
<defs>
<clipPath id="clip0_2839_932">
<rect width="29" height="28" fill="white"/>
</clipPath>
</defs>
</svg>
