<svg width="24" height="24" viewBox="0 0 24 24" fill="none" xmlns="http://www.w3.org/2000/svg">
<g id="Frame">
<path id="Vector" d="M23.6241 11.999C23.6296 13.8664 23.0236 15.6844 21.8988 17.1751C21.8101 17.2932 21.699 17.3927 21.5718 17.4679C21.4446 17.5431 21.3039 17.5925 21.1576 17.6132C21.0113 17.634 20.8624 17.6258 20.7193 17.589C20.5762 17.5522 20.4418 17.4876 20.3236 17.3989C20.2055 17.3102 20.106 17.199 20.0309 17.0718C19.9557 16.9447 19.9063 16.8039 19.8855 16.6576C19.8647 16.5114 19.873 16.3624 19.9098 16.2194C19.9465 16.0763 20.0111 15.9418 20.0999 15.8237C20.7059 15.0155 21.1111 14.0749 21.2823 13.0794C21.4535 12.0839 21.3856 11.062 21.0844 10.0978C20.7831 9.13366 20.2571 8.25489 19.5496 7.53392C18.8421 6.81295 17.9734 6.27041 17.0151 5.95102C16.0568 5.63163 15.0363 5.54453 14.0377 5.69689C13.0391 5.84925 12.0911 6.23671 11.2716 6.82735C10.4522 7.41799 9.7848 8.19489 9.3245 9.09405C8.86419 9.9932 8.62414 10.9889 8.62412 11.999C8.62412 12.2974 8.50559 12.5835 8.29461 12.7945C8.08363 13.0055 7.79748 13.124 7.49912 13.124C7.20075 13.124 6.9146 13.0055 6.70362 12.7945C6.49264 12.5835 6.37412 12.2974 6.37412 11.999C6.37397 11.3698 6.4427 10.7425 6.57905 10.1283C5.50103 10.1731 4.48348 10.6386 3.74463 11.4249C3.00578 12.2112 2.60444 13.2557 2.62669 14.3344C2.64894 15.4131 3.093 16.4402 3.86364 17.1954C4.63429 17.9505 5.67016 18.3736 6.74912 18.374H8.99912C9.29749 18.374 9.58363 18.4925 9.79461 18.7035C10.0056 18.9145 10.1241 19.2006 10.1241 19.499C10.1241 19.7973 10.0056 20.0835 9.79461 20.2945C9.58363 20.5055 9.29749 20.624 8.99912 20.624H6.74912C5.88393 20.6244 5.02771 20.4487 4.2326 20.1076C3.4375 19.7664 2.72015 19.267 2.12425 18.6398C1.52835 18.0125 1.06636 17.2705 0.766424 16.459C0.466489 15.6475 0.334884 14.7834 0.379623 13.9193C0.424362 13.0553 0.644509 12.2094 1.02666 11.4332C1.40881 10.657 1.94496 9.96667 2.60246 9.40431C3.25996 8.84195 4.02505 8.41931 4.85113 8.16214C5.67721 7.90496 6.547 7.81862 7.40752 7.90839C8.31817 6.21772 9.76704 4.87935 11.5245 4.10542C13.282 3.33149 15.2475 3.16628 17.1095 3.63596C18.9714 4.10564 20.6234 5.18336 21.8035 6.69828C22.9836 8.2132 23.6243 10.0787 23.6241 11.999ZM15.0446 11.2035L15.0424 11.2015C15.0169 11.1761 14.9901 11.152 14.9623 11.1291C14.949 11.1181 14.9349 11.1086 14.9212 11.0984C14.9056 11.0866 14.8903 11.0745 14.8739 11.0635C14.8576 11.0527 14.8407 11.0432 14.8239 11.0333C14.8092 11.0245 14.7947 11.0151 14.7795 11.007C14.7624 10.9978 14.7449 10.9901 14.7274 10.9819C14.7116 10.9744 14.696 10.9665 14.6798 10.9598C14.6627 10.9527 14.6453 10.947 14.628 10.9408C14.6107 10.9346 14.5936 10.928 14.5759 10.9226C14.5584 10.9173 14.5407 10.9135 14.523 10.909C14.5051 10.9045 14.4873 10.8995 14.4691 10.8958C14.4485 10.8918 14.4278 10.8893 14.407 10.8865C14.3914 10.8842 14.3761 10.8812 14.3603 10.8796C14.2864 10.8723 14.2119 10.8723 14.1379 10.8796C14.1221 10.8812 14.1068 10.8842 14.0912 10.8864C14.0704 10.8893 14.0497 10.8918 14.0291 10.8958C14.0108 10.8995 13.9932 10.9045 13.9753 10.909C13.9576 10.9135 13.9398 10.9174 13.9223 10.9226C13.9046 10.928 13.8875 10.9346 13.8702 10.9408C13.8528 10.947 13.8355 10.9527 13.8184 10.9598C13.8022 10.9665 13.7866 10.9745 13.7707 10.9819C13.7533 10.9901 13.7357 10.9978 13.7188 11.007C13.7035 11.0151 13.6891 11.0245 13.6743 11.0333C13.6576 11.0432 13.6406 11.0527 13.6244 11.0635C13.6081 11.0745 13.5927 11.0866 13.577 11.0984C13.5633 11.1086 13.5493 11.1181 13.536 11.1291C13.5081 11.152 13.4814 11.1761 13.4558 11.2015L13.4536 11.2035L10.2717 14.3854C10.1672 14.4899 10.0843 14.6139 10.0278 14.7504C9.97124 14.8869 9.94213 15.0331 9.94212 15.1809C9.94211 15.3286 9.9712 15.4749 10.0277 15.6114C10.0843 15.7479 10.1671 15.8719 10.2716 15.9764C10.376 16.0809 10.5001 16.1638 10.6366 16.2203C10.773 16.2769 10.9193 16.306 11.0671 16.306C11.2148 16.306 11.3611 16.2769 11.4976 16.2204C11.6341 16.1638 11.7581 16.081 11.8626 15.9765L13.1241 14.715V19.4991C13.1241 19.7974 13.2426 20.0836 13.4536 20.2946C13.6646 20.5055 13.9507 20.6241 14.2491 20.6241C14.5475 20.6241 14.8336 20.5055 15.0446 20.2946C15.2556 20.0836 15.3741 19.7974 15.3741 19.4991V14.715L16.6356 15.9765C16.74 16.0814 16.864 16.1647 17.0006 16.2217C17.1373 16.2786 17.2838 16.308 17.4318 16.3082C17.5797 16.3084 17.7263 16.2794 17.8631 16.2228C17.9999 16.1663 18.1241 16.0833 18.2288 15.9786C18.3334 15.874 18.4164 15.7497 18.4729 15.6129C18.5295 15.4762 18.5585 15.3296 18.5582 15.1816C18.558 15.0336 18.5286 14.8871 18.4717 14.7505C18.4148 14.6139 18.3315 14.4898 18.2266 14.3855L15.0446 11.2035Z" fill="#31C7E0"/>
</g>
</svg>
