<svg width="38" height="38" viewBox="0 0 38 38" fill="none" xmlns="http://www.w3.org/2000/svg">
<g id="Component 34">
<path id="Vector" d="M11.7164 8.79146C11.5703 8.54606 11.363 8.34282 11.1147 8.20168C10.8664 8.06054 10.5857 7.98633 10.3001 7.98633C10.0145 7.98633 9.73382 8.06054 9.48554 8.20168C9.23726 8.34282 9.02991 8.54606 8.88382 8.79146L0.175488 26.2081C0.0806238 26.3943 0.0235541 26.5974 0.00756912 26.8058C-0.00841581 27.0142 0.0170003 27.2236 0.0823521 27.4221C0.147704 27.6206 0.251698 27.8042 0.38834 27.9623C0.524982 28.1204 0.691567 28.2498 0.878492 28.3433C1.06542 28.4367 1.26898 28.4921 1.47745 28.5065C1.68592 28.5209 1.89518 28.4938 2.09314 28.4269C2.29111 28.36 2.47388 28.2546 2.63091 28.1167C2.78794 27.9789 2.91612 27.8113 3.00807 27.6236L5.72982 22.1659H14.8562L17.5858 27.6236C17.6778 27.8113 17.806 27.9789 17.963 28.1167C18.12 28.2546 18.3028 28.36 18.5007 28.4269C18.6987 28.4938 18.908 28.5209 19.1164 28.5065C19.3249 28.4921 19.5285 28.4367 19.7154 28.3433C19.9023 28.2498 20.0689 28.1204 20.2056 27.9623C20.3422 27.8042 20.4462 27.6206 20.5115 27.4221C20.5769 27.2236 20.6023 27.0142 20.5863 26.8058C20.5703 26.5974 20.5133 26.3943 20.4184 26.2081L11.7164 8.79146ZM7.31316 18.9992L10.2914 13.0395L13.2728 18.9992H7.31316Z" fill="#B0DAE4" fill-opacity="0.5"/>
<path id="Vector_2" d="M36.417 12.666C35.9971 12.666 35.5943 12.8328 35.2974 13.1298C35.0005 13.4267 34.8337 13.8294 34.8337 14.2493V14.2905C33.4714 13.2427 31.8023 12.6718 30.0837 12.666C27.984 12.666 25.9704 13.5001 24.4857 14.9848C23.0011 16.4694 22.167 18.4831 22.167 20.5827C22.167 22.6823 23.0011 24.6959 24.4857 26.1806C25.9704 27.6653 27.984 28.4993 30.0837 28.4993C31.8023 28.4935 33.4714 27.9227 34.8337 26.8748V26.916C34.8337 27.3359 35.0005 27.7387 35.2974 28.0356C35.5943 28.3325 35.9971 28.4993 36.417 28.4993C36.8369 28.4993 37.2396 28.3325 37.5366 28.0356C37.8335 27.7387 38.0003 27.3359 38.0003 26.916V14.2493C38.0003 13.8294 37.8335 13.4267 37.5366 13.1298C37.2396 12.8328 36.8369 12.666 36.417 12.666ZM30.0837 25.3327C29.1442 25.3327 28.2258 25.0541 27.4447 24.5322C26.6636 24.0102 26.0547 23.2684 25.6952 22.4004C25.3357 21.5325 25.2416 20.5774 25.4249 19.656C25.6082 18.7346 26.0606 17.8882 26.7249 17.2239C27.3892 16.5596 28.2356 16.1072 29.157 15.924C30.0784 15.7407 31.0335 15.8347 31.9014 16.1943C32.7694 16.5538 33.5112 17.1626 34.0331 17.9437C34.5551 18.7249 34.8337 19.6432 34.8337 20.5827C34.8337 21.8425 34.3332 23.0506 33.4424 23.9414C32.5516 24.8322 31.3434 25.3327 30.0837 25.3327Z" fill="#B0DAE4" fill-opacity="0.5"/>
</g>
</svg>
