<svg width="22" height="22" viewBox="0 0 22 22" fill="none" xmlns="http://www.w3.org/2000/svg">
<path d="M6.41732 15.5837C8.63015 15.5837 10.4827 14.0061 10.9072 11.917H12.834V13.7503H14.6673V11.917H16.5007V14.667H18.334V11.917H19.2507V10.0837H10.9072C10.4827 7.99458 8.63015 6.41699 6.41732 6.41699C3.89007 6.41699 1.83398 8.47308 1.83398 11.0003C1.83398 13.5276 3.89007 15.5837 6.41732 15.5837ZM6.41732 8.25033C7.93348 8.25033 9.16732 9.48416 9.16732 11.0003C9.16732 12.5165 7.93348 13.7503 6.41732 13.7503C4.90115 13.7503 3.66732 12.5165 3.66732 11.0003C3.66732 9.48416 4.90115 8.25033 6.41732 8.25033Z" fill="#B0DAE4"/>
</svg>
