<svg width="43" height="42" viewBox="0 0 43 42" fill="none" xmlns="http://www.w3.org/2000/svg">
<path d="M30.5248 13.9943V12.2453C30.5248 7.42312 26.6016 3.5 21.7795 3.5C16.9574 3.5 13.0343 7.42312 13.0343 12.2453V17.4924H11.2852C9.35601 17.4924 7.78711 19.0613 7.78711 20.9905V34.9829C7.78711 36.9121 9.35601 38.481 11.2852 38.481H32.2738C34.203 38.481 35.7719 36.9121 35.7719 34.9829V20.9905C35.7719 19.0613 34.203 17.4924 32.2738 17.4924H16.5324V12.2453C16.5324 9.35232 18.8866 6.9981 21.7795 6.9981C24.6724 6.9981 27.0267 9.35232 27.0267 12.2453V13.9943H30.5248ZM32.2738 20.9905L32.2773 34.9829H11.2852V20.9905H32.2738Z" fill="#B0DAE4"/>
</svg>
