<svg width="29" height="29" viewBox="0 0 29 29" fill="none" xmlns="http://www.w3.org/2000/svg">
<path d="M24.7533 4.247C22.034 1.52769 18.3458 -2.86489e-08 14.5002 0C10.6545 2.86562e-08 6.9663 1.52769 4.247 4.247C1.52769 6.9663 2.86526e-08 10.6545 0 14.5002C-2.86526e-08 18.3458 1.52769 22.034 4.247 24.7533C6.9663 27.4726 10.6545 29.0003 14.5002 29.0003C18.3458 29.0003 22.034 27.4726 24.7533 24.7533C27.4726 22.034 29.0003 18.3458 29.0003 14.5002C29.0003 10.6545 27.4726 6.9663 24.7533 4.247ZM14.5 28.1507C11.8002 28.1506 9.16113 27.35 6.91639 25.85C4.67165 24.3501 2.9221 22.2182 1.88898 19.7239C0.855853 17.2297 0.585557 14.4851 1.11227 11.8372C1.63898 9.18931 2.93904 6.75708 4.84806 4.84806C6.75708 2.93904 9.18931 1.63898 11.8372 1.11227C14.4851 0.585557 17.2297 0.855853 19.7239 1.88898C22.2182 2.9221 24.3501 4.67165 25.85 6.91639C27.35 9.16113 28.1506 11.8002 28.1507 14.5C28.1466 18.1191 26.7072 21.5889 24.148 24.148C21.5889 26.7072 18.1191 28.1466 14.5 28.1507Z" fill="#B0DAE4"/>
<path d="M23.4994 7.99844C23.4634 7.94861 23.417 7.90719 23.3634 7.87705C23.3098 7.84691 23.2502 7.82877 23.189 7.82387C23.1277 7.81898 23.066 7.82745 23.0083 7.8487C22.9506 7.86995 22.8982 7.90347 22.8547 7.94695L7.94633 22.8554C7.90285 22.8988 7.86933 22.9512 7.84808 23.0089C7.82683 23.0666 7.81836 23.1283 7.82326 23.1896C7.82815 23.2509 7.8463 23.3104 7.87644 23.364C7.90657 23.4176 7.94799 23.464 7.99782 23.5C10.1366 25.0424 12.7546 25.7733 15.3831 25.5618C18.0116 25.3502 20.479 24.2101 22.3436 22.3455C24.2082 20.4808 25.3483 18.0135 25.5599 15.385C25.7714 12.7565 25.0406 10.1385 23.4981 7.9997L23.4994 7.99844ZM21.7492 21.7489C20.0855 23.4075 17.9035 24.4457 15.567 24.6905C13.2306 24.9353 10.8808 24.3719 8.90938 23.0941L23.0945 8.90905C24.3851 10.8762 24.9563 13.2289 24.7111 15.5688C24.4659 17.9087 23.4196 20.092 21.7492 21.7489Z" fill="#B0DAE4"/>
<path d="M21.1756 5.81115C21.1706 5.74984 21.1525 5.69033 21.1223 5.63673C21.0922 5.58312 21.0507 5.5367 21.0009 5.50066C18.984 4.04824 16.5388 3.31321 14.0553 3.41289C11.5719 3.51256 9.19339 4.44118 7.29938 6.05057C7.25604 6.0865 7.22028 6.13069 7.19416 6.18056C7.16805 6.23044 7.15211 6.28501 7.14727 6.34109C7.14243 6.39718 7.14879 6.45368 7.16597 6.50729C7.18316 6.5609 7.21083 6.61056 7.24737 6.65339C7.28392 6.69621 7.32861 6.73134 7.37885 6.75674C7.42909 6.78215 7.48388 6.7973 7.54003 6.80135C7.59619 6.80539 7.65259 6.79823 7.70595 6.78028C7.75931 6.76233 7.80857 6.73396 7.85087 6.69681C9.53031 5.25753 11.6315 4.40225 13.8387 4.25951C16.0459 4.11677 18.2398 4.6943 20.0906 5.90527L5.90551 20.0904C4.69449 18.2396 4.11693 16.0457 4.25967 13.8385C4.40241 11.6313 5.25772 9.53004 6.69705 7.85063C6.76829 7.7647 6.80285 7.65418 6.79325 7.54297C6.78366 7.43176 6.73068 7.3288 6.64577 7.25634C6.56086 7.18388 6.45085 7.14775 6.33951 7.15576C6.22818 7.16377 6.12447 7.21528 6.05081 7.29915C4.44137 9.19313 3.51271 11.5716 3.41304 14.0551C3.31337 16.5385 4.04842 18.9838 5.5009 21.0007C5.53692 21.0505 5.58334 21.092 5.63695 21.1221C5.69056 21.1523 5.75007 21.1704 5.81139 21.1753C5.82276 21.1753 5.83381 21.1753 5.84518 21.1753C5.95784 21.1753 6.06588 21.1305 6.14556 21.0509L21.054 6.14248C21.0968 6.09918 21.1298 6.04719 21.1508 5.99003C21.1718 5.93287 21.1802 5.87186 21.1756 5.81115Z" fill="#B0DAE4"/>
</svg>
