<svg height="61.0378mm" viewBox="0 0 265.9782 173.0207" width="93.8312mm" xmlns="http://www.w3.org/2000/svg"><path d="m6.74 54.489 252.766-44.358-17.448 61.737 10.708 56.794-252.766 44.359 3.37-59.266z" fill="#e01e20" fill-rule="evenodd"/><path d="m13.212 44.358 252.766-44.358-17.447 61.737 10.707 56.794-252.766 44.359 3.37-59.266z" fill="#e6322f" fill-rule="evenodd"/><g fill="#fff"><path d="m32.9654 97.3722q.876-7.7 1.61-15.5752t1.8925-15.9765q.813-.4065 2.0518-.91t2.6572-.9951q1.4179-.49 2.92-.8882a25.917 25.917 0 0 1 2.8848-.5957q.7807-.093 1.69-.21.91-.1151 1.8985-.16a16.0669 16.0669 0 0 1 2.0019.0435 9.7809 9.7809 0 0 1 1.9483.3588 7.706 7.706 0 0 1 3.3632 2.1944 8.6882 8.6882 0 0 1 1.9766 4.5874 12.7789 12.7789 0 0 1 .0947 3.7348 12.4669 12.4669 0 0 1 -1.0879 3.8116 13.3822 13.3822 0 0 1 -2.4423 3.5459 15.7674 15.7674 0 0 1 -3.92 2.9726q.4453.7551 1.0606 1.832t1.35 2.3291q.734 1.254 1.5488 2.5792.813 1.327 1.5742 2.5971-1.245.219-2.3408.4126-1.0943.1926-2.1611.4238c-.7109.1558-1.4346.3184-2.1719.4937q-1.106.26-2.293.5561-.6123-.9455-1.3125-2.0053-.7016-1.0627-1.3867-2.1695-.687-1.1073-1.3447-2.1762t-1.1758-1.9878c-.1152.02-.2812.043-.498.0664a1.3856 1.3856 0 0 1 -.42.0083q-.3339 1.596-.6132 2.8725-.28 1.2781-.501 2.3916t-.457 2.1426q-.236 1.0305-.4746 2.168c-.5489.0688-1.1612.1606-1.834.2793s-1.3584.2471-2.0567.3852-1.3965.2828-2.0937.4346-1.3415.2951-1.9382.4284zm10.56-17.92a11.6912 11.6912 0 0 0 3.625-.793 5.6178 5.6178 0 0 0 2.5079-1.8242 6.9589 6.9589 0 0 0 1.0556-2.1386 6.2564 6.2564 0 0 0 .2862-2.3536 3.2578 3.2578 0 0 0 -.7383-1.8886 2.3425 2.3425 0 0 0 -2.0088-.7 6.6814 6.6814 0 0 0 -1.8252.3217 7.1926 7.1926 0 0 0 -1.9766.9634q-.2358 2.1468-.4629 4.2066t-.4624 4.2064z"/><path d="m72.1822 59.3957q-.334 2.3408-.7285 5.1972t-.7285 5.81q-.3341 2.956-.5957 5.81t-.3795 5.1571a2.4192 2.4192 0 0 0 .2256 1.3857 1.4451 1.4451 0 0 0 .71.62 2.0557 2.0557 0 0 0 .9522.1187q.5229-.0483.9961-.1318a11.4427 11.4427 0 0 0 1.5361-.4463 3.2289 3.2289 0 0 0 1.0977-.6768 3.0477 3.0477 0 0 0 .7168-1.0693 6.9121 6.9121 0 0 0 .4013-1.585q.356-2.2119.6651-5.0532t.5312-5.7979q.2226-2.9581.377-5.7929.1568-2.8353.23-5.1314 2.754-.7023 4.9053-1.0605t4.4658-.5464q-.2241 2.4528-.43 5.2534t-.456 5.7193q-.252 2.9187-.5537 5.8017t-.6815 5.4527a21.1041 21.1041 0 0 1 -1.4756 5.7231 9.8013 9.8013 0 0 1 -2.6357 3.58 11.5926 11.5926 0 0 1 -3.9434 2.0991 41.5492 41.5492 0 0 1 -5.3544 1.273 17.044 17.044 0 0 1 -3.8272.2793 9.4191 9.4191 0 0 1 -3.0127-.61 5.0072 5.0072 0 0 1 -2.2607-1.73 7.3622 7.3622 0 0 1 -1.1093-2.4818 12.2555 12.2555 0 0 1 -.3408-2.88q-.0059-1.5132.0429-2.97.1216-2.5225.3653-5.2427.2416-2.7172.5254-5.3355t.5947-4.9536q.31-2.3371.5127-4.1719 2.3672-.6365 4.5976-1.0507a40.0921 40.0921 0 0 1 4.0644-.5626z"/><path d="m89.3111 87.401q.7236-7.8061 1.4522-15.5917t1.9931-16.0386q.8115-.4057 1.8975-.9048 1.0839-.4974 2.3779-.9448t2.6875-.8252a24.0035 24.0035 0 0 1 2.82-.5845q1.0371-.1392 2.2988-.2739a14.54 14.54 0 0 1 2.585-.0386 12.8434 12.8434 0 0 1 2.6094.4624 7.5684 7.5684 0 0 1 2.38 1.16 7.2242 7.2242 0 0 1 1.9131 2.142 10.503 10.503 0 0 1 1.2285 3.3814 14.7814 14.7814 0 0 1 -.2237 6.4019 13.6629 13.6629 0 0 1 -2.98 5.6147 16.7114 16.7114 0 0 1 -5.663 4.1143 21.5461 21.5461 0 0 1 -8.294 1.8115q-.268 1.7167-.4414 2.8423-.1743 1.1294-.3213 2.0327-.1494.9037-.3037 1.7637-.1567.862-.3945 2l-3.7373.6582q-2.1029.3715-3.8841.817zm10.0332-17.6528a11.1005 11.1005 0 0 0 3.6133-.7246 6.2081 6.2081 0 0 0 2.5424-1.7636 6.5749 6.5749 0 0 0 1.0312-2.1557 6.388 6.388 0 0 0 .2344-2.3892 3.4859 3.4859 0 0 0 -.793-1.9448 2.4647 2.4647 0 0 0 -2.0449-.78 8.9936 8.9936 0 0 0 -1.8223.3418 6.7111 6.7111 0 0 0 -1.9365.9336q-.2431 2.1064-.416 4.22-.1762 2.1156-.4086 4.2625z"/><path d="m118.565 50.6965q2.5386-.6651 5.3506-1.2935t5.7207-1.2056q2.9106-.5778 5.8594-1.0537 2.95-.4774 5.8154-.8056-.2754 2.4177-.5039 4.7177t-.3115 4.5528q-1.519.1816-3.2188.458t-3.4472.6728q-.2974 2.7744-.64 5.6851-.34 2.9128-.6738 5.8677t-.6485 5.8838q-.3149 2.9317-.5371 5.6459a39.305 39.305 0 0 0 -4.124.5948q-2.1636.4248-4.0644.9355.1934-2.6227.37-5.4624t.3349-5.7851q.1568-2.9458.336-5.8955t.42-5.8008q-1.6466.2043-3.3975.5766-1.7505.3765-3.3662.7471-.0394-2.187.1094-4.4507a34.0387 34.0387 0 0 1 .6165-4.5849z"/><path d="m153.7916 45.0163q-.334 2.3408-.7285 5.1968t-.7276 5.8105q-.3339 2.9561-.5957 5.8106-.2637 2.8542-.3808 5.1567a2.4266 2.4266 0 0 0 .2265 1.3857 1.451 1.451 0 0 0 .71.6206 2.0685 2.0685 0 0 0 .9521.1182c.3487-.0322.68-.0762.9951-.1318a11.4232 11.4232 0 0 0 1.5372-.4463 3.2275 3.2275 0 0 0 1.0976-.6768 3.0321 3.0321 0 0 0 .7158-1.0693 6.8621 6.8621 0 0 0 .4024-1.585q.3544-2.2119.665-5.0527t.5313-5.7983q.2211-2.9583.3769-5.793t.23-5.1314q2.7539-.7023 4.9053-1.06t4.4658-.5464q-.2241 2.453-.43 5.2534t-.4561 5.7193q-.2518 2.9187-.5537 5.8017t-.6826 5.4517a21.1137 21.1137 0 0 1 -1.4746 5.7236 9.7979 9.7979 0 0 1 -2.6357 3.58 11.5935 11.5935 0 0 1 -3.9434 2.0991 41.4681 41.4681 0 0 1 -5.3545 1.273 16.9886 16.9886 0 0 1 -3.8271.2793 9.3905 9.3905 0 0 1 -3.0127-.6109 5.0041 5.0041 0 0 1 -2.2608-1.73 7.3615 7.3615 0 0 1 -1.11-2.4809 12.3027 12.3027 0 0 1 -.34-2.88q-.0059-1.5132.043-2.9692.1215-2.5233.3652-5.2432.2418-2.7172.5254-5.3355t.5938-4.9536q.312-2.3372.5136-4.1718 2.3673-.6358 4.5967-1.0508a40.1617 40.1617 0 0 1 4.0651-.5633z"/><path d="m170.2408 73.1847q.8775-7.7 1.6113-15.5752t1.8926-15.9765q.8115-.4065 2.0518-.91t2.6572-.9946q1.4179-.49 2.92-.8882a26.0683 26.0683 0 0 1 2.8838-.5962q.7807-.0922 1.69-.21.9111-.1151 1.8994-.16a16.0722 16.0722 0 0 1 2.002.0435 9.771 9.771 0 0 1 1.9473.3588 7.6947 7.6947 0 0 1 3.3632 2.1944 8.6708 8.6708 0 0 1 1.9766 4.5874 12.7782 12.7782 0 0 1 .0957 3.7348 12.4764 12.4764 0 0 1 -1.0879 3.8116 13.405 13.405 0 0 1 -2.4433 3.5459 15.7316 15.7316 0 0 1 -3.919 2.9721q.4453.7559 1.0606 1.8325.6137 1.0767 1.3486 2.3291t1.5488 2.5792q.8145 1.327 1.5752 2.5971-1.2465.219-2.3408.4126t-2.1621.4238c-.711.1558-1.4346.3184-2.1709.4937q-1.106.26-2.293.5561-.6123-.9455-1.3135-2.0053-.7-1.0627-1.3867-2.1695t-1.3437-2.1762q-.6578-1.0709-1.1758-1.9878c-.1152.02-.2813.043-.4981.0664a1.4018 1.4018 0 0 1 -.42.0083q-.3339 1.596-.6133 2.8725-.2812 1.2781-.5009 2.3916-.2213 1.1148-.4571 2.1426-.2373 1.03-.4746 2.168c-.55.0688-1.1611.16-1.834.2788s-1.3584.2476-2.0566.3857q-1.05.206-2.0938.4346-1.0454.2281-1.939.4284zm10.5615-17.92a11.6928 11.6928 0 0 0 3.624-.793 5.6146 5.6146 0 0 0 2.5088-1.8242 6.9815 6.9815 0 0 0 1.0557-2.1386 6.2745 6.2745 0 0 0 .2861-2.3536 3.25 3.25 0 0 0 -.7392-1.8886 2.3381 2.3381 0 0 0 -2.0078-.7 6.6878 6.6878 0 0 0 -1.8262.3217 7.2008 7.2008 0 0 0 -1.9756.9634q-.2358 2.1468-.4629 4.2061t-.4629 4.2069z"/><path d="m208.7867 48.4914a22.39 22.39 0 0 1 2.3848-.6621q1.34-.3033 2.7089-.5869 1.3668-.2835 2.6592-.4913 1.2919-.2028 2.2881-.3364-.1831 1.6992-.3467 3.1328t-.4736 3.1543q-.9522.1253-2.292.3164-1.3389.1934-2.7314.46t-2.6944.54q-1.3037.2733-2.24.4815-.145 1.1682-.2969 2.291-.1538 1.1242-.2978 2.29 1.0313-.1816 2.44-.4731t2.9023-.6211q1.4913-.33 2.9551-.6973 1.4619-.3646 2.6416-.706-.4146 2.1357-.9189 4.1333t-1.1846 4.1357q-2.1255.5061-4.5.9683-2.3775.4644-4.6924.8935-2.3158.4306-4.4033.7754t-3.59.6094q.2711-3.9075.51-7.7686.2358-3.8575.53-7.7724.2944-3.9119.71-7.8906t.9922-8.1612q2.1725-.7338 4.7793-1.3906t5.2989-1.22q2.6894-.561 5.3359-1.0054t4.8437-.7881q-.4863 2.236-.9326 4.5523-.4482 2.3181-.8818 4.5879-1.0825.1464-2.4775.3925t-2.8916.5537q-1.4957.3055-2.9229.6236t-2.5645.6494q-.18 1.2165-.35 2.4966-.1662 1.2813-.2971 2.5335z"/><path d="m36.4761 140.465q.3429-4.0092.6719-7.7314t.707-7.4092q.378-3.6855.8282-7.4736.45-3.7853 1.07-7.9766a25.7 25.7 0 0 1 3.57-1.7041 23.1775 23.1775 0 0 1 3.9717-1.2051 30.13 30.13 0 0 1 4.6885-.541 12.1112 12.1112 0 0 1 4.3388.5967 9.2926 9.2926 0 0 1 3.626 2.3008 10.9919 10.9919 0 0 1 2.543 4.5322 17.7954 17.7954 0 0 1 .7832 4.9736 21.5246 21.5246 0 0 1 -.5344 5.1627 22.433 22.433 0 0 1 -1.749 4.9365 19.038 19.038 0 0 1 -2.8262 4.251 19.3186 19.3186 0 0 1 -6.1533 4.5947 29.6655 29.6655 0 0 1 -7.7334 2.458 25.6947 25.6947 0 0 1 -4.1807.4092 28.0458 28.0458 0 0 1 -3.6213-.1744zm8.9678-8.2939a8.5229 8.5229 0 0 0 3.99-1.711 11.134 11.134 0 0 0 2.8614-3.3134 13.3871 13.3871 0 0 0 1.5342-4.2852 12.9484 12.9484 0 0 0 .01-4.6309 5.3724 5.3724 0 0 0 -.6445-1.8613 3.5834 3.5834 0 0 0 -.9941-1.0967 2.9556 2.9556 0 0 0 -1.1963-.4922 4.6838 4.6838 0 0 0 -1.2481-.0429 5.4578 5.4578 0 0 0 -1.2139.2793 6.3931 6.3931 0 0 0 -1.0878.4785q-.6006 4.0547-1.0313 8.3193-.4292 4.2686-.9796 8.3565z"/><path d="m75.233 116.6994a22.6334 22.6334 0 0 1 2.3847-.6621q1.34-.3018 2.709-.5869 1.3668-.2828 2.6592-.49 1.292-.205 2.2881-.3369-.1832 1.6992-.3467 3.1328t-.4746 3.1543q-.9522.1245-2.291.3164-1.34.1934-2.7315.46t-2.6943.54q-1.3037.2739-2.24.4815-.145 1.1675-.2969 2.291-.1538 1.1235-.2979 2.29 1.0313-.1816 2.4405-.4736t2.9023-.6211q1.4913-.328 2.9551-.6973 1.4619-.3662 2.6416-.706-.4146 2.1357-.9189 4.1338t-1.1846 4.1357q-2.1255.5054-4.5.9678-2.3775.4629-4.6924.8935t-4.4033.7764q-2.0874.3442-3.59.6094.2711-3.9082.51-7.7695.2358-3.8569.53-7.7725.2945-3.9111.71-7.8906t.9922-8.1612q2.1724-.7353 4.7793-1.3906 2.6075-.6578 5.2988-1.2187 2.6895-.5625 5.335-1.0059 2.6471-.4439 4.8447-.7881-.4863 2.2368-.9326 4.5518-.4482 2.3173-.8818 4.5879c-.7207.0986-1.5479.2275-2.4776.3916s-1.8945.3506-2.8916.5547-1.9716.413-2.9228.624-1.8066.4277-2.5645.6494q-.18 1.2172-.35 2.4971t-.2975 2.5319z"/><path d="m97.2154 123.1379c.4736.0029 1.0186-.0039 1.6348-.0254s1.2441-.0655 1.8818-.1338 1.2637-.1572 1.88-.2656 1.1787-.2217 1.6894-.3409a8.1114 8.1114 0 0 0 2.78-1.17 2.522 2.522 0 0 0 1.1387-1.56 1.9861 1.9861 0 0 0 -.7041-1.6992 7.2009 7.2009 0 0 0 -2.7793-1.5274 14.6109 14.6109 0 0 1 -4.32-2.2226 6.9191 6.9191 0 0 1 -2.294-3.7647 6.6324 6.6324 0 0 1 -.2246-2.4844 8.6536 8.6536 0 0 1 .543-2.3984 9.62 9.62 0 0 1 2.0185-3.3174 16.0354 16.0354 0 0 1 3.1592-2.6416 22.9528 22.9528 0 0 1 3.8125-1.9653 34.2861 34.2861 0 0 1 3.8837-1.3212 31.3491 31.3491 0 0 1 4.208-.8736q2.0127-.2658 4.2842-.4477l-.6748 9.07a14.8753 14.8753 0 0 0 -1.875.0459 17.3832 17.3832 0 0 0 -2.2666.332 19.8108 19.8108 0 0 0 -2.2168.6114 6.9109 6.9109 0 0 0 -1.7334.832 7.1876 7.1876 0 0 0 -1.7891 2.0039 3.3928 3.3928 0 0 0 -.4492 2.5586 1.8757 1.8757 0 0 0 .8682 1.2519 8.3363 8.3363 0 0 0 1.6806.8438 18.9706 18.9706 0 0 0 1.9034.6094 8.0736 8.0736 0 0 1 1.538.54q.7779.3882 1.6.7705a8.49 8.49 0 0 1 1.5127.8975 4.3792 4.3792 0 0 1 1.13 1.2265 3.5465 3.5465 0 0 1 .4854 1.7139 5.5624 5.5624 0 0 1 -.1348 1.4717 8.3385 8.3385 0 0 1 -.45 1.44 12.0705 12.0705 0 0 1 -3.8349 4.4258 21.9 21.9 0 0 1 -5.5176 2.8379 32.7535 32.7535 0 0 1 -6.2412 1.5166 39.4253 39.4253 0 0 1 -6.0166.4238z"/><path d="m123.1021 94.5734q2.5386-.665 5.3506-1.293t5.7217-1.206q2.9091-.5772 5.8594-1.0542 2.9487-.4761 5.8144-.8052-.2739 2.4184-.5029 4.7183t-.3125 4.5522q-1.519.1816-3.2188.458t-3.4472.6729q-.2975 2.7744-.64 5.6855-.34 2.9136-.6738 5.8672t-.6484 5.8848q-.315 2.93-.5362 5.6455a38.7633 38.7633 0 0 0 -4.125.5947q-2.1621.4248-4.0644.9356.1947-2.6236.37-5.4629.1771-2.8389.3349-5.7852t.336-5.8955q.1787-2.9472.42-5.8-1.6466.2035-3.3965.5762-1.7505.375-3.3672.747-.0394-2.187.1094-4.4511a34.2339 34.2339 0 0 1 .6165-4.5848z"/><path d="m161.7691 87.3215a15.35 15.35 0 0 1 6.2481.1279 10.6552 10.6552 0 0 1 4.6718 2.4463 11.3521 11.3521 0 0 1 2.9326 4.4853 18.8086 18.8086 0 0 1 1.085 6.2813 20.3219 20.3219 0 0 1 -1.0019 6.7588 19.177 19.177 0 0 1 -3.0206 5.7539 18.36 18.36 0 0 1 -4.7216 4.2988 17.8615 17.8615 0 0 1 -6.0987 2.4346 15.0313 15.0313 0 0 1 -5.6025.0215 11.2932 11.2932 0 0 1 -4.4893-1.9288 10.8967 10.8967 0 0 1 -3.1611-3.6562 14.5946 14.5946 0 0 1 -1.6055-5.1152 20.833 20.833 0 0 1 .4317-8.3243 19.0824 19.0824 0 0 1 3.1484-6.5229 18.1828 18.1828 0 0 1 5.0488-4.5747 19.8061 19.8061 0 0 1 6.1348-2.4863zm-.1543 10.7343a6.7822 6.7822 0 0 0 -2.51 1.0791 8.8427 8.8427 0 0 0 -3.3212 4.4473 8.9009 8.9009 0 0 0 -.4678 2.8242 6.7265 6.7265 0 0 0 .499 2.6533 5.2944 5.2944 0 0 0 1.3408 1.9151 4.5957 4.5957 0 0 0 1.9805 1.0332 5.5633 5.5633 0 0 0 2.5039-.0029 7.99 7.99 0 0 0 2.6025-1.05 8.1422 8.1422 0 0 0 2.12-1.8876 9.6131 9.6131 0 0 0 1.414-2.4883 7.1524 7.1524 0 0 0 .4922-2.8057 6.3725 6.3725 0 0 0 -.5166-2.63 5.4269 5.4269 0 0 0 -1.4375-1.9629 5.2624 5.2624 0 0 0 -2.125-1.0957 5.6172 5.6172 0 0 0 -2.5748-.0291z"/><path d="m203.0377 90.3625a13.0178 13.0178 0 0 0 -5.4922.5073 13.7516 13.7516 0 0 0 -4.7022 2.561 12.8379 12.8379 0 0 0 -3.2812 4.1773 11.9249 11.9249 0 0 0 -1.2324 5.35 4.8462 4.8462 0 0 0 .9843 2.7676 3.6841 3.6841 0 0 0 2.87 1.4248 13.2417 13.2417 0 0 0 2.1944-.1231 12.2526 12.2526 0 0 0 2.4355-.626 20.1944 20.1944 0 0 0 2.8828-1.3427 35.72 35.72 0 0 0 3.5713-2.3184c-.1806.9688-.35 1.7939-.5078 2.4805s-.3281 1.3388-.5117 1.9541c-.1846.6191-.4023 1.2558-.6533 1.916-.251.6572-.5625 1.4307-.9356 2.3144a11.8717 11.8717 0 0 1 -3.2226 1.7959 27.5556 27.5556 0 0 1 -3.2735 1.0166 13.9511 13.9511 0 0 1 -5.67.0118 11.249 11.249 0 0 1 -4.4873-2.04 10.4229 10.4229 0 0 1 -3.0254-3.7676 13.5563 13.5563 0 0 1 -1.292-5.2128 19.4148 19.4148 0 0 1 .6348-6.211 21.7866 21.7866 0 0 1 2.3664-5.5742 21.4219 21.4219 0 0 1 8.68-8.0449 23.17 23.17 0 0 1 3.5742-1.4414 32.9521 32.9521 0 0 1 3.584-.8946q1.7564-.3324 3.3906-.4887 1.6334-.1546 3.0381-.2271-.3384 1.8143-.6045 3.0464-.2666 1.23-.4765 2.2773t-.3965 2.11q-.1864 1.0662-.4417 2.6015z"/><path d="m216.3863 89.6779q2.4137-4.0679 4.9092-7.5779 2.4916-3.512 5.3183-6.7749a13.4983 13.4983 0 0 1 4.0508 1.46 24.8083 24.8083 0 0 1 3.3916 2.232 83.083 83.083 0 0 0 -6.0576 6.7275q-2.7538 3.4255-5.22 6.7129 2.0844 2.9662 4.4619 6.2124t5.4961 7.0391q-2 .7045-4.2451 1.6474-2.2457.9449-4.2 1.9033-2.1666-2.6894-4.3242-5.82-2.1593-3.13-4.2383-6.3183-.3487 1.51-.6094 3.2675t-.4775 3.5069q-.2169 1.7505-.41 3.3847-.1949 1.6364-.3662 2.8946-1.7929.142-3.94.5185-2.1475.38-4.1075.8125.5846-8.09 1.2657-15.8882t1.6181-15.9067q1.3595-.3274 2.55-.6035 1.1925-.2754 2.3516-.48t2.3408-.4126q1.1806-.2081 2.4776-.3921-.5363 3.43-1.0811 6.3111-.5471 2.8841-.9548 5.5438z"/></g></svg>