<svg height="50.2367mm" viewBox="0 0 248.832 142.4032" width="87.7824mm" xmlns="http://www.w3.org/2000/svg"><path d="m18.3479 47.2194 212.1361-46.7794c10.0919-2.2253 18.348 4.21 18.348 14.3017v58.0483c0 10.0923-8.2561 20.1689-18.348 22.3942l-16.308 3.5958-12.7544 20.1127-12.7538-14.4877-170.3199 37.558c-10.0917 2.2256-18.3479-4.2095-18.3479-14.3018v-58.0478c0-10.0917 8.2562-20.1682 18.3479-22.394z" fill="#e6322f" fill-rule="evenodd"/><path d="m201.4216 105.122 8.6265-13.6033 20.4359-4.5066c5.5819-1.2307 10.1764-6.8387 10.1764-12.42v-58.048c0-5.5814-4.595-9.1633-10.1764-7.9325l-212.1361 46.7793c-5.5812 1.2307-10.1764 6.8391-10.1764 12.4208v58.0477c0 5.5819 4.5947 9.1632 10.1764 7.932l174.4477-38.4685z" fill="none" stroke="#fff" stroke-miterlimit="2.6131" stroke-width="8"/><g fill="#fff"><path d="m46.7787 66.33c6.8066-1.501 10.3052 1.7988 10.3052 8.9238v1.3994l-6.6158 1.459v-1.8451c0-3.1807-1.2719-4.1084-3.4985-3.6172s-3.499 1.98-3.499 5.16c0 3.2441 1.3994 5.3535 5.98 8.3515 5.8525 3.8614 7.6972 7.1446 7.6972 12.2325 0 7.125-3.562 11.9824-10.4321 13.497s-10.4326-1.77-10.4326-8.8955v-2.7354l6.6157-1.459v3.1806c0 3.1807 1.4 4.0176 3.626 3.5264s3.626-1.9443 3.626-5.126c0-3.2441-1.3994-5.3515-5.98-8.35-5.8526-3.862-7.6968-7.1458-7.6968-12.2336 0-7.125 3.498-11.9678 10.3047-13.4684z"/><path d="m60.5843 74.4819c0-7.125 3.7535-12.0244 10.6231-13.539s10.6226 1.7285 10.6226 8.8535v23.1553c0 7.125-3.7529 12.0244-10.623 13.539s-10.6231-1.73-10.6231-8.8545zm6.9971 22.0581c0 3.1806 1.3994 4.081 3.626 3.59s3.626-2.0088 3.626-5.1894v-24.0465c0-3.1807-1.3994-4.08-3.626-3.5889s-3.626 2.0078-3.626 5.1885z"/><path d="m86.35 58.1138 6.9975-1.543v38.168l11.5125-2.5388v6.361l-18.51 4.0821z"/><path d="m107.9154 53.3589 11.0684-2.4414c6.9975-1.543 10.4326 1.58 10.4326 8.7051v22.52c0 7.124-3.4351 11.7617-10.4326 13.3047l-11.0684 2.4414zm6.9976 4.8184v31.8066l3.9438-.87c2.2261-.4912 3.562-1.9307 3.562-5.1113v-23.1554c0-3.1807-1.3359-4.0313-3.562-3.54z"/><path d="m143.16 56.2739c0-7.125 3.753-12.0244 10.6226-13.539s10.6235 1.7295 10.6235 8.8545v23.1552c0 7.125-3.7534 12.0235-10.6235 13.5381s-10.6226-1.7285-10.6226-8.8535zm6.9971 22.0577c0 3.1806 1.3994 4.081 3.6255 3.59s3.6265-2.0078 3.6265-5.19v-24.0446c0-3.1816-1.3994-4.081-3.6265-3.59s-3.6255 2.0078-3.6255 5.1885z"/><path d="m175.6039 38.4331v34.3506c0 3.1816 1.3994 4.0176 3.626 3.5264s3.6254-1.9434 3.6254-5.125v-34.3506l6.6158-1.459v33.9063c0 7.124-3.562 11.98-10.4322 13.4951s-10.4326-1.77-10.4326-8.8946v-33.9062z"/><path d="m192.2089 34.772 21.6279-4.7695v6.3613l-7.315 1.6133v38.1679l-6.9975 1.543v-38.168l-7.3154 1.6133z"/></g></svg>