<svg width="115" height="109" viewBox="0 0 115 109" fill="none" xmlns="http://www.w3.org/2000/svg">
<path fill-rule="evenodd" clip-rule="evenodd" d="M74.2188 47L79.875 52.6567L55.8242 76.707L55.873 76.7549L50.2168 82.4116L50.168 82.3633L50.1191 82.4131L44.4609 76.7563L44.5117 76.7061L35 67.1948L40.6562 61.5381L50.168 71.0498L74.2188 47Z" fill="#23D288"/>
<path fill-rule="evenodd" clip-rule="evenodd" d="M30.4121 8.32522L38.7373 0L57.2061 18.4687L75.6748 0L84 8.32522L70.7373 21.5879H104C110.075 21.5879 115 26.5128 115 32.5879V97.5879C115 103.663 110.075 108.588 104 108.588H11C4.92487 108.588 0 103.663 0 97.5879V32.5879C0 26.5128 4.92487 21.5879 11 21.5879H43.6748L30.4121 8.32522ZM12 33.5879H103V96.5879H12V33.5879Z" fill="#B0DAE4"/>
</svg>
