<svg width="22" height="19" viewBox="0 0 22 19" fill="none" xmlns="http://www.w3.org/2000/svg">
<g clip-path="url(#clip0_82_41279)">
<path d="M19.4659 3.27334H16.6079C16.5361 3.27334 16.4695 3.2356 16.4325 3.17391L15.2676 1.23123C14.8095 0.46733 13.9849 0 13.0951 0H8.71613C7.82231 0 6.99458 0.471504 6.53786 1.24085L5.39074 3.17313C5.35386 3.23526 5.28703 3.27334 5.21484 3.27334H2.53409C1.13455 3.27334 0 4.4094 0 5.81081V16.4625C0 17.8639 1.13455 19 2.53409 19H19.4659C20.8655 19 22 17.8639 22 16.4625V5.81081C22 4.4094 20.8655 3.27334 19.4659 3.27334ZM11 16.6362C7.96678 16.6362 5.50787 14.174 5.50787 11.1367C5.50787 8.09937 7.96678 5.63717 11 5.63717C14.0333 5.63717 16.4921 8.09939 16.4921 11.1367C16.4921 14.1739 14.0332 16.6362 11 16.6362Z" fill="#B0DAE4"/>
<path d="M11.8038 14.7985C13.8241 14.3542 15.1021 12.3541 14.6584 10.3312C14.2147 8.30826 12.2172 7.02853 10.197 7.47285C8.17678 7.91716 6.89877 9.91725 7.34248 11.9402C7.7862 13.9631 9.78362 15.2428 11.8038 14.7985Z" fill="#B0DAE4"/>
</g>
<defs>
<clipPath id="clip0_82_41279">
<rect width="22" height="19" fill="white"/>
</clipPath>
</defs>
</svg>
