<svg width="28" height="28" viewBox="0 0 28 28" fill="none" xmlns="http://www.w3.org/2000/svg">
<g id="Group 2908">
<path id="Trac&#195;&#169; 8881" d="M1.44831 27.0348H0.96546V26.5522C0.962655 26.426 0.910565 26.306 0.820341 26.2177C0.730117 26.1295 0.608931 26.0801 0.48273 26.0801C0.356528 26.0801 0.235343 26.1295 0.145119 26.2177C0.0548948 26.306 0.0028043 26.426 0 26.5522L0 27.5177C0 27.6457 0.0508463 27.7684 0.141353 27.8589C0.23186 27.9494 0.354614 28.0003 0.482611 28.0003H1.44831C1.57634 28.0003 1.69912 27.9494 1.78965 27.8589C1.88018 27.7684 1.93104 27.6456 1.93104 27.5176C1.93104 27.3895 1.88018 27.2667 1.78965 27.1762C1.69912 27.0857 1.57634 27.0348 1.44831 27.0348Z" fill="#B0DAE4"/>
<path id="Trac&#195;&#169; 8882" d="M0.482611 21.5059C0.354634 21.5059 0.231917 21.5568 0.141423 21.6473C0.0509298 21.7378 6.31829e-05 21.8605 0 21.9885L0 24.2706C0 24.3987 0.0508589 24.5215 0.141388 24.612C0.231918 24.7025 0.354702 24.7534 0.48273 24.7534C0.610758 24.7534 0.733542 24.7025 0.824071 24.612C0.914601 24.5215 0.96546 24.3987 0.96546 24.2706V21.9885C0.965491 21.9251 0.953021 21.8623 0.928764 21.8037C0.904507 21.7451 0.868938 21.6919 0.824092 21.6471C0.779246 21.6022 0.726003 21.5667 0.667408 21.5425C0.608813 21.5182 0.546017 21.5058 0.482611 21.5059Z" fill="#B0DAE4"/>
<path id="Trac&#195;&#169; 8883" d="M0.482611 16.9414C0.354656 16.9414 0.231938 16.9922 0.141438 17.0827C0.0509375 17.1731 6.32189e-05 17.2958 0 17.4238L0 19.7059C0 19.834 0.0508589 19.9568 0.141388 20.0473C0.231918 20.1378 0.354702 20.1887 0.48273 20.1887C0.610758 20.1887 0.733542 20.1378 0.824071 20.0473C0.914601 19.9568 0.96546 19.834 0.96546 19.7059V17.4238C0.965428 17.3604 0.952914 17.2977 0.928632 17.2391C0.90435 17.1806 0.868774 17.1274 0.823938 17.0826C0.779101 17.0378 0.725881 17.0023 0.667316 16.9781C0.608751 16.9538 0.545988 16.9414 0.482611 16.9414Z" fill="#B0DAE4"/>
<path id="Trac&#195;&#169; 8884" d="M0.482612 12.375C0.419143 12.375 0.356303 12.3876 0.297686 12.4119C0.239069 12.4363 0.185826 12.4719 0.141002 12.5168C0.0961784 12.5618 0.0606532 12.6151 0.0364588 12.6738C0.0122644 12.7325 -0.000124436 12.7953 9.42202e-07 12.8588V15.141C9.42202e-07 15.269 0.0508598 15.3918 0.141389 15.4823C0.231919 15.5728 0.354703 15.6237 0.482731 15.6237C0.610759 15.6237 0.733543 15.5728 0.824072 15.4823C0.914602 15.3918 0.965461 15.269 0.965461 15.141V12.8588C0.965617 12.7953 0.953242 12.7324 0.929044 12.6737C0.904846 12.615 0.869301 12.5616 0.824445 12.5167C0.77959 12.4717 0.726306 12.4361 0.667648 12.4118C0.608989 12.3875 0.546109 12.375 0.482612 12.375Z" fill="#B0DAE4"/>
<path id="Trac&#195;&#169; 8885" d="M0.482611 3.24805C0.354614 3.24805 0.23186 3.29889 0.141353 3.3894C0.0508463 3.47991 0 3.60266 0 3.73066L0 6.01283C0 6.14086 0.0508589 6.26364 0.141388 6.35417C0.231918 6.4447 0.354702 6.49556 0.48273 6.49556C0.610758 6.49556 0.733542 6.4447 0.824071 6.35417C0.914601 6.26364 0.96546 6.14086 0.96546 6.01283V3.73066C0.96546 3.66726 0.952969 3.60449 0.9287 3.54592C0.904432 3.48735 0.868862 3.43414 0.824022 3.38932C0.779182 3.3445 0.725951 3.30895 0.667371 3.28472C0.60879 3.26048 0.546008 3.24802 0.482611 3.24805Z" fill="#B0DAE4"/>
<path id="Trac&#195;&#169; 8886" d="M0.482611 7.8125C0.354592 7.81256 0.231839 7.86346 0.141339 7.95401C0.0508387 8.04455 -1.56096e-08 8.16733 0 8.29535V10.5775C0 10.7055 0.0508589 10.8283 0.141388 10.9189C0.231918 11.0094 0.354702 11.0603 0.48273 11.0603C0.610758 11.0603 0.733542 11.0094 0.824071 10.9189C0.914601 10.8283 0.96546 10.7055 0.96546 10.5775V8.29535C0.965491 8.23193 0.953023 8.16913 0.928769 8.11054C0.904514 8.05194 0.868949 7.9987 0.824106 7.95385C0.779263 7.90901 0.726022 7.87345 0.667426 7.84919C0.60883 7.82494 0.546028 7.81247 0.482611 7.8125Z" fill="#B0DAE4"/>
<path id="Trac&#195;&#169; 8887" d="M1.44831 0H0.482611C0.419213 -7.73792e-09 0.356437 0.0124911 0.297869 0.0367597C0.2393 0.0610282 0.186087 0.0965987 0.141269 0.141439C0.0964514 0.186279 0.0609076 0.23951 0.0366681 0.298091C0.0124287 0.356672 -3.12639e-05 0.419455 5.89096e-08 0.482853V1.44856C5.89096e-08 1.57659 0.0508589 1.69937 0.141388 1.7899C0.231918 1.88043 0.354702 1.93129 0.48273 1.93129C0.610758 1.93129 0.733542 1.88043 0.824071 1.7899C0.914601 1.69937 0.96546 1.57659 0.96546 1.44856V0.965706H1.44807C1.57613 0.965738 1.69896 0.914896 1.78953 0.824366C1.88011 0.733836 1.93101 0.611033 1.93104 0.482972C1.93107 0.354912 1.88023 0.232084 1.7897 0.141509C1.69917 0.0509338 1.57637 3.16199e-05 1.44831 0Z" fill="#B0DAE4"/>
<path id="Trac&#195;&#169; 8888" d="M6.01269 0H3.73078C3.60275 0 3.47997 0.0508593 3.38944 0.14139C3.29891 0.23192 3.24805 0.354705 3.24805 0.482734C3.24805 0.610763 3.29891 0.733548 3.38944 0.824078C3.47997 0.914609 3.60275 0.965468 3.73078 0.965468H6.01269C6.14071 0.965468 6.2635 0.914609 6.35403 0.824078C6.44456 0.733548 6.49542 0.610763 6.49542 0.482734C6.49542 0.354705 6.44456 0.23192 6.35403 0.14139C6.2635 0.0508593 6.14071 0 6.01269 0Z" fill="#B0DAE4"/>
<path id="Trac&#195;&#169; 8889" d="M10.5771 0H8.29523C8.1672 0 8.04442 0.0508593 7.95389 0.14139C7.86336 0.23192 7.8125 0.354705 7.8125 0.482734C7.8125 0.610763 7.86336 0.733548 7.95389 0.824078C8.04442 0.914609 8.1672 0.965468 8.29523 0.965468H10.5771C10.7052 0.965468 10.828 0.914609 10.9185 0.824078C11.009 0.733548 11.0599 0.610763 11.0599 0.482734C11.0599 0.354705 11.009 0.23192 10.9185 0.14139C10.828 0.0508593 10.7052 0 10.5771 0Z" fill="#B0DAE4"/>
<path id="Trac&#195;&#169; 8890" d="M15.1411 0H12.8597C12.7317 0 12.6089 0.0508593 12.5183 0.14139C12.4278 0.23192 12.377 0.354705 12.377 0.482734C12.377 0.610763 12.4278 0.733548 12.5183 0.824078C12.6089 0.914609 12.7317 0.965468 12.8597 0.965468H15.1411C15.2691 0.965468 15.3919 0.914609 15.4825 0.824078C15.573 0.733548 15.6238 0.610763 15.6238 0.482734C15.6238 0.354705 15.573 0.23192 15.4825 0.14139C15.3919 0.0508593 15.2691 0 15.1411 0Z" fill="#B0DAE4"/>
<path id="Trac&#195;&#169; 8891" d="M19.7048 0H17.4222C17.2942 0 17.1714 0.0508593 17.0808 0.14139C16.9903 0.23192 16.9395 0.354705 16.9395 0.482734C16.9395 0.610763 16.9903 0.733548 17.0808 0.824078C17.1714 0.914609 17.2942 0.965468 17.4222 0.965468H19.7043C19.8324 0.965468 19.9551 0.914609 20.0457 0.824078C20.1362 0.733548 20.1871 0.610763 20.1871 0.482734C20.1871 0.354705 20.1362 0.23192 20.0457 0.14139C19.9551 0.0508593 19.8324 0 19.7043 0L19.7048 0Z" fill="#B0DAE4"/>
<path id="Trac&#195;&#169; 8892" d="M24.2688 0H21.9866C21.8586 0 21.7358 0.0508593 21.6453 0.14139C21.5548 0.23192 21.5039 0.354705 21.5039 0.482734C21.5039 0.610763 21.5548 0.733548 21.6453 0.824078C21.7358 0.914609 21.8586 0.965468 21.9866 0.965468H24.2688C24.3968 0.965468 24.5196 0.914609 24.6101 0.824078C24.7007 0.733548 24.7515 0.610763 24.7515 0.482734C24.7515 0.354705 24.7007 0.23192 24.6101 0.14139C24.5196 0.0508593 24.3968 0 24.2688 0Z" fill="#B0DAE4"/>
<path id="Trac&#195;&#169; 8893" d="M27.5165 2.36399e-07H26.5511C26.4231 2.36399e-07 26.3003 0.0508596 26.2097 0.14139C26.1192 0.23192 26.0684 0.354705 26.0684 0.482734C26.0684 0.610763 26.1192 0.733548 26.2097 0.824079C26.3003 0.914609 26.4231 0.965468 26.5511 0.965468H27.0337V1.44832C27.0337 1.57635 27.0846 1.69914 27.1751 1.78967C27.2656 1.8802 27.3884 1.93106 27.5164 1.93106C27.6445 1.93106 27.7672 1.8802 27.8578 1.78967C27.9483 1.69914 27.9992 1.57635 27.9992 1.44832V0.482853C27.9993 0.419438 27.9868 0.356627 27.9626 0.298017C27.9384 0.239408 27.9029 0.186152 27.858 0.141299C27.8132 0.0964464 27.76 0.0608784 27.7014 0.036632C27.6428 0.0123857 27.58 -6.25591e-05 27.5165 2.36399e-07Z" fill="#B0DAE4"/>
<path id="Trac&#195;&#169; 8894" d="M27.5158 3.24805C27.3878 3.24805 27.2651 3.29889 27.1746 3.3894C27.0841 3.47991 27.0332 3.60266 27.0332 3.73066V6.01307C27.0332 6.1411 27.0841 6.26388 27.1746 6.35441C27.2651 6.44494 27.3879 6.4958 27.5159 6.4958C27.644 6.4958 27.7667 6.44494 27.8573 6.35441C27.9478 6.26388 27.9987 6.1411 27.9987 6.01307V3.7309C27.9987 3.66748 27.9862 3.60468 27.962 3.54608C27.9377 3.48749 27.9022 3.43424 27.8573 3.3894C27.8125 3.34456 27.7592 3.30899 27.7006 3.28474C27.642 3.26048 27.5792 3.24802 27.5158 3.24805Z" fill="#B0DAE4"/>
<path id="Trac&#195;&#169; 8895" d="M27.5158 7.8125C27.3878 7.8125 27.2651 7.86335 27.1746 7.95385C27.0841 8.04436 27.0332 8.16712 27.0332 8.29511V10.5773C27.0332 10.7053 27.0841 10.8281 27.1746 10.9186C27.2651 11.0092 27.3879 11.06 27.5159 11.06C27.644 11.06 27.7667 11.0092 27.8573 10.9186C27.9478 10.8281 27.9987 10.7053 27.9987 10.5773V8.29535C27.9987 8.23193 27.9862 8.16913 27.962 8.11054C27.9377 8.05194 27.9022 7.9987 27.8573 7.95385C27.8125 7.90901 27.7592 7.87345 27.7006 7.84919C27.642 7.82494 27.5792 7.81247 27.5158 7.8125Z" fill="#B0DAE4"/>
<path id="Trac&#195;&#169; 8896" d="M27.5158 21.5059C27.3878 21.5059 27.2651 21.5567 27.1746 21.6472C27.0841 21.7377 27.0332 21.8605 27.0332 21.9885V24.2706C27.0332 24.3987 27.0841 24.5215 27.1746 24.612C27.2651 24.7025 27.3879 24.7534 27.5159 24.7534C27.644 24.7534 27.7667 24.7025 27.8573 24.612C27.9478 24.5215 27.9987 24.3987 27.9987 24.2706V21.9885C27.9987 21.9251 27.9862 21.8623 27.9619 21.8037C27.9376 21.7452 27.9021 21.6919 27.8572 21.6471C27.8124 21.6023 27.7592 21.5668 27.7006 21.5425C27.642 21.5183 27.5792 21.5058 27.5158 21.5059Z" fill="#B0DAE4"/>
<path id="Trac&#195;&#169; 8897" d="M27.5158 16.9414C27.3878 16.9414 27.2651 16.9923 27.1746 17.0828C27.0841 17.1733 27.0332 17.296 27.0332 17.424V19.7062C27.0332 19.8342 27.0841 19.957 27.1746 20.0475C27.2651 20.1381 27.3879 20.1889 27.5159 20.1889C27.644 20.1889 27.7667 20.1381 27.8573 20.0475C27.9478 19.957 27.9987 19.8342 27.9987 19.7062V17.4238C27.9986 17.3604 27.9861 17.2977 27.9618 17.2391C27.9376 17.1806 27.902 17.1274 27.8571 17.0826C27.8123 17.0378 27.7591 17.0023 27.7005 16.9781C27.642 16.9538 27.5792 16.9414 27.5158 16.9414Z" fill="#B0DAE4"/>
<path id="Trac&#195;&#169; 8898" d="M27.5158 12.377C27.3878 12.377 27.2651 12.4278 27.1746 12.5183C27.0841 12.6088 27.0332 12.7316 27.0332 12.8596V15.1408C27.0332 15.2688 27.0841 15.3916 27.1746 15.4821C27.2651 15.5727 27.3879 15.6235 27.5159 15.6235C27.644 15.6235 27.7667 15.5727 27.8573 15.4821C27.9478 15.3916 27.9987 15.2688 27.9987 15.1408V12.8596C27.9987 12.7962 27.9862 12.7334 27.962 12.6748C27.9377 12.6162 27.9021 12.563 27.8573 12.5182C27.8124 12.4733 27.7592 12.4378 27.7006 12.4136C27.642 12.3893 27.5792 12.3769 27.5158 12.377Z" fill="#B0DAE4"/>
<path id="Trac&#195;&#169; 8899" d="M27.5163 26.0703C27.3883 26.0703 27.2656 26.1212 27.1751 26.2117C27.0845 26.3022 27.0337 26.4249 27.0337 26.5529V27.0355H26.5511C26.4231 27.0355 26.3003 27.0864 26.2097 27.1769C26.1192 27.2675 26.0684 27.3902 26.0684 27.5183C26.0684 27.6463 26.1192 27.7691 26.2097 27.8596C26.3003 27.9502 26.4231 28.001 26.5511 28.001H27.5165C27.6445 28.001 27.7673 27.9502 27.8578 27.8597C27.9483 27.7691 27.9992 27.6464 27.9992 27.5184V26.5529C27.9991 26.4249 27.9482 26.3022 27.8576 26.2117C27.7671 26.1212 27.6443 26.0703 27.5163 26.0703Z" fill="#B0DAE4"/>
<path id="Trac&#195;&#169; 8900" d="M24.2688 27.0352H21.9866C21.8586 27.0352 21.7358 27.086 21.6453 27.1765C21.5548 27.2671 21.5039 27.3899 21.5039 27.5179C21.5039 27.6459 21.5548 27.7687 21.6453 27.8592C21.7358 27.9498 21.8586 28.0006 21.9866 28.0006H24.2688C24.3968 28.0006 24.5196 27.9498 24.6101 27.8592C24.7007 27.7687 24.7515 27.6459 24.7515 27.5179C24.7515 27.3899 24.7007 27.2671 24.6101 27.1765C24.5196 27.086 24.3968 27.0352 24.2688 27.0352Z" fill="#B0DAE4"/>
<path id="Trac&#195;&#169; 8901" d="M19.7048 27.0352H17.4222C17.2942 27.0352 17.1714 27.086 17.0808 27.1765C16.9903 27.2671 16.9395 27.3899 16.9395 27.5179C16.9395 27.6459 16.9903 27.7687 17.0808 27.8592C17.1714 27.9498 17.2942 28.0006 17.4222 28.0006H19.7043C19.8324 28.0006 19.9551 27.9498 20.0457 27.8592C20.1362 27.7687 20.1871 27.6459 20.1871 27.5179C20.1871 27.3899 20.1362 27.2671 20.0457 27.1765C19.9551 27.086 19.8324 27.0352 19.7043 27.0352H19.7048Z" fill="#B0DAE4"/>
<path id="Trac&#195;&#169; 8902" d="M6.01269 27.0352H3.73078C3.60275 27.0352 3.47996 27.086 3.38944 27.1765C3.29891 27.2671 3.24805 27.3899 3.24805 27.5179C3.24805 27.6459 3.29891 27.7687 3.38944 27.8592C3.47996 27.9498 3.60275 28.0006 3.73078 28.0006H6.01269C6.14071 28.0006 6.2635 27.9498 6.35403 27.8592C6.44456 27.7687 6.49542 27.6459 6.49542 27.5179C6.49542 27.3899 6.44456 27.2671 6.35403 27.1765C6.2635 27.086 6.14071 27.0352 6.01269 27.0352Z" fill="#B0DAE4"/>
<path id="Trac&#195;&#169; 8903" d="M10.5771 27.0352H8.29523C8.1672 27.0352 8.04442 27.086 7.95389 27.1765C7.86336 27.2671 7.8125 27.3899 7.8125 27.5179C7.8125 27.6459 7.86336 27.7687 7.95389 27.8592C8.04442 27.9498 8.1672 28.0006 8.29523 28.0006H10.5771C10.7052 28.0006 10.828 27.9498 10.9185 27.8592C11.009 27.7687 11.0599 27.6459 11.0599 27.5179C11.0599 27.3899 11.009 27.2671 10.9185 27.1765C10.828 27.086 10.7052 27.0352 10.5771 27.0352Z" fill="#B0DAE4"/>
<path id="Trac&#195;&#169; 8904" d="M15.1399 27.0352H12.8577C12.7297 27.0352 12.6069 27.086 12.5164 27.1765C12.4259 27.2671 12.375 27.3899 12.375 27.5179C12.375 27.6459 12.4259 27.7687 12.5164 27.8592C12.6069 27.9498 12.7297 28.0006 12.8577 28.0006H15.1399C15.2679 28.0006 15.3907 27.9498 15.4812 27.8592C15.5717 27.7687 15.6226 27.6459 15.6226 27.5179C15.6226 27.3899 15.5717 27.2671 15.4812 27.1765C15.3907 27.086 15.2679 27.0352 15.1399 27.0352Z" fill="#B0DAE4"/>
<path id="Trac&#195;&#169; 8905" d="M27.5164 5.90558e-08H0.482611C0.419213 5.13179e-08 0.356437 0.0124911 0.297869 0.0367597C0.2393 0.0610283 0.186087 0.0965988 0.141269 0.141439C0.0964514 0.186279 0.0609076 0.23951 0.0366681 0.298091C0.0124287 0.356672 -3.12639e-05 0.419455 5.89096e-08 0.482853V13.9999C5.89096e-08 14.1279 0.0508464 14.2506 0.141353 14.3411C0.23186 14.4316 0.354614 14.4825 0.482611 14.4825H12.4413C12.5693 14.4825 12.6921 14.4316 12.7826 14.3411C12.8732 14.2506 12.924 14.1278 12.924 13.9998C12.924 13.8717 12.8732 13.7489 12.7826 13.6584C12.6921 13.5679 12.5693 13.517 12.4413 13.517H0.96546V0.965707H27.0338V13.5173H15.4795C15.3515 13.5173 15.2287 13.5681 15.1382 13.6587C15.0477 13.7492 14.9968 13.872 14.9968 14C14.9968 14.128 15.0477 14.2508 15.1382 14.3413C15.2287 14.4319 15.3515 14.4827 15.4795 14.4827H27.5164C27.6444 14.4827 27.7672 14.4319 27.8577 14.3414C27.9482 14.2509 27.999 14.1281 27.999 14.0001V0.482853C27.9991 0.419446 27.9867 0.356649 27.9624 0.298054C27.9382 0.239459 27.9027 0.186215 27.8578 0.141369C27.813 0.0965226 27.7598 0.0609533 27.7012 0.0366958C27.6426 0.0124384 27.5798 -3.13149e-05 27.5164 5.90558e-08Z" fill="#B0DAE4"/>
<path id="Trac&#195;&#169; 8906" d="M18.1295 18.5928C18.0875 18.5181 18.0264 18.4559 17.9524 18.4126C17.8785 18.3693 17.7943 18.3465 17.7086 18.3465H15.9313V6.27754C15.9313 6.14954 15.8804 6.02678 15.7899 5.93628C15.6994 5.84577 15.5766 5.79492 15.4486 5.79492H12.552C12.424 5.79492 12.3013 5.84577 12.2108 5.93628C12.1203 6.02678 12.0694 6.14954 12.0694 6.27754V18.346H10.2308C10.145 18.3459 10.0608 18.3687 9.98679 18.412C9.91278 18.4554 9.85166 18.5176 9.80971 18.5924C9.76776 18.6672 9.7465 18.7518 9.74813 18.8375C9.74976 18.9233 9.77422 19.007 9.81898 19.0802L13.5583 25.1956C13.6014 25.2662 13.6619 25.3245 13.7341 25.365C13.8062 25.4055 13.8876 25.4267 13.9703 25.4267C14.053 25.4267 14.1344 25.4055 14.2065 25.365C14.2787 25.3245 14.3392 25.2662 14.3823 25.1956L18.1211 19.0807C18.1657 19.0074 18.1899 18.9236 18.1914 18.8379C18.1928 18.7521 18.1715 18.6675 18.1295 18.5928ZM13.9696 24.0184L11.0916 19.3115H12.552C12.6799 19.3112 12.8024 19.2603 12.8927 19.1698C12.983 19.0793 13.0337 18.9567 13.0337 18.8289V6.76015H14.9651V18.8289C14.9651 18.9569 15.0159 19.0796 15.1064 19.1701C15.1969 19.2606 15.3197 19.3115 15.4477 19.3115H16.8488L13.9696 24.0184Z" fill="#B0DAE4"/>
</g>
</svg>
