<svg width="77" height="77" viewBox="0 0 77 77" fill="none" xmlns="http://www.w3.org/2000/svg">
<g clip-path="url(#clip0_1_28097)">
<path d="M76.9969 38.4963C76.9969 59.7583 59.7631 76.9991 38.5018 76.9991C17.2404 76.9991 0 59.7583 0 38.4963C0 17.2343 17.2404 0 38.5018 0C48.1872 0 57.0478 3.57937 63.8101 9.49094C68.773 13.8239 72.6121 19.4041 74.8337 25.7443C76.2369 29.733 76.9969 34.0269 76.9969 38.4963Z" fill="url(#paint0_radial_1_28097)"/>
<g style="mix-blend-mode:multiply">
<path d="M76.9998 38.5023C76.9998 59.7589 59.7595 76.9993 38.5028 76.9993C30.0667 76.9993 22.2709 74.2896 15.9395 69.6945C21.6395 72.6761 28.12 74.3686 34.9951 74.3686C57.7075 74.3686 76.123 55.9531 76.123 33.2407C76.123 32.0043 76.0703 30.7766 75.9564 29.5664C76.6403 32.434 76.9998 35.4243 76.9998 38.5023Z" fill="#FBD69E"/>
</g>
<path d="M25.7797 38.1012H25.9371C28.0813 38.1012 30.0192 39.0992 31.4255 40.7105C31.8495 41.1962 32.6426 40.9203 32.6426 40.2755V36.8246C32.6426 31.8861 29.6356 27.8828 25.9263 27.8828H25.7906C22.0812 27.8828 19.0742 31.8861 19.0742 36.8246V40.2755C19.0742 40.9203 19.8674 41.1962 20.2913 40.7105C21.6977 39.0992 23.6355 38.1012 25.7797 38.1012Z" fill="#87594A"/>
<path d="M51.0669 38.1012H51.2242C53.3684 38.1012 55.3063 39.0992 56.7126 40.7105C57.1366 41.1962 57.9298 40.9203 57.9298 40.2755V36.8246C57.9298 31.8861 54.9227 27.8828 51.2134 27.8828H51.0777C47.3684 27.8828 44.3613 31.8861 44.3613 36.8246V40.2755C44.3613 40.9203 45.1544 41.1962 45.5784 40.7105C46.9848 39.0992 48.9227 38.1012 51.0669 38.1012Z" fill="#87594A"/>
<path d="M63.2201 47.6782C62.9892 49.8891 62.4669 52.0149 61.6834 54.0072C58.112 63.1849 49.1897 69.684 38.7488 69.684H38.2507C27.816 69.684 18.8936 63.1849 15.3223 54.0133C14.5448 52.0149 14.0164 49.8891 13.7856 47.6782C13.6703 46.5605 14.7817 45.7405 15.8203 46.1536C23.7709 49.2938 36.3314 49.64 38.4998 49.64C40.6682 49.64 53.2347 49.2938 61.1853 46.1536C62.224 45.7405 63.3354 46.5605 63.2201 47.6782Z" fill="#87594A"/>
<path d="M63.2201 47.6782C62.9892 49.8891 62.4669 52.0149 61.6834 54.0072C55.2148 56.7648 47.3614 58.3744 38.9007 58.3744H38.0928C29.6382 58.3744 21.7908 56.7648 15.3223 54.0133C14.5448 52.0149 14.0164 49.8891 13.7856 47.6782C13.6703 46.5605 14.7817 45.7405 15.8203 46.1536C23.7709 49.2938 36.3314 49.64 38.4998 49.64C40.6682 49.64 53.2347 49.2938 61.1853 46.1536C62.224 45.7405 63.3354 46.5605 63.2201 47.6782Z" fill="white"/>
<path d="M15.8203 47.3229C23.7709 50.4631 36.3314 50.8094 38.4998 50.8094C40.6682 50.8094 53.2347 50.4631 61.1853 47.3229C62.0184 46.9916 62.8874 47.4591 63.1435 48.2318C63.167 48.0465 63.2006 47.8645 63.22 47.6782C63.3355 46.5605 62.2239 45.7405 61.1853 46.1536C53.2347 49.2938 40.6682 49.6401 38.4998 49.6401C36.3314 49.6401 23.7709 49.2938 15.8203 46.1536C14.7818 45.7405 13.6702 46.5605 13.7856 47.6782C13.8051 47.8644 13.8389 48.0462 13.8625 48.2311C14.1188 47.4589 14.9874 46.9917 15.8203 47.3229Z" fill="#87594A"/>
<g style="mix-blend-mode:multiply">
<path d="M74.8341 25.7436C74.4184 27.3807 73.4829 29.0177 71.807 30.5768C67.5911 34.0198 61.5173 33.526 58.4837 29.7583C55.4436 25.9905 54.4952 19.9101 61.9201 12.0432C62.6671 11.2702 63.2973 10.3737 63.8104 9.49023C68.7734 13.8232 72.6125 19.4034 74.8341 25.7436Z" fill="#FBD69E"/>
</g>
<path d="M62.0249 10.7471C63.7788 8.88685 64.858 6.27062 65.315 4.98622C65.4075 4.72606 65.7677 4.71584 65.875 4.97031C66.405 6.22596 67.5761 8.76673 69.0099 10.4382C70.9732 12.73 79.3296 21.9074 71.6297 29.2781C67.5348 32.7189 61.6383 32.2285 58.6879 28.4583C55.7397 24.6915 54.8154 18.6125 62.0249 10.7471Z" fill="url(#paint1_linear_1_28097)"/>
</g>
<defs>
<radialGradient id="paint0_radial_1_28097" cx="0" cy="0" r="1" gradientUnits="userSpaceOnUse" gradientTransform="translate(38.9857 33.3025) scale(38.4985 38.4997)">
<stop stop-color="#FDDB35"/>
<stop offset="0.4818" stop-color="#FCD934"/>
<stop offset="0.6553" stop-color="#FCD232"/>
<stop offset="0.779" stop-color="#FBC62E"/>
<stop offset="0.879" stop-color="#F9B528"/>
<stop offset="0.9637" stop-color="#F89F21"/>
<stop offset="1" stop-color="#F7941E"/>
</radialGradient>
<linearGradient id="paint1_linear_1_28097" x1="56.4922" y1="18.1899" x2="74.8311" y2="18.1899" gradientUnits="userSpaceOnUse">
<stop stop-color="#2E92DB"/>
<stop offset="0.0412" stop-color="#2D98DF"/>
<stop offset="0.1973" stop-color="#2BADED"/>
<stop offset="0.3513" stop-color="#2AB9F5"/>
<stop offset="0.5" stop-color="#2ABEF8"/>
<stop offset="0.6471" stop-color="#2AB9F5"/>
<stop offset="0.804" stop-color="#2BACEC"/>
<stop offset="0.9648" stop-color="#2D97DE"/>
<stop offset="1" stop-color="#2E92DB"/>
</linearGradient>
<clipPath id="clip0_1_28097">
<rect width="77" height="77" fill="white"/>
</clipPath>
</defs>
</svg>
