<svg width="38" height="38" viewBox="0 0 38 38" fill="none" xmlns="http://www.w3.org/2000/svg">
<path d="M11.7174 8.79146C11.5713 8.54606 11.3639 8.34282 11.1157 8.20168C10.8674 8.06054 10.5867 7.98633 10.3011 7.98633C10.0155 7.98633 9.7348 8.06054 9.48652 8.20168C9.23823 8.34282 9.03089 8.54606 8.8848 8.79146L0.176465 26.2081C0.0816004 26.3943 0.0245306 26.5974 0.00854568 26.8058C-0.00743925 27.0142 0.0179769 27.2236 0.0833286 27.4221C0.14868 27.6206 0.252675 27.8042 0.389317 27.9623C0.525958 28.1204 0.692544 28.2498 0.879468 28.3433C1.06639 28.4367 1.26996 28.4921 1.47843 28.5065C1.6869 28.5209 1.89615 28.4938 2.09412 28.4269C2.29209 28.36 2.47485 28.2546 2.63188 28.1167C2.78891 27.9789 2.9171 27.8113 3.00905 27.6236L5.7308 22.1659H14.8571L17.5868 27.6236C17.6787 27.8113 17.8069 27.9789 17.964 28.1167C18.121 28.2546 18.3038 28.36 18.5017 28.4269C18.6997 28.4938 18.9089 28.5209 19.1174 28.5065C19.3259 28.4921 19.5295 28.4367 19.7164 28.3433C19.9033 28.2498 20.0699 28.1204 20.2065 27.9623C20.3432 27.8042 20.4472 27.6206 20.5125 27.4221C20.5779 27.2236 20.6033 27.0142 20.5873 26.8058C20.5713 26.5974 20.5142 26.3943 20.4194 26.2081L11.7174 8.79146ZM7.31413 18.9992L10.2924 13.0395L13.2738 18.9992H7.31413Z" fill="#B0DAE4"/>
<path d="M36.416 12.666C35.9961 12.666 35.5934 12.8328 35.2964 13.1298C34.9995 13.4267 34.8327 13.8294 34.8327 14.2493V14.2905C33.4704 13.2427 31.8013 12.6718 30.0827 12.666C27.9831 12.666 25.9694 13.5001 24.4848 14.9848C23.0001 16.4694 22.166 18.4831 22.166 20.5827C22.166 22.6823 23.0001 24.6959 24.4848 26.1806C25.9694 27.6653 27.9831 28.4993 30.0827 28.4993C31.8013 28.4935 33.4704 27.9227 34.8327 26.8748V26.916C34.8327 27.3359 34.9995 27.7387 35.2964 28.0356C35.5934 28.3325 35.9961 28.4993 36.416 28.4993C36.8359 28.4993 37.2387 28.3325 37.5356 28.0356C37.8325 27.7387 37.9993 27.3359 37.9993 26.916V14.2493C37.9993 13.8294 37.8325 13.4267 37.5356 13.1298C37.2387 12.8328 36.8359 12.666 36.416 12.666ZM30.0827 25.3327C29.1432 25.3327 28.2249 25.0541 27.4437 24.5322C26.6626 24.0102 26.0538 23.2684 25.6943 22.4004C25.3347 21.5325 25.2407 20.5774 25.424 19.656C25.6072 18.7346 26.0596 17.8882 26.7239 17.2239C27.3882 16.5596 28.2346 16.1072 29.156 15.924C30.0774 15.7407 31.0325 15.8347 31.9004 16.1943C32.7684 16.5538 33.5102 17.1626 34.0322 17.9437C34.5541 18.7249 34.8327 19.6432 34.8327 20.5827C34.8327 21.8425 34.3322 23.0506 33.4414 23.9414C32.5506 24.8322 31.3425 25.3327 30.0827 25.3327Z" fill="#B0DAE4"/>
</svg>
