<svg width="20" height="20" viewBox="0 0 20 20" fill="none" xmlns="http://www.w3.org/2000/svg">
<path d="M16.6148 7.23366C16.6057 7.20699 16.5982 7.18116 16.5873 7.15533C16.5465 7.06699 16.4957 6.98283 16.424 6.91116L11.424 1.91116C11.3523 1.83949 11.2682 1.78866 11.1798 1.74783C11.1548 1.73616 11.1282 1.72949 11.1015 1.72033C11.0315 1.69699 10.9598 1.68199 10.8857 1.67783C10.8673 1.67616 10.8515 1.66699 10.834 1.66699H5.00065C4.08148 1.66699 3.33398 2.41449 3.33398 3.33366V16.667C3.33398 17.5862 4.08148 18.3337 5.00065 18.3337H15.0007C15.9198 18.3337 16.6673 17.5862 16.6673 16.667V7.50033C16.6673 7.48283 16.6582 7.46699 16.6565 7.44866C16.6523 7.37533 16.6382 7.30366 16.6148 7.23366ZM13.8223 6.66699H11.6673V4.51199L13.8223 6.66699ZM5.00065 16.667V3.33366H10.0007V7.50033C10.0007 7.96116 10.3732 8.33366 10.834 8.33366H15.0007L15.0023 16.667H5.00065Z" fill="#B0DAE4"/>
</svg>
