<svg width="20" height="20" viewBox="0 0 20 20" fill="none" xmlns="http://www.w3.org/2000/svg">
<g id="icons / bx-image">
<path id="Vector" d="M6.24902 9.16602C6.93938 9.16602 7.49902 8.60637 7.49902 7.91602C7.49902 7.22566 6.93938 6.66602 6.24902 6.66602C5.55867 6.66602 4.99902 7.22566 4.99902 7.91602C4.99902 8.60637 5.55867 9.16602 6.24902 9.16602Z" fill="#B0DAE4"/>
<path id="Vector_2" d="M8.74902 11.6673L7.49902 10.0007L4.99902 13.334H7.49902H9.99902H14.999L11.249 8.33398L8.74902 11.6673Z" fill="#B0DAE4"/>
<path id="Vector_3" d="M16.666 3.33398H3.33268C2.41352 3.33398 1.66602 4.08148 1.66602 5.00065V15.0007C1.66602 15.9198 2.41352 16.6673 3.33268 16.6673H16.666C17.5852 16.6673 18.3327 15.9198 18.3327 15.0007V5.00065C18.3327 4.08148 17.5852 3.33398 16.666 3.33398ZM3.33268 15.0007V5.00065H16.666L16.6677 15.0007H3.33268Z" fill="#B0DAE4"/>
</g>
</svg>
