<svg width="37" height="30" viewBox="0 0 37 30" fill="none" xmlns="http://www.w3.org/2000/svg">
<g clip-path="url(#clip0_88_43240)">
<path d="M30.8337 8.32031V9.84507C33.3467 11.2706 34.8806 13.1238 34.8806 15.1813C34.8806 18.5737 30.6564 21.4779 24.6669 22.6826V26.3873C31.8512 24.9236 37.0003 20.9672 37.0003 16.3246C37.0003 13.1457 34.6184 10.3101 30.8337 8.32031ZM12.3334 22.6595C6.34389 21.4563 2.1197 18.558 2.1197 15.181C2.1197 13.1379 3.66149 11.2856 6.16656 9.84477V8.32031C2.38189 10.2794 0 13.1154 0 16.2789C0 20.9214 5.14915 24.8779 12.3334 26.3416V30.0008L20.0418 24.6646L12.3334 19.3296V22.6595Z" fill="#B0DAE4" fill-opacity="0.5"/>
<path d="M9.67425 2.98078L25.5417 0.00766701C25.6007 -0.00321297 25.6612 -0.00250765 25.7198 0.00974621C25.7784 0.0220001 25.8341 0.0455596 25.8835 0.0790804C25.9329 0.112601 25.9752 0.155427 26.0079 0.205108C26.0406 0.254789 26.0631 0.310354 26.074 0.368626L28.5715 13.4017C28.5825 13.46 28.5818 13.5198 28.5694 13.5778C28.557 13.6358 28.5332 13.6908 28.4993 13.7397C28.4654 13.7886 28.4221 13.8304 28.3718 13.8627C28.3216 13.895 28.2654 13.9172 28.2065 13.9281L12.339 16.9009C12.2801 16.9118 12.2196 16.9111 12.1609 16.8988C12.1023 16.8866 12.0467 16.863 11.9972 16.8295C11.9478 16.796 11.9055 16.7531 11.8729 16.7035C11.8402 16.6538 11.8177 16.5982 11.8067 16.5399L9.30956 3.50687C9.29852 3.44859 9.2992 3.38872 9.31157 3.33069C9.32394 3.27266 9.34776 3.21761 9.38166 3.16869C9.41555 3.11978 9.45887 3.07795 9.50913 3.0456C9.55939 3.01325 9.6156 2.99102 9.67456 2.98018L9.67425 2.98078ZM22.8542 2.69923C22.63 2.74087 22.4233 2.84731 22.2603 3.0051C22.0973 3.16289 21.9852 3.36494 21.9383 3.5857C21.8914 3.80646 21.9118 4.03601 21.9968 4.24534C22.0818 4.45467 22.2276 4.63438 22.4159 4.76173C22.6042 4.88909 22.8264 4.95837 23.0545 4.96083C23.2826 4.96328 23.5063 4.8988 23.6973 4.77553C23.8884 4.65226 24.0382 4.47574 24.1277 4.26828C24.2173 4.06083 24.2427 3.83177 24.2007 3.61005C24.1728 3.4628 24.1158 3.32243 24.033 3.19695C23.9502 3.07148 23.8433 2.96337 23.7182 2.87879C23.5932 2.7942 23.4525 2.73481 23.3043 2.704C23.156 2.67319 23.0031 2.67157 22.8542 2.69923ZM11.9798 12.5712L16.5833 5.61729L20.0769 9.07138L22.0573 6.27394L27.2791 11.5127L25.2616 0.978649L10.2911 3.78361L11.9798 12.5712Z" fill="#B0DAE4" fill-opacity="0.5"/>
</g>
<defs>
<clipPath id="clip0_88_43240">
<rect width="37" height="30" fill="white"/>
</clipPath>
</defs>
</svg>
