<svg width="43" height="43" viewBox="0 0 43 43" fill="none" xmlns="http://www.w3.org/2000/svg">
<g id="icons / bx-lock-alt">
<path id="Vector" d="M21.0499 3.50781C16.2137 3.50781 12.2791 7.44241 12.2791 12.2786V17.5411H10.5249C8.59009 17.5411 7.0166 19.1146 7.0166 21.0495V35.0828C7.0166 37.0177 8.59009 38.5911 10.5249 38.5911H31.5749C33.5098 38.5911 35.0833 37.0177 35.0833 35.0828V21.0495C35.0833 19.1146 33.5098 17.5411 31.5749 17.5411H29.8208V12.2786C29.8208 7.44241 25.8862 3.50781 21.0499 3.50781ZM31.5749 21.0495L31.5784 35.0828H10.5249V21.0495H31.5749ZM15.7874 17.5411V12.2786C15.7874 9.37725 18.1485 7.01615 21.0499 7.01615C23.9513 7.01615 26.3124 9.37725 26.3124 12.2786V17.5411H15.7874Z" fill="#FFA6A6"/>
</g>
</svg>
