<svg width="34" height="34" viewBox="0 0 34 34" fill="none" xmlns="http://www.w3.org/2000/svg">
<g id="Group 2904">
<path id="Trac&#195;&#169; 12347" d="M29.0211 4.97924C25.833 1.79109 21.5089 -3.35926e-08 17.0002 0C12.4915 3.35926e-08 8.16739 1.79109 4.97924 4.97924C1.79109 8.16739 3.35926e-08 12.4915 0 17.0002C-3.35926e-08 21.5089 1.79109 25.833 4.97924 29.0211C8.16739 32.2093 12.4915 34.0004 17.0002 34.0004C21.5089 34.0004 25.833 32.2093 29.0211 29.0211C32.2093 25.833 34.0004 21.5089 34.0004 17.0002C34.0004 12.4915 32.2093 8.16739 29.0211 4.97924ZM17 33.0042C13.8348 33.0041 10.7406 32.0655 8.10887 30.3069C5.47711 28.5484 3.42591 26.0489 2.21466 23.1246C1.00341 20.2003 0.686516 16.9825 1.30404 13.8781C1.92156 10.7737 3.44578 7.92209 5.68393 5.68393C7.92209 3.44578 10.7737 1.92156 13.8781 1.30404C16.9825 0.686516 20.2003 1.00341 23.1246 2.21466C26.0489 3.42591 28.5484 5.47711 30.3069 8.10887C32.0655 10.7406 33.0041 13.8348 33.0042 17C32.9995 21.2431 31.3118 25.3111 28.3115 28.3115C25.3111 31.3118 21.2431 32.9995 17 33.0042Z" fill="#31C7E0"/>
<path id="Trac&#195;&#169; 12348" d="M27.5504 9.37812C27.5082 9.3197 27.4538 9.27114 27.3909 9.2358C27.3281 9.20047 27.2583 9.1792 27.1865 9.17346C27.1146 9.16772 27.0423 9.17765 26.9747 9.20256C26.907 9.22748 26.8456 9.26678 26.7946 9.31775L9.3158 26.7966C9.26482 26.8476 9.22552 26.909 9.20061 26.9766C9.17569 27.0443 9.16576 27.1165 9.1715 27.1884C9.17724 27.2603 9.19852 27.33 9.23385 27.3929C9.26919 27.4557 9.31774 27.5101 9.37617 27.5524C11.8838 29.3608 14.9531 30.2176 18.0348 29.9696C21.1164 29.7216 24.0092 28.3849 26.1953 26.1988C28.3815 24.0127 29.7182 21.1199 29.9662 18.0382C30.2142 14.9565 29.3573 11.8872 27.5489 9.3796L27.5504 9.37812ZM25.4985 25.4994C23.5479 27.4439 20.9897 28.6611 18.2504 28.9481C15.5111 29.2351 12.7562 28.5745 10.4449 27.0765L27.0757 10.4457C28.5889 12.752 29.2585 15.5104 28.971 18.2537C28.6836 20.9971 27.4569 23.5568 25.4985 25.4994Z" fill="#31C7E0"/>
<path id="Trac&#195;&#169; 12349" d="M24.8258 6.81249C24.82 6.74061 24.7987 6.67084 24.7633 6.60799C24.728 6.54515 24.6794 6.49072 24.621 6.44847C22.2564 4.74562 19.3895 3.88387 16.4779 4.00073C13.5663 4.11759 10.7777 5.20632 8.55713 7.09318C8.50632 7.13531 8.46439 7.18712 8.43377 7.24559C8.40315 7.30407 8.38447 7.36804 8.37879 7.4338C8.37312 7.49956 8.38057 7.56579 8.40072 7.62865C8.42087 7.6915 8.45331 7.74973 8.49615 7.79994C8.539 7.85015 8.5914 7.89134 8.6503 7.92112C8.70921 7.9509 8.77344 7.96867 8.83928 7.97341C8.90511 7.97814 8.97123 7.96975 9.03379 7.94871C9.09635 7.92767 9.15411 7.8944 9.2037 7.85085C11.1727 6.16342 13.6362 5.16067 16.2239 4.99332C18.8117 4.82598 21.3838 5.50307 23.5537 6.92284L6.92294 23.5536C5.50312 21.3837 4.82598 18.8116 4.99333 16.2238C5.16068 13.6361 6.16346 11.1726 7.85094 9.2036C7.93447 9.10285 7.97499 8.97328 7.96374 8.8429C7.95249 8.71251 7.89037 8.5918 7.79083 8.50685C7.69128 8.42189 7.5623 8.37954 7.43177 8.38893C7.30123 8.39832 7.17964 8.45871 7.09328 8.55703C5.20635 10.7776 4.11759 13.5661 4.00073 16.4778C3.88387 19.3894 4.74566 22.2563 6.44857 24.6209C6.4908 24.6793 6.54522 24.7279 6.60807 24.7633C6.67092 24.7986 6.7407 24.8199 6.81258 24.8257C6.82592 24.8257 6.83888 24.8257 6.85221 24.8257C6.98429 24.8256 7.11096 24.7731 7.20438 24.6798L24.6832 7.20095C24.7334 7.15018 24.7721 7.08923 24.7967 7.02221C24.8213 6.95519 24.8312 6.88367 24.8258 6.81249Z" fill="#31C7E0"/>
</g>
</svg>
