<svg height="74.846mm" viewBox="0 0 221.838 212.1619" width="78.2595mm" xmlns="http://www.w3.org/2000/svg" xmlns:xlink="http://www.w3.org/1999/xlink"><linearGradient id="a" gradientUnits="userSpaceOnUse" x1="110.919" x2="110.919" y2="212.1619"><stop offset="0" stop-color="#feeb17"/><stop offset="1" stop-color="#ffcc07"/></linearGradient><path d="m221.838 106.081c0 11.1975-15.6607 19.7829-18.9412 29.8869-3.4 10.472 4.105 26.6006-2.2388 35.3171-6.407 8.8038-24.108 6.6179-32.9116 13.025-8.7165 6.3436-12.072 23.8881-22.5441 27.2883-10.1039 3.2808-23.0856-8.8338-34.2833-8.8338s-24.179 12.1146-34.2831 8.8338c-10.4721-3.4-13.8276-20.9447-22.5441-27.2883-8.8038-6.4071-26.5048-4.2212-32.9118-13.025-6.3436-8.7165 1.1617-24.8451-2.2386-35.3169-3.2807-10.104-18.9414-18.6894-18.9414-29.8871s15.6607-19.783 18.9414-29.8869c3.4-10.4721-4.105-26.6005 2.2386-35.3172 6.407-8.8037 24.108-6.6179 32.9118-13.0249 8.7165-6.3436 12.072-23.8882 22.5439-27.2883 10.1043-3.2809 23.0856 8.8338 34.2833 8.8338s24.1792-12.1147 34.2832-8.834c10.472 3.4 13.8277 20.9449 22.5442 27.2885 8.8036 6.4072 26.5046 4.2213 32.9118 13.0249 6.3436 8.7166-1.1617 24.8451 2.2384 35.317 3.2807 10.104 18.9414 18.6894 18.9414 29.8871z" fill="url(#a)"/><g fill="#1d1d1b"><path d="m36.0131 105.7362q1.7578-5.9253 3.4287-12.0078 1.67-6.0805 3.7041-12.2832.6885-.2065 1.7227-.4307t2.2051-.4135q1.17-.189 2.3945-.293a20.2949 20.2949 0 0 1 2.3252-.0689q.6212.0353 1.3447.0689t1.4981.1382a12.316 12.316 0 0 1 1.5508.31 7.7328 7.7328 0 0 1 1.4648.5513 6.0854 6.0854 0 0 1 2.3076 2.188 6.9512 6.9512 0 0 1 .8965 3.876 10.2532 10.2532 0 0 1 -.4482 2.9463 10.02 10.02 0 0 1 -1.3777 2.8422 10.7083 10.7083 0 0 1 -2.3945 2.4463 12.467 12.467 0 0 1 -3.4629 1.792q.24.6549.5684 1.585.3266.93.7236 2.0156.3956 1.0854.8438 2.2393t.8613 2.2568h-1.878c-.5849 0-1.166.0122-1.7392.0347q-.8628.0343-1.7578.0859-.8966.0521-1.86.1206-.3442-.8269-.7412-1.7568t-.7744-1.8955q-.3793-.9639-.7412-1.895t-.6379-1.7227c-.0918 0-.2236-.0054-.3955-.0171a1.0893 1.0893 0 0 1 -.3281-.0517q-.4819 1.2061-.878 2.1708t-.7236 1.8086q-.328.8452-.6553 1.62t-.6718 1.6367q-.6549-.0345-1.4639-.0347t-1.6543.0171q-.8437.0183-1.6885.0518-.8442.0348-1.5679.0685zm10.7158-12.61a9.1472 9.1472 0 0 0 2.9288-.1206 4.4382 4.4382 0 0 0 2.205-1.0855 5.5744 5.5744 0 0 0 1.12-1.5332 5.0506 5.0506 0 0 0 .5507-1.8091 2.6056 2.6056 0 0 0 -.3095-1.5849 1.8372 1.8372 0 0 0 -1.4649-.8272 5.1864 5.1864 0 0 0 -1.4638 0 5.6529 5.6529 0 0 0 -1.6709.4824q-.4834 1.6539-.9483 3.2388t-.9471 3.239z"/><path d="m72.7084 81.3417q-.5859 1.7922-1.292 3.98t-1.3789 4.4619q-.6708 2.2741-1.2744 4.479t-1.0166 3.9974a1.95 1.95 0 0 0 -.0176 1.12 1.148 1.148 0 0 0 .4659.5859 1.6119 1.6119 0 0 0 .7236.2237q.4131.0351.792.0346a8.87 8.87 0 0 0 1.2578-.1377 2.5529 2.5529 0 0 0 .9473-.3794 2.4267 2.4267 0 0 0 .707-.7407 5.5369 5.5369 0 0 0 .5332-1.1885q.5859-1.6882 1.2236-3.8764t1.2237-4.479q.5844-2.2911 1.1025-4.4966.5157-2.2045.8955-3.9966 2.24-.172 3.9619-.1553t3.5489.1895q-.5157 1.8956-1.0674 4.0659t-1.1544 4.4265q-.6036 2.2574-1.24 4.48-.6385 2.2222-1.2929 4.1861a16.9328 16.9328 0 0 1 -1.9463 4.29 7.8022 7.8022 0 0 1 -2.55 2.4463 9.1276 9.1276 0 0 1 -3.3594 1.1025 32.4353 32.4353 0 0 1 -4.3418.2583 13.2807 13.2807 0 0 1 -3.0146-.31 7.3413 7.3413 0 0 1 -2.2569-.896 3.9461 3.9461 0 0 1 -1.5156-1.6709 5.8649 5.8649 0 0 1 -.5166-2.1016 9.8515 9.8515 0 0 1 .1377-2.3086q.2066-1.1887.4473-2.3257.4482-1.9643 1.0166-4.0659t1.1543-4.1176q.5859-2.0157 1.1543-3.8072t.9824-3.2046q1.9291-.1713 3.7207-.1894a31.4966 31.4966 0 0 1 3.2392.1201z"/><path d="m82.1147 105.702q1.6538-6.0292 3.3076-12.0424t3.79-12.3179q.6885-.2066 1.6016-.4478t1.9815-.4135q1.0678-.1722 2.205-.2754a18.8263 18.8263 0 0 1 2.2744-.0689q.8262.0345 1.8262.103a11.3694 11.3694 0 0 1 2.0156.3277 10.0551 10.0551 0 0 1 1.9639.7236 5.9393 5.9393 0 0 1 1.6885 1.24 5.762 5.762 0 0 1 1.1885 1.9467 8.4586 8.4586 0 0 1 .4824 2.8252 11.9043 11.9043 0 0 1 -1.0684 4.9961 10.9539 10.9539 0 0 1 -3.1006 3.9971 13.2115 13.2115 0 0 1 -4.98 2.4463 16.8786 16.8786 0 0 1 -6.7011.2754q-.4484 1.31-.7412 2.1709t-.5332 1.55q-.2418.69-.4825 1.3437t-.5859 1.5161h-2.997q-1.6895.0006-3.1353.1041zm10.2676-12.4731a8.7094 8.7094 0 0 0 2.9111-.0689 4.9217 4.9217 0 0 0 2.2227-1.0336 5.2574 5.2574 0 0 0 1.1025-1.55 5.14 5.14 0 0 0 .5166-1.8433 2.795 2.795 0 0 0 -.3447-1.6367 1.9409 1.9409 0 0 0 -1.4815-.8964 7.01 7.01 0 0 0 -1.4638.0171 5.2634 5.2634 0 0 0 -1.6368.4653q-.4833 1.62-.913 3.2559-.4322 1.6371-.9131 3.2906z"/><path d="m109.99 80.9286q2.0668-.172 4.3418-.2759 2.2734-.1032 4.6162-.1548t4.7041-.0175q2.3585.0351 4.6338.1723-.5523 1.86-1.0508 3.6353t-.8789 3.5317q-1.2056-.0689-2.5664-.0864t-2.7744.0517q-.62 2.1366-1.292 4.376t-1.3438 4.5137q-.6708 2.2741-1.3261 4.5308t-1.2061 4.3588a30.5779 30.5779 0 0 0 -3.29-.1035q-1.74.0345-3.291.1724.5171-2.0333 1.0507-4.2383t1.0684-4.4966q.5333-2.291 1.085-4.5825t1.1377-4.4961q-1.3111-.0689-2.7227-.0176t-2.7217.1206q.2754-1.7226.7061-3.48a27.5553 27.5553 0 0 1 1.1201-3.5141z"/><path d="m138.1743 81.3417q-.586 1.7922-1.292 3.98-.7075 2.1885-1.3789 4.4619t-1.2745 4.479q-.6035 2.2053-1.0166 3.9971a1.9486 1.9486 0 0 0 -.0175 1.12 1.1478 1.1478 0 0 0 .4658.5859 1.6123 1.6123 0 0 0 .7236.2237q.4131.0351.792.0346a8.87 8.87 0 0 0 1.2578-.1377 2.5529 2.5529 0 0 0 .9473-.3794 2.4255 2.4255 0 0 0 .707-.7407 5.532 5.532 0 0 0 .5332-1.1885q.5861-1.6882 1.2237-3.8764t1.2236-4.479q.5844-2.2911 1.1025-4.4966.5157-2.2045.8955-3.9966 2.24-.172 3.962-.1553t3.5488.1895q-.5157 1.8956-1.0674 4.0659t-1.1543 4.4272q-.6034 2.2574-1.24 4.48-.6387 2.2222-1.293 4.1861a16.9328 16.9328 0 0 1 -1.9463 4.29 7.8012 7.8012 0 0 1 -2.55 2.4463 9.1276 9.1276 0 0 1 -3.3594 1.1025 32.4342 32.4342 0 0 1 -4.3418.2583 13.2807 13.2807 0 0 1 -3.0146-.31 7.3423 7.3423 0 0 1 -2.2569-.896 3.9461 3.9461 0 0 1 -1.5156-1.6709 5.8649 5.8649 0 0 1 -.5166-2.1016 9.8515 9.8515 0 0 1 .1377-2.3086q.2065-1.1887.4473-2.3257.4482-1.9643 1.0166-4.0659t1.1543-4.1176q.5859-2.0157 1.1543-3.8072t.9824-3.2046q1.9292-.1713 3.7207-.1894a31.5 31.5 0 0 1 3.2393.1197z"/><path d="m147.0288 105.7362q1.7577-5.9253 3.4287-12.0078 1.67-6.0805 3.7041-12.2832.6885-.2065 1.7226-.4307t2.2051-.4135q1.17-.189 2.3945-.293a20.2956 20.2956 0 0 1 2.3252-.0689q.6211.0353 1.3448.0689.7221.0351 1.498.1382a12.316 12.316 0 0 1 1.5508.31 7.73 7.73 0 0 1 1.4648.5513 6.0854 6.0854 0 0 1 2.3076 2.188 6.9512 6.9512 0 0 1 .8965 3.876 10.2532 10.2532 0 0 1 -.4482 2.9463 10.0167 10.0167 0 0 1 -1.3779 2.8422 10.7109 10.7109 0 0 1 -2.3946 2.4463 12.4642 12.4642 0 0 1 -3.4629 1.792q.24.6549.5684 1.585t.7236 2.0156q.3956 1.0854.8438 2.2393t.8613 2.2568h-1.8779c-.585 0-1.166.0122-1.7393.0347-.5752.0229-1.16.0517-1.7578.0859s-1.2178.0752-1.86.1206q-.3442-.8269-.7413-1.7568-.3954-.9309-.7744-1.8955t-.7412-1.895q-.3618-.93-.6377-1.7227c-.0918 0-.2236-.0054-.3955-.0171a1.09 1.09 0 0 1 -.3281-.0517q-.482 1.2061-.8779 2.1708t-.7237 1.8086q-.328.8452-.6552 1.62t-.6719 1.6367q-.6548-.0345-1.4639-.0347t-1.6543.0171q-.8437.0183-1.6885.0518-.844.0348-1.5676.0685zm10.7158-12.61a9.1468 9.1468 0 0 0 2.9287-.1206 4.4386 4.4386 0 0 0 2.2051-1.0855 5.5762 5.5762 0 0 0 1.12-1.5332 5.0508 5.0508 0 0 0 .5508-1.8091 2.6056 2.6056 0 0 0 -.31-1.5849 1.837 1.837 0 0 0 -1.4649-.8272 5.1863 5.1863 0 0 0 -1.4638 0 5.6538 5.6538 0 0 0 -1.6709.4824q-.4834 1.6539-.9483 3.2388t-.9467 3.239z"/><path d="m180.4506 91.6786a17.7312 17.7312 0 0 1 1.9473-.19q1.0854-.0519 2.1875-.0864t2.1367-.0171q1.0327.0177 1.8262.0518-.3794 1.31-.707 2.4116-.3267 1.1039-.81 2.4121-.7573-.0336-1.8262-.0688t-2.1875-.0171q-1.1206.0175-2.1709.0513-1.0518.0351-1.8086.0693-.2769.8958-.5517 1.7568t-.5504 1.7579q.8262 0 1.9638-.0341t2.3428-.0865q1.2055-.0512 2.3946-.1377t2.1533-.1894q-.62 1.62-1.292 3.1182t-1.4985 3.0838q-1.7228.1034-3.6348.1377t-3.7725.0518q-1.8618.0176-3.5322 0t-2.8769-.0176q.7572-3.0315 1.4814-6.03t1.499-6.0293q.7749-3.0315 1.6543-6.0986.8775-3.0666 1.9121-6.271 1.7916-.2754 3.91-.4307t4.29-.2241q2.1709-.0688 4.29-.0517t3.8759.0517q-.69 1.689-1.3613 3.4458t-1.3262 3.48q-.8613-.0344-1.9814-.0347t-2.3252.0347q-1.2071.0345-2.36.0859-1.1558.0521-2.0849.1553-.31.93-.62 1.9121t-.5867 1.947z"/><path d="m33.4985 139.8646q.8275-3.1009 1.6025-5.978t1.585-5.72q.8085-2.8425 1.6885-5.7539.8774-2.9113 1.9462-6.1162a20.2533 20.2533 0 0 1 3.0147-.8438 18.1157 18.1157 0 0 1 3.2559-.3965 23.5315 23.5315 0 0 1 3.7216.2242 9.5035 9.5035 0 0 1 3.29 1.0678 7.3389 7.3389 0 0 1 2.498 2.3086 8.78 8.78 0 0 1 1.3438 3.9107 14.262 14.262 0 0 1 -.086 4.0141 17.3449 17.3449 0 0 1 -1.1367 3.9795 18.039 18.039 0 0 1 -2.05 3.6353 14.8945 14.8945 0 0 1 -8.2178 5.7021 23.2608 23.2608 0 0 1 -6.3574.8618 20.11 20.11 0 0 1 -3.3076-.2588 21.8223 21.8223 0 0 1 -2.7907-.6369zm8.1318-5.2719a6.7 6.7 0 0 0 3.3418-.7925 8.8527 8.8527 0 0 0 2.6875-2.2051 10.762 10.762 0 0 0 1.792-3.1523 10.4457 10.4457 0 0 0 .6543-3.6353 4.3 4.3 0 0 0 -.2412-1.55 2.8558 2.8558 0 0 0 -.62-.9995 2.3176 2.3176 0 0 0 -.8614-.5513 3.6384 3.6384 0 0 0 -.9648-.2065 4.1859 4.1859 0 0 0 -.9814.0517 5.1036 5.1036 0 0 0 -.9131.2237q-1.0342 3.1011-1.9639 6.3916t-1.9301 6.4255z"/><path d="m66.9545 126.5648a17.7353 17.7353 0 0 1 1.9473-.1894q1.0854-.052 2.1875-.0864t2.1367-.0171q1.0328.0176 1.8262.0517-.3793 1.31-.707 2.4116-.3267 1.1039-.81 2.4122-.7574-.0337-1.8262-.0689t-2.1875-.0171q-1.1206.0176-2.1709.0513-1.0518.0351-1.8086.0693-.2768.8958-.5517 1.7569t-.5508 1.7573q.8262 0 1.9639-.0342t2.3427-.0864q1.2056-.0513 2.3946-.1377t2.1533-.19q-.62 1.62-1.292 3.1182t-1.499 3.084q-1.7227.1032-3.6348.1377t-3.7725.0517q-1.8618.0176-3.5322 0t-2.8769-.0176q.7572-3.0314 1.4814-6.03t1.499-6.0293q.7749-3.0315 1.6543-6.0987.8775-3.0666 1.9121-6.271 1.7916-.2754 3.91-.4306t4.29-.2241q2.171-.0689 4.29-.0518t3.8759.0518q-.69 1.6889-1.3613 3.4458t-1.3262 3.48q-.8613-.0343-1.9814-.0346t-2.3252.0346q-1.2071.0345-2.36.086-1.1559.0519-2.085.1552-.3105.93-.62 1.9122t-.5857 1.9474z"/><path d="m83.1479 134.662q.5508.1032 1.2754.2065.7221.1033 1.4814.1553.7573.0513 1.4981.0513t1.3613-.0342a6.3638 6.3638 0 0 0 2.3262-.5342 2.0109 2.0109 0 0 0 1.1025-1.0678 1.5877 1.5877 0 0 0 -.3105-1.43 5.6591 5.6591 0 0 0 -1.9463-1.585 11.4775 11.4775 0 0 1 -3.05-2.3428 5.5353 5.5353 0 0 1 -1.2578-3.2734 5.3381 5.3381 0 0 1 .1728-1.981 6.9523 6.9523 0 0 1 .7578-1.809 7.6632 7.6632 0 0 1 2.0332-2.3257 12.6778 12.6778 0 0 1 2.8252-1.6367 18.03 18.03 0 0 1 3.2383-1.0166 27.0562 27.0562 0 0 1 3.2051-.4995 24.59 24.59 0 0 1 3.3935-.1036q1.6026.07 3.3936.2412l-1.791 7.0293a11.4907 11.4907 0 0 0 -1.4649-.2241 13.56 13.56 0 0 0 -1.8086-.0517 15.3435 15.3435 0 0 0 -1.8095.1723 5.4549 5.4549 0 0 0 -1.4639.4136 5.7207 5.7207 0 0 0 -1.6709 1.3262 2.73 2.73 0 0 0 -.707 1.9468 1.4936 1.4936 0 0 0 .5 1.1025 6.53 6.53 0 0 0 1.1885.896 14.7662 14.7662 0 0 0 1.3955.7407 6.361 6.361 0 0 1 1.12.6377q.5508.4131 1.1367.8267a6.7456 6.7456 0 0 1 1.0508.9131 3.4891 3.4891 0 0 1 .707 1.12 2.8512 2.8512 0 0 1 .1377 1.4126 4.4561 4.4561 0 0 1 -.3105 1.1367 6.711 6.711 0 0 1 -.5508 1.0683 9.6021 9.6021 0 0 1 -3.6006 2.9458 17.2617 17.2617 0 0 1 -4.6865 1.4644 25.6253 25.6253 0 0 1 -5.0645.3276 30.8432 30.8432 0 0 1 -4.7383-.5z"/><path d="m107.267 115.8148q2.067-.172 4.3418-.2758t4.6162-.1548q2.3438-.052 4.7041-.0176 2.3585.0351 4.6338.1724-.5521 1.86-1.0507 3.6352t-.879 3.5317q-1.2056-.0689-2.5664-.0864t-2.7744.0518q-.62 2.1364-1.292 4.376-.6708 2.24-1.3437 4.5136-.671 2.2741-1.3262 4.5308t-1.206 4.3589a30.554 30.554 0 0 0 -3.29-.1035q-1.74.0343-3.291.1723.517-2.0331 1.0508-4.2383t1.0683-4.4965q.5333-2.2911 1.085-4.5826t1.1377-4.4961q-1.311-.0689-2.7227-.0175t-2.7216.1206q.2754-1.7227.706-3.48a27.5713 27.5713 0 0 1 1.12-3.5142z"/><path d="m138.5873 115.0912a9.93 9.93 0 0 1 4.6163.93 7.7278 7.7278 0 0 1 3.05 2.6528 9.1027 9.1027 0 0 1 1.3955 4.0142 15.3833 15.3833 0 0 1 -.3106 5.0478 19.9728 19.9728 0 0 1 -2.0322 5.5127 16.4125 16.4125 0 0 1 -3.3428 4.2554 14.4546 14.4546 0 0 1 -4.48 2.7563 14.8333 14.8333 0 0 1 -5.4433.9825 8.5193 8.5193 0 0 1 -4.2725-1.0166 7.74 7.74 0 0 1 -2.8428-2.7393 10.2522 10.2522 0 0 1 -1.3613-4.0142 15.0737 15.0737 0 0 1 .1729-4.8408 18.9427 18.9427 0 0 1 2.0322-5.8232 15.5547 15.5547 0 0 1 3.3945-4.2207 14.0531 14.0531 0 0 1 4.3926-2.584 15.1661 15.1661 0 0 1 5.0315-.9129zm-1.8613 7.89a4.4829 4.4829 0 0 0 -2.1191.5171 6.3069 6.3069 0 0 0 -1.7569 1.378 8.8083 8.8083 0 0 0 -1.3261 1.9638 10.367 10.367 0 0 0 -.8272 2.2744 6.09 6.09 0 0 0 -.2246 2.1534 5.4893 5.4893 0 0 0 .4824 1.895 3.4884 3.4884 0 0 0 1.1026 1.3608 2.586 2.586 0 0 0 1.6718.4824 4.3715 4.3715 0 0 0 1.9463-.5683 7.9407 7.9407 0 0 0 1.8262-1.3784 9.1741 9.1741 0 0 0 1.4815-1.9639 9.327 9.327 0 0 0 .9482-2.36 7.5375 7.5375 0 0 0 .2061-2.2221 4.7976 4.7976 0 0 0 -.4649-1.8433 2.9772 2.9772 0 0 0 -1.1367-1.2407 3.446 3.446 0 0 0 -1.8096-.4481z"/><path d="m169.3559 123.5673a10.1749 10.1749 0 0 0 -4.3408-.3618 10.81 10.81 0 0 0 -4.0151 1.3608 10.2257 10.2257 0 0 0 -3.1347 2.8252 9.6053 9.6053 0 0 0 -1.7061 4.0317 3.89 3.89 0 0 0 .3789 2.3081 2.8975 2.8975 0 0 0 2.0332 1.5161 10.3361 10.3361 0 0 0 1.7227.2071 9.4712 9.4712 0 0 0 1.9814-.1553 15.815 15.815 0 0 0 2.4287-.6548 27.9975 27.9975 0 0 0 3.1016-1.3262q-.4146 1.1031-.7412 1.8775-.3282.7756-.6719 1.4643t-.7754 1.4131q-.4307.723-1.0508 1.688a9.3283 9.3283 0 0 1 -2.7568.9649 21.5641 21.5641 0 0 1 -2.6875.3447 10.9176 10.9176 0 0 1 -4.41-.7754 8.8524 8.8524 0 0 1 -3.2041-2.2222 8.3086 8.3086 0 0 1 -1.8261-3.3769 10.8994 10.8994 0 0 1 -.2754-4.2725 15.6322 15.6322 0 0 1 1.36-4.789 17.4868 17.4868 0 0 1 2.6192-4.0489 16.979 16.979 0 0 1 7.873-5.1167 18.1978 18.1978 0 0 1 2.9805-.6372 25.9583 25.9583 0 0 1 2.9111-.207q1.4121-.0168 2.7051.0864t2.3945.2412q-.5171 1.3785-.8955 2.3086t-.6894 1.7227q-.3107.7932-.6026 1.602t-.7065 1.9815z"/><path d="m179.8305 124.8764q2.4463-2.8594 4.875-5.2715t5.083-4.5825a10.6124 10.6124 0 0 1 2.9453 1.7055 19.7524 19.7524 0 0 1 2.3262 2.2221 66.2844 66.2844 0 0 0 -5.6514 4.4448q-2.6176 2.3086-4.9961 4.5479 1.2071 2.6191 2.6016 5.4961t3.291 6.288q-1.6538.2762-3.5322.7061t-3.5313.9131q-1.31-2.4111-2.55-5.1685t-2.4121-5.5469q-.4819 1.1369-.93 2.4805t-.8613 2.6875q-.4146 1.344-.793 2.6016t-.6894 2.2221q-1.4121-.1369-3.1348-.1376t-3.3076.0688q1.5836-6.27 3.2041-12.3 1.6187-6.0292 3.48-12.2666 1.1031-.0681 2.0674-.1206t1.8955-.0513h1.8779q.9463 0 1.9805.0342-.895 2.6192-1.7227 4.8067-.8261 2.1882-1.5156 4.2205z"/></g></svg>