<svg width="24" height="24" viewBox="0 0 24 24" fill="none" xmlns="http://www.w3.org/2000/svg">
<path d="M4.00407 21.0006C4.08507 21.0006 4.16607 20.9906 4.24607 20.9706L8.24607 19.9706C8.42207 19.9266 8.58308 19.8356 8.71107 19.7076L21.0041 7.41459C21.3821 7.03659 21.5901 6.53459 21.5901 6.00059C21.5901 5.46659 21.3821 4.96459 21.0041 4.58659L19.4181 3.00059C18.6621 2.24459 17.3461 2.24459 16.5901 3.00059L4.29707 15.2936C4.16907 15.4216 4.07807 15.5826 4.03407 15.7576L3.03407 19.7576C2.94807 20.0986 3.04907 20.4586 3.29707 20.7076C3.48607 20.8976 3.74207 21.0006 4.00407 21.0006ZM18.0041 4.41459L19.5901 6.00059L18.0041 7.58659L16.4181 6.00059L18.0041 4.41459ZM5.90707 16.5116L15.0041 7.41459L16.5901 9.00059L7.49207 18.0976L5.37807 18.6256L5.90707 16.5116Z" fill="#B0DAE4"/>
</svg>
