<svg width="51" height="51" viewBox="0 0 51 51" fill="none" xmlns="http://www.w3.org/2000/svg">
<rect width="51" height="51" rx="10" fill="#31C7E0"/>
<path d="M18.623 23.584C19.7967 23.584 20.748 22.6326 20.748 21.459C20.748 20.2854 19.7967 19.334 18.623 19.334C17.4494 19.334 16.498 20.2854 16.498 21.459C16.498 22.6326 17.4494 23.584 18.623 23.584Z" fill="#000000"/>
<path d="M22.873 27.8327L20.748 24.9993L16.498 30.666H20.748H24.998H33.498L27.123 22.166L22.873 27.8327Z" fill="#000000"/>
<path d="M36.332 13.666H13.6654C12.1028 13.666 10.832 14.9368 10.832 16.4993V33.4993C10.832 35.0619 12.1028 36.3327 13.6654 36.3327H36.332C37.8946 36.3327 39.1654 35.0619 39.1654 33.4993V16.4993C39.1654 14.9368 37.8946 13.666 36.332 13.666ZM13.6654 33.4993V16.4993H36.332L36.3349 33.4993H13.6654Z" fill="#000000"/>
</svg>
