<svg height="61.0378mm" viewBox="0 0 265.9782 173.0207" width="93.8312mm" xmlns="http://www.w3.org/2000/svg"><path d="m6.74 54.489 252.766-44.358-17.448 61.737 10.708 56.794-252.766 44.359 3.37-59.266z" fill="#e01e20" fill-rule="evenodd"/><path d="m13.212 44.358 252.766-44.358-17.447 61.737 10.707 56.794-252.766 44.359 3.37-59.266z" fill="#e6322f" fill-rule="evenodd"/><g fill="#fff"><path d="m55.2912 85.3284c.4727.0039 1.0186-.0039 1.6348-.0254s1.2441-.0654 1.8818-.1328q.9551-.1041 1.88-.2656.9228-.1626 1.6885-.3418a8.1168 8.1168 0 0 0 2.7812-1.17 2.5191 2.5191 0 0 0 1.1377-1.5615 1.98 1.98 0 0 0 -.7041-1.6972 7.1694 7.1694 0 0 0 -2.7783-1.5284 14.594 14.594 0 0 1 -4.3213-2.2226 6.9234 6.9234 0 0 1 -2.293-3.7647 6.61 6.61 0 0 1 -.2256-2.4834 8.6534 8.6534 0 0 1 .544-2.3994 9.6014 9.6014 0 0 1 2.0185-3.3183 16.0971 16.0971 0 0 1 3.1592-2.6407 22.8392 22.8392 0 0 1 3.8125-1.9658 34.1656 34.1656 0 0 1 3.8838-1.32 31.37 31.37 0 0 1 4.207-.874q2.0127-.2652 4.2842-.4473l-.6738 9.07a14.8908 14.8908 0 0 0 -1.875.0459 17.2144 17.2144 0 0 0 -2.2666.333 19.6188 19.6188 0 0 0 -2.2168.61 6.94 6.94 0 0 0 -1.7344.832 7.217 7.217 0 0 0 -1.789 2.0039 3.3913 3.3913 0 0 0 -.4483 2.5586 1.8725 1.8725 0 0 0 .8672 1.252 8.2625 8.2625 0 0 0 1.6807.8437 18.8534 18.8534 0 0 0 1.9043.6094 8.16 8.16 0 0 1 1.5371.54q.7777.39 1.6006.7705a8.5821 8.5821 0 0 1 1.5126.8975 4.4052 4.4052 0 0 1 1.1293 1.227 3.5371 3.5371 0 0 1 .4853 1.7148 5.5624 5.5624 0 0 1 -.1348 1.4707 8.1834 8.1834 0 0 1 -.45 1.44 12.0653 12.0653 0 0 1 -3.8349 4.4267 21.9068 21.9068 0 0 1 -5.5166 2.8379 32.677 32.677 0 0 1 -6.2422 1.5156 39.2888 39.2888 0 0 1 -6.0156.4248z"/><path d="m95.4064 53.3362a12.73 12.73 0 0 1 5.9619.1328 9.8079 9.8079 0 0 1 4.39 2.6074 11.3705 11.3705 0 0 1 2.63 4.6475 19.0873 19.0873 0 0 1 .7324 6.2988 24.8166 24.8166 0 0 1 -1.3105 7.2539 20.54 20.54 0 0 1 -3.2227 5.9854 18.2881 18.2881 0 0 1 -4.9731 4.388 18.915 18.915 0 0 1 -6.5683 2.4072 10.8792 10.8792 0 0 1 -5.5518-.3164 9.8123 9.8123 0 0 1 -4.1513-2.7559 12.8291 12.8291 0 0 1 -2.587-4.6572 18.7586 18.7586 0 0 1 -.8593-6.0137 23.5249 23.5249 0 0 1 1.2433-7.635 19.4291 19.4291 0 0 1 3.295-5.9571 17.7765 17.7765 0 0 1 4.9023-4.1543 19.3573 19.3573 0 0 1 6.0691-2.2314zm-.5693 10.1475a5.7148 5.7148 0 0 0 -2.5271 1.1045 7.95 7.95 0 0 0 -1.8848 2.0869 10.9814 10.9814 0 0 0 -1.2178 2.7168 12.91 12.91 0 0 0 -.5274 2.9881 7.5535 7.5535 0 0 0 .1992 2.7081 6.82 6.82 0 0 0 1.0215 2.2324 4.3884 4.3884 0 0 0 1.6767 1.4385 3.3029 3.3029 0 0 0 2.1905.2285 5.5685 5.5685 0 0 0 2.3-1.13 9.99 9.99 0 0 0 1.9707-2.1026 11.44 11.44 0 0 0 1.4121-2.749 11.6214 11.6214 0 0 0 .6572-3.1211 9.3711 9.3711 0 0 0 -.2353-2.79 5.9926 5.9926 0 0 0 -.9883-2.1729 3.7606 3.7606 0 0 0 -1.6927-1.2819 4.4066 4.4066 0 0 0 -2.3545-.1563z"/><path d="m111.0344 83.0969q.8758-7.7006 1.61-15.5752t1.8936-15.9765q.8115-.4073 2.0517-.91 1.2378-.5038 2.6563-.9951 1.4194-.4893 2.9209-.8877a25.83 25.83 0 0 1 2.8838-.5957q.7807-.0922 1.69-.2109c.6074-.0762 1.2392-.13 1.8994-.1592a16.1918 16.1918 0 0 1 2.002.043 9.7691 9.7691 0 0 1 1.9472.3593 7.6921 7.6921 0 0 1 3.3633 2.1944 8.6846 8.6846 0 0 1 1.9774 4.5867 12.7513 12.7513 0 0 1 .0947 3.7353 12.4206 12.4206 0 0 1 -1.0879 3.8116 13.3906 13.3906 0 0 1 -2.4424 3.5459 15.742 15.742 0 0 1 -3.92 2.9726c.2979.5029.6514 1.1153 1.06 1.832s.86 1.4942 1.35 2.3292 1.0058 1.6943 1.5488 2.5791 1.0683 1.75 1.5752 2.5966q-1.2466.22-2.3418.4131t-2.1612.4238q-1.0664.233-2.1708.4932-1.1075.2607-2.293.5567-.6138-.9463-1.3135-2.0059-.7-1.062-1.3867-2.169t-1.3438-2.1767q-.6576-1.0694-1.1767-1.9873c-.1143.02-.28.043-.4971.0664a1.3683 1.3683 0 0 1 -.4209.0078q-.3339 1.5968-.6133 2.873-.28 1.2789-.5009 2.3917-.2213 1.1146-.4571 2.1425-.2358 1.03-.4736 2.168c-.55.0684-1.1611.16-1.834.2793s-1.3594.2471-2.0576.3857q-1.0488.2052-2.0928.4336-1.0457.2286-1.9392.4287zm10.5615-17.92a11.702 11.702 0 0 0 3.624-.7929 5.61 5.61 0 0 0 2.5078-1.8243 6.9367 6.9367 0 0 0 1.0557-2.1386 6.2574 6.2574 0 0 0 .2861-2.3536 3.2551 3.2551 0 0 0 -.7383-1.8886 2.3391 2.3391 0 0 0 -2.0088-.7 6.6839 6.6839 0 0 0 -1.8251.3222 7.2014 7.2014 0 0 0 -1.9766.9629q-.2345 2.1476-.4619 4.2071-.2288 2.0579-.4629 4.2059z"/><path d="m139.7687 78.0335q.8775-7.6992 1.6114-15.5752.7323-7.8736 1.8925-15.9766.8116-.4057 2.0518-.9092 1.2378-.5038 2.6572-.9951t2.92-.8887a26.0624 26.0624 0 0 1 2.8838-.5957q.7808-.0923 1.69-.21.9111-.1158 1.8994-.1592a15.8044 15.8044 0 0 1 2.0019.043 9.77 9.77 0 0 1 1.9473.3593 7.6991 7.6991 0 0 1 3.3633 2.1934 8.6769 8.6769 0 0 1 1.9765 4.5879 12.7478 12.7478 0 0 1 .0948 3.7353 12.4542 12.4542 0 0 1 -1.0869 3.8116 13.4126 13.4126 0 0 1 -2.4434 3.5449 15.73 15.73 0 0 1 -3.9189 2.9726q.4452.7559 1.06 1.8321t1.3486 2.3291q.7355 1.2538 1.5489 2.58t1.5761 2.597q-1.2466.22-2.3409.4121t-2.1621.4248c-.7109.1553-1.4345.3174-2.1709.4932q-1.1059.2593-2.2929.5557-.6123-.9448-1.3135-2.0049-.7-1.0635-1.3867-2.17t-1.3438-2.1758q-.6578-1.0708-1.1767-1.9883c-.1143.02-.28.044-.4971.0664a1.3733 1.3733 0 0 1 -.42.0088q-.334 1.5953-.6143 2.873t-.5 2.3907q-.2213 1.1162-.457 2.1435-.2373 1.03-.4746 2.168-.8247.1026-1.834.2783-1.0094.1788-2.0567.3858-1.05.2065-2.0937.4345-1.0459.227-1.9394.4277zm10.5616-17.92a11.6684 11.6684 0 0 0 3.624-.7929 5.602 5.602 0 0 0 2.5078-1.8233 6.9613 6.9613 0 0 0 1.0557-2.1386 6.261 6.261 0 0 0 .2871-2.3536 3.2593 3.2593 0 0 0 -.7393-1.89 2.3408 2.3408 0 0 0 -2.0078-.6992 6.72 6.72 0 0 0 -1.8262.3213 7.2136 7.2136 0 0 0 -1.9756.9638q-.2358 2.1461-.4629 4.2061t-.4631 4.2064z"/><path d="m193.7121 36.9358q-1.4532 4.2495-2.8389 8.2441-1.3872 3.9991-2.7656 8.0362-1.38 4.0386-2.8057 8.3047-1.4282 4.267-3.0029 9.0644-2.3423.28-4.3574.6572t-3.96.8956q.5172-1.8018 1.1172-4.0147t1.3112-4.6633a4.7336 4.7336 0 0 1 -1.1308.2442 4.36 4.36 0 0 0 -1.0869.2343q-.4453-1.2378-1.21-3.6484-.7647-2.4082-1.6279-5.4834-.8613-3.0717-1.7754-6.5537-.9141-3.48-1.6387-6.7764 1.05-.3163 2.2637-.5957t2.458-.499q1.2465-.22 2.46-.3672 1.2143-.1494 2.2675-.2031.1186 1.6464.3721 3.4228.252 1.7784.5732 3.5635t.6993 3.5186q.3764 1.7343.789 3.2841.5112-1.8456 1.1094-3.8154t1.1582-3.9121q.5581-1.9423 1.1025-3.7275t1.0293-3.2754a40.3528 40.3528 0 0 1 4.7676-1.2129q2.2928-.4246 4.722-.7215z"/><path d="m25.2521 135.2981c.4727.0029 1.0186-.0039 1.6348-.0254s1.2441-.0664 1.8818-.1338 1.2637-.1572 1.88-.2656 1.1787-.2217 1.6885-.3408a8.1188 8.1188 0 0 0 2.7812-1.17 2.5186 2.5186 0 0 0 1.1377-1.5616 1.9824 1.9824 0 0 0 -.7041-1.6982 7.1839 7.1839 0 0 0 -2.7783-1.5273 14.6425 14.6425 0 0 1 -4.3213-2.2227 6.923 6.923 0 0 1 -2.2929-3.7646 6.6157 6.6157 0 0 1 -.2256-2.4844 8.6682 8.6682 0 0 1 .5439-2.3994 9.6142 9.6142 0 0 1 2.0186-3.3174 16.0252 16.0252 0 0 1 3.1592-2.6406 22.84 22.84 0 0 1 3.8125-1.9659 34.1643 34.1643 0 0 1 3.8837-1.32 31.3713 31.3713 0 0 1 4.2071-.874q2.0127-.2652 4.2842-.4473l-.6739 9.07a14.8688 14.8688 0 0 0 -1.875.045 17.54 17.54 0 0 0 -2.2666.333 19.8166 19.8166 0 0 0 -2.2168.6113 6.916 6.916 0 0 0 -1.7334.832 7.2061 7.2061 0 0 0 -1.79 2.0039 3.3923 3.3923 0 0 0 -.4483 2.5586 1.8745 1.8745 0 0 0 .8672 1.252 8.3636 8.3636 0 0 0 1.6807.8437 18.8615 18.8615 0 0 0 1.9043.6094 8.0842 8.0842 0 0 1 1.5371.54q.7779.3881 1.6006.77a8.5823 8.5823 0 0 1 1.5127.8964 4.3965 4.3965 0 0 1 1.1289 1.2276 3.5357 3.5357 0 0 1 .4853 1.7139 5.551 5.551 0 0 1 -.1347 1.4707 8.213 8.213 0 0 1 -.45 1.44 12.0647 12.0647 0 0 1 -3.835 4.4267 21.933 21.933 0 0 1 -5.5166 2.8379 32.6847 32.6847 0 0 1 -6.2422 1.5157 39.4405 39.4405 0 0 1 -6.0156.4248z"/><path d="m65.3674 103.3059a12.7191 12.7191 0 0 1 5.9619.1328 9.8079 9.8079 0 0 1 4.39 2.6055 11.3926 11.3926 0 0 1 2.63 4.6484 19.1168 19.1168 0 0 1 .7334 6.3 24.8382 24.8382 0 0 1 -1.3115 7.253 20.5338 20.5338 0 0 1 -3.2227 5.9863 18.2674 18.2674 0 0 1 -4.9726 4.3867 18.8968 18.8968 0 0 1 -6.5684 2.4082 10.89 10.89 0 0 1 -5.5517-.3164 9.8118 9.8118 0 0 1 -4.1514-2.7558 12.8464 12.8464 0 0 1 -2.5869-4.6573 18.7652 18.7652 0 0 1 -.8594-6.0136 23.5411 23.5411 0 0 1 1.2432-7.6348 19.4155 19.4155 0 0 1 3.2949-5.957 17.7835 17.7835 0 0 1 4.9033-4.1553 19.3415 19.3415 0 0 1 6.0679-2.2307zm-.5694 10.1475a5.72 5.72 0 0 0 -2.5273 1.1045 7.9338 7.9338 0 0 0 -1.8848 2.0869 10.9963 10.9963 0 0 0 -1.2178 2.7158 12.9351 12.9351 0 0 0 -.5273 2.9883 7.5542 7.5542 0 0 0 .1992 2.708 6.8172 6.8172 0 0 0 1.0215 2.2334 4.3952 4.3952 0 0 0 1.6768 1.4385 3.3081 3.3081 0 0 0 2.19.2275 5.5519 5.5519 0 0 0 2.3-1.1289 9.9662 9.9662 0 0 0 1.9707-2.1025 11.435 11.435 0 0 0 1.4121-2.7491 11.6215 11.6215 0 0 0 .6572-3.121 9.3685 9.3685 0 0 0 -.2353-2.79 5.9759 5.9759 0 0 0 -.9883-2.1728 3.76 3.76 0 0 0 -1.6924-1.2823 4.4065 4.4065 0 0 0 -2.3543-.1563z"/><path d="m90.26 123.7122q1.03-.1816 2.3936-.4873 1.3623-.3077 2.8262-.6739 1.4619-.3677 2.8955-.7744 1.434-.4043 2.6142-.7451-.4218 2.0933-.9111 4.1768a44.35 44.35 0 0 1 -1.248 4.2773q-2.1681.5142-4.5362 1.0195t-4.6592.9522q-2.2895.4482-4.373.8144t-3.63.64q.2563-3.9946.5547-7.8867t.6563-7.8174q.3573-3.9228.791-7.9277t1.0381-8.2784a49.71 49.71 0 0 1 5.0224-1.5215q2.3569-.57 5.1211-.9678-.8818 3.9726-1.5332 7.2471-.6532 3.2739-1.1621 6.2382-.5083 2.9619-.9541 5.7852-.4468 2.821-.9062 5.9295z"/><path d="m102.99 128.2258q.3443-4.0092.6719-7.7324.3281-3.7206.707-7.4082.378-3.6855.8281-7.4736.45-3.7851 1.07-7.9775a25.8137 25.8137 0 0 1 3.57-1.7042 23.1134 23.1134 0 0 1 3.9717-1.2041 30.1566 30.1566 0 0 1 4.6884-.541 12.0915 12.0915 0 0 1 4.3389.5967 9.2823 9.2823 0 0 1 3.626 2.3008 10.9859 10.9859 0 0 1 2.5429 4.5322 17.7894 17.7894 0 0 1 .7832 4.9737 21.5732 21.5732 0 0 1 -.5341 5.163 22.4368 22.4368 0 0 1 -1.75 4.9366 19.0089 19.0089 0 0 1 -2.8262 4.2509 19.3014 19.3014 0 0 1 -6.1533 4.5938 29.637 29.637 0 0 1 -7.7334 2.459 25.7181 25.7181 0 0 1 -4.1807.4092 28.071 28.071 0 0 1 -3.6204-.1749zm8.9678-8.2939a8.52 8.52 0 0 0 3.99-1.7119 11.1307 11.1307 0 0 0 2.8614-3.3125 13.3915 13.3915 0 0 0 1.5341-4.2852 12.9227 12.9227 0 0 0 .01-4.6308 5.373 5.373 0 0 0 -.6445-1.8614 3.5979 3.5979 0 0 0 -.9942-1.0976 2.9637 2.9637 0 0 0 -1.1963-.4912 4.6418 4.6418 0 0 0 -1.248-.043 5.4259 5.4259 0 0 0 -1.2139.2793 6.49 6.49 0 0 0 -1.0879.4775q-.6006 4.0548-1.03 8.32-.4306 4.269-.9803 8.3568z"/><path d="m155.4816 87.428a12.7165 12.7165 0 0 1 5.9619.1328 9.8087 9.8087 0 0 1 4.39 2.6055 11.3931 11.3931 0 0 1 2.63 4.6484 19.1224 19.1224 0 0 1 .7334 6.3 24.8007 24.8007 0 0 1 -1.3116 7.2529 20.5328 20.5328 0 0 1 -3.2226 5.9864 18.268 18.268 0 0 1 -4.9727 4.3867 18.8963 18.8963 0 0 1 -6.5683 2.4082 10.89 10.89 0 0 1 -5.5518-.3164 9.8194 9.8194 0 0 1 -4.1514-2.7559 12.8451 12.8451 0 0 1 -2.5869-4.6572 18.7627 18.7627 0 0 1 -.8593-6.0137 23.5477 23.5477 0 0 1 1.2431-7.6347 19.4193 19.4193 0 0 1 3.2949-5.9571 17.7867 17.7867 0 0 1 4.9034-4.1552 19.3254 19.3254 0 0 1 6.0679-2.2307zm-.5693 10.1475a5.72 5.72 0 0 0 -2.5274 1.1044 7.9372 7.9372 0 0 0 -1.8847 2.087 10.9814 10.9814 0 0 0 -1.2178 2.7168 12.91 12.91 0 0 0 -.5273 2.9882 7.5462 7.5462 0 0 0 .1992 2.7071 6.83 6.83 0 0 0 1.0215 2.2343 4.4 4.4 0 0 0 1.6767 1.4375 3.3085 3.3085 0 0 0 2.19.2286 5.5685 5.5685 0 0 0 2.3-1.13 9.9913 9.9913 0 0 0 1.9716-2.1026 11.47 11.47 0 0 0 1.4112-2.749 11.6214 11.6214 0 0 0 .6572-3.1211 9.3678 9.3678 0 0 0 -.2354-2.79 5.9831 5.9831 0 0 0 -.9882-2.1729 3.7558 3.7558 0 0 0 -1.6924-1.2822 4.3968 4.3968 0 0 0 -2.3542-.1561z"/><path d="m183.2668 83.98q-.334 2.3408-.7285 5.1962-.3956 2.858-.7285 5.8116t-.5958 5.8086q-.2622 2.8565-.38 5.1572a2.4127 2.4127 0 0 0 .2265 1.3867 1.4446 1.4446 0 0 0 .71.62 2.0512 2.0512 0 0 0 .9512.1182c.35-.0313.6806-.0762.9961-.1318a11.3961 11.3961 0 0 0 1.5371-.4454 3.2388 3.2388 0 0 0 1.0966-.6777 3.02 3.02 0 0 0 .7168-1.0684 6.9305 6.9305 0 0 0 .4024-1.5859q.3545-2.21.665-5.0527.3077-2.84.53-5.7989t.3769-5.7929q.1568-2.833.2315-5.13 2.7525-.7032 4.9043-1.0625 2.1519-.356 4.4658-.5449-.2226 2.4535-.4287 5.2529-.2065 2.8023-.457 5.72-.252 2.9179-.5528 5.8018-.3031 2.8842-.6826 5.4521a21.0977 21.0977 0 0 1 -1.4746 5.7227 9.7978 9.7978 0 0 1 -2.6367 3.58 11.57 11.57 0 0 1 -3.9434 2.1 41.6259 41.6259 0 0 1 -5.3545 1.2715 17.092 17.092 0 0 1 -3.8261.28 9.41 9.41 0 0 1 -3.0127-.61 5.0021 5.0021 0 0 1 -2.2608-1.7295 7.3469 7.3469 0 0 1 -1.11-2.4815 12.1987 12.1987 0 0 1 -.34-2.88q-.0059-1.5132.042-2.97.1232-2.5239.3653-5.2422t.5254-5.3359q.2841-2.6176.5947-4.9541t.5136-4.1719q2.3658-.6357 4.5967-1.0517a40.524 40.524 0 0 1 4.0648-.5616z"/><path d="m202.2023 80.1165q2.5386-.6651 5.3506-1.293t5.7217-1.2061q2.9091-.5771 5.8594-1.0546 2.9487-.4761 5.8154-.8047-.2754 2.4185-.5039 4.7177t-.3125 4.5528q-1.5191.1817-3.2188.458t-3.4472.6728q-.2975 2.7746-.64 5.6856-.34 2.9121-.6738 5.8672t-.6484 5.8847q-.315 2.93-.5362 5.6455a38.7682 38.7682 0 0 0 -4.125.5948q-2.1621.4248-4.0644.9355.1949-2.6235.37-5.4619.1773-2.84.335-5.7861t.3359-5.8955q.1787-2.9488.42-5.8008-1.6464.2051-3.3965.5762-1.7505.375-3.3672.748-.0379-2.1885.1094-4.4512a34.2161 34.2161 0 0 1 .6165-4.5849z"/><path d="m230.8449 98.4583a4.5878 4.5878 0 0 1 1.8438.0263 3.7452 3.7452 0 0 1 1.4736.6836 3.366 3.366 0 0 1 .9707 1.2119 3.3029 3.3029 0 0 1 .2988 1.6592 5.1166 5.1166 0 0 1 -.45 1.8115 5.701 5.701 0 0 1 -1.0654 1.5928 6.1292 6.1292 0 0 1 -1.5791 1.1983 6.2577 6.2577 0 0 1 -1.8965.664 4.409 4.409 0 0 1 -3.415-.7578 3.32 3.32 0 0 1 -1.3086-2.8428 4.71 4.71 0 0 1 .4922-1.8193 6.3349 6.3349 0 0 1 1.13-1.6035 6.6025 6.6025 0 0 1 1.5791-1.1992 5.49 5.49 0 0 1 1.9264-.625zm-3.3125-1.1719q-.0836-1.6949-.1123-3.709-.0308-2.0142.0147-4.1064t.1191-4.1446q.0747-2.0552.209-3.8994t.2939-3.2978q.1582-1.4547.35-2.3672a24.629 24.629 0 0 1 5.1871-1.462q2.71-.4527 5.1534-.666-.9435 2.8857-1.7413 5.9667t-1.457 6.0723q-.6591 2.9883-1.1748 5.669t-.8594 4.7148a31.6036 31.6036 0 0 0 -3.15.4678 26.8331 26.8331 0 0 0 -2.8324.7618z"/></g></svg>