<svg width="18" height="17" viewBox="0 0 18 17" fill="none" xmlns="http://www.w3.org/2000/svg">
<path d="M15.666 4.0013H13.166V2.33464C13.166 1.41547 12.4185 0.667969 11.4993 0.667969H6.49935C5.58018 0.667969 4.83268 1.41547 4.83268 2.33464V4.0013H2.33268C1.41352 4.0013 0.666016 4.7488 0.666016 5.66797V14.8346C0.666016 15.7538 1.41352 16.5013 2.33268 16.5013H15.666C16.5852 16.5013 17.3327 15.7538 17.3327 14.8346V5.66797C17.3327 4.7488 16.5852 4.0013 15.666 4.0013ZM12.3327 5.66797V14.8346H5.66602V5.66797H12.3327ZM11.4993 2.33464V4.0013H6.49935V2.33464H11.4993ZM2.33268 5.66797H3.99935V14.8346H2.33268V5.66797ZM13.9993 14.8346V5.66797H15.666L15.6668 14.8346H13.9993Z" fill="#B0DAE4"/>
</svg>
